# Blender v2.79 (sub 0) OBJ File: 'boulder0.blend'
# www.blender.org
mtllib boulder0.mtl
o Icosphere
v 0.000000 -0.161467 0.000000
v 0.723600 -0.080735 0.525720
v -0.276385 -0.080735 0.850640
v -0.894425 -0.080735 0.000000
v -0.276385 -0.080735 -0.850640
v 0.723600 -0.080735 -0.525720
v 0.276385 0.447215 0.533814
v -0.400352 0.447215 0.345343
v -0.459578 0.447215 -0.384432
v 0.276385 0.447215 -0.450835
v 0.471905 0.447215 0.000000
v 0.000000 0.713348 0.000000
vt 0.091998 0.969099
vt 0.091998 0.969099
vt 0.091998 0.969099
vt 0.091998 0.969099
vt 0.091998 0.969099
vt 0.091998 0.969099
vt 0.091998 0.969099
vt 0.091998 0.969099
vt 0.091998 0.969099
vt 0.091998 0.969099
vt 0.091998 0.969099
vt 0.091998 0.969099
vn 0.0343 -0.9938 0.1055
vn 0.1109 -0.9938 0.0000
vn -0.0897 -0.9938 0.0652
vn -0.0897 -0.9938 -0.0652
vn 0.0343 -0.9938 -0.1055
vn 0.9027 0.4303 0.0000
vn 0.3000 0.2400 0.9233
vn -0.7581 0.3492 0.5508
vn -0.7870 0.2318 -0.5718
vn 0.2872 0.3687 -0.8840
vn 0.7368 0.6200 0.2699
vn -0.2035 0.6516 0.7307
vn -0.7483 0.6606 0.0607
vn -0.0685 0.6469 -0.7595
vn 0.7047 0.6403 -0.3056
vn 0.4835 0.8573 0.1771
vn -0.1388 0.8557 0.4985
vn -0.5272 0.8486 0.0428
vn -0.0478 0.8471 -0.5293
vn 0.4804 0.8519 -0.2084
usemtl None
s off
f 1/1/1 2/2/1 3/3/1
f 2/2/2 1/1/2 6/4/2
f 1/1/3 3/3/3 4/5/3
f 1/1/4 4/5/4 5/6/4
f 1/1/5 5/6/5 6/4/5
f 2/2/6 6/4/6 11/7/6
f 3/3/7 2/2/7 7/8/7
f 4/5/8 3/3/8 8/9/8
f 5/6/9 4/5/9 9/10/9
f 6/4/10 5/6/10 10/11/10
f 2/2/11 11/7/11 7/8/11
f 3/3/12 7/8/12 8/9/12
f 4/5/13 8/9/13 9/10/13
f 5/6/14 9/10/14 10/11/14
f 6/4/15 10/11/15 11/7/15
f 7/8/16 11/7/16 12/12/16
f 8/9/17 7/8/17 12/12/17
f 9/10/18 8/9/18 12/12/18
f 10/11/19 9/10/19 12/12/19
f 11/7/20 10/11/20 12/12/20
