# Blender v2.79 (sub 0) OBJ File: 'pinecone.blend'
# www.blender.org
mtllib pinecone.mtl
o Icosphere_Icosphere.001
v -0.000000 0.000000 0.000000
v 0.044504 0.039647 0.032333
v -0.016999 0.039647 0.052317
v -0.055009 0.039647 0.000000
v -0.016999 0.039647 -0.052317
v 0.044504 0.039647 -0.032333
v 0.012239 0.103547 0.037668
v -0.032042 0.103547 0.023280
v -0.032042 0.103547 -0.023280
v 0.012239 0.103547 -0.037668
v 0.039607 0.103546 -0.000000
v -0.000000 0.140481 0.000000
v -0.012049 0.010935 0.037084
v 0.031546 0.010935 0.022919
v 0.016167 0.033208 0.049756
v 0.052317 0.033208 0.000000
v 0.031546 0.010935 -0.022919
v -0.038993 0.010935 0.000000
v -0.042325 0.033208 0.030751
v -0.012049 0.010935 -0.037084
v -0.042325 0.033208 -0.030751
v 0.016167 0.033208 -0.049756
v 0.049931 0.070481 0.016223
v 0.049931 0.070481 -0.016223
v -0.000000 0.070481 0.052500
v 0.030859 0.070481 0.042473
v -0.049931 0.070481 0.016223
v -0.030859 0.070481 0.042473
v -0.030859 0.070481 -0.042473
v -0.049931 0.070481 -0.016223
v 0.030859 0.070481 -0.042473
v -0.000000 0.070481 -0.052500
v 0.030474 0.108182 0.022141
v -0.011640 0.108182 0.035824
v -0.037668 0.108182 -0.000000
v -0.011640 0.108182 -0.035824
v 0.030474 0.108182 -0.022141
v 0.007194 0.127366 0.022141
v 0.023280 0.127366 -0.000000
v -0.018834 0.127366 0.013684
v -0.018834 0.127366 -0.013684
v 0.007194 0.127366 -0.022141
vt 0.031841 0.655020
vt 0.031841 0.655020
vt 0.031841 0.655020
vt 0.031841 0.655020
vt 0.031841 0.655020
vt 0.031841 0.655020
vt 0.031841 0.655020
vt 0.031841 0.655020
vt 0.092830 0.657490
vt 0.092830 0.657490
vt 0.092830 0.657490
vt 0.092830 0.657490
vt 0.092830 0.657490
vt 0.092830 0.657490
vt 0.092830 0.657490
vt 0.092830 0.657490
vt 0.092830 0.657490
vt 0.092830 0.657490
vt 0.092830 0.657490
vt 0.092830 0.657490
vt 0.092830 0.657490
vt 0.092830 0.657490
vt 0.092830 0.657490
vt 0.031841 0.655020
vt 0.031841 0.655020
vt 0.031841 0.655020
vt 0.031841 0.655020
vt 0.031841 0.655020
vt 0.031841 0.655020
vt 0.031841 0.655020
vt 0.031841 0.655020
vt 0.031841 0.655020
vt 0.031841 0.655020
vt 0.031841 0.655020
vt 0.031841 0.655020
vt 0.031841 0.655020
vt 0.031841 0.655020
vt 0.092830 0.657490
vt 0.092830 0.657490
vt 0.092830 0.657490
vt 0.092830 0.657490
vt 0.092830 0.657490
vt 0.092830 0.657490
vt 0.092830 0.657490
vt 0.092830 0.657490
vt 0.092830 0.657490
vt 0.092830 0.657490
vt 0.092830 0.657490
vt 0.092830 0.657490
vt 0.092830 0.657490
vt 0.092830 0.657490
vt 0.092830 0.657490
vt 0.092830 0.657490
vt 0.031841 0.655020
vt 0.031841 0.655020
vt 0.031841 0.655020
vt 0.031841 0.655020
vt 0.031841 0.655020
vt 0.031841 0.655020
vt 0.031841 0.655020
vt 0.031841 0.655020
vt 0.031841 0.655020
vt 0.031841 0.655020
vt 0.031841 0.655020
vt 0.092830 0.657490
vt 0.031841 0.655020
vt 0.092830 0.657490
vt 0.031841 0.655020
vt 0.092830 0.657490
vt 0.031841 0.655020
vt 0.092830 0.657490
vt 0.031841 0.655020
vt 0.092830 0.657490
vt 0.031841 0.655020
vt 0.031841 0.655020
vt 0.031841 0.655020
vt 0.031841 0.655020
vt 0.092830 0.657490
vt 0.092830 0.657490
vt 0.092830 0.657490
vt 0.092830 0.657490
vt 0.092830 0.657490
vn 0.1012 -0.9448 0.3115
vn 0.8310 -0.4717 0.2947
vn -0.2650 -0.9448 0.1925
vn -0.2650 -0.9448 -0.1925
vn 0.1012 -0.9448 -0.3115
vn 0.9691 -0.0437 0.2429
vn 0.0685 -0.0437 0.9967
vn -0.9268 -0.0437 0.3731
vn -0.6412 -0.0437 -0.7661
vn 0.5305 -0.0437 -0.8466
vn 0.7983 0.1625 0.5800
vn -0.3049 0.1625 0.9384
vn -0.9867 0.1625 0.0000
vn -0.3049 0.1625 -0.9384
vn 0.7983 0.1625 -0.5800
vn 0.4548 0.5519 0.6989
vn -0.5242 0.5519 0.6485
vn -0.7788 0.5519 -0.2981
vn 0.0429 0.5519 -0.8328
vn 0.8053 0.5519 -0.2166
vn 0.4623 0.8206 -0.3359
vn 0.5773 0.7006 -0.4194
vn 0.4548 0.5519 -0.6989
vn -0.1766 0.8206 -0.5435
vn -0.2205 0.7006 -0.6787
vn -0.5242 0.5519 -0.6485
vn -0.5714 0.8206 0.0000
vn -0.7136 0.7006 0.0000
vn -0.7788 0.5519 0.2981
vn -0.1766 0.8206 0.5435
vn -0.2205 0.7006 0.6787
vn 0.0429 0.5519 0.8328
vn 0.4623 0.8206 0.3359
vn 0.5773 0.7006 0.4194
vn 0.8053 0.5519 0.2166
vn 0.8714 0.4067 -0.2743
vn 0.7693 0.3093 -0.5590
vn 0.5302 0.4067 -0.7440
vn 0.0084 0.4067 -0.9135
vn -0.2939 0.3093 -0.9044
vn -0.5438 0.4067 -0.7341
vn -0.8662 0.4067 -0.2903
vn -0.9510 0.3093 0.0000
vn -0.8662 0.4067 0.2903
vn -0.5438 0.4067 0.7341
vn -0.2939 0.3093 0.9044
vn 0.0084 0.4067 0.9135
vn 0.5302 0.4067 0.7440
vn 0.7693 0.3093 0.5590
vn 0.8714 0.4067 0.2743
vn 0.2950 0.2980 -0.9078
vn 0.3084 0.0639 -0.9491
vn 0.0685 -0.0437 -0.9967
vn -0.7723 0.2980 -0.5611
vn -0.8074 0.0639 -0.5866
vn -0.9268 -0.0437 -0.3731
vn -0.7723 0.2980 0.5611
vn -0.8074 0.0639 0.5866
vn -0.6412 -0.0437 0.7661
vn 0.2950 0.2980 0.9078
vn 0.3084 0.0639 0.9491
vn 0.5305 -0.0437 0.8466
vn 0.9546 0.2980 0.0000
vn 0.9980 0.0639 0.0000
vn 0.9691 -0.0437 -0.2429
vn 0.5371 -0.4717 -0.6993
vn 0.2260 -0.6820 -0.6955
vn -0.0235 -0.4717 -0.8814
vn -0.4991 -0.4717 -0.7269
vn -0.5917 -0.6820 -0.4299
vn -0.8456 -0.4717 -0.2500
vn -0.8456 -0.4717 0.2500
vn -0.5917 -0.6820 0.4299
vn -0.4991 -0.4717 0.7269
vn 0.8310 -0.4717 -0.2947
vn 0.7313 -0.6820 0.0000
vn 0.3275 -0.9448 0.0000
vn -0.0235 -0.4717 0.8814
vn 0.2260 -0.6820 0.6955
vn 0.5371 -0.4717 0.6993
usemtl None
s off
f 1/1/1 14/2/1 13/3/1
f 2/4/2 14/2/2 16/5/2
f 1/1/3 13/3/3 18/6/3
f 1/1/4 18/6/4 20/7/4
f 1/1/5 20/7/5 17/8/5
f 2/9/6 16/10/6 23/11/6
f 3/12/7 15/13/7 25/14/7
f 4/15/8 19/16/8 27/17/8
f 5/18/9 21/19/9 29/20/9
f 6/21/10 22/22/10 31/23/10
f 2/4/11 23/24/11 26/25/11
f 3/26/12 25/27/12 28/28/12
f 4/29/13 27/30/13 30/31/13
f 5/32/14 29/33/14 32/34/14
f 6/35/15 31/36/15 24/37/15
f 7/38/16 33/39/16 38/40/16
f 8/41/17 34/42/17 40/43/17
f 9/44/18 35/45/18 41/46/18
f 10/47/19 36/48/19 42/49/19
f 11/50/20 37/51/20 39/52/20
f 39/52/21 42/49/21 12/53/21
f 39/54/22 37/55/22 42/56/22
f 37/51/23 10/47/23 42/49/23
f 42/49/24 41/46/24 12/53/24
f 42/56/25 36/57/25 41/58/25
f 36/48/26 9/44/26 41/46/26
f 41/46/27 40/43/27 12/53/27
f 41/58/28 35/59/28 40/60/28
f 35/45/29 8/41/29 40/43/29
f 40/43/30 38/40/30 12/53/30
f 40/60/31 34/61/31 38/62/31
f 34/42/32 7/38/32 38/40/32
f 38/40/33 39/52/33 12/53/33
f 38/62/34 33/63/34 39/54/34
f 33/39/35 11/50/35 39/52/35
f 24/37/36 37/55/36 11/64/36
f 24/65/37 31/23/37 37/51/37
f 31/36/38 10/66/38 37/55/38
f 32/34/39 36/57/39 10/66/39
f 32/67/40 29/20/40 36/48/40
f 29/33/41 9/68/41 36/57/41
f 30/31/42 35/59/42 9/68/42
f 30/69/43 27/17/43 35/45/43
f 27/30/44 8/70/44 35/59/44
f 28/28/45 34/61/45 8/70/45
f 28/71/46 25/14/46 34/42/46
f 25/27/47 7/72/47 34/61/47
f 26/25/48 33/63/48 7/72/48
f 26/73/49 23/11/49 33/39/49
f 23/24/50 11/64/50 33/63/50
f 31/23/51 32/67/51 10/47/51
f 31/36/52 22/74/52 32/34/52
f 22/22/53 5/18/53 32/67/53
f 29/20/54 30/69/54 9/44/54
f 29/33/55 21/75/55 30/31/55
f 21/19/56 4/15/56 30/69/56
f 27/17/57 28/71/57 8/41/57
f 27/30/58 19/76/58 28/28/58
f 19/16/59 3/12/59 28/71/59
f 25/14/60 26/73/60 7/38/60
f 25/27/61 15/77/61 26/25/61
f 15/13/62 2/9/62 26/73/62
f 23/11/63 24/65/63 11/50/63
f 23/24/64 16/5/64 24/37/64
f 16/10/65 6/21/65 24/65/65
f 17/8/66 22/74/66 6/35/66
f 17/78/67 20/79/67 22/22/67
f 20/7/68 5/32/68 22/74/68
f 20/7/69 21/75/69 5/32/69
f 20/79/70 18/80/70 21/19/70
f 18/6/71 4/29/71 21/75/71
f 18/6/72 19/76/72 4/29/72
f 18/80/73 13/81/73 19/16/73
f 13/3/74 3/26/74 19/76/74
f 16/5/75 17/8/75 6/35/75
f 16/10/76 14/82/76 17/78/76
f 14/2/77 1/1/77 17/8/77
f 13/3/78 15/77/78 3/26/78
f 13/81/79 14/82/79 15/13/79
f 14/2/80 2/4/80 15/77/80
