# Blender v2.79 (sub 0) OBJ File: 'pinestraw.blend'
# www.blender.org
mtllib pinestraw.mtl
o Plane
v 0.230249 0.000000 -0.238995
v 0.230923 0.000000 -0.237112
v 0.199009 0.000000 0.099869
v 0.200991 0.000000 0.100131
v 0.199009 0.000000 0.100131
v 0.200991 0.000000 0.099869
v 0.173895 0.000000 -0.098289
v -0.199009 0.000000 0.100131
v -0.200991 0.000000 0.100131
v -0.053614 0.000000 0.145284
v -0.055446 0.000000 0.144525
v -0.066274 0.000000 -0.298289
v 0.000991 0.000000 -0.100131
v -0.000991 0.000000 -0.099869
v 0.000991 0.000000 -0.099869
v -0.287815 0.000000 0.156988
v -0.288123 0.000000 0.158964
v -0.287862 0.000000 0.158970
v 0.212925 0.000000 0.211523
v 0.211523 0.000000 0.212925
v 0.212741 0.000000 0.211339
v 0.053461 0.006907 0.090380
v -0.070102 0.000000 -0.071504
v -0.071319 0.000000 -0.069917
v -0.069917 0.000000 -0.071319
v -0.071504 0.000000 -0.070102
v 0.066169 0.006907 -0.124180
v 0.230016 0.000000 -0.238875
v 0.231155 0.000000 -0.237231
v 0.042298 0.000000 -0.170615
v 0.185889 0.006907 -0.098289
v -0.200991 0.000000 0.099869
v -0.173895 0.000000 -0.098289
v -0.199009 0.000000 0.099869
v -0.226105 0.006907 -0.098289
v -0.055346 0.000000 0.144284
v 0.045520 0.006907 -0.028421
v -0.053514 0.000000 0.145043
v -0.002716 0.000000 -0.048401
v 0.026105 0.006907 -0.298289
v -0.000991 0.000000 -0.100131
v -0.090350 0.000000 0.188742
v -0.288076 0.000000 0.156982
v -0.089121 0.006907 0.079365
v 0.211339 0.000000 0.212741
v 0.090380 0.000000 0.053461
v -0.229381 0.000000 -0.192463
v -0.222625 0.006907 -0.199219
vt 0.646890 0.656198
vt 0.647619 0.656037
vt 0.656890 0.656198
vt 0.646890 0.656198
vt 0.647619 0.656037
vt 0.656890 0.656198
vt 0.654716 0.655874
vt 0.656890 0.656036
vt 0.646890 0.656036
vt 0.646890 0.656198
vt 0.647619 0.656037
vt 0.656890 0.656198
vt 0.654716 0.655874
vt 0.656890 0.656036
vt 0.646890 0.656036
vt 0.646890 0.656198
vt 0.647619 0.656037
vt 0.656890 0.656198
vt 0.654716 0.655874
vt 0.656890 0.656036
vt 0.646890 0.656036
vt 0.654716 0.655874
vt 0.656890 0.656036
vt 0.646890 0.656036
vt 0.646890 0.656198
vt 0.647619 0.656037
vt 0.656890 0.656198
vt 0.646890 0.656198
vt 0.647619 0.656037
vt 0.656890 0.656198
vt 0.654716 0.655874
vt 0.656890 0.656036
vt 0.646890 0.656036
vt 0.646890 0.656198
vt 0.647619 0.656037
vt 0.656890 0.656198
vt 0.654716 0.655874
vt 0.656890 0.656036
vt 0.646890 0.656036
vt 0.654716 0.655874
vt 0.656890 0.656036
vt 0.646890 0.656036
vt 0.646890 0.656198
vt 0.647619 0.656037
vt 0.656890 0.656198
vt 0.654716 0.655874
vt 0.656890 0.656036
vt 0.646890 0.656036
vn 0.0000 1.0000 0.0000
vn -0.0046 0.9994 0.0351
vn 0.0045 0.9994 0.0342
vn -0.0173 0.9994 0.0299
vn -0.0045 0.9994 0.0342
vn -0.0333 0.9994 0.0036
vn 0.0274 0.9994 0.0210
vn 0.0216 0.9994 0.0282
vn 0.0284 0.9994 -0.0197
usemtl None
s off
f 2/1/1 1/2/1 30/3/1
f 3/4/2 4/5/2 31/6/2
f 5/7/1 6/8/1 7/9/1
f 32/10/1 8/11/1 33/12/1
f 9/13/3 34/14/3 35/15/3
f 36/16/4 10/17/4 37/18/4
f 11/19/1 38/20/1 39/21/1
f 14/22/1 13/23/1 12/24/1
f 41/25/5 15/26/5 40/27/5
f 16/28/1 17/29/1 42/30/1
f 43/31/6 18/32/6 44/33/6
f 45/34/1 19/35/1 46/36/1
f 20/37/7 21/38/7 22/39/7
f 24/40/1 23/41/1 47/42/1
f 26/43/8 25/44/8 48/45/8
f 29/46/9 28/47/9 27/48/9
