# Blender v2.79 (sub 0) OBJ File: 'stone1.blend'
# www.blender.org
mtllib stone1.mtl
o Icosphere
v -0.001057 0.000061 0.004169
v 0.060233 0.016711 0.047353
v 0.003541 0.023961 0.069044
v -0.075666 0.032473 0.002480
v -0.033968 0.023232 -0.073613
v 0.042207 0.033220 -0.029749
v 0.023975 0.065571 0.045434
v -0.040879 0.075055 0.041229
v -0.056448 0.079229 -0.041835
v 0.010575 0.073059 -0.057572
v 0.045559 0.070905 0.005891
v -0.004564 0.094909 0.002270
vt 0.091434 0.965999
vt 0.091434 0.965999
vt 0.091434 0.965999
vt 0.091434 0.965999
vt 0.091434 0.965999
vt 0.091434 0.965999
vt 0.091434 0.965999
vt 0.091434 0.965999
vt 0.091434 0.965999
vt 0.091434 0.965999
vt 0.091434 0.965999
vt 0.091434 0.965999
vn 0.0119 -0.9386 0.3449
vn 0.4328 -0.8555 -0.2844
vn -0.3808 -0.8586 0.3433
vn -0.3942 -0.9130 -0.1052
vn 0.3408 -0.8517 -0.3979
vn 0.9730 0.1069 -0.2046
vn 0.3740 0.3119 0.8734
vn -0.6453 -0.1537 0.7483
vn -0.8781 -0.0853 -0.4708
vn 0.5085 -0.1837 -0.8412
vn 0.7052 0.5413 0.4579
vn 0.0148 0.4880 0.8727
vn -0.8363 0.5169 0.1827
vn -0.1677 0.4348 -0.8848
vn 0.8265 0.3463 -0.4439
vn 0.3886 0.8609 0.3283
vn 0.0908 0.8505 0.5181
vn -0.3770 0.9188 0.1168
vn 0.0063 0.9398 -0.3416
vn 0.4346 0.8758 -0.2099
usemtl None
s off
f 1/1/1 2/2/1 3/3/1
f 2/2/2 1/1/2 6/4/2
f 1/1/3 3/3/3 4/5/3
f 1/1/4 4/5/4 5/6/4
f 1/1/5 5/6/5 6/4/5
f 2/2/6 6/4/6 11/7/6
f 3/3/7 2/2/7 7/8/7
f 4/5/8 3/3/8 8/9/8
f 5/6/9 4/5/9 9/10/9
f 6/4/10 5/6/10 10/11/10
f 2/2/11 11/7/11 7/8/11
f 3/3/12 7/8/12 8/9/12
f 4/5/13 8/9/13 9/10/13
f 5/6/14 9/10/14 10/11/14
f 6/4/15 10/11/15 11/7/15
f 7/8/16 11/7/16 12/12/16
f 8/9/17 7/8/17 12/12/17
f 9/10/18 8/9/18 12/12/18
f 10/11/19 9/10/19 12/12/19
f 11/7/20 10/11/20 12/12/20
