# Blender v2.79 (sub 0) OBJ File: 'stone3.blend'
# www.blender.org
mtllib stone3.mtl
o Icosphere
v -0.000178 0.000866 0.019980
v 0.047647 0.021425 0.047353
v -0.004540 0.026821 0.075382
v -0.056924 0.010182 0.025800
v -0.043741 0.007577 -0.045978
v 0.042207 0.012762 -0.029749
v 0.011822 0.048751 0.060576
v -0.038528 0.053314 0.053228
v -0.049472 0.041310 -0.028505
v 0.011369 0.031789 -0.045204
v 0.046160 0.051069 0.010417
v 0.001927 0.072213 0.023849
vt 0.091434 0.965999
vt 0.091434 0.965999
vt 0.091434 0.965999
vt 0.091434 0.965999
vt 0.091434 0.965999
vt 0.091434 0.965999
vt 0.091434 0.965999
vt 0.091434 0.965999
vt 0.091434 0.965999
vt 0.091434 0.965999
vt 0.091434 0.965999
vt 0.091434 0.965999
vn 0.1382 -0.8926 0.4291
vn 0.3549 -0.9315 0.0796
vn -0.1058 -0.9036 0.4150
vn -0.1614 -0.9869 0.0062
vn 0.0894 -0.9832 -0.1590
vn 0.9972 -0.0330 -0.0666
vn 0.4792 0.2167 0.8505
vn -0.6394 -0.1994 0.7425
vn -0.9813 -0.0748 -0.1775
vn 0.1930 -0.4109 -0.8910
vn 0.6389 0.6123 0.4657
vn -0.0639 0.5907 0.8044
vn -0.9333 0.3514 0.0734
vn -0.1760 0.4290 -0.8860
vn 0.6187 0.5372 -0.5732
vn 0.4899 0.7886 0.3718
vn -0.0023 0.8424 0.5388
vn -0.4623 0.8841 -0.0679
vn -0.0038 0.8628 -0.5056
vn 0.2655 0.8474 -0.4598
usemtl None
s off
f 1/1/1 2/2/1 3/3/1
f 2/2/2 1/1/2 6/4/2
f 1/1/3 3/3/3 4/5/3
f 1/1/4 4/5/4 5/6/4
f 1/1/5 5/6/5 6/4/5
f 2/2/6 6/4/6 11/7/6
f 3/3/7 2/2/7 7/8/7
f 4/5/8 3/3/8 8/9/8
f 5/6/9 4/5/9 9/10/9
f 6/4/10 5/6/10 10/11/10
f 2/2/11 11/7/11 7/8/11
f 3/3/12 7/8/12 8/9/12
f 4/5/13 8/9/13 9/10/13
f 5/6/14 9/10/14 10/11/14
f 6/4/15 10/11/15 11/7/15
f 7/8/16 11/7/16 12/12/16
f 8/9/17 7/8/17 12/12/17
f 9/10/18 8/9/18 12/12/18
f 10/11/19 9/10/19 12/12/19
f 11/7/20 10/11/20 12/12/20
