# Blender v2.79 (sub 0) OBJ File: 'stone2.blend'
# www.blender.org
mtllib stone2.mtl
o Icosphere
v -0.001057 0.001068 0.004169
v 0.047647 0.042890 0.047353
v 0.002271 0.027551 0.069337
v -0.054250 0.021897 -0.009337
v -0.034728 0.036872 -0.046113
v 0.042207 0.034227 -0.029749
v 0.011832 0.070206 0.060567
v -0.038528 0.074779 0.053228
v -0.049472 0.062775 -0.028505
v 0.010655 0.074710 -0.054719
v 0.046160 0.072534 0.010417
v 0.001927 0.093678 0.023849
vt 0.091434 0.965999
vt 0.091434 0.965999
vt 0.091434 0.965999
vt 0.091434 0.965999
vt 0.091434 0.965999
vt 0.091434 0.965999
vt 0.091434 0.965999
vt 0.091434 0.965999
vt 0.091434 0.965999
vt 0.091434 0.965999
vt 0.091434 0.965999
vt 0.091434 0.965999
vn 0.4386 -0.8402 0.3190
vn 0.6287 -0.7764 0.0429
vn -0.4180 -0.8340 0.3603
vn -0.2179 -0.8580 -0.4651
vn 0.1058 -0.7752 -0.6228
vn 0.9972 -0.0330 -0.0666
vn 0.4077 0.0953 0.9081
vn -0.7170 -0.4331 0.5462
vn -0.8502 -0.1388 -0.5078
vn 0.1757 -0.4139 -0.8932
vn 0.6389 0.6123 0.4657
vn -0.1204 0.2257 0.9667
vn -0.9805 0.1648 0.1071
vn -0.4314 0.3262 -0.8411
vn 0.8204 0.3713 -0.4348
vn 0.4899 0.7885 0.3719
vn -0.0021 0.8423 0.5390
vn -0.4623 0.8841 -0.0679
vn -0.2940 0.9211 -0.2551
vn 0.3802 0.9078 -0.1769
usemtl None
s off
f 1/1/1 2/2/1 3/3/1
f 2/2/2 1/1/2 6/4/2
f 1/1/3 3/3/3 4/5/3
f 1/1/4 4/5/4 5/6/4
f 1/1/5 5/6/5 6/4/5
f 2/2/6 6/4/6 11/7/6
f 3/3/7 2/2/7 7/8/7
f 4/5/8 3/3/8 8/9/8
f 5/6/9 4/5/9 9/10/9
f 6/4/10 5/6/10 10/11/10
f 2/2/11 11/7/11 7/8/11
f 3/3/12 7/8/12 8/9/12
f 4/5/13 8/9/13 9/10/13
f 5/6/14 9/10/14 10/11/14
f 6/4/15 10/11/15 11/7/15
f 7/8/16 11/7/16 12/12/16
f 8/9/17 7/8/17 12/12/17
f 9/10/18 8/9/18 12/12/18
f 10/11/19 9/10/19 12/12/19
f 11/7/20 10/11/20 12/12/20
