# Blender v2.79 (sub 0) OBJ File: 'stump.blend'
# www.blender.org
mtllib stump.mtl
o Cylinder
v 0.000000 0.000000 -0.250000
v -0.000000 0.980684 -0.111855
v 0.237764 0.000000 -0.077254
v 0.106380 0.899390 -0.034565
v 0.146946 0.000000 0.202254
v 0.065746 0.762742 0.090492
v -0.146946 0.000000 0.202254
v -0.065747 0.871472 0.090492
v -0.237764 0.000000 -0.077254
v -0.106380 0.927279 -0.034565
v -0.000000 0.333333 -0.133433
v -0.000000 0.601488 -0.114264
v 0.108671 0.601488 -0.035309
v 0.126902 0.333333 -0.041233
v 0.067162 0.601488 0.092441
v 0.078430 0.333333 0.107949
v -0.067163 0.601488 0.092441
v -0.078430 0.333333 0.107949
v -0.108671 0.601488 -0.035309
v -0.126902 0.333333 -0.041233
v 0.104493 0.017389 -0.143823
v 0.158127 0.164954 -0.051378
v 0.169074 0.017389 0.054935
v 0.097728 0.164954 0.134511
v -0.000000 0.017389 0.177775
v -0.097728 0.164954 0.134511
v -0.169074 0.017389 0.054935
v -0.158127 0.164954 -0.051379
v -0.104493 0.017389 -0.143823
v -0.000000 0.164954 -0.166264
v -0.058269 0.333333 -0.080200
v -0.094281 0.333333 0.030634
v -0.000000 0.333333 0.099133
v 0.094281 0.333333 0.030634
v 0.058269 0.333333 -0.080200
v 0.062566 0.150990 -0.086114
v 0.101233 0.150990 0.032893
v -0.000000 0.150990 0.106443
v -0.101233 0.150990 0.032893
v -0.062566 0.150990 -0.086114
vt 0.088971 0.650029
vt 0.098971 0.650029
vt 0.098971 0.660029
vt 0.088971 0.660029
vt 0.088971 0.650029
vt 0.098971 0.650029
vt 0.098971 0.660029
vt 0.088971 0.660029
vt 0.088971 0.650029
vt 0.098971 0.650029
vt 0.098971 0.660029
vt 0.088971 0.660029
vt 0.152951 0.652490
vt 0.162951 0.652490
vt 0.162951 0.662490
vt 0.088971 0.650029
vt 0.098971 0.650029
vt 0.098971 0.660029
vt 0.088971 0.660029
vt 0.088971 0.650029
vt 0.098971 0.650029
vt 0.098971 0.660029
vt 0.088971 0.660029
vt 0.093971 0.660029
vt 0.096910 0.659074
vt 0.098726 0.656574
vt 0.098726 0.653484
vt 0.096910 0.650984
vt 0.093971 0.650029
vt 0.091032 0.650984
vt 0.089216 0.653484
vt 0.089216 0.656574
vt 0.091032 0.659074
vt 0.088971 0.650029
vt 0.098971 0.650029
vt 0.098971 0.660029
vt 0.088971 0.660029
vt 0.093971 0.660029
vt 0.098726 0.656574
vt 0.096910 0.650984
vt 0.091032 0.650984
vt 0.089216 0.656574
vt 0.088971 0.650029
vt 0.098971 0.650029
vt 0.098971 0.660029
vt 0.088971 0.660029
vt 0.093971 0.660029
vt 0.098726 0.656574
vt 0.096910 0.650984
vt 0.091032 0.650984
vt 0.089216 0.656574
vt 0.088971 0.650029
vt 0.098971 0.650029
vt 0.098971 0.660029
vt 0.088971 0.660029
vt 0.093971 0.660029
vt 0.098726 0.656574
vt 0.096910 0.650984
vt 0.091032 0.650984
vt 0.089216 0.656574
vt 0.088971 0.650029
vt 0.098971 0.650029
vt 0.098971 0.660029
vt 0.088971 0.660029
vt 0.093971 0.660029
vt 0.098726 0.656574
vt 0.096910 0.650984
vt 0.091032 0.650984
vt 0.089216 0.656574
vt 0.088971 0.650029
vt 0.098971 0.650029
vt 0.098971 0.660029
vt 0.088971 0.660029
vt 0.093971 0.660029
vt 0.098726 0.656574
vt 0.096910 0.650984
vt 0.091032 0.650984
vt 0.089216 0.656574
vt 0.088971 0.650029
vt 0.098971 0.650029
vt 0.098971 0.660029
vt 0.088971 0.660029
vt 0.088971 0.650029
vt 0.098971 0.650029
vt 0.098971 0.660029
vt 0.088971 0.660029
vt 0.088971 0.650029
vt 0.098971 0.650029
vt 0.098971 0.660029
vt 0.088971 0.660029
vt 0.088971 0.650029
vt 0.098971 0.650029
vt 0.098971 0.660029
vt 0.088971 0.660029
vt 0.088971 0.650029
vt 0.098971 0.650029
vt 0.098971 0.660029
vt 0.088971 0.660029
vt 0.088971 0.650029
vt 0.098971 0.650029
vt 0.098971 0.660029
vt 0.088971 0.660029
vt 0.088971 0.650029
vt 0.098971 0.650029
vt 0.098971 0.660029
vt 0.088971 0.660029
vt 0.088971 0.650029
vt 0.098971 0.650029
vt 0.098971 0.660029
vt 0.088971 0.660029
vt 0.088971 0.650029
vt 0.098971 0.650029
vt 0.098971 0.660029
vt 0.088971 0.660029
vt 0.088971 0.650029
vt 0.098971 0.650029
vt 0.098971 0.660029
vt 0.088971 0.660029
vt 0.088971 0.650029
vt 0.098971 0.650029
vt 0.098971 0.660029
vt 0.088971 0.660029
vt 0.088971 0.650029
vt 0.098971 0.650029
vt 0.098971 0.660029
vt 0.088971 0.660029
vt 0.088971 0.650029
vt 0.098971 0.650029
vt 0.098971 0.660029
vt 0.088971 0.660029
vt 0.088971 0.650029
vt 0.098971 0.650029
vt 0.098971 0.660029
vt 0.088971 0.660029
vt 0.088971 0.650029
vt 0.098971 0.650029
vt 0.098971 0.660029
vt 0.088971 0.660029
vt 0.152951 0.652490
vt 0.162951 0.652490
vt 0.152951 0.652490
vt 0.162951 0.652490
vt 0.162951 0.662490
vn 0.5892 0.0058 -0.8080
vn 0.9497 0.0085 0.3132
vn 0.0037 0.0090 1.0000
vn 0.0983 0.7503 0.6538
vn -0.9506 0.0065 0.3103
vn -0.5887 0.0055 -0.8084
vn 0.0000 -1.0000 0.0000
vn -0.7429 0.0825 -0.6643
vn -0.5873 0.0401 -0.8084
vn -0.8614 0.0825 0.5012
vn -0.9503 0.0401 0.3088
vn 0.2105 0.0825 0.9741
vn -0.0000 0.0401 0.9992
vn 0.9915 0.0825 0.1008
vn 0.9503 0.0401 0.3088
vn 0.4023 0.0825 -0.9118
vn 0.5873 0.0401 -0.8084
vn 0.3778 0.3890 -0.8402
vn 0.6823 0.3890 -0.6189
vn 0.7429 0.0825 -0.6643
vn 0.9158 0.3890 0.0997
vn 0.7995 0.3890 0.4577
vn 0.8614 0.0825 0.5012
vn 0.1882 0.3890 0.9018
vn -0.1882 0.3890 0.9018
vn -0.2105 0.0825 0.9741
vn -0.7995 0.3890 0.4577
vn -0.9158 0.3890 0.0997
vn -0.9915 0.0825 0.1008
vn -0.6823 0.3890 -0.6189
vn -0.3778 0.3890 -0.8402
vn -0.4023 0.0825 -0.9118
vn 0.1207 0.9205 0.3716
vn 0.4397 0.5317 0.7239
usemtl None
s off
f 12/1/1 2/2/1 4/3/1 13/4/1
f 13/5/2 4/6/2 6/7/2 15/8/2
f 15/9/3 6/10/3 8/11/3 17/12/3
f 2/13/4 10/14/4 4/15/4
f 17/16/5 8/17/5 10/18/5 19/19/5
f 19/20/6 10/21/6 2/22/6 12/23/6
f 1/24/7 21/25/7 3/26/7 23/27/7 5/28/7 25/29/7 7/30/7 27/31/7 9/32/7 29/33/7
f 40/34/8 31/35/8 11/36/8 30/37/8
f 20/38/9 19/39/9 12/40/9 11/41/9 31/42/9
f 39/43/10 32/44/10 20/45/10 28/46/10
f 18/47/11 17/48/11 19/49/11 20/50/11 32/51/11
f 38/52/12 33/53/12 18/54/12 26/55/12
f 16/56/13 15/57/13 17/58/13 18/59/13 33/60/13
f 37/61/14 34/62/14 16/63/14 24/64/14
f 14/65/15 13/66/15 15/67/15 16/68/15 34/69/15
f 36/70/16 35/71/16 14/72/16 22/73/16
f 11/74/17 12/75/17 13/76/17 14/77/17 35/78/17
f 21/79/18 36/80/18 22/81/18 3/82/18
f 1/83/19 30/84/19 36/85/19 21/86/19
f 30/87/20 11/88/20 35/89/20 36/90/20
f 23/91/21 37/92/21 24/93/21 5/94/21
f 3/95/22 22/96/22 37/97/22 23/98/22
f 22/99/23 14/100/23 34/101/23 37/102/23
f 25/103/24 38/104/24 26/105/24 7/106/24
f 5/107/25 24/108/25 38/109/25 25/110/25
f 24/111/26 16/112/26 33/113/26 38/114/26
f 27/115/27 39/116/27 28/117/27 9/118/27
f 7/119/28 26/120/28 39/121/28 27/122/28
f 26/123/29 18/124/29 32/125/29 39/126/29
f 29/127/30 40/128/30 30/129/30 1/130/30
f 9/131/31 28/132/31 40/133/31 29/134/31
f 28/135/32 20/136/32 31/137/32 40/138/32
f 10/139/33 8/140/33 4/15/33
f 6/141/34 4/142/34 8/143/34
