# Blender v2.79 (sub 0) OBJ File: 'cave.blend'
# www.blender.org
mtllib cave.mtl
o Plane_Plane.001
v -1.000000 1.000000 1.000000
v 1.000000 0.000000 1.000000
v -1.000000 1.000000 -1.000000
v 1.000000 1.000000 -1.000000
v 0.000000 0.000000 0.000000
vt 0.032555 0.656738
vt 0.032555 0.656738
vt 0.032555 0.656738
vt 0.032555 0.656738
vt 0.032555 0.656738
vn 0.7071 0.7071 0.0000
vn 0.0000 0.7071 0.7071
vn -0.4082 0.8165 0.4082
vn 0.4082 0.8165 -0.4082
usemtl None
s off
f 3/1/1 1/2/1 5/3/1
f 3/1/2 5/3/2 4/4/2
f 5/3/3 2/5/3 4/4/3
f 2/5/4 5/3/4 1/2/4
