# Blender v2.79 (sub 0) OBJ File: 'horizon.blend'
# www.blender.org
mtllib horizon.mtl
o Cylinder
v 0.000000 -0.500000 -1.000000
v 0.000000 0.500000 -1.000000
v 0.707107 -0.500000 -0.707107
v 0.707107 0.500000 -0.707107
v 1.000000 -0.500000 0.000000
v 1.000000 0.500000 0.000000
v 0.707107 -0.500000 0.707107
v 0.707107 0.500000 0.707107
v -0.000000 -0.500000 1.000000
v -0.000000 0.500000 1.000000
v -0.707107 -0.500000 0.707107
v -0.707107 0.500000 0.707107
v -1.000000 -0.500000 -0.000000
v -1.000000 0.500000 -0.000000
v -0.707107 -0.500000 -0.707107
v -0.707107 0.500000 -0.707107
vt 0.249750 0.004004
vt 0.125250 0.004004
vt 0.125250 0.995996
vt 0.249750 0.995996
vt 0.124750 0.004004
vt 0.000250 0.004004
vt 0.000250 0.995996
vt 0.124750 0.995996
vt 0.999750 0.004004
vt 0.875250 0.004004
vt 0.875250 0.995996
vt 0.999750 0.995996
vt 0.874750 0.004004
vt 0.750250 0.004004
vt 0.750250 0.995996
vt 0.874750 0.995996
vt 0.749750 0.004004
vt 0.625250 0.004004
vt 0.625250 0.995996
vt 0.749750 0.995996
vt 0.624750 0.004004
vt 0.500250 0.004004
vt 0.500250 0.995996
vt 0.624750 0.995996
vt 0.499750 0.004004
vt 0.375250 0.004004
vt 0.375250 0.995996
vt 0.499750 0.995996
vt 0.374750 0.004004
vt 0.250250 0.004004
vt 0.250250 0.995996
vt 0.374750 0.995996
vn -0.3827 0.0000 0.9239
vn -0.9239 0.0000 0.3827
vn -0.9239 0.0000 -0.3827
vn -0.3827 0.0000 -0.9239
vn 0.3827 0.0000 -0.9239
vn 0.9239 0.0000 -0.3827
vn 0.9239 0.0000 0.3827
vn 0.3827 0.0000 0.9239
usemtl None
s off
f 1/1/1 3/2/1 4/3/1 2/4/1
f 3/5/2 5/6/2 6/7/2 4/8/2
f 5/9/3 7/10/3 8/11/3 6/12/3
f 7/13/4 9/14/4 10/15/4 8/16/4
f 9/17/5 11/18/5 12/19/5 10/20/5
f 11/21/6 13/22/6 14/23/6 12/24/6
f 13/25/7 15/26/7 16/27/7 14/28/7
f 15/29/8 1/30/8 2/31/8 16/32/8
