# Blender v2.79 (sub 0) OBJ File: 'side_0.blend'
# www.blender.org
mtllib side_0.mtl
o Plane
v -50.000000 0.000000 50.000000
v 50.000000 0.000000 50.000000
v -50.000000 10.000000 -50.000000
v 50.000000 10.000000 -50.000000
v -50.000000 7.500000 -40.000000
v -50.000000 5.000000 -30.000000
v -50.000000 2.500000 -20.000000
v -50.000000 1.000000 -10.000000
v -50.000000 0.000000 0.000000
v -50.000000 0.000000 10.000000
v -50.000000 0.000000 20.000000
v -50.000000 0.000000 30.000000
v -50.000000 0.000000 40.000000
v 50.000000 0.000000 40.000000
v 50.000000 0.000000 30.000000
v 50.000000 0.000000 20.000000
v 50.000000 0.000000 10.000000
v 50.000000 0.000000 0.000000
v 50.000000 1.000000 -10.000000
v 50.000000 2.500000 -20.000000
v 50.000000 5.000000 -30.000000
v 50.000000 7.500000 -40.000000
v -40.000000 0.000000 50.000000
v -30.000000 0.000000 50.000000
v -20.000000 0.000000 50.000000
v -10.000000 0.000000 50.000000
v 0.000000 0.000000 50.000000
v 10.000000 0.000000 50.000000
v 20.000000 0.000000 50.000000
v 30.000000 0.000000 50.000000
v 40.000000 0.000000 50.000000
v 40.000000 10.000000 -50.000000
v 30.000000 10.000000 -50.000000
v 20.000000 10.000000 -50.000000
v 10.000000 10.000000 -50.000000
v 0.000000 10.000000 -50.000000
v -10.000000 10.000000 -50.000000
v -20.000000 10.000000 -50.000000
v -30.000000 10.000000 -50.000000
v -40.000000 10.000000 -50.000000
v 40.000000 0.000000 40.000000
v 30.000000 0.573957 40.000000
v 20.000000 0.496637 40.000000
v 10.000000 0.495530 40.000000
v 0.000000 0.000000 40.000000
v -10.000000 0.000000 40.000000
v -20.000000 -1.218189 40.000000
v -30.000000 -0.301988 40.000000
v -40.000000 0.000000 40.000000
v 40.000000 0.232064 30.000000
v 30.000000 1.154118 30.000000
v 20.000000 1.466664 30.000000
v 10.000000 1.075617 30.000000
v 0.000000 0.503057 30.000000
v -10.000000 -0.200118 30.000000
v -20.000000 -1.574679 30.000000
v -30.000000 -1.337019 30.000000
v -40.000000 0.000000 30.000000
v 40.000000 0.000000 20.000000
v 30.000000 1.004830 20.000000
v 20.000000 1.311180 20.000000
v 10.000000 2.083931 20.000000
v 0.000000 1.480162 20.000000
v -10.000000 -0.499926 20.000000
v -20.000000 -1.574679 20.000000
v -30.000000 -2.087876 20.000000
v -40.000000 -0.180964 20.000000
v 40.000000 0.000000 10.000000
v 30.000000 0.249391 10.000000
v 20.000000 0.991920 10.000000
v 10.000000 2.524239 10.000000
v 0.000000 2.432027 10.000000
v -10.000000 0.667072 10.000000
v -20.000000 -1.574679 10.000000
v -30.000000 -2.338372 10.000000
v -40.000000 -0.832781 10.000000
v 40.000000 0.000000 0.000000
v 30.000000 0.000000 0.000000
v 20.000000 0.811953 0.000000
v 10.000000 2.500700 0.000000
v 0.000000 3.293422 0.000000
v -10.000000 1.593071 0.000000
v -20.000000 -1.038116 0.000000
v -30.000000 -2.270471 0.000000
v -40.000000 -1.574679 0.000000
v 40.000000 1.000000 -10.000000
v 30.000000 1.000000 -10.000000
v 20.000000 1.481765 -10.000000
v 10.000000 2.584824 -10.000000
v 0.000000 3.564900 -10.000000
v -10.000000 2.584824 -10.000000
v -20.000000 -0.204761 -10.000000
v -30.000000 -1.069960 -10.000000
v -40.000000 -0.574679 -10.000000
v 40.000000 2.500000 -20.000000
v 30.000000 2.096504 -20.000000
v 20.000000 2.045137 -20.000000
v 10.000000 3.575611 -20.000000
v 0.000000 3.869512 -20.000000
v -10.000000 3.214572 -20.000000
v -20.000000 2.101179 -20.000000
v -30.000000 0.925321 -20.000000
v -40.000000 0.925321 -20.000000
v 40.000000 5.000000 -30.000000
v 30.000000 3.761855 -30.000000
v 20.000000 3.838218 -30.000000
v 10.000000 4.664298 -30.000000
v 0.000000 5.000000 -30.000000
v -10.000000 5.000000 -30.000000
v -20.000000 5.000000 -30.000000
v -30.000000 3.843130 -30.000000
v -40.000000 3.425321 -30.000000
v 40.000000 7.500000 -40.000000
v 30.000000 7.004471 -40.000000
v 20.000000 6.569467 -40.000000
v 10.000000 7.087059 -40.000000
v 0.000000 7.500000 -40.000000
v -10.000000 7.500000 -40.000000
v -20.000000 7.500000 -40.000000
v -30.000000 7.500000 -40.000000
v -40.000000 7.500000 -40.000000
vt 0.096949 0.648819
vt 0.096949 0.648819
vt 0.096949 0.648819
vt 0.096949 0.648819
vt 0.096949 0.648819
vt 0.096949 0.648819
vt 0.096949 0.648819
vt 0.096949 0.648819
vt 0.096949 0.648819
vt 0.096949 0.648819
vt 0.096949 0.648819
vt 0.096949 0.648819
vt 0.096949 0.648819
vt 0.096949 0.648819
vt 0.096949 0.648819
vt 0.096949 0.648819
vt 0.096949 0.648819
vt 0.096949 0.648819
vt 0.096949 0.648819
vt 0.096949 0.648819
vt 0.096949 0.648819
vt 0.096949 0.648819
vt 0.096949 0.648819
vt 0.096949 0.648819
vt 0.096949 0.648819
vt 0.096949 0.648819
vt 0.096949 0.648819
vt 0.096949 0.648819
vt 0.096949 0.648819
vt 0.096949 0.648819
vt 0.096949 0.648819
vt 0.096949 0.648819
vt 0.096949 0.648819
vt 0.096949 0.648819
vt 0.096949 0.648819
vt 0.096949 0.648819
vt 0.096949 0.648819
vt 0.096949 0.648819
vt 0.096949 0.648819
vt 0.096949 0.648819
vt 0.096949 0.648819
vt 0.096949 0.648819
vt 0.096949 0.648819
vt 0.096949 0.648819
vt 0.096949 0.648819
vt 0.096949 0.648819
vt 0.096949 0.648819
vt 0.096949 0.648819
vt 0.096949 0.648819
vt 0.096949 0.648819
vt 0.096949 0.648819
vt 0.096949 0.648819
vt 0.096949 0.648819
vt 0.096949 0.648819
vt 0.096949 0.648819
vt 0.096949 0.648819
vt 0.096949 0.648819
vt 0.096949 0.648819
vt 0.096949 0.648819
vt 0.096949 0.648819
vt 0.096949 0.648819
vt 0.096949 0.648819
vt 0.096949 0.648819
vt 0.096949 0.648819
vt 0.096949 0.648819
vt 0.096949 0.648819
vt 0.096949 0.648819
vt 0.096949 0.648819
vt 0.096949 0.648819
vt 0.096949 0.648819
vt 0.096949 0.648819
vt 0.096949 0.648819
vt 0.096949 0.648819
vt 0.096949 0.648819
vt 0.096949 0.648819
vt 0.096949 0.648819
vt 0.096949 0.648819
vt 0.096949 0.648819
vt 0.096949 0.648819
vt 0.096949 0.648819
vt 0.096949 0.648819
vt 0.096949 0.648819
vt 0.096949 0.648819
vt 0.096949 0.648819
vt 0.096949 0.648819
vt 0.096949 0.648819
vt 0.096949 0.648819
vt 0.096949 0.648819
vt 0.096949 0.648819
vt 0.096949 0.648819
vt 0.096949 0.648819
vt 0.096949 0.648819
vt 0.096949 0.648819
vt 0.096949 0.648819
vt 0.096949 0.648819
vt 0.096949 0.648819
vt 0.096949 0.648819
vt 0.096949 0.648819
vt 0.096949 0.648819
vt 0.096949 0.648819
vt 0.096949 0.648819
vt 0.096949 0.648819
vt 0.096949 0.648819
vt 0.096949 0.648819
vt 0.096949 0.648819
vt 0.096949 0.648819
vt 0.096949 0.648819
vt 0.096949 0.648819
vt 0.096949 0.648819
vt 0.096949 0.648819
vt 0.096949 0.648819
vt 0.096949 0.648819
vt 0.096949 0.648819
vt 0.096949 0.648819
vt 0.096949 0.648819
vt 0.096949 0.648819
vt 0.096949 0.648819
vt 0.096949 0.648819
vt 0.096949 0.648819
vt 0.096949 0.648819
vt 0.096949 0.648819
vn 0.0000 0.9701 0.2425
vn 0.0000 1.0000 0.0000
vn 0.0000 0.9997 0.0232
vn 0.0232 0.9995 -0.0232
vn 0.0000 0.9950 0.0995
vn 0.0000 0.9889 0.1483
vn 0.1510 0.9590 0.2398
vn -0.0387 0.9254 0.3771
vn -0.1080 0.9337 0.3414
vn 0.0326 0.9696 0.2424
vn 0.0800 0.9688 0.2347
vn 0.0074 0.9646 0.2635
vn -0.1170 0.9447 0.3063
vn -0.1122 0.9539 0.2783
vn -0.1063 0.9550 0.2768
vn -0.0643 0.9824 0.1754
vn 0.0292 0.9932 0.1123
vn 0.1504 0.9828 0.1070
vn -0.0051 0.9843 0.1765
vn -0.0398 0.9856 0.1641
vn 0.1539 0.9772 0.1466
vn 0.0489 0.9878 0.1482
vn -0.0845 0.9772 0.1950
vn -0.2623 0.9403 0.2168
vn -0.0973 0.9933 0.0626
vn 0.0975 0.9948 0.0303
vn 0.1091 0.9892 0.0980
vn 0.0480 0.9973 0.0562
vn 0.0000 0.9940 0.1090
vn 0.1548 0.9830 0.0983
vn 0.0691 0.9927 0.0993
vn -0.1215 0.9855 0.1183
vn -0.2536 0.9640 0.0803
vn -0.1668 0.9812 0.0973
vn 0.0790 0.9965 0.0271
vn 0.1665 0.9860 0.0083
vn 0.0807 0.9945 0.0666
vn 0.0830 0.9966 0.0000
vn 0.1485 0.9862 -0.0732
vn -0.0761 0.9971 0.0068
vn -0.2184 0.9744 0.0523
vn -0.1731 0.9807 0.0908
vn -0.0092 0.9963 0.0858
vn 0.1515 0.9885 -0.0023
vn 0.0740 0.9971 -0.0179
vn 0.0249 0.9994 -0.0249
vn 0.0181 0.9998 0.0000
vn 0.1869 0.9803 -0.0639
vn -0.0512 0.9984 -0.0250
vn -0.1069 0.9943 0.0000
vn -0.1930 0.9746 0.1137
vn -0.0600 0.9937 0.0946
vn 0.0770 0.9961 0.0439
vn 0.0306 0.9990 -0.0319
vn 0.0997 0.9922 -0.0750
vn 0.1325 0.9910 -0.0179
vn 0.0237 0.9969 -0.0749
vn -0.1362 0.9907 0.0000
vn -0.0701 0.9971 -0.0299
vn -0.0569 0.9936 0.0971
vn -0.0389 0.9942 0.1002
vn 0.0312 0.9994 -0.0155
vn 0.0918 0.9957 -0.0149
vn 0.0302 0.9995 0.0000
vn 0.0908 0.9906 -0.1025
vn -0.1208 0.9920 -0.0354
vn 0.0000 0.9998 -0.0200
vn -0.0494 0.9975 0.0502
vn -0.0001 0.9983 0.0579
vn -0.0077 0.9953 0.0965
vn 0.0572 0.9967 0.0578
vn 0.0000 0.9995 -0.0302
vn 0.0000 0.9927 -0.1209
vn 0.0000 0.9988 0.0495
vn 0.0000 0.9988 0.0496
vn 0.0000 0.9984 0.0573
vn 0.0400 0.9694 0.2423
vn 0.0496 0.9589 0.2793
vn -0.0411 0.9451 0.3242
vn -0.0474 0.9569 0.2866
vn 0.0232 0.9997 0.0000
vn 0.0000 0.9261 0.3773
vn 0.0000 0.9392 0.3434
vn 0.0401 0.9711 0.2353
vn 0.0499 0.9635 0.2631
vn -0.0413 0.9504 0.3082
vn -0.0480 0.9690 0.2423
vn -0.0401 0.9592 0.2799
vn -0.1104 0.9546 0.2767
vn 0.0000 0.9844 0.1758
vn 0.0000 0.9937 0.1123
vn 0.0334 0.9936 0.1082
vn 0.0810 0.9811 0.1759
vn 0.0075 0.9864 0.1643
vn -0.1193 0.9632 0.2408
vn 0.0000 0.9807 0.1957
vn -0.1138 0.9681 0.2232
vn -0.1104 0.9919 0.0625
vn -0.0653 0.9974 0.0304
vn 0.0292 0.9947 0.0986
vn 0.1511 0.9870 0.0556
vn -0.0051 0.9940 0.1090
vn -0.0399 0.9881 0.1482
vn 0.0491 0.9917 0.1191
vn -0.0859 0.9929 0.0827
vn -0.2675 0.9589 0.0951
vn -0.0975 0.9949 0.0270
vn 0.0975 0.9952 0.0084
vn 0.1094 0.9918 0.0664
vn 0.0479 0.9939 0.0994
vn 0.1551 0.9852 -0.0731
vn 0.0694 0.9976 0.0068
vn -0.1221 0.9911 0.0532
vn -0.2534 0.9632 0.0892
vn -0.1670 0.9823 0.0846
vn 0.0790 0.9969 -0.0023
vn 0.1665 0.9859 -0.0177
vn 0.0809 0.9964 -0.0248
vn 0.0828 0.9945 -0.0648
vn 0.1488 0.9886 -0.0248
vn -0.0761 0.9971 0.0000
vn -0.2173 0.9695 0.1131
vn -0.1731 0.9805 0.0933
vn -0.0092 0.9990 0.0440
vn 0.1514 0.9880 -0.0315
vn 0.0738 0.9944 -0.0751
vn 0.0249 0.9997 0.0000
vn 0.0181 0.9997 -0.0181
vn 0.1868 0.9796 -0.0736
vn -0.0513 0.9987 0.0000
vn -0.1068 0.9938 -0.0298
vn -0.1934 0.9765 0.0954
vn -0.0600 0.9932 0.1001
vn 0.0770 0.9969 -0.0155
vn 0.0306 0.9994 -0.0149
vn 0.1000 0.9947 -0.0231
vn 0.1318 0.9860 -0.1021
vn 0.0237 0.9991 -0.0356
vn -0.1361 0.9905 -0.0198
vn -0.0701 0.9963 0.0501
vn -0.0571 0.9967 0.0578
vn -0.0389 0.9946 0.0965
vn 0.0312 0.9978 0.0579
vn 0.0918 0.9955 0.0231
vn 0.0302 0.9991 -0.0302
vn 0.0906 0.9886 -0.1204
vn -0.1209 0.9927 0.0000
vn -0.0494 0.9976 0.0494
vn -0.0001 0.9988 0.0496
vn -0.0077 0.9983 0.0573
vn 0.0573 0.9984 0.0000
vn 0.0000 0.9601 0.2797
vn 0.0000 0.9459 0.3245
vn 0.0000 0.9579 0.2870
usemtl None
s off
f 22/1/1 32/2/1 113/3/1
f 2/4/2 41/5/2 31/6/2
f 14/7/3 50/8/3 41/5/3
f 15/9/4 59/10/4 50/8/4
f 16/11/2 68/12/2 59/10/2
f 17/13/2 77/14/2 68/12/2
f 18/15/5 86/16/5 77/14/5
f 19/17/6 95/18/6 86/16/6
f 20/19/1 104/20/1 95/18/1
f 21/21/1 113/3/1 104/20/1
f 112/22/7 5/23/7 6/24/7
f 111/25/8 121/26/8 112/22/8
f 110/27/9 120/28/9 111/25/9
f 109/29/1 119/30/1 110/27/1
f 108/31/1 118/32/1 109/29/1
f 107/33/10 117/34/10 108/31/10
f 106/35/11 116/36/11 107/33/11
f 105/37/12 115/38/12 106/35/12
f 104/20/13 114/39/13 105/37/13
f 103/40/7 6/24/7 7/41/7
f 102/42/1 112/22/1 103/40/1
f 101/43/14 111/25/14 102/42/14
f 100/44/15 110/27/15 101/43/15
f 99/45/16 109/29/16 100/44/16
f 98/46/17 108/31/17 99/45/17
f 97/47/18 107/33/18 98/46/18
f 96/48/19 106/35/19 97/47/19
f 95/18/20 105/37/20 96/48/20
f 94/49/21 7/41/21 8/50/21
f 93/51/22 103/40/22 94/49/22
f 92/52/23 102/42/23 93/51/23
f 91/53/24 101/43/24 92/52/24
f 90/54/25 100/44/25 91/53/25
f 89/55/26 99/45/26 90/54/26
f 88/56/27 98/46/27 89/55/27
f 87/57/28 97/47/28 88/56/28
f 86/16/29 96/48/29 87/57/29
f 85/58/30 8/50/30 9/59/30
f 84/60/31 94/49/31 85/58/31
f 83/61/32 93/51/32 84/60/32
f 82/62/33 92/52/33 83/61/33
f 81/63/34 91/53/34 82/62/34
f 80/64/35 90/54/35 81/63/35
f 79/65/36 89/55/36 80/64/36
f 78/66/37 88/56/37 79/65/37
f 77/14/5 87/57/5 78/66/5
f 76/67/38 9/59/38 10/68/38
f 75/69/39 85/58/39 76/67/39
f 74/70/40 84/60/40 75/69/40
f 73/71/41 83/61/41 74/70/41
f 72/72/42 82/62/42 73/71/42
f 71/73/43 81/63/43 72/72/43
f 70/74/44 80/64/44 71/73/44
f 69/75/45 79/65/45 70/74/45
f 68/12/46 78/66/46 69/75/46
f 67/76/47 10/68/47 11/77/47
f 66/78/48 76/67/48 67/76/48
f 65/79/49 75/69/49 66/78/49
f 64/80/50 74/70/50 65/79/50
f 63/81/51 73/71/51 64/80/51
f 62/82/52 72/72/52 63/81/52
f 61/83/53 71/73/53 62/82/53
f 60/84/54 70/74/54 61/83/54
f 59/10/55 69/75/55 60/84/55
f 58/85/2 11/77/2 12/86/2
f 57/87/56 67/76/56 58/85/56
f 56/88/57 66/78/57 57/87/57
f 55/89/58 65/79/58 56/88/58
f 54/90/59 64/80/59 55/89/59
f 53/91/60 63/81/60 54/90/60
f 52/92/61 62/82/61 53/91/61
f 51/93/62 61/83/62 52/92/62
f 50/8/63 60/84/63 51/93/63
f 49/94/2 12/86/2 13/95/2
f 48/96/64 58/85/64 49/94/64
f 47/97/65 57/87/65 48/96/65
f 46/98/66 56/88/66 47/97/66
f 45/99/67 55/89/67 46/98/67
f 44/100/68 54/90/68 45/99/68
f 43/101/69 53/91/69 44/100/69
f 42/102/70 52/92/70 43/101/70
f 41/5/71 51/93/71 42/102/71
f 23/103/2 13/95/2 1/104/2
f 24/105/2 49/94/2 23/103/2
f 25/106/72 48/96/72 24/105/72
f 26/107/73 47/97/73 25/106/73
f 27/108/2 46/98/2 26/107/2
f 28/109/2 45/99/2 27/108/2
f 29/110/74 44/100/74 28/109/74
f 30/111/75 43/101/75 29/110/75
f 31/6/76 42/102/76 30/111/76
f 121/26/1 3/112/1 5/23/1
f 120/28/1 40/113/1 121/26/1
f 119/30/1 39/114/1 120/28/1
f 118/32/1 38/115/1 119/30/1
f 117/34/1 37/116/1 118/32/1
f 116/36/77 36/117/77 117/34/77
f 115/38/78 35/118/78 116/36/78
f 114/39/79 34/119/79 115/38/79
f 113/3/80 33/120/80 114/39/80
f 22/1/1 4/121/1 32/2/1
f 2/4/2 14/7/2 41/5/2
f 14/7/81 15/9/81 50/8/81
f 15/9/2 16/11/2 59/10/2
f 16/11/2 17/13/2 68/12/2
f 17/13/2 18/15/2 77/14/2
f 18/15/5 19/17/5 86/16/5
f 19/17/6 20/19/6 95/18/6
f 20/19/1 21/21/1 104/20/1
f 21/21/1 22/1/1 113/3/1
f 112/22/82 121/26/82 5/23/82
f 111/25/83 120/28/83 121/26/83
f 110/27/1 119/30/1 120/28/1
f 109/29/1 118/32/1 119/30/1
f 108/31/1 117/34/1 118/32/1
f 107/33/84 116/36/84 117/34/84
f 106/35/85 115/38/85 116/36/85
f 105/37/86 114/39/86 115/38/86
f 104/20/87 113/3/87 114/39/87
f 103/40/7 112/22/7 6/24/7
f 102/42/88 111/25/88 112/22/88
f 101/43/89 110/27/89 111/25/89
f 100/44/90 109/29/90 110/27/90
f 99/45/91 108/31/91 109/29/91
f 98/46/92 107/33/92 108/31/92
f 97/47/93 106/35/93 107/33/93
f 96/48/94 105/37/94 106/35/94
f 95/18/95 104/20/95 105/37/95
f 94/49/21 103/40/21 7/41/21
f 93/51/96 102/42/96 103/40/96
f 92/52/97 101/43/97 102/42/97
f 91/53/98 100/44/98 101/43/98
f 90/54/99 99/45/99 100/44/99
f 89/55/100 98/46/100 99/45/100
f 88/56/101 97/47/101 98/46/101
f 87/57/102 96/48/102 97/47/102
f 86/16/103 95/18/103 96/48/103
f 85/58/30 94/49/30 8/50/30
f 84/60/104 93/51/104 94/49/104
f 83/61/105 92/52/105 93/51/105
f 82/62/106 91/53/106 92/52/106
f 81/63/107 90/54/107 91/53/107
f 80/64/108 89/55/108 90/54/108
f 79/65/109 88/56/109 89/55/109
f 78/66/110 87/57/110 88/56/110
f 77/14/5 86/16/5 87/57/5
f 76/67/111 85/58/111 9/59/111
f 75/69/112 84/60/112 85/58/112
f 74/70/113 83/61/113 84/60/113
f 73/71/114 82/62/114 83/61/114
f 72/72/115 81/63/115 82/62/115
f 71/73/116 80/64/116 81/63/116
f 70/74/117 79/65/117 80/64/117
f 69/75/118 78/66/118 79/65/118
f 68/12/2 77/14/2 78/66/2
f 67/76/119 76/67/119 10/68/119
f 66/78/120 75/69/120 76/67/120
f 65/79/121 74/70/121 75/69/121
f 64/80/122 73/71/122 74/70/122
f 63/81/123 72/72/123 73/71/123
f 62/82/124 71/73/124 72/72/124
f 61/83/125 70/74/125 71/73/125
f 60/84/126 69/75/126 70/74/126
f 59/10/127 68/12/127 69/75/127
f 58/85/128 67/76/128 11/77/128
f 57/87/129 66/78/129 67/76/129
f 56/88/130 65/79/130 66/78/130
f 55/89/131 64/80/131 65/79/131
f 54/90/132 63/81/132 64/80/132
f 53/91/133 62/82/133 63/81/133
f 52/92/134 61/83/134 62/82/134
f 51/93/135 60/84/135 61/83/135
f 50/8/136 59/10/136 60/84/136
f 49/94/2 58/85/2 12/86/2
f 48/96/137 57/87/137 58/85/137
f 47/97/138 56/88/138 57/87/138
f 46/98/139 55/89/139 56/88/139
f 45/99/140 54/90/140 55/89/140
f 44/100/141 53/91/141 54/90/141
f 43/101/142 52/92/142 53/91/142
f 42/102/143 51/93/143 52/92/143
f 41/5/144 50/8/144 51/93/144
f 23/103/2 49/94/2 13/95/2
f 24/105/145 48/96/145 49/94/145
f 25/106/146 47/97/146 48/96/146
f 26/107/147 46/98/147 47/97/147
f 27/108/2 45/99/2 46/98/2
f 28/109/148 44/100/148 45/99/148
f 29/110/149 43/101/149 44/100/149
f 30/111/150 42/102/150 43/101/150
f 31/6/151 41/5/151 42/102/151
f 121/26/1 40/113/1 3/112/1
f 120/28/1 39/114/1 40/113/1
f 119/30/1 38/115/1 39/114/1
f 118/32/1 37/116/1 38/115/1
f 117/34/1 36/117/1 37/116/1
f 116/36/152 35/118/152 36/117/152
f 115/38/153 34/119/153 35/118/153
f 114/39/154 33/120/154 34/119/154
f 113/3/1 32/2/1 33/120/1
