# Blender v2.79 (sub 0) OBJ File: 'sidevex.blend'
# www.blender.org
mtllib sidevex.mtl
o Plane_Plane.001
v -1.000000 1.000000 1.000000
v 1.000000 0.000000 1.000000
v -1.000000 1.000000 -1.000000
v 1.000000 0.000000 -1.000000
v 0.000000 1.000000 1.000000
v 0.000000 1.000000 -1.000000
vt 0.032451 0.655694
vt 0.032451 0.655694
vt 0.032451 0.655694
vt 0.032451 0.655694
vt 0.032451 0.655694
vt 0.032451 0.655694
vn 0.7071 0.7071 0.0000
vn 0.0000 1.0000 0.0000
usemtl None
s off
f 6/1/1 5/2/1 4/3/1
f 5/2/1 2/4/1 4/3/1
f 6/1/2 3/5/2 5/2/2
f 1/6/2 5/2/2 3/5/2
