# Blender v2.79 (sub 0) OBJ File: 'tile_0.blend'
# www.blender.org
mtllib tile_0.mtl
o Plane
v -50.000000 0.000000 50.000000
v 50.000000 0.000000 50.000000
v -50.000000 0.000000 -50.000000
v 50.000000 0.000000 -50.000000
v -50.000000 0.000000 -40.000000
v -50.000000 0.000000 -30.000000
v -50.000000 0.000000 -20.000000
v -50.000000 0.000000 -10.000000
v -50.000000 0.000000 0.000000
v -50.000000 0.000000 10.000000
v -50.000000 0.000000 20.000000
v -50.000000 0.000000 30.000000
v -50.000000 0.000000 40.000000
v 50.000000 0.000000 40.000000
v 50.000000 0.000000 30.000000
v 50.000000 0.000000 20.000000
v 50.000000 0.000000 10.000000
v 50.000000 0.000000 0.000000
v 50.000000 0.000000 -10.000000
v 50.000000 0.000000 -20.000000
v 50.000000 0.000000 -30.000000
v 50.000000 0.000000 -40.000000
v -40.000000 0.000000 50.000000
v -30.000000 0.000000 50.000000
v -20.000000 0.000000 50.000000
v -10.000000 0.000000 50.000000
v 0.000000 0.000000 50.000000
v 10.000000 0.000000 50.000000
v 20.000000 0.000000 50.000000
v 30.000000 0.000000 50.000000
v 40.000000 0.000000 50.000000
v 40.000000 0.000000 -50.000000
v 30.000000 0.000000 -50.000000
v 20.000000 0.000000 -50.000000
v 10.000000 0.000000 -50.000000
v 0.000000 0.000000 -50.000000
v -10.000000 0.000000 -50.000000
v -20.000000 0.000000 -50.000000
v -30.000000 0.000000 -50.000000
v -40.000000 0.000000 -50.000000
v 40.000000 0.000000 40.000000
v 30.000000 0.000000 40.000000
v 20.000000 0.000000 40.000000
v 10.000000 0.000000 40.000000
v 0.000000 0.000000 40.000000
v -10.000000 0.000000 40.000000
v -20.000000 -0.779385 40.000000
v -30.000000 -0.481955 40.000000
v -40.000000 -0.296104 40.000000
v 40.000000 0.000000 30.000000
v 30.000000 1.031215 30.000000
v 20.000000 1.916860 30.000000
v 10.000000 1.727449 30.000000
v 0.000000 0.949091 30.000000
v -10.000000 0.000000 30.000000
v -20.000000 -0.741617 30.000000
v -30.000000 -1.111467 30.000000
v -40.000000 -0.920345 30.000000
v 40.000000 0.000000 20.000000
v 30.000000 1.595726 20.000000
v 20.000000 2.665552 20.000000
v 10.000000 2.665552 20.000000
v 0.000000 1.031215 20.000000
v -10.000000 0.000000 20.000000
v -20.000000 -0.324243 20.000000
v -30.000000 0.000000 20.000000
v -40.000000 0.000000 20.000000
v 40.000000 0.000000 10.000000
v 30.000000 1.397688 10.000000
v 20.000000 2.665552 10.000000
v 10.000000 2.268322 10.000000
v 0.000000 1.031215 10.000000
v -10.000000 0.000000 10.000000
v -20.000000 0.000000 10.000000
v -30.000000 0.808809 10.000000
v -40.000000 0.678161 10.000000
v 40.000000 0.000000 0.000000
v 30.000000 1.031215 0.000000
v 20.000000 1.584288 0.000000
v 10.000000 1.031215 0.000000
v 0.000000 0.000000 0.000000
v -10.000000 0.000000 0.000000
v -20.000000 1.031215 0.000000
v -30.000000 1.845096 0.000000
v -40.000000 1.287595 0.000000
v 40.000000 0.000000 -10.000000
v 30.000000 0.000000 -10.000000
v 20.000000 -0.863511 -10.000000
v 10.000000 -1.397909 -10.000000
v 0.000000 -0.936315 -10.000000
v -10.000000 0.000000 -10.000000
v -20.000000 1.602201 -10.000000
v -30.000000 2.328340 -10.000000
v -40.000000 1.565272 -10.000000
v 40.000000 0.415413 -20.000000
v 30.000000 0.946626 -20.000000
v 20.000000 -0.763080 -20.000000
v 10.000000 -1.940200 -20.000000
v 0.000000 -1.293732 -20.000000
v -10.000000 0.000000 -20.000000
v -20.000000 1.544298 -20.000000
v -30.000000 2.640659 -20.000000
v -40.000000 1.461749 -20.000000
v 40.000000 0.946626 -30.000000
v 30.000000 1.791141 -30.000000
v 20.000000 0.430380 -30.000000
v 10.000000 -0.915350 -30.000000
v 0.000000 -0.816918 -30.000000
v -10.000000 0.578127 -30.000000
v -20.000000 1.949406 -30.000000
v -30.000000 2.265406 -30.000000
v -40.000000 1.662480 -30.000000
v 40.000000 0.000000 -40.000000
v 30.000000 1.031215 -40.000000
v 20.000000 1.031215 -40.000000
v 10.000000 0.310301 -40.000000
v 0.000000 0.000000 -40.000000
v -10.000000 0.675510 -40.000000
v -20.000000 1.031215 -40.000000
v -30.000000 1.031215 -40.000000
v -40.000000 1.031215 -40.000000
vt 0.096949 0.651919
vt 0.096949 0.651919
vt 0.096949 0.651919
vt 0.096949 0.651919
vt 0.096949 0.651919
vt 0.096949 0.651919
vt 0.096949 0.651919
vt 0.096949 0.651919
vt 0.096949 0.651919
vt 0.096949 0.651919
vt 0.096949 0.651919
vt 0.096949 0.651919
vt 0.096949 0.651919
vt 0.096949 0.651919
vt 0.096949 0.651919
vt 0.096949 0.651919
vt 0.096949 0.651919
vt 0.096949 0.651919
vt 0.096949 0.651919
vt 0.096949 0.651919
vt 0.096949 0.651919
vt 0.096949 0.651919
vt 0.096949 0.651919
vt 0.096949 0.651919
vt 0.096949 0.651919
vt 0.096949 0.651919
vt 0.096949 0.651919
vt 0.096949 0.651919
vt 0.096949 0.651919
vt 0.096949 0.651919
vt 0.096949 0.651919
vt 0.096949 0.651919
vt 0.096949 0.651919
vt 0.096949 0.651919
vt 0.096949 0.651919
vt 0.096949 0.651919
vt 0.096949 0.651919
vt 0.096949 0.651919
vt 0.096949 0.651919
vt 0.096949 0.651919
vt 0.096949 0.651919
vt 0.096949 0.651919
vt 0.096949 0.651919
vt 0.096949 0.651919
vt 0.096949 0.651919
vt 0.096949 0.651919
vt 0.096949 0.651919
vt 0.096949 0.651919
vt 0.096949 0.651919
vt 0.096949 0.651919
vt 0.096949 0.651919
vt 0.096949 0.651919
vt 0.096949 0.651919
vt 0.096949 0.651919
vt 0.096949 0.651919
vt 0.096949 0.651919
vt 0.096949 0.651919
vt 0.096949 0.651919
vt 0.096949 0.651919
vt 0.096949 0.651919
vt 0.096949 0.651919
vt 0.096949 0.651919
vt 0.096949 0.651919
vt 0.096949 0.651919
vt 0.096949 0.651919
vt 0.096949 0.651919
vt 0.096949 0.651919
vt 0.096949 0.651919
vt 0.096949 0.651919
vt 0.096949 0.651919
vt 0.096949 0.651919
vt 0.096949 0.651919
vt 0.096949 0.651919
vt 0.096949 0.651919
vt 0.096949 0.651919
vt 0.096949 0.651919
vt 0.096949 0.651919
vt 0.096949 0.651919
vt 0.096949 0.651919
vt 0.096949 0.651919
vt 0.096949 0.651919
vt 0.096949 0.651919
vt 0.096949 0.651919
vt 0.096949 0.651919
vt 0.096949 0.651919
vt 0.096949 0.651919
vt 0.096949 0.651919
vt 0.096949 0.651919
vt 0.096949 0.651919
vt 0.096949 0.651919
vt 0.096949 0.651919
vt 0.096949 0.651919
vt 0.096949 0.651919
vt 0.096949 0.651919
vt 0.096949 0.651919
vt 0.096949 0.651919
vt 0.096949 0.651919
vt 0.096949 0.651919
vt 0.096949 0.651919
vt 0.096949 0.651919
vt 0.096949 0.651919
vt 0.096949 0.651919
vt 0.096949 0.651919
vt 0.096949 0.651919
vt 0.096949 0.651919
vt 0.096949 0.651919
vt 0.096949 0.651919
vt 0.096949 0.651919
vt 0.096949 0.651919
vt 0.096949 0.651919
vt 0.096949 0.651919
vt 0.096949 0.651919
vt 0.096949 0.651919
vt 0.096949 0.651919
vt 0.096949 0.651919
vt 0.096949 0.651919
vt 0.096949 0.651919
vt 0.096949 0.651919
vt 0.096949 0.651919
vt 0.096949 0.651919
vt 0.096949 0.651919
vn 0.0000 1.0000 0.0000
vn 0.0000 0.9991 0.0415
vn 0.0414 0.9977 0.0530
vn 0.0938 0.9912 -0.0938
vn -0.1640 0.9865 0.0000
vn -0.0601 0.9962 -0.0629
vn 0.0313 0.9920 -0.1224
vn 0.1353 0.9867 -0.0906
vn 0.1382 0.9904 0.0096
vn 0.0098 0.9966 0.0814
vn -0.1324 0.9838 0.1206
vn -0.1346 0.9891 0.0594
vn 0.0839 0.9936 -0.0755
vn -0.1446 0.9895 0.0000
vn -0.1171 0.9929 0.0199
vn 0.1089 0.9934 -0.0373
vn 0.1525 0.9875 0.0400
vn 0.1281 0.9901 0.0572
vn 0.0644 0.9968 0.0475
vn -0.1163 0.9880 0.1013
vn -0.1674 0.9789 0.1168
vn 0.0529 0.9951 0.0840
vn -0.1546 0.9880 0.0000
vn -0.0761 0.9970 -0.0103
vn 0.0724 0.9969 0.0311
vn 0.1582 0.9874 -0.0057
vn 0.0932 0.9956 0.0000
vn 0.0461 0.9983 -0.0357
vn -0.0533 0.9971 -0.0541
vn -0.0860 0.9962 0.0100
vn 0.0000 0.9955 0.0942
vn -0.1277 0.9918 0.0000
vn -0.0556 0.9981 0.0277
vn 0.0810 0.9956 0.0481
vn 0.1024 0.9931 0.0567
vn -0.1021 0.9904 -0.0927
vn -0.0537 0.9703 -0.2357
vn 0.0536 0.9699 -0.2374
vn 0.1020 0.9895 -0.1020
vn -0.0677 0.9977 0.0000
vn -0.0130 0.9981 0.0608
vn 0.0802 0.9915 0.1027
vn 0.0000 0.9947 0.1026
vn -0.1026 0.9947 0.0000
vn -0.1221 0.9873 -0.1018
vn -0.0394 0.9917 -0.1227
vn 0.1251 0.9864 -0.1067
vn 0.1383 0.9897 -0.0363
vn 0.0000 0.9977 0.0677
vn 0.0323 0.9962 0.0806
vn -0.0324 0.9990 0.0324
vn -0.1613 0.9869 0.0000
vn 0.0000 0.9992 -0.0397
vn 0.1064 0.9943 0.0000
vn 0.1575 0.9873 -0.0196
vn 0.0916 0.9958 0.0000
vn 0.0190 0.9956 0.0916
vn -0.0367 0.9932 0.1104
vn -0.0739 0.9964 0.0416
vn -0.0945 0.9955 0.0000
vn -0.0776 0.9970 0.0082
vn -0.0189 0.9955 0.0934
vn 0.0880 0.9933 0.0744
vn 0.1024 0.9932 0.0561
vn 0.0296 0.9996 0.0000
vn 0.0185 0.9979 -0.0623
vn 0.0297 0.9976 -0.0628
vn -0.0777 0.9970 0.0038
vn 0.0000 0.9955 0.0945
vn 0.0000 0.9854 0.1702
vn 0.0000 0.9821 0.1883
vn 0.0000 0.9996 -0.0296
vn 0.0000 0.9988 -0.0481
vn 0.0000 0.9970 -0.0777
vn 0.0000 0.9947 -0.1026
vn 0.0354 0.9941 -0.1025
vn 0.0672 0.9955 -0.0672
vn -0.0310 0.9995 0.0000
vn -0.0719 0.9969 -0.0309
vn 0.0415 0.9991 0.0000
vn 0.0942 0.9955 0.0000
vn -0.1024 0.9928 -0.0627
vn 0.0000 0.9925 -0.1225
vn 0.0000 0.9958 -0.0914
vn 0.0355 0.9993 0.0097
vn 0.0672 0.9944 0.0812
vn -0.0308 0.9921 0.1216
vn -0.0718 0.9956 0.0598
vn 0.0000 0.9971 -0.0758
vn 0.1021 0.9903 -0.0937
vn -0.1640 0.9863 0.0198
vn -0.0601 0.9975 -0.0374
vn 0.0316 0.9987 0.0405
vn 0.1356 0.9891 0.0572
vn 0.1380 0.9893 0.0472
vn 0.0098 0.9947 0.1019
vn -0.1324 0.9842 0.1175
vn -0.1344 0.9874 0.0834
vn 0.0840 0.9951 0.0529
vn -0.1446 0.9894 -0.0102
vn -0.1170 0.9926 0.0310
vn 0.1090 0.9940 -0.0058
vn 0.1526 0.9883 0.0000
vn 0.1282 0.9911 -0.0354
vn 0.0644 0.9965 -0.0540
vn -0.1169 0.9931 0.0100
vn -0.1678 0.9814 0.0929
vn 0.0530 0.9977 0.0414
vn -0.1546 0.9876 0.0274
vn -0.0760 0.9959 0.0481
vn 0.0723 0.9958 0.0569
vn 0.1582 0.9874 0.0000
vn 0.0928 0.9913 -0.0928
vn 0.0448 0.9708 -0.2358
vn -0.0518 0.9700 -0.2374
vn -0.0856 0.9911 -0.1022
vn -0.1275 0.9900 0.0603
vn -0.0554 0.9931 0.1029
vn 0.0807 0.9915 0.1022
vn 0.1026 0.9947 0.0000
vn -0.1018 0.9873 -0.1221
vn -0.0549 0.9927 -0.1073
vn 0.0552 0.9978 -0.0366
vn -0.0675 0.9954 0.0675
vn -0.0130 0.9967 0.0806
vn 0.0806 0.9962 0.0323
vn -0.1227 0.9917 -0.0394
vn -0.0397 0.9992 0.0000
vn 0.1258 0.9919 -0.0196
vn 0.1384 0.9904 0.0000
vn 0.0000 0.9958 0.0916
vn 0.0000 0.9939 0.1105
vn 0.0324 0.9986 0.0417
vn -0.0324 0.9995 0.0000
vn -0.1026 0.9947 0.0082
vn -0.1606 0.9827 0.0922
vn 0.0000 0.9972 0.0747
vn 0.1062 0.9928 0.0560
vn 0.1576 0.9875 0.0000
vn 0.0915 0.9939 -0.0620
vn 0.0191 0.9978 -0.0628
vn -0.0370 0.9993 0.0038
vn -0.0740 0.9973 0.0000
vn -0.0941 0.9911 0.0941
vn -0.0765 0.9825 0.1697
vn -0.0186 0.9819 0.1882
vn 0.0878 0.9909 0.1022
vn 0.0296 0.9991 -0.0296
vn 0.0186 0.9987 -0.0481
vn 0.0296 0.9965 -0.0777
vn -0.0777 0.9970 0.0000
vn 0.0000 0.9977 -0.0674
vn 0.0000 0.9995 -0.0310
usemtl None
s off
f 22/1/1 32/2/1 113/3/1
f 2/4/1 41/5/1 31/6/1
f 14/7/1 50/8/1 41/5/1
f 15/9/1 59/10/1 50/8/1
f 16/11/1 68/12/1 59/10/1
f 17/13/1 77/14/1 68/12/1
f 18/15/1 86/16/1 77/14/1
f 19/17/2 95/18/2 86/16/2
f 20/19/3 104/20/3 95/18/3
f 21/21/4 113/3/4 104/20/4
f 112/22/5 5/23/5 6/24/5
f 111/25/6 121/26/6 112/22/6
f 110/27/7 120/28/7 111/25/7
f 109/29/8 119/30/8 110/27/8
f 108/31/9 118/32/9 109/29/9
f 107/33/10 117/34/10 108/31/10
f 106/35/11 116/36/11 107/33/11
f 105/37/12 115/38/12 106/35/12
f 104/20/13 114/39/13 105/37/13
f 103/40/14 6/24/14 7/41/14
f 102/42/15 112/22/15 103/40/15
f 101/43/16 111/25/16 102/42/16
f 100/44/17 110/27/17 101/43/17
f 99/45/18 109/29/18 100/44/18
f 98/46/19 108/31/19 99/45/19
f 97/47/20 107/33/20 98/46/20
f 96/48/21 106/35/21 97/47/21
f 95/18/22 105/37/22 96/48/22
f 94/49/23 7/41/23 8/50/23
f 93/51/24 103/40/24 94/49/24
f 92/52/25 102/42/25 93/51/25
f 91/53/26 101/43/26 92/52/26
f 90/54/27 100/44/27 91/53/27
f 89/55/28 99/45/28 90/54/28
f 88/56/29 98/46/29 89/55/29
f 87/57/30 97/47/30 88/56/30
f 86/16/31 96/48/31 87/57/31
f 85/58/32 8/50/32 9/59/32
f 84/60/33 94/49/33 85/58/33
f 83/61/34 93/51/34 84/60/34
f 82/62/35 92/52/35 83/61/35
f 81/63/1 91/53/1 82/62/1
f 80/64/36 90/54/36 81/63/36
f 79/65/37 89/55/37 80/64/37
f 78/66/38 88/56/38 79/65/38
f 77/14/39 87/57/39 78/66/39
f 76/67/40 9/59/40 10/68/40
f 75/69/41 85/58/41 76/67/41
f 74/70/42 84/60/42 75/69/42
f 73/71/43 83/61/43 74/70/43
f 72/72/44 82/62/44 73/71/44
f 71/73/45 81/63/45 72/72/45
f 70/74/46 80/64/46 71/73/46
f 69/75/47 79/65/47 70/74/47
f 68/12/48 78/66/48 69/75/48
f 67/76/1 10/68/1 11/77/1
f 66/78/49 76/67/49 67/76/49
f 65/79/50 75/69/50 66/78/50
f 64/80/51 74/70/51 65/79/51
f 63/81/44 73/71/44 64/80/44
f 62/82/52 72/72/52 63/81/52
f 61/83/53 71/73/53 62/82/53
f 60/84/54 70/74/54 61/83/54
f 59/10/55 69/75/55 60/84/55
f 58/85/56 11/77/56 12/86/56
f 57/87/57 67/76/57 58/85/57
f 56/88/58 66/78/58 57/87/58
f 55/89/59 65/79/59 56/88/59
f 54/90/60 64/80/60 55/89/60
f 53/91/61 63/81/61 54/90/61
f 52/92/62 62/82/62 53/91/62
f 51/93/63 61/83/63 52/92/63
f 50/8/64 60/84/64 51/93/64
f 49/94/65 12/86/65 13/95/65
f 48/96/66 58/85/66 49/94/66
f 47/97/67 57/87/67 48/96/67
f 46/98/68 56/88/68 47/97/68
f 45/99/1 55/89/1 46/98/1
f 44/100/69 54/90/69 45/99/69
f 43/101/70 53/91/70 44/100/70
f 42/102/71 52/92/71 43/101/71
f 41/5/43 51/93/43 42/102/43
f 23/103/1 13/95/1 1/104/1
f 24/105/72 49/94/72 23/103/72
f 25/106/73 48/96/73 24/105/73
f 26/107/74 47/97/74 25/106/74
f 27/108/1 46/98/1 26/107/1
f 28/109/1 45/99/1 27/108/1
f 29/110/1 44/100/1 28/109/1
f 30/111/1 43/101/1 29/110/1
f 31/6/1 42/102/1 30/111/1
f 121/26/44 3/112/44 5/23/44
f 120/28/75 40/113/75 121/26/75
f 119/30/75 39/114/75 120/28/75
f 118/32/76 38/115/76 119/30/76
f 117/34/77 37/116/77 118/32/77
f 116/36/78 36/117/78 117/34/78
f 115/38/79 35/118/79 116/36/79
f 114/39/75 34/119/75 115/38/75
f 113/3/39 33/120/39 114/39/39
f 22/1/1 4/121/1 32/2/1
f 2/4/1 14/7/1 41/5/1
f 14/7/1 15/9/1 50/8/1
f 15/9/1 16/11/1 59/10/1
f 16/11/1 17/13/1 68/12/1
f 17/13/1 18/15/1 77/14/1
f 18/15/1 19/17/1 86/16/1
f 19/17/80 20/19/80 95/18/80
f 20/19/81 21/21/81 104/20/81
f 21/21/1 22/1/1 113/3/1
f 112/22/82 121/26/82 5/23/82
f 111/25/83 120/28/83 121/26/83
f 110/27/84 119/30/84 120/28/84
f 109/29/85 118/32/85 119/30/85
f 108/31/86 117/34/86 118/32/86
f 107/33/87 116/36/87 117/34/87
f 106/35/88 115/38/88 116/36/88
f 105/37/89 114/39/89 115/38/89
f 104/20/90 113/3/90 114/39/90
f 103/40/91 112/22/91 6/24/91
f 102/42/92 111/25/92 112/22/92
f 101/43/93 110/27/93 111/25/93
f 100/44/94 109/29/94 110/27/94
f 99/45/95 108/31/95 109/29/95
f 98/46/96 107/33/96 108/31/96
f 97/47/97 106/35/97 107/33/97
f 96/48/98 105/37/98 106/35/98
f 95/18/99 104/20/99 105/37/99
f 94/49/100 103/40/100 7/41/100
f 93/51/101 102/42/101 103/40/101
f 92/52/102 101/43/102 102/42/102
f 91/53/103 100/44/103 101/43/103
f 90/54/104 99/45/104 100/44/104
f 89/55/105 98/46/105 99/45/105
f 88/56/106 97/47/106 98/46/106
f 87/57/107 96/48/107 97/47/107
f 86/16/108 95/18/108 96/48/108
f 85/58/109 94/49/109 8/50/109
f 84/60/110 93/51/110 94/49/110
f 83/61/111 92/52/111 93/51/111
f 82/62/112 91/53/112 92/52/112
f 81/63/113 90/54/113 91/53/113
f 80/64/114 89/55/114 90/54/114
f 79/65/115 88/56/115 89/55/115
f 78/66/116 87/57/116 88/56/116
f 77/14/1 86/16/1 87/57/1
f 76/67/117 85/58/117 9/59/117
f 75/69/118 84/60/118 85/58/118
f 74/70/119 83/61/119 84/60/119
f 73/71/120 82/62/120 83/61/120
f 72/72/75 81/63/75 82/62/75
f 71/73/121 80/64/121 81/63/121
f 70/74/122 79/65/122 80/64/122
f 69/75/123 78/66/123 79/65/123
f 68/12/120 77/14/120 78/66/120
f 67/76/124 76/67/124 10/68/124
f 66/78/125 75/69/125 76/67/125
f 65/79/126 74/70/126 75/69/126
f 64/80/1 73/71/1 74/70/1
f 63/81/44 72/72/44 73/71/44
f 62/82/127 71/73/127 72/72/127
f 61/83/128 70/74/128 71/73/128
f 60/84/129 69/75/129 70/74/129
f 59/10/130 68/12/130 69/75/130
f 58/85/131 67/76/131 11/77/131
f 57/87/132 66/78/132 67/76/132
f 56/88/133 65/79/133 66/78/133
f 55/89/134 64/80/134 65/79/134
f 54/90/135 63/81/135 64/80/135
f 53/91/136 62/82/136 63/81/136
f 52/92/137 61/83/137 62/82/137
f 51/93/138 60/84/138 61/83/138
f 50/8/139 59/10/139 60/84/139
f 49/94/140 58/85/140 12/86/140
f 48/96/141 57/87/141 58/85/141
f 47/97/142 56/88/142 57/87/142
f 46/98/143 55/89/143 56/88/143
f 45/99/144 54/90/144 55/89/144
f 44/100/145 53/91/145 54/90/145
f 43/101/146 52/92/146 53/91/146
f 42/102/147 51/93/147 52/92/147
f 41/5/120 50/8/120 51/93/120
f 23/103/148 49/94/148 13/95/148
f 24/105/149 48/96/149 49/94/149
f 25/106/150 47/97/150 48/96/150
f 26/107/151 46/98/151 47/97/151
f 27/108/1 45/99/1 46/98/1
f 28/109/1 44/100/1 45/99/1
f 29/110/1 43/101/1 44/100/1
f 30/111/1 42/102/1 43/101/1
f 31/6/1 41/5/1 42/102/1
f 121/26/75 40/113/75 3/112/75
f 120/28/75 39/114/75 40/113/75
f 119/30/75 38/115/75 39/114/75
f 118/32/152 37/116/152 38/115/152
f 117/34/1 36/117/1 37/116/1
f 116/36/153 35/118/153 36/117/153
f 115/38/75 34/119/75 35/118/75
f 114/39/75 33/120/75 34/119/75
f 113/3/1 32/2/1 33/120/1
