# Blender v2.79 (sub 0) OBJ File: 'vert.blend'
# www.blender.org
mtllib vert.mtl
o Plane_Plane.001
v 1.000000 0.000000 -1.000000
v -1.000000 0.000000 -1.000000
v 1.000000 0.000000 1.000000
v -1.000000 0.000000 1.000000
v 1.000000 -1.000000 1.000000
v -1.000000 -1.000000 1.000000
v 1.000000 -1.000000 -1.000000
vt 0.032451 0.658105
vt 0.032451 0.658105
vt 0.032451 0.658105
vt 0.032451 0.658105
vt 0.032451 0.658105
vt 0.032451 0.658105
vt 0.032451 0.658105
vn 0.0000 1.0000 0.0000
vn 0.0000 0.0000 1.0000
vn 1.0000 0.0000 -0.0000
usemtl None
s off
f 2/1/1 4/2/1 1/3/1
f 3/4/1 1/3/1 4/2/1
f 3/4/2 4/2/2 6/5/2 5/6/2
f 1/3/3 3/4/3 5/6/3 7/7/3
