# Blender v2.79 (sub 0) OBJ File: 'aloe.blend'
# www.blender.org
mtllib aloe.mtl
o Cone
v 0.031437 -0.000000 -0.031217
v -0.031374 -0.000000 0.031594
v 0.031437 -0.000000 0.031594
v -0.456088 0.091343 -0.008518
v -0.082600 -0.000000 0.000188
v -0.006499 0.232483 -0.421921
v 0.000031 -0.000000 -0.082444
v 0.013091 0.190915 0.456307
v 0.000031 -0.000000 0.082820
v 0.456150 0.156905 -0.004165
v 0.082663 -0.000000 0.000188
v -0.031374 -0.000000 -0.031217
v 0.000031 0.007444 -0.034649
v 0.000031 0.007444 0.035026
v 0.034869 0.007444 0.000188
v -0.197072 0.225957 0.188057
v -0.045800 0.007444 0.046019
v -0.195533 0.261226 -0.189220
v -0.045800 0.007444 -0.045643
v 0.194056 0.261226 0.191135
v 0.045862 0.007444 0.046019
v 0.194057 0.249890 -0.190759
v 0.045862 0.007444 -0.045643
v -0.034806 0.007444 0.000188
v 0.025463 0.011069 -0.010346
v -0.025400 0.011069 0.010722
v 0.010565 0.011069 0.025619
v -0.197695 0.297202 -0.094801
v -0.047283 0.011069 -0.019410
v 0.079659 0.367741 -0.154775
v 0.019630 0.011069 -0.047126
v -0.101586 0.351366 0.169380
v -0.019567 0.011069 0.047502
v 0.163709 0.293423 0.077023
v 0.047346 0.011069 0.019786
v -0.010503 0.011069 -0.025243
v 0.006673 0.019364 -0.015847
v -0.006611 0.019364 0.016224
v 0.016067 0.019364 0.006830
v -0.101269 0.250415 0.048692
v -0.041085 0.019364 0.017219
v -0.047076 0.294502 -0.101690
v -0.017000 0.019364 -0.040928
v 0.049932 0.344887 0.100910
v 0.017062 0.019364 0.041304
v 0.101331 0.289463 -0.048316
v 0.041148 0.019364 -0.016843
v -0.016004 0.019364 -0.006454
v 0.218601 0.116241 0.015891
v 0.235659 0.096297 0.000188
v 0.218601 0.116241 -0.015515
v 0.000031 0.110153 0.261008
v 0.015734 0.130097 0.243950
v -0.015671 0.130097 0.243950
v -0.204669 0.064519 0.000188
v -0.194314 0.088634 -0.015515
v -0.194314 0.088634 0.015891
v 0.000031 0.126528 -0.217804
v -0.015671 0.146472 -0.200747
v 0.015734 0.146472 -0.200747
v 0.113693 0.156253 -0.096055
v -0.115556 0.143861 0.115776
v 0.115619 0.143861 -0.115400
v 0.115619 0.143861 0.115776
v 0.113693 0.156253 0.096431
v -0.113630 0.156253 0.096431
v -0.115556 0.143861 -0.115400
v -0.113631 0.156253 -0.096055
v 0.096274 0.156253 0.113850
v -0.096212 0.156253 0.113850
v 0.096274 0.156253 -0.113474
v -0.096212 0.156253 -0.113474
v 0.006673 0.019364 -0.015847
v -0.006611 0.019364 0.016224
v 0.016067 0.019364 0.006830
v -0.016004 0.019364 -0.006454
v 0.000031 0.176369 0.000188
vt 0.098729 0.838869
vt 0.100525 0.837130
vt 0.098546 0.839016
vt 0.173397 0.839625
vt 0.173397 0.839706
vt 0.173397 0.839625
vt 0.102696 0.839163
vt 0.104492 0.840901
vt 0.102553 0.839016
vt 0.098362 0.835385
vt 0.096566 0.837124
vt 0.098546 0.835238
vt 0.098587 0.839016
vt 0.102512 0.839016
vt 0.098505 0.835238
vt 0.102512 0.835238
vt 0.100532 0.833352
vt 0.102328 0.835091
vt 0.102471 0.835238
vt 0.166946 0.839016
vt 0.165007 0.840901
vt 0.164925 0.840901
vt 0.166905 0.839016
vt 0.170871 0.835238
vt 0.172851 0.837124
vt 0.172769 0.837124
vt 0.170830 0.835238
vt 0.166864 0.835238
vt 0.168803 0.833352
vt 0.168885 0.833352
vt 0.166905 0.835238
vt 0.170871 0.839016
vt 0.168892 0.837130
vt 0.168974 0.837130
vt 0.170912 0.839016
vt 0.101992 0.841794
vt 0.102880 0.842487
vt 0.101876 0.841698
vt 0.172858 0.839625
vt 0.172858 0.839706
vt 0.172858 0.839625
vt 0.105384 0.834565
vt 0.106077 0.835452
vt 0.105288 0.834402
vt 0.097453 0.841794
vt 0.096566 0.842487
vt 0.097616 0.841698
vt 0.101830 0.841698
vt 0.105288 0.834449
vt 0.097569 0.841698
vt 0.099676 0.841698
vt 0.098673 0.842487
vt 0.099560 0.841794
vt 0.099723 0.841698
vt 0.170189 0.841698
vt 0.169139 0.840908
vt 0.169232 0.840908
vt 0.170235 0.841698
vt 0.168036 0.841698
vt 0.169039 0.840908
vt 0.169132 0.840908
vt 0.168082 0.841698
vt 0.165929 0.841698
vt 0.166932 0.840908
vt 0.167025 0.840908
vt 0.165975 0.841698
vt 0.173647 0.834449
vt 0.172858 0.833445
vt 0.172858 0.833352
vt 0.173647 0.834402
vt 0.106353 0.841158
vt 0.104954 0.842969
vt 0.106506 0.840968
vt 0.104748 0.837680
vt 0.106559 0.839079
vt 0.104559 0.837527
vt 0.104651 0.837271
vt 0.106050 0.835459
vt 0.104498 0.837460
vt 0.106506 0.840908
vt 0.104498 0.837520
vt 0.104947 0.842460
vt 0.102886 0.840908
vt 0.104698 0.842307
vt 0.104887 0.842460
vt 0.173313 0.842969
vt 0.174865 0.840908
vt 0.174865 0.840968
vt 0.171246 0.840908
vt 0.173306 0.842460
vt 0.173246 0.842460
vt 0.174410 0.835459
vt 0.172858 0.837520
vt 0.172858 0.837460
vt 0.174919 0.839079
vt 0.172918 0.837527
vt 0.105113 0.839878
vt 0.105571 0.840886
vt 0.105038 0.839625
vt 0.107712 0.839085
vt 0.107631 0.839085
vt 0.107712 0.839085
vt 0.104574 0.839878
vt 0.105031 0.840886
vt 0.104498 0.839625
vt 0.103894 0.842542
vt 0.102886 0.843000
vt 0.104147 0.842467
vt 0.105038 0.839706
vt 0.104498 0.839706
vt 0.104066 0.842467
vt 0.105678 0.839085
vt 0.104498 0.839618
vt 0.105506 0.839161
vt 0.105759 0.839085
vt 0.173930 0.840886
vt 0.173397 0.839706
vt 0.173397 0.839625
vt 0.172858 0.839618
vt 0.174037 0.839085
vt 0.174118 0.839085
vt 0.171246 0.843000
vt 0.172425 0.842467
vt 0.172506 0.842467
vt 0.173390 0.840886
vt 0.172858 0.839706
vt 0.172858 0.839625
vt 0.168892 0.833352
vt 0.104124 0.836830
vt 0.104410 0.837124
vt 0.104492 0.837124
vt 0.164925 0.837124
vt 0.100443 0.833352
vt 0.100158 0.833646
vt 0.100525 0.833352
vt 0.172851 0.840901
vt 0.100532 0.837130
vt 0.100900 0.837424
vt 0.100614 0.837130
vt 0.168885 0.837130
vt 0.096648 0.840901
vt 0.096933 0.840608
vt 0.096566 0.840901
vt 0.174437 0.835452
vt 0.164925 0.842487
vt 0.167032 0.842487
vt 0.171239 0.842487
vt 0.100447 0.841101
vt 0.100773 0.840908
vt 0.100680 0.840908
vt 0.098573 0.840908
vt 0.098341 0.841101
vt 0.104498 0.833445
vt 0.104691 0.833678
vt 0.100780 0.840908
vt 0.101105 0.841101
vt 0.098666 0.840908
vt 0.104498 0.833352
vt 0.100872 0.840908
vt 0.172425 0.842467
vt 0.172506 0.842467
vt 0.174037 0.839085
vt 0.174118 0.839085
vt 0.106100 0.842467
vt 0.106019 0.842467
vt 0.106100 0.842467
vn 0.8543 -0.4496 -0.2607
vn -0.3815 0.0779 -0.9211
vn -0.0281 -0.5370 -0.8431
vn -0.8528 -0.4600 0.2472
vn -0.8493 -0.4792 -0.2216
vn -0.0847 -0.5179 0.8512
vn 0.8375 -0.5225 0.1601
vn 0.1323 -0.5409 -0.8306
vn 0.1601 -0.5224 0.8375
vn 0.0000 0.7567 0.6538
vn -0.5276 0.8495 0.0000
vn 0.0000 0.8527 -0.5224
vn 0.4778 0.8784 -0.0000
vn 0.3098 -0.3459 -0.8856
vn -0.9211 0.0779 0.3815
vn -0.8016 -0.4640 -0.3770
vn -0.3149 -0.3548 0.8803
vn -0.8637 -0.3810 0.3300
vn 0.3437 -0.4048 0.8474
vn 0.8693 -0.3723 -0.3250
vn -0.3266 -0.3750 -0.8676
vn 0.8554 -0.3932 0.3371
vn 0.5436 0.6395 0.5436
vn -0.5436 0.6395 0.5436
vn -0.5436 0.6395 -0.5436
vn 0.5436 0.6395 -0.5436
vn 0.9659 -0.2088 -0.1532
vn -0.1482 -0.3241 -0.9344
vn -0.9475 -0.2822 0.1503
vn -0.5815 -0.1438 -0.8007
vn -0.7811 -0.2611 0.5672
vn 0.5813 -0.1466 0.8004
vn 0.7912 -0.2096 -0.5746
vn 0.1514 -0.2559 0.9548
vn -0.3513 0.3968 0.8480
vn -0.8024 0.4957 -0.3324
vn 0.3400 0.4588 -0.8209
vn 0.7578 0.5721 0.3139
vn 0.7253 -0.0719 -0.6846
vn 0.9211 0.0779 -0.3815
vn -0.6842 -0.0795 -0.7249
vn -0.7262 -0.0522 0.6855
vn -0.9943 -0.1024 0.0287
vn 0.0286 -0.1276 0.9914
vn 0.9950 -0.0952 -0.0287
vn -0.0287 -0.1094 -0.9936
vn 0.6848 -0.0680 0.7255
vn 0.3597 0.3412 0.8684
vn -0.8665 0.3468 0.3589
vn -0.3658 0.2933 -0.8832
vn 0.8480 0.3968 -0.3513
vn -0.1687 0.9857 0.0000
vn 0.3688 -0.5341 0.7607
vn 0.3688 -0.5341 -0.7607
vn 0.0000 0.9614 -0.2753
vn 0.7572 -0.5423 0.3640
vn -0.7572 -0.5423 0.3640
vn 0.0103 0.9999 0.0000
vn -0.3471 -0.5694 0.7452
vn -0.3471 -0.5694 -0.7452
vn 0.0000 0.9320 0.3624
vn -0.7973 -0.4286 -0.4249
vn 0.7973 -0.4286 -0.4249
vn 0.3469 0.8714 -0.3469
vn -0.4573 0.7627 -0.4573
vn -0.4266 0.7975 0.4266
vn 0.4573 0.7627 0.4573
vn 0.9110 -0.3326 0.2438
vn -0.2438 -0.3327 -0.9110
vn 0.9110 -0.3327 -0.2438
vn 0.2438 -0.3327 0.9110
vn -0.9110 -0.3327 0.2438
vn -0.2438 -0.3326 0.9110
vn -0.9110 -0.3327 -0.2438
vn 0.2438 -0.3327 -0.9110
vn 0.0000 0.0000 1.0000
vn 0.3815 0.0779 0.9211
usemtl None
s off
f 58/1/1 6/2/1 60/3/1
f 73/4/2 76/5/2 77/6/2
f 55/7/3 4/8/3 56/9/3
f 52/10/4 8/11/4 54/12/4
f 59/13/5 6/2/5 58/1/5
f 57/14/6 4/8/6 55/7/6
f 53/15/7 8/11/7 52/10/7
f 51/16/8 10/17/8 50/18/8
f 50/18/9 10/17/9 49/19/9
f 59/20/10 12/21/10 1/22/10 60/23/10
f 51/24/11 1/25/11 3/26/11 49/27/11
f 53/28/12 3/29/12 2/30/12 54/31/12
f 57/32/13 2/33/13 12/34/13 56/35/13
f 67/36/14 18/37/14 72/38/14
f 76/39/15 74/40/15 77/41/15
f 62/42/16 16/43/16 66/44/16
f 64/45/17 20/46/17 69/47/17
f 68/48/18 18/37/18 67/36/18
f 70/49/19 16/43/19 62/42/19
f 65/50/20 20/46/20 64/45/20
f 71/51/21 22/52/21 63/53/21
f 63/53/22 22/52/22 61/54/22
f 68/55/23 24/56/23 13/57/23 72/58/23
f 71/59/24 13/60/24 15/61/24 61/62/24
f 65/63/25 15/64/25 14/65/25 69/66/25
f 70/67/26 14/68/26 24/69/26 66/70/26
f 31/71/27 30/72/27 25/73/27
f 29/74/28 28/75/28 36/76/28
f 33/77/29 32/78/29 26/79/29
f 36/80/30 30/72/30 31/71/30
f 26/79/31 28/75/31 29/74/31
f 27/81/32 32/78/32 33/77/32
f 25/82/33 34/83/33 35/84/33
f 35/84/34 34/83/34 27/85/34
f 30/86/35 36/87/35 25/88/35
f 34/89/36 25/90/36 27/91/36
f 32/92/37 27/93/37 26/94/37
f 28/95/38 26/94/38 36/96/38
f 43/97/39 42/98/39 37/99/39
f 75/100/40 73/101/40 77/102/40
f 41/103/41 40/104/41 48/105/41
f 45/106/42 44/107/42 38/108/42
f 48/109/43 42/98/43 43/97/43
f 38/110/44 40/104/44 41/103/44
f 39/111/45 44/107/45 45/106/45
f 37/112/46 46/113/46 47/114/46
f 47/114/47 46/113/47 39/115/47
f 42/116/48 48/117/48 37/118/48
f 46/119/49 37/120/49 39/121/49
f 44/122/50 39/123/50 38/124/50
f 40/125/51 38/126/51 48/127/51
f 10/128/52 51/24/52 49/27/52
f 11/129/53 50/18/53 49/19/53 3/130/53
f 1/131/54 51/16/54 50/18/54 11/129/54
f 8/132/55 53/28/55 54/31/55
f 3/133/56 53/15/56 52/10/56 9/134/56
f 9/134/57 52/10/57 54/12/57 2/135/57
f 4/136/58 57/32/58 56/35/58
f 2/137/59 57/14/59 55/7/59 5/138/59
f 5/138/60 55/7/60 56/9/60 12/139/60
f 6/140/61 59/20/61 60/23/61
f 12/141/62 59/13/62 58/1/62 7/142/62
f 7/142/63 58/1/63 60/3/63 1/143/63
f 16/144/64 70/67/64 66/70/64
f 20/145/65 65/63/65 69/66/65
f 22/146/66 71/59/66 61/62/66
f 18/147/67 68/55/67 72/58/67
f 23/148/68 63/53/68 61/54/68 15/149/68
f 13/150/69 71/51/69 63/53/69 23/148/69
f 15/151/70 65/50/70 64/45/70 21/152/70
f 14/153/71 70/49/71 62/42/71 17/154/71
f 24/155/72 68/48/72 67/36/72 19/156/72
f 21/152/73 64/45/73 69/47/73 14/157/73
f 17/154/74 62/42/74 66/44/74 24/158/74
f 19/156/75 67/36/75 72/38/75 13/159/75
f 38/124/76 39/123/76 75/160/76 74/161/76
f 39/121/76 37/120/76 73/162/76 75/163/76
f 48/127/76 38/126/76 74/40/76 76/39/76
f 37/118/76 48/117/76 76/5/76 73/4/76
f 74/164/77 75/165/77 77/166/77
