# Blender v2.79 (sub 0) OBJ File: 'bush1.blend'
# www.blender.org
mtllib bush1.mtl
o stalk_Cube.001
v -0.037500 -0.065000 0.037500
v -0.037500 -0.065000 -0.037500
v 0.037500 -0.065000 0.037500
v 0.037500 -0.065000 -0.037500
v -0.050000 -0.065000 0.000000
v 0.050000 -0.065000 0.000000
v 0.000000 -0.065000 -0.050000
v 0.000000 -0.065000 0.050000
v 0.000000 -0.082188 0.000000
v 0.000000 0.486667 0.000000
v 0.000000 0.039003 0.000000
v 0.217082 0.174663 0.157718
v -0.094771 0.105727 0.268109
v -0.278500 0.148204 -0.002925
v -0.082785 0.169138 -0.258971
v 0.217214 0.169138 -0.161494
v 0.086467 0.387044 0.256216
v -0.217082 0.402282 0.157718
v -0.226036 0.378990 -0.160292
v 0.094253 0.413054 -0.299385
v 0.271878 0.387041 0.001021
v 0.000000 0.558699 0.000000
v -0.051497 0.036970 0.153006
v 0.127597 0.053022 0.092703
v 0.076327 0.116366 0.245464
v 0.255194 0.131100 0.000000
v 0.127704 0.048543 -0.095765
v -0.157719 0.053023 0.000000
v -0.208990 0.116366 0.152759
v -0.048630 0.048543 -0.153060
v -0.210791 0.119827 -0.151245
v 0.079477 0.105249 -0.260370
v 0.287177 0.275917 0.093239
v 0.285317 0.283900 -0.092704
v -0.004127 0.259901 0.304496
v 0.178196 0.275917 0.243240
v -0.289105 0.274049 0.091615
v -0.180463 0.259901 0.247201
v -0.180122 0.274050 -0.243794
v -0.314534 0.207899 -0.101105
v 0.179887 0.283961 -0.258462
v 0.003549 0.284059 -0.315691
v 0.223152 0.374971 0.154800
v -0.078861 0.446631 0.242703
v -0.258450 0.438162 -0.000936
v -0.076450 0.448921 -0.252101
v 0.208868 0.448920 -0.159396
v 0.052443 0.483891 0.151064
v 0.161425 0.483889 0.001066
v -0.127597 0.499799 0.092703
v -0.127597 0.499799 -0.092703
v 0.052468 0.503344 -0.164545
vt 0.031512 0.659315
vt 0.031512 0.659315
vt 0.031512 0.659315
vt 0.031512 0.659315
vt 0.031512 0.659315
vt 0.031512 0.659315
vt 0.031512 0.659315
vt 0.031512 0.659315
vt 0.031512 0.659315
vt 0.031512 0.659315
vt 0.031123 0.845709
vt 0.031123 0.845709
vt 0.031123 0.845709
vt 0.031123 0.845709
vt 0.031123 0.845709
vt 0.031123 0.845709
vt 0.031123 0.845709
vt 0.031123 0.845709
vt 0.031123 0.845709
vt 0.031123 0.845709
vt 0.031123 0.845709
vt 0.031123 0.845709
vt 0.031123 0.845709
vt 0.031123 0.845709
vt 0.031123 0.845709
vt 0.031123 0.845709
vt 0.031123 0.845709
vt 0.031123 0.845709
vt 0.031123 0.845709
vt 0.031123 0.845709
vt 0.031123 0.845709
vt 0.031123 0.845709
vt 0.031123 0.845709
vt 0.031123 0.845709
vt 0.031123 0.845709
vt 0.031123 0.845709
vt 0.031123 0.845709
vt 0.031123 0.845709
vt 0.031123 0.845709
vt 0.031123 0.845709
vt 0.031123 0.845709
vt 0.031123 0.845709
vt 0.031123 0.845709
vt 0.031123 0.845709
vt 0.031123 0.845709
vt 0.031123 0.845709
vt 0.031123 0.845709
vt 0.031123 0.845709
vt 0.031123 0.845709
vt 0.031123 0.845709
vt 0.031123 0.845709
vt 0.031123 0.845709
vn 0.3151 0.0857 -0.9452
vn 0.9452 0.0857 0.3151
vn -0.3151 0.0857 0.9452
vn -0.9452 0.0857 0.3151
vn 0.2180 -0.9513 0.2180
vn 0.9452 0.0857 -0.3151
vn 0.2180 -0.9513 -0.2180
vn -0.3151 0.0857 -0.9452
vn -0.2180 -0.9513 -0.2180
vn -0.2180 -0.9513 0.2180
vn 0.3151 0.0857 0.9452
vn -0.9452 0.0857 -0.3151
vn 0.0956 -0.9952 0.0189
vn 0.6591 -0.6687 0.3440
vn -0.0885 -0.9952 -0.0430
vn -0.0885 -0.9955 -0.0339
vn 0.0225 -0.9973 -0.0693
vn 0.8622 -0.3948 0.3174
vn 0.1436 -0.3065 0.9410
vn -0.8871 -0.3227 0.3301
vn -0.5136 -0.3641 -0.7769
vn 0.6483 -0.3571 -0.6724
vn 0.7954 -0.1826 0.5779
vn -0.3087 -0.0427 0.9502
vn -0.9500 -0.2348 0.2059
vn -0.3488 -0.1909 -0.9176
vn 0.8306 -0.1762 -0.5283
vn 0.4508 0.7245 0.5214
vn -0.5044 0.7491 0.4294
vn -0.5996 0.7028 -0.3829
vn 0.0225 0.8339 -0.5514
vn 0.6590 0.7515 0.0311
vn 0.4154 0.8939 -0.1683
vn 0.3299 0.9379 -0.1069
vn 0.3049 0.8323 -0.4629
vn -0.1620 0.9185 -0.3607
vn -0.1560 0.9254 -0.3454
vn -0.5807 0.7029 -0.4107
vn -0.4191 0.9079 0.0000
vn -0.4261 0.9047 0.0000
vn -0.5816 0.7476 0.3207
vn -0.0719 0.8837 0.4625
vn -0.0279 0.9393 0.3420
vn 0.2202 0.7520 0.6213
vn 0.4007 0.8687 0.2911
vn 0.4961 0.7899 0.3604
vn 0.6369 0.7262 0.2588
vn 0.9150 0.3301 -0.2321
vn 0.8313 0.1715 -0.5287
vn 0.7114 0.2657 -0.6506
vn -0.2056 0.2637 -0.9424
vn -0.3672 0.1743 -0.9137
vn -0.5998 0.3208 -0.7330
vn -0.8840 0.3501 -0.3098
vn -0.9754 0.2135 0.0554
vn -0.8884 0.3399 0.3085
vn -0.5689 0.3277 0.7543
vn -0.3035 0.1877 0.9342
vn 0.0414 0.3288 0.9435
vn 0.5712 0.3870 0.7238
vn 0.7992 0.1557 0.5806
vn 0.8749 0.3749 0.3066
vn 0.3072 -0.0963 -0.9468
vn 0.3046 -0.1611 -0.9388
vn -0.1451 -0.3481 -0.9262
vn -0.7556 0.1722 -0.6319
vn -0.6150 -0.3122 -0.7241
vn -0.6854 -0.7061 -0.1778
vn -0.8034 0.1548 0.5750
vn -0.8118 -0.1997 0.5487
vn -0.6923 -0.2955 0.6583
vn 0.3041 0.1410 0.9421
vn 0.3277 -0.1964 0.9241
vn 0.5971 -0.3713 0.7111
vn 0.9911 0.1330 -0.0042
vn 0.9788 -0.2042 -0.0186
vn 0.8891 -0.3525 -0.2921
vn 0.6098 -0.6771 -0.4119
vn 0.1149 -0.9284 -0.3535
vn -0.2726 -0.6773 -0.6833
vn -0.3046 -0.6758 -0.6712
vn -0.3917 -0.8846 -0.2533
vn -0.6118 -0.7803 -0.1300
vn -0.6165 -0.7788 0.1160
vn -0.4400 -0.8721 0.2140
vn -0.4235 -0.8389 0.3419
vn 0.6714 -0.6705 -0.3158
vn 0.5326 -0.8461 0.0204
vn 0.0921 -0.9955 0.0237
vn 0.1235 -0.8308 0.5427
vn 0.2251 -0.8710 0.4367
vn 0.5717 -0.6721 0.4706
usemtl None
s off
f 7/1/1 10/2/1 4/3/1
f 6/4/2 10/2/2 3/5/2
f 8/6/3 10/2/3 1/7/3
f 1/7/4 10/2/4 5/8/4
f 9/9/5 6/4/5 3/5/5 8/6/5
f 4/3/6 10/2/6 6/4/6
f 7/1/7 4/3/7 6/4/7 9/9/7
f 2/10/8 10/2/8 7/1/8
f 2/10/9 7/1/9 9/9/9 5/8/9
f 5/8/10 9/9/10 8/6/10 1/7/10
f 3/5/11 10/2/11 8/6/11
f 5/8/12 10/2/12 2/10/12
f 11/11/13 24/12/13 23/13/13
f 12/14/14 24/12/14 26/15/14
f 11/11/15 23/13/15 28/16/15
f 11/11/16 28/16/16 30/17/16
f 11/11/17 30/17/17 27/18/17
f 12/14/18 26/15/18 33/19/18
f 13/20/19 25/21/19 35/22/19
f 14/23/20 29/24/20 37/25/20
f 15/26/21 31/27/21 39/28/21
f 16/29/22 32/30/22 41/31/22
f 12/14/23 33/19/23 36/32/23
f 13/20/24 35/22/24 38/33/24
f 14/23/25 37/25/25 40/34/25
f 15/26/26 39/28/26 42/35/26
f 16/29/27 41/31/27 34/36/27
f 17/37/28 43/38/28 48/39/28
f 18/40/29 44/41/29 50/42/29
f 19/43/30 45/44/30 51/45/30
f 20/46/31 46/47/31 52/48/31
f 21/49/32 47/50/32 49/51/32
f 49/51/33 52/48/33 22/52/33
f 49/51/34 47/50/34 52/48/34
f 47/50/35 20/46/35 52/48/35
f 52/48/36 51/45/36 22/52/36
f 52/48/37 46/47/37 51/45/37
f 46/47/38 19/43/38 51/45/38
f 51/45/39 50/42/39 22/52/39
f 51/45/40 45/44/40 50/42/40
f 45/44/41 18/40/41 50/42/41
f 50/42/42 48/39/42 22/52/42
f 50/42/43 44/41/43 48/39/43
f 44/41/44 17/37/44 48/39/44
f 48/39/45 49/51/45 22/52/45
f 48/39/46 43/38/46 49/51/46
f 43/38/47 21/49/47 49/51/47
f 34/36/48 47/50/48 21/49/48
f 34/36/49 41/31/49 47/50/49
f 41/31/50 20/46/50 47/50/50
f 42/35/51 46/47/51 20/46/51
f 42/35/52 39/28/52 46/47/52
f 39/28/53 19/43/53 46/47/53
f 40/34/54 45/44/54 19/43/54
f 40/34/55 37/25/55 45/44/55
f 37/25/56 18/40/56 45/44/56
f 38/33/57 44/41/57 18/40/57
f 38/33/58 35/22/58 44/41/58
f 35/22/59 17/37/59 44/41/59
f 36/32/60 43/38/60 17/37/60
f 36/32/61 33/19/61 43/38/61
f 33/19/62 21/49/62 43/38/62
f 41/31/63 42/35/63 20/46/63
f 41/31/64 32/30/64 42/35/64
f 32/30/65 15/26/65 42/35/65
f 39/28/66 40/34/66 19/43/66
f 39/28/67 31/27/67 40/34/67
f 31/27/68 14/23/68 40/34/68
f 37/25/69 38/33/69 18/40/69
f 37/25/70 29/24/70 38/33/70
f 29/24/71 13/20/71 38/33/71
f 35/22/72 36/32/72 17/37/72
f 35/22/73 25/21/73 36/32/73
f 25/21/74 12/14/74 36/32/74
f 33/19/75 34/36/75 21/49/75
f 33/19/76 26/15/76 34/36/76
f 26/15/77 16/29/77 34/36/77
f 27/18/78 32/30/78 16/29/78
f 27/18/79 30/17/79 32/30/79
f 30/17/80 15/26/80 32/30/80
f 30/17/81 31/27/81 15/26/81
f 30/17/82 28/16/82 31/27/82
f 28/16/83 14/23/83 31/27/83
f 28/16/84 29/24/84 14/23/84
f 28/16/85 23/13/85 29/24/85
f 23/13/86 13/20/86 29/24/86
f 26/15/87 27/18/87 16/29/87
f 26/15/88 24/12/88 27/18/88
f 24/12/89 11/11/89 27/18/89
f 23/13/90 25/21/90 13/20/90
f 23/13/91 24/12/91 25/21/91
f 24/12/92 12/14/92 25/21/92
