# Blender v2.79 (sub 0) OBJ File: 'cactus2.blend'
# www.blender.org
mtllib cactus2.mtl
o Cube_Cube.001
v -0.047296 -0.000000 0.047296
v -0.061467 0.881213 0.061467
v -0.047296 -0.000000 -0.047296
v -0.061467 0.881213 -0.061467
v 0.047296 -0.000000 0.047296
v 0.061467 0.881213 0.061467
v 0.047296 -0.000000 -0.047296
v 0.061467 0.881213 -0.061467
v 0.101935 0.419948 0.058248
v -0.101935 0.419948 0.058248
v -0.101935 0.419948 -0.058248
v 0.101935 0.419948 -0.058248
v -0.070000 0.881213 -0.040000
v 0.052500 -0.000000 -0.030000
v -0.052500 -0.000000 -0.030000
v 0.070000 0.881213 -0.040000
v 0.058248 0.419948 -0.101935
v 0.058248 0.419948 0.101935
v -0.052500 -0.000000 0.030000
v 0.070000 0.881213 0.040000
v -0.058248 0.419948 0.101935
v -0.058248 0.419948 -0.101935
v -0.070000 0.881213 0.040000
v 0.052500 -0.000000 0.030000
v -0.030000 -0.000000 -0.052500
v -0.040000 0.881213 0.070000
v -0.040000 0.881213 -0.070000
v -0.030000 -0.000000 0.052500
v 0.116497 0.419948 0.116497
v 0.116497 0.419948 -0.116497
v -0.035000 0.899605 -0.035000
v -0.026250 -0.000000 -0.026250
v -0.026250 -0.000000 0.026250
v -0.035000 0.899605 0.035000
v 0.040000 0.881213 -0.070000
v 0.030000 -0.000000 0.052500
v 0.030000 -0.000000 -0.052500
v 0.040000 0.881213 0.070000
v -0.116497 0.419948 -0.116497
v -0.116497 0.419948 0.116497
v 0.026250 -0.000000 -0.026250
v 0.035000 0.899605 -0.035000
v 0.035000 0.899605 0.035000
v 0.026250 -0.000000 0.026250
vt 0.093750 0.839844
vt 0.088750 0.839844
vt 0.088750 0.834844
vt 0.093750 0.834844
vt 0.093750 0.839844
vt 0.088750 0.839844
vt 0.088750 0.834844
vt 0.093750 0.834844
vt 0.093750 0.839844
vt 0.088750 0.839844
vt 0.088750 0.834844
vt 0.093750 0.834844
vt 0.093750 0.839844
vt 0.088750 0.839844
vt 0.088750 0.834844
vt 0.093750 0.834844
vt 0.093750 0.839844
vt 0.088750 0.839844
vt 0.088750 0.834844
vt 0.093750 0.834844
vt 0.093750 0.839844
vt 0.088750 0.839844
vt 0.093750 0.834844
vt 0.093750 0.834844
vt 0.093750 0.839844
vt 0.031250 0.841797
vt 0.026250 0.841797
vt 0.026250 0.841797
vt 0.031250 0.841797
vt 0.093750 0.839844
vt 0.093750 0.839844
vt 0.093750 0.839844
vt 0.098750 0.844844
vt 0.093750 0.844844
vt 0.093750 0.839844
vt 0.098750 0.839844
vt 0.098750 0.844844
vt 0.093750 0.844844
vt 0.093750 0.839844
vt 0.098750 0.839844
vt 0.098750 0.844844
vt 0.093750 0.844844
vt 0.093750 0.839844
vt 0.098750 0.839844
vt 0.088750 0.844844
vt 0.088750 0.839844
vt 0.093750 0.844844
vt 0.088750 0.844844
vt 0.088750 0.839844
vt 0.093750 0.839844
vt 0.093750 0.844844
vt 0.088750 0.844844
vt 0.098750 0.839844
vt 0.098750 0.834844
vt 0.093750 0.839844
vt 0.088750 0.844844
vt 0.036250 0.841797
vt 0.031250 0.841797
vt 0.031250 0.841797
vt 0.036250 0.841797
vt 0.098750 0.844844
vt 0.093750 0.844844
vt 0.093750 0.839844
vt 0.098750 0.839844
vt 0.036250 0.841797
vt 0.031250 0.841797
vt 0.031250 0.841797
vt 0.036250 0.841797
vt 0.026250 0.841797
vt 0.026250 0.841797
vt 0.098750 0.839844
vt 0.098750 0.834844
vt 0.098750 0.839844
vt 0.098750 0.834844
vt 0.093750 0.844844
vt 0.098750 0.839844
vt 0.098750 0.839844
vt 0.088750 0.839844
vt 0.031250 0.841797
vt 0.026250 0.841797
vt 0.026250 0.841797
vt 0.031250 0.841797
vt 0.098750 0.839844
vt 0.098750 0.834844
vt 0.036250 0.841797
vt 0.036250 0.841797
vt 0.098750 0.844844
vt 0.093750 0.844844
vt 0.036250 0.841797
vt 0.036250 0.841797
vt 0.026250 0.841797
vt 0.026250 0.841797
vt 0.088750 0.844844
vt 0.088750 0.839844
vt 0.093750 0.834844
vt 0.098750 0.834844
vn -0.9933 0.0877 0.0751
vn -0.0751 0.0877 -0.9933
vn 0.9933 0.0877 -0.0751
vn 0.0751 0.0877 0.9933
vn -0.0000 -1.0000 -0.0000
vn -0.3118 0.8975 0.3118
vn 0.0000 0.0691 0.9976
vn 0.0000 1.0000 0.0000
vn -0.1220 -0.1249 0.9846
vn 0.9846 -0.1249 0.1220
vn -0.9846 -0.1249 -0.1220
vn 0.9933 0.0877 0.0751
vn -0.3118 0.8975 -0.3118
vn -0.9846 -0.1249 0.1220
vn -0.9933 0.0877 -0.0751
vn -0.9931 -0.1169 0.0000
vn 0.1220 -0.1249 -0.9846
vn 0.9931 -0.1169 0.0000
vn -0.9976 0.0691 0.0000
vn -0.1220 -0.1249 -0.9846
vn 0.1220 -0.1249 0.9846
vn -0.4652 0.8852 0.0000
vn 0.4652 0.8852 0.0000
vn 0.0751 0.0877 -0.9933
vn 0.0000 0.0691 -0.9976
vn 0.9846 -0.1249 -0.1220
vn 0.0000 -0.1169 0.9931
vn 0.3118 0.8975 -0.3118
vn 0.0000 -0.1169 -0.9931
vn 0.0000 0.8852 -0.4652
vn 0.9976 0.0691 0.0000
vn -0.0751 0.0877 0.9933
vn 0.3118 0.8975 0.3118
vn 0.0000 0.8852 0.4652
usemtl None
s off
f 11/1/1 13/2/1 4/3/1 39/4/1
f 17/5/2 35/6/2 8/7/2 30/8/2
f 9/9/3 20/10/3 6/11/3 29/12/3
f 21/13/4 26/14/4 2/15/4 40/16/4
f 44/17/5 24/18/5 5/19/5 36/20/5
f 34/21/6 23/22/6 2/15/6 26/23/6
f 44/17/5 36/20/5 28/24/5 33/25/5
f 18/26/7 38/27/7 26/28/7 21/29/7
f 31/30/8 34/21/8 43/31/8 42/32/8
f 5/33/9 29/34/9 18/35/9 36/36/9
f 7/37/10 30/38/10 12/39/10 14/40/10
f 1/41/11 40/42/11 10/43/11 19/44/11
f 30/38/12 8/45/12 16/46/12 12/39/12
f 37/47/5 7/48/5 14/49/5 41/50/5
f 27/51/13 4/52/13 13/2/13 31/30/13
f 15/53/14 11/1/14 39/4/14 3/54/14
f 41/50/5 44/17/5 33/25/5 32/55/5
f 40/42/15 2/56/15 23/22/15 10/43/15
f 32/55/5 33/25/5 19/44/5 15/53/5
f 19/57/16 10/58/16 11/59/16 15/60/16
f 3/61/17 39/62/17 22/63/17 25/64/17
f 14/65/18 12/66/18 9/67/18 24/68/18
f 10/58/19 23/69/19 13/70/19 11/59/19
f 37/71/20 17/5/20 30/8/20 7/72/20
f 28/73/21 21/13/21 40/16/21 1/74/21
f 3/61/5 25/75/5 32/55/5 15/53/5
f 25/75/5 37/47/5 41/50/5 32/55/5
f 23/22/22 34/21/22 31/30/22 13/2/22
f 42/32/23 43/31/23 20/76/23 16/77/23
f 39/62/24 4/52/24 27/78/24 22/63/24
f 19/44/5 33/25/5 28/24/5 1/74/5
f 22/79/25 27/80/25 35/81/25 17/82/25
f 24/83/26 9/9/26 29/12/26 5/84/26
f 36/85/27 18/26/27 21/29/27 28/86/27
f 8/87/28 35/88/28 42/32/28 16/77/28
f 25/89/29 22/79/29 17/82/29 37/90/29
f 35/88/30 27/51/30 31/30/30 42/32/30
f 12/66/31 16/91/31 20/92/31 9/67/31
f 29/34/32 6/93/32 38/94/32 18/35/32
f 20/76/33 43/31/33 38/95/33 6/96/33
f 24/18/5 44/17/5 41/50/5 14/49/5
f 34/21/34 26/23/34 38/95/34 43/31/34
