# Blender v2.79 (sub 0) OBJ File: 'cattail.blend'
# www.blender.org
mtllib cattail.mtl
o Cube_Cube.001
v -0.005000 0.000000 0.005000
v -0.001000 1.000000 0.001000
v -0.005000 0.000000 -0.005000
v -0.001000 1.000000 -0.001000
v 0.005000 0.000000 0.005000
v 0.001000 1.000000 0.001000
v 0.005000 0.000000 -0.005000
v 0.001000 1.000000 -0.001000
v 0.000000 0.950000 -0.011756
v 0.000000 0.900000 -0.019021
v 0.000000 0.840000 -0.019021
v 0.000000 0.790000 -0.011756
v 0.011180 0.950000 -0.003633
v 0.018090 0.900000 -0.005878
v 0.018090 0.840000 -0.005878
v 0.011180 0.790000 -0.003633
v 0.006910 0.950000 0.009511
v 0.011180 0.900000 0.015388
v 0.011180 0.840000 0.015388
v 0.006910 0.790000 0.009511
v -0.000000 0.780000 0.000000
v -0.000000 0.960000 0.000000
v -0.006910 0.950000 0.009511
v -0.011180 0.900000 0.015388
v -0.011180 0.840000 0.015388
v -0.006910 0.790000 0.009511
v -0.011180 0.950000 -0.003633
v -0.018090 0.900000 -0.005878
v -0.018090 0.840000 -0.005878
v -0.011180 0.790000 -0.003633
vt 0.219467 0.840409
vt 0.219467 0.840409
vt 0.219467 0.840409
vt 0.219467 0.840409
vt 0.219467 0.840409
vt 0.219467 0.840409
vt 0.219467 0.840409
vt 0.219467 0.840409
vt 0.531029 0.715049
vt 0.531029 0.715049
vt 0.531029 0.715049
vt 0.531029 0.715049
vt 0.531029 0.715049
vt 0.531029 0.715049
vt 0.531029 0.715049
vt 0.531029 0.715049
vt 0.531029 0.715049
vt 0.531029 0.715049
vt 0.531029 0.715049
vt 0.531029 0.715049
vt 0.531029 0.715049
vt 0.531029 0.715049
vt 0.531029 0.715049
vt 0.531029 0.715049
vt 0.531029 0.715049
vt 0.531029 0.715049
vt 0.531029 0.715049
vt 0.531029 0.715049
vt 0.531029 0.715049
vt 0.531029 0.715049
vn -1.0000 0.0040 0.0000
vn 0.0000 0.0040 -1.0000
vn 1.0000 0.0040 0.0000
vn 0.0000 0.0040 1.0000
vn 0.0000 -1.0000 0.0000
vn 0.0000 1.0000 0.0000
vn 0.4259 -0.6892 -0.5862
vn 0.5878 -0.0000 -0.8090
vn 0.4259 0.6892 -0.5862
vn 0.5838 -0.1168 -0.8035
vn 0.5838 0.1168 -0.8035
vn 0.9446 -0.1168 0.3069
vn 0.9446 0.1168 0.3069
vn 0.6892 -0.6892 0.2239
vn 0.9511 -0.0000 0.3090
vn 0.6892 0.6892 0.2239
vn -0.0000 -0.1168 0.9932
vn -0.0000 0.1168 0.9932
vn -0.0000 -0.6892 0.7246
vn -0.0000 -0.0000 1.0000
vn -0.0000 0.6891 0.7246
vn -0.9446 -0.1168 0.3069
vn -0.9446 0.1168 0.3069
vn -0.6892 -0.6892 0.2239
vn -0.9511 -0.0000 0.3090
vn -0.6892 0.6891 0.2239
vn -0.5838 -0.1168 -0.8035
vn -0.5838 0.1168 -0.8035
vn -0.4259 -0.6892 -0.5862
vn -0.5878 -0.0000 -0.8090
vn -0.4259 0.6891 -0.5862
usemtl None
s off
f 1/1/1 2/2/1 4/3/1 3/4/1
f 3/4/2 4/3/2 8/5/2 7/6/2
f 7/6/3 8/5/3 6/7/3 5/8/3
f 5/8/4 6/7/4 2/2/4 1/1/4
f 3/4/5 7/6/5 5/8/5 1/1/5
f 8/5/6 4/3/6 2/2/6 6/7/6
f 21/9/7 12/10/7 16/11/7
f 11/12/8 10/13/8 14/14/8 15/15/8
f 9/16/9 22/17/9 13/18/9
f 12/10/10 11/12/10 15/15/10 16/11/10
f 10/13/11 9/16/11 13/18/11 14/14/11
f 16/11/12 15/15/12 19/19/12 20/20/12
f 14/14/13 13/18/13 17/21/13 18/22/13
f 21/9/14 16/11/14 20/20/14
f 15/15/15 14/14/15 18/22/15 19/19/15
f 13/18/16 22/17/16 17/21/16
f 20/20/17 19/19/17 25/23/17 26/24/17
f 18/22/18 17/21/18 23/25/18 24/26/18
f 21/9/19 20/20/19 26/24/19
f 19/19/20 18/22/20 24/26/20 25/23/20
f 17/21/21 22/17/21 23/25/21
f 26/24/22 25/23/22 29/27/22 30/28/22
f 24/26/23 23/25/23 27/29/23 28/30/23
f 21/9/24 26/24/24 30/28/24
f 25/23/25 24/26/25 28/30/25 29/27/25
f 23/25/26 22/17/26 27/29/26
f 30/28/27 29/27/27 11/12/27 12/10/27
f 28/30/28 27/29/28 9/16/28 10/13/28
f 21/9/29 30/28/29 12/10/29
f 29/27/30 28/30/30 10/13/30 11/12/30
f 27/29/31 22/17/31 9/16/31
