# Blender v2.79 (sub 0) OBJ File: 'clover.blend'
# www.blender.org
mtllib clover.mtl
o Cylinder
v 0.000000 0.000000 -0.000625
v 0.002910 0.051459 -0.009265
v 0.000541 0.000000 0.000312
v 0.009248 0.051459 0.001712
v -0.000541 0.000000 0.000312
v -0.009324 0.051459 0.001914
v -0.002986 0.051459 -0.009062
v 0.000614 0.050000 0.000560
v 0.008952 0.048541 -0.012604
v 0.014713 0.048541 -0.002625
v 0.005799 0.048541 0.013683
v -0.005723 0.048541 0.013683
v 0.000038 0.050000 -0.000438
v -0.000538 0.050000 0.000560
v -0.009180 0.048541 -0.012198
v -0.014941 0.048541 -0.002220
v 0.006375 0.051459 0.007122
v -0.006299 0.051459 0.007122
vt 0.022608 0.842534
vt 0.022608 0.842534
vt 0.022608 0.842534
vt 0.022608 0.842534
vt 0.022608 0.842534
vt 0.022608 0.842534
vt 0.022608 0.842534
vt 0.022608 0.842534
vt 0.022608 0.842534
vt 0.022608 0.842534
vt 0.022608 0.842534
vt 0.022608 0.842534
vt 0.022608 0.842534
vt 0.022608 0.842534
vt 0.022608 0.842534
vt 0.022608 0.842534
vt 0.022608 0.842534
vt 0.022608 0.842534
vn 0.8660 0.0012 -0.5000
vn -0.0000 -0.0050 1.0000
vn 0.0000 1.0000 0.0000
vn -0.8660 0.0025 -0.5000
vn 0.0000 -1.0000 0.0000
vn -0.1791 0.9784 0.1034
vn 0.3372 0.9211 -0.1947
vn -0.0000 0.9138 0.4063
vn -0.1783 -0.9786 -0.1030
vn 0.3359 -0.9217 0.1940
vn 0.0000 0.9762 -0.2170
usemtl None
s off
f 1/1/1 13/2/1 8/3/1 3/4/1
f 3/4/2 8/3/2 14/5/2 5/6/2
f 8/3/3 13/2/3 14/5/3
f 5/6/4 14/5/4 13/2/4 1/1/4
f 1/1/5 3/4/5 5/6/5
f 13/2/6 8/3/6 4/7/6 2/8/6
f 2/8/7 4/7/7 10/9/7 9/10/7
f 17/11/8 18/12/8 12/13/8 11/14/8
f 13/2/9 14/5/9 6/15/9 7/16/9
f 7/16/10 6/15/10 16/17/10 15/18/10
f 8/3/11 14/5/11 18/12/11 17/11/11
