# Blender v2.79 (sub 0) OBJ File: 'daisy1.blend'
# www.blender.org
mtllib daisy1.mtl
o Cylinder
v 0.000228 0.000001 -0.002988
v 0.005541 0.206221 -0.009291
v 0.002393 0.000001 0.000762
v -0.001937 0.000001 0.000762
v -0.010372 0.206221 0.000177
v -0.005079 0.206221 -0.009054
v 0.007067 0.200001 0.004283
v 0.000225 0.206221 -0.010552
v -0.006307 0.200001 0.004283
v 0.005635 0.206221 0.009462
v -0.004973 0.206221 0.009492
v 0.010856 0.206221 -0.000090
v 0.000380 0.208856 0.000423
v 0.000363 0.188563 -0.001455
v 0.001901 0.188563 0.001210
v -0.001176 0.188563 0.001210
v 0.009430 0.206221 0.005364
v 0.000380 0.200001 -0.007299
v -0.008851 0.206221 0.005535
v 0.009376 0.206221 -0.005404
v -0.008912 0.206221 -0.005115
v 0.000340 0.206221 0.010867
v 0.031823 0.201501 0.010074
v 0.032661 0.201501 0.006867
v 0.031656 0.201501 -0.009809
v 0.032412 0.201501 -0.007091
v 0.006960 0.201501 0.031994
v 0.009738 0.201501 0.031257
v -0.005694 0.201501 0.032874
v -0.009055 0.201501 0.032004
v 0.005494 0.201501 -0.032629
v 0.008373 0.201501 -0.031947
v -0.008489 0.201501 -0.031773
v -0.011068 0.201501 -0.031045
v -0.032348 0.201501 -0.005965
v -0.031660 0.201501 -0.009381
v -0.032031 0.201501 0.006993
v -0.031173 0.201501 0.010016
v -0.023524 0.201501 -0.023255
v -0.025588 0.201501 -0.021134
v 0.022339 0.201501 -0.025516
v 0.024107 0.201501 -0.023724
v -0.022249 0.201501 0.025460
v -0.024340 0.201501 0.023326
v 0.021660 0.201501 0.024909
v 0.023772 0.201501 0.022629
v 0.033482 0.200077 -0.000934
v 0.033601 0.200077 0.002172
v -0.000857 0.200077 0.032558
v 0.002131 0.200077 0.032588
v 0.000131 0.200077 -0.032767
v -0.002386 0.200077 -0.032784
v -0.032660 0.200077 0.001163
v -0.032700 0.200077 -0.001796
v -0.014422 0.200077 0.030846
v -0.017167 0.200077 0.029315
v -0.029255 0.200077 0.015369
v -0.027535 0.200077 0.018400
v -0.029856 0.200077 -0.013835
v -0.028670 0.200077 -0.016239
v -0.016763 0.200077 -0.028455
v -0.019281 0.200077 -0.026902
v 0.013578 0.200077 0.029446
v 0.016570 0.200077 0.027684
v 0.029188 0.200077 0.015734
v 0.027745 0.200077 0.018219
v 0.016877 0.200077 -0.029321
v 0.014420 0.200077 -0.030708
v 0.027700 0.200077 -0.018184
v 0.029375 0.200077 -0.015324
v 0.007674 0.205835 0.007498
v -0.010169 0.205835 0.002741
v 0.002558 0.205835 -0.010396
v -0.002596 0.205835 0.010228
v 0.010210 0.205835 -0.002819
v 0.007362 0.205835 -0.007685
v 0.002945 0.205835 0.010283
v 0.010424 0.205835 0.002762
v -0.007552 0.205835 -0.007565
v -0.010244 0.205835 -0.002755
v -0.007460 0.205835 0.007514
v -0.002903 0.205835 -0.010433
vt 0.022608 0.842534
vt 0.022608 0.842534
vt 0.022608 0.842534
vt 0.022608 0.842534
vt 0.022608 0.842534
vt 0.022608 0.842534
vt 0.765764 0.724416
vt 0.765764 0.724416
vt 0.765764 0.724416
vt 0.022608 0.842534
vt 0.022608 0.842534
vt 0.022608 0.842534
vt 0.460628 0.906514
vt 0.460628 0.906514
vt 0.460628 0.906514
vt 0.460628 0.906514
vt 0.460628 0.906514
vt 0.460628 0.906514
vt 0.460628 0.906514
vt 0.460628 0.906514
vt 0.460628 0.906514
vt 0.460628 0.906514
vt 0.460628 0.906514
vt 0.460628 0.906514
vt 0.460628 0.906514
vt 0.460628 0.906514
vt 0.460628 0.906514
vt 0.460628 0.906514
vt 0.460628 0.906514
vt 0.460628 0.906514
vt 0.460628 0.906514
vt 0.765764 0.724416
vt 0.460628 0.906514
vt 0.460628 0.906514
vt 0.460628 0.906514
vt 0.460628 0.906514
vt 0.460628 0.906514
vt 0.460628 0.906514
vt 0.460628 0.906514
vt 0.460628 0.906514
vt 0.460628 0.906514
vt 0.460628 0.906514
vt 0.460628 0.906514
vt 0.460628 0.906514
vt 0.460628 0.906514
vt 0.460628 0.906514
vt 0.460628 0.906514
vt 0.460628 0.906514
vt 0.460628 0.906514
vt 0.460628 0.906514
vt 0.460628 0.906514
vt 0.460628 0.906514
vt 0.460628 0.906514
vt 0.460628 0.906514
vt 0.460628 0.906514
vt 0.460628 0.906514
vt 0.460628 0.906514
vt 0.460628 0.906514
vt 0.460628 0.906514
vt 0.460628 0.906514
vt 0.460628 0.906514
vt 0.460628 0.906514
vt 0.460628 0.906514
vt 0.460628 0.906514
vt 0.460628 0.906514
vt 0.460628 0.906514
vt 0.460628 0.906514
vt 0.460628 0.906514
vt 0.460628 0.906514
vt 0.460628 0.906514
vt 0.460628 0.906514
vt 0.460628 0.906514
vt 0.460628 0.906514
vt 0.460628 0.906514
vt 0.460628 0.906514
vt 0.460628 0.906514
vt 0.460628 0.906514
vt 0.460628 0.906514
vt 0.460628 0.906514
vt 0.460628 0.906514
vt 0.460628 0.906514
vt 0.460628 0.906514
vt 0.460628 0.906514
vt 0.460628 0.906514
vt 0.460628 0.906514
vt 0.460628 0.906514
vt 0.460628 0.906514
vt 0.460628 0.906514
vn 0.8388 -0.2487 -0.4843
vn 0.0000 -0.2595 0.9657
vn 0.0000 0.3996 0.9167
vn -0.8393 -0.2464 -0.4846
vn 0.0000 -1.0000 0.0000
vn -0.6195 0.6988 0.3577
vn -0.1955 0.9795 -0.0482
vn -0.1959 0.9791 0.0556
vn 0.6141 0.7056 0.3535
vn -0.1433 0.9798 -0.1395
vn -0.0009 0.6825 -0.7309
vn 0.7939 0.3996 -0.4583
vn -0.7939 0.3996 -0.4583
vn -0.8660 0.0047 -0.5000
vn -0.0000 -0.0024 1.0000
vn 0.8660 0.0034 -0.5000
vn 0.7876 0.4139 -0.4565
vn -0.8100 0.3846 -0.4427
vn 0.0198 0.4637 0.8858
vn -0.1405 0.9804 0.1378
vn 0.1522 0.9782 0.1410
vn 0.1410 0.9802 -0.1391
vn 0.1957 0.9793 0.0512
vn 0.1966 0.9790 -0.0548
vn 0.0535 0.9780 0.2017
vn -0.0507 0.9793 0.1961
vn 0.0470 0.9791 -0.1981
vn -0.0551 0.9792 -0.1952
vn 0.2123 0.9694 0.1232
vn 0.1290 0.9672 0.2190
vn 0.1169 0.9713 -0.2071
vn -0.0025 0.9683 0.2498
vn 0.2409 0.9705 -0.0092
vn -0.2173 0.9691 -0.1168
vn -0.2126 0.9696 0.1207
vn -0.1147 0.9719 0.2056
vn 0.0017 0.9684 -0.2494
vn -0.2482 0.9687 0.0034
vn -0.1295 0.9691 -0.2100
vn 0.2108 0.9697 -0.1234
usemtl None
s off
f 14/1/1 18/2/1 7/3/1 15/4/1
f 15/4/2 7/3/2 9/5/2 16/6/2
f 9/7/3 7/8/3 13/9/3
f 16/6/4 9/5/4 18/2/4 14/1/4
f 1/10/5 3/11/5 4/12/5
f 18/13/6 7/14/6 12/15/6 20/16/6 2/17/6
f 21/18/7 36/19/7 35/20/7 5/21/7
f 5/21/8 37/22/8 38/23/8 19/24/8
f 18/13/9 6/25/9 21/18/9 5/21/9 9/26/9
f 6/25/10 39/27/10 40/28/10 21/18/10
f 7/14/11 9/26/11 11/29/11 22/30/11 10/31/11
f 7/8/12 18/32/12 13/9/12
f 18/32/13 9/7/13 13/9/13
f 4/12/14 16/6/14 14/1/14 1/10/14
f 3/11/15 15/4/15 16/6/15 4/12/15
f 1/10/16 14/1/16 15/4/16 3/11/16
f 5/21/17 19/24/17 11/29/17 9/26/17
f 7/14/18 10/31/18 17/33/18 12/15/18
f 18/13/19 2/17/19 8/34/19 6/25/19
f 19/24/20 44/35/20 43/36/20 11/29/20
f 17/33/21 10/31/21 45/37/21 46/38/21
f 2/17/22 20/16/22 42/39/22 41/40/22
f 12/15/23 17/33/23 23/41/23 24/42/23
f 20/16/24 12/15/24 26/43/24 25/44/24
f 10/31/25 22/30/25 27/45/25 28/46/25
f 22/30/26 11/29/26 30/47/26 29/48/26
f 2/17/27 32/49/27 31/50/27 8/34/27
f 8/34/28 33/51/28 34/52/28 6/25/28
f 78/53/29 71/54/29 66/55/29 65/56/29
f 71/54/30 77/57/30 63/58/30 64/59/30
f 73/60/31 76/61/31 67/62/31 68/63/31
f 74/64/32 49/65/32 50/66/32 77/57/32
f 75/67/33 78/53/33 48/68/33 47/69/33
f 79/70/34 60/71/34 59/72/34 80/73/34
f 72/74/35 57/75/35 58/76/35 81/77/35
f 81/77/36 56/78/36 55/79/36 74/64/36
f 82/80/37 73/60/37 51/81/37 52/82/37
f 80/73/38 54/83/38 53/84/38 72/74/38
f 82/80/39 61/85/39 62/86/39 79/70/39
f 76/61/40 75/67/40 70/87/40 69/88/40
