# Blender v2.79 (sub 0) OBJ File: 'purslane.blend'
# www.blender.org
mtllib purslane.mtl
o Cylinder
v -0.008660 -0.000090 0.000000
v -0.004330 0.000042 -0.100000
v 0.008660 -0.000090 -0.000000
v 0.004330 -0.000052 -0.100000
v -0.000000 0.014910 -0.014250
v -0.000000 0.007448 -0.100000
v -0.004330 0.000215 -0.150902
v 0.004330 0.000127 -0.150937
v -0.000000 0.007095 -0.148162
v -0.002165 0.021258 -0.189661
v 0.002165 0.021258 -0.189661
v -0.000000 0.024194 -0.187329
v 0.002991 0.009377 -0.174742
v -0.002991 0.009406 -0.174720
v -0.000000 0.013434 -0.171521
v 0.002136 0.021257 -0.189662
v 0.004201 0.021257 -0.208210
v -0.002102 0.021257 -0.189662
v -0.004166 0.021257 -0.208210
v 0.007113 0.022075 -0.201114
v -0.007079 0.022075 -0.201114
v 0.007113 0.021802 -0.204662
v -0.007079 0.021802 -0.204662
v -0.007278 0.023296 -0.173230
v -0.017115 0.023296 -0.183461
v -0.004720 0.023569 -0.175689
v -0.014557 0.023569 -0.185920
v -0.011854 0.022751 -0.172870
v 0.000085 0.022751 -0.187214
v -0.017654 0.022751 -0.178902
v -0.002852 0.022751 -0.190269
v 0.017925 0.022549 -0.189048
v 0.012282 0.022549 -0.176026
v 0.014670 0.022822 -0.190459
v 0.009027 0.022822 -0.177436
v 0.020023 0.022004 -0.184965
v 0.002183 0.022004 -0.190445
v 0.016696 0.022004 -0.177287
v 0.000498 0.022004 -0.186556
v 0.002036 0.003515 -0.097887
v 0.040781 0.003515 -0.093574
v 0.002036 0.003515 -0.106740
v 0.040781 0.003515 -0.111052
v 0.025958 0.005224 -0.087490
v 0.025958 0.005224 -0.117136
v 0.033370 0.004654 -0.087490
v 0.033370 0.004654 -0.117136
v -0.001953 0.003515 -0.106740
v -0.040698 0.003515 -0.111052
v -0.001953 0.003515 -0.097887
v -0.040698 0.003515 -0.093574
v -0.025875 0.005224 -0.117136
v -0.025875 0.005224 -0.087490
v -0.033287 0.004654 -0.117136
v -0.033287 0.004654 -0.087490
v 0.001612 0.004418 -0.150175
v 0.029152 0.004418 -0.147110
v 0.001612 0.004418 -0.156468
v 0.029152 0.004418 -0.159533
v 0.018616 0.005633 -0.142785
v 0.018616 0.005633 -0.163858
v 0.023884 0.005228 -0.142785
v 0.023884 0.005228 -0.163858
v -0.001459 0.004418 -0.156468
v -0.029000 0.004418 -0.159533
v -0.001459 0.004418 -0.150175
v -0.029000 0.004418 -0.147110
v -0.018463 0.005633 -0.163858
v -0.018463 0.005633 -0.142785
v -0.023731 0.005228 -0.163858
v -0.023731 0.005228 -0.142785
v 0.000810 0.005626 -0.101665
v 0.023146 0.007573 -0.112720
v -0.000226 0.005626 -0.105983
v 0.017209 0.007573 -0.121246
v 0.017981 0.008590 -0.104718
v 0.007912 0.008590 -0.119180
v 0.021597 0.008251 -0.107235
v 0.011528 0.008251 -0.121697
v -0.020642 0.010106 -0.099599
v -0.017196 0.010106 -0.116881
v -0.016322 0.010445 -0.098738
v -0.012876 0.010445 -0.116019
v -0.024255 0.009429 -0.104008
v -0.001169 0.004955 -0.102018
v -0.022224 0.009429 -0.114196
v -0.000140 0.004955 -0.107178
v 0.013357 0.009178 -0.085140
v -0.003916 0.011495 -0.081651
v 0.012485 0.009517 -0.089458
v -0.004788 0.011834 -0.085969
v 0.010685 0.008501 -0.080106
v 0.001438 0.004838 -0.102286
v 0.000501 0.010044 -0.078049
v 0.000122 0.007126 -0.102645
v -0.001679 0.004947 -0.153524
v -0.010536 0.007573 -0.132265
v -0.000283 0.007369 -0.151978
v -0.003842 0.010958 -0.129211
v -0.011404 0.008590 -0.141749
v 0.002204 0.011974 -0.136570
v -0.012699 0.008251 -0.137538
v 0.000909 0.011635 -0.132360
v 0.015851 0.010106 -0.169591
v 0.023792 0.010106 -0.153860
v 0.011918 0.010445 -0.167605
v 0.019859 0.010445 -0.151874
v 0.021413 0.009429 -0.168348
v 0.001043 0.007172 -0.155936
v 0.026095 0.009429 -0.159073
v 0.000503 0.006433 -0.150729
v -0.019833 0.009178 -0.160015
v -0.008384 0.009178 -0.173410
v -0.016484 0.009517 -0.157152
v -0.005035 0.009517 -0.170548
v -0.020832 0.008501 -0.165626
v -0.000934 0.005875 -0.152612
v -0.014083 0.008501 -0.173523
v 0.001759 0.005875 -0.156612
vt 0.718549 0.652107
vt 0.718549 0.652107
vt 0.718549 0.652107
vt 0.718549 0.652107
vt 0.718549 0.652107
vt 0.718549 0.652107
vt 0.718549 0.652107
vt 0.718549 0.652107
vt 0.718549 0.652107
vt 0.718549 0.652107
vt 0.718549 0.652107
vt 0.718549 0.652107
vt 0.718549 0.652107
vt 0.718549 0.652107
vt 0.718549 0.652107
vt 0.160412 0.837800
vt 0.160412 0.837800
vt 0.160412 0.837800
vt 0.160412 0.837800
vt 0.160412 0.837800
vt 0.160412 0.837800
vt 0.160412 0.837800
vt 0.160412 0.837800
vt 0.160412 0.837800
vt 0.160412 0.837800
vt 0.160412 0.837800
vt 0.160412 0.837800
vt 0.160412 0.837800
vt 0.160412 0.837800
vt 0.160412 0.837800
vt 0.160412 0.837800
vt 0.160412 0.837800
vt 0.160412 0.837800
vt 0.160412 0.837800
vt 0.160412 0.837800
vt 0.160412 0.837800
vt 0.160412 0.837800
vt 0.160412 0.837800
vt 0.160412 0.837800
vt 0.160412 0.837800
vt 0.160412 0.837800
vt 0.160412 0.837800
vt 0.160412 0.837800
vt 0.160412 0.837800
vt 0.160412 0.837800
vt 0.160412 0.837800
vt 0.160412 0.837800
vt 0.160412 0.837800
vt 0.160412 0.837800
vt 0.160412 0.837800
vt 0.160412 0.837800
vt 0.160412 0.837800
vt 0.160412 0.837800
vt 0.160412 0.837800
vt 0.160412 0.837800
vt 0.160412 0.837800
vt 0.160412 0.837800
vt 0.160412 0.837800
vt 0.160412 0.837800
vt 0.160412 0.837800
vt 0.160412 0.837800
vt 0.160412 0.837800
vt 0.160412 0.837800
vt 0.160412 0.837800
vt 0.160412 0.837800
vt 0.160412 0.837800
vt 0.160412 0.837800
vt 0.160412 0.837800
vt 0.160412 0.837800
vt 0.160412 0.837800
vt 0.160412 0.837800
vt 0.160412 0.837800
vt 0.160412 0.837800
vt 0.160412 0.837800
vt 0.160412 0.837800
vt 0.160412 0.837800
vt 0.160412 0.837800
vt 0.160412 0.837800
vt 0.160412 0.837800
vt 0.160412 0.837800
vt 0.160412 0.837800
vt 0.160412 0.837800
vt 0.160412 0.837800
vt 0.160412 0.837800
vt 0.160412 0.837800
vt 0.160412 0.837800
vt 0.160412 0.837800
vt 0.160412 0.837800
vt 0.160412 0.837800
vt 0.160412 0.837800
vt 0.160412 0.837800
vt 0.160412 0.837800
vt 0.160412 0.837800
vt 0.160412 0.837800
vt 0.160412 0.837800
vt 0.160412 0.837800
vt 0.160412 0.837800
vt 0.160412 0.837800
vt 0.160412 0.837800
vt 0.160412 0.837800
vt 0.160412 0.837800
vt 0.160412 0.837800
vt 0.160412 0.837800
vt 0.160412 0.837800
vt 0.160412 0.837800
vt 0.160412 0.837800
vt 0.160412 0.837800
vt 0.160412 0.837800
vt 0.160412 0.837800
vt 0.160412 0.837800
vt 0.160412 0.837800
vt 0.160412 0.837800
vt 0.160412 0.837800
vt 0.160412 0.837800
vt 0.160412 0.837800
vt 0.160412 0.837800
vt 0.160412 0.837800
vt 0.160412 0.837800
vt 0.160412 0.837800
vn -0.0036 -1.0000 -0.0008
vn 0.8760 0.4807 -0.0396
vn -0.8550 0.5185 -0.0009
vn -0.8751 0.4823 -0.0394
vn 0.0000 0.6888 0.7250
vn -0.8645 0.4157 0.2825
vn 0.8580 0.5137 -0.0009
vn -0.0106 -0.9999 -0.0035
vn 0.0000 0.6219 -0.7831
vn 0.8654 0.4142 0.2819
vn -0.0035 -0.7829 -0.6222
vn -0.0088 -0.9325 -0.3611
vn 0.8581 0.4943 0.1390
vn -0.8557 0.4982 0.1397
vn -0.0000 0.9884 -0.1520
vn -0.0000 0.9975 0.0713
vn -0.0000 0.9971 -0.0767
vn 0.0514 0.9975 -0.0494
vn -0.0553 0.9971 0.0531
vn -0.1096 0.9884 0.1053
vn -0.0654 0.9975 -0.0283
vn 0.0703 0.9971 0.0305
vn 0.1395 0.9884 0.0604
vn 0.1520 0.9884 -0.0000
vn -0.0713 0.9975 -0.0000
vn 0.0767 0.9971 -0.0000
vn -0.1520 0.9884 0.0000
vn 0.0713 0.9975 0.0000
vn -0.0767 0.9971 0.0000
vn 0.1247 0.9884 -0.0868
vn -0.1665 0.9811 0.0985
vn 0.0629 0.9971 -0.0438
vn 0.3532 0.9329 0.0704
vn -0.0752 0.9971 -0.0150
vn -0.1490 0.9884 -0.0297
vn 0.1739 0.9274 -0.3312
vn 0.1424 0.9886 0.0488
vn 0.1762 0.9634 0.2018
vn -0.3337 0.9414 0.0489
vn -0.2062 0.9198 -0.3340
vn -0.2426 0.9701 0.0035
vn -0.1918 0.9761 0.1023
vn 0.0684 0.9971 -0.0345
vn 0.1357 0.9884 -0.0685
vn 0.1891 0.9699 0.1537
vn -0.0583 0.9971 -0.0498
vn -0.1155 0.9884 -0.0987
usemtl None
s off
f 1/1/1 2/2/1 4/3/1 3/4/1
f 3/4/2 4/3/2 6/5/2 5/6/2
f 2/2/3 6/5/3 9/7/3 7/8/3
f 5/6/4 6/5/4 2/2/4 1/1/4
f 1/1/5 3/4/5 5/6/5
f 14/9/6 15/10/6 12/11/6 10/12/6
f 6/5/7 4/3/7 8/13/7 9/7/7
f 4/3/8 2/2/8 7/8/8 8/13/8
f 11/14/9 10/12/9 12/11/9
f 15/10/10 13/15/10 11/14/10 12/11/10
f 13/15/11 14/9/11 10/12/11 11/14/11
f 8/13/12 7/8/12 14/9/12 13/15/12
f 9/7/13 8/13/13 13/15/13 15/10/13
f 7/8/14 9/7/14 15/10/14 14/9/14
f 22/16/15 17/17/15 19/18/15 23/19/15
f 16/20/16 20/21/16 21/22/16 18/23/16
f 20/21/17 22/16/17 23/19/17 21/22/17
f 31/24/18 27/25/18 26/26/18 29/27/18
f 27/25/19 25/28/19 24/29/19 26/26/19
f 25/28/20 30/30/20 28/31/20 24/29/20
f 39/32/21 35/33/21 34/34/21 37/35/21
f 35/33/22 33/36/22 32/37/22 34/34/22
f 33/36/23 38/38/23 36/39/23 32/37/23
f 46/40/24 41/41/24 43/42/24 47/43/24
f 40/44/25 44/45/25 45/46/25 42/47/25
f 44/45/26 46/40/26 47/43/26 45/46/26
f 54/48/27 49/49/27 51/50/27 55/51/27
f 48/52/28 52/53/28 53/54/28 50/55/28
f 52/53/29 54/48/29 55/51/29 53/54/29
f 62/56/24 57/57/24 59/58/24 63/59/24
f 56/60/25 60/61/25 61/62/25 58/63/25
f 60/61/26 62/56/26 63/59/26 61/62/26
f 70/64/27 65/65/27 67/66/27 71/67/27
f 64/68/28 68/69/28 69/70/28 66/71/28
f 68/69/29 70/64/29 71/67/29 69/70/29
f 78/72/30 73/73/30 75/74/30 79/75/30
f 72/76/31 76/77/31 77/78/31 74/79/31
f 76/77/32 78/72/32 79/75/32 77/78/32
f 87/80/33 83/81/33 82/82/33 85/83/33
f 83/81/34 81/84/34 80/85/34 82/82/34
f 81/84/35 86/86/35 84/87/35 80/85/35
f 95/88/36 91/89/36 90/90/36 93/91/36
f 91/89/37 89/92/37 88/93/37 90/90/37
f 89/92/38 94/94/38 92/95/38 88/93/38
f 102/96/39 97/97/39 99/98/39 103/99/39
f 96/100/40 100/101/40 101/102/40 98/103/40
f 100/101/41 102/96/41 103/99/41 101/102/41
f 111/104/42 107/105/42 106/106/42 109/107/42
f 107/105/43 105/108/43 104/109/43 106/106/43
f 105/108/44 110/110/44 108/111/44 104/109/44
f 119/112/45 115/113/45 114/114/45 117/115/45
f 115/113/46 113/116/46 112/117/46 114/114/46
f 113/116/47 118/118/47 116/119/47 112/117/47
