# Blender v2.79 (sub 0) OBJ File: 'rye.blend'
# www.blender.org
mtllib rye.mtl
o Cube_Cube.001
v -0.003009 -0.000001 0.003009
v -0.000602 0.386425 0.000602
v -0.003009 -0.000001 -0.003009
v -0.000602 0.386425 -0.000602
v 0.003009 -0.000001 0.003009
v 0.000602 0.386425 0.000602
v 0.003009 -0.000001 -0.003009
v 0.000602 0.386425 -0.000602
v -0.000000 0.456689 0.006277
v -0.000000 0.426945 0.000289
v -0.000000 0.401323 -0.001204
v 0.000000 0.380816 -0.000599
v 0.001752 0.460383 0.006239
v 0.003280 0.430521 0.000389
v 0.003894 0.404778 -0.001661
v 0.002871 0.384331 -0.001588
v 0.001473 0.459419 0.008121
v 0.002757 0.429327 0.003558
v 0.003273 0.403851 0.002543
v 0.002414 0.383971 0.001963
v -0.000000 0.363905 0.000736
v -0.000000 0.478369 0.011898
v -0.001473 0.459419 0.008121
v -0.002757 0.429327 0.003558
v -0.003273 0.403851 0.002543
v -0.002414 0.383971 0.001963
v -0.001752 0.460383 0.006239
v -0.003280 0.430521 0.000389
v -0.003894 0.404778 -0.001661
v -0.002871 0.384331 -0.001588
vt 0.280986 0.845331
vt 0.280986 0.845331
vt 0.280986 0.845331
vt 0.280986 0.845331
vt 0.280986 0.845331
vt 0.280986 0.845331
vt 0.280986 0.845331
vt 0.280986 0.845331
vt 0.220970 0.845471
vt 0.220970 0.845471
vt 0.220970 0.845471
vt 0.220970 0.845471
vt 0.220970 0.845471
vt 0.220970 0.845471
vt 0.220970 0.845471
vt 0.220970 0.845471
vt 0.220970 0.845471
vt 0.220970 0.845471
vt 0.161912 0.840549
vt 0.161912 0.840549
vt 0.161912 0.840549
vt 0.161912 0.840549
vt 0.161912 0.840549
vt 0.161912 0.840549
vt 0.161912 0.840549
vt 0.161912 0.840549
vt 0.161912 0.840549
vt 0.161912 0.840549
vt 0.220970 0.845471
vt 0.220970 0.845471
vt 0.220970 0.845471
vt 0.220970 0.845471
vt 0.220970 0.845471
vt 0.220970 0.845471
vt 0.220970 0.845471
vt 0.220970 0.845471
vt 0.161912 0.840549
vt 0.161912 0.840549
vt 0.161912 0.840549
vt 0.161912 0.840549
vt 0.161912 0.840549
vt 0.161912 0.840549
vt 0.161912 0.840549
vt 0.161912 0.840549
vt 0.220970 0.845471
vt 0.220970 0.845471
vt 0.220970 0.845471
vt 0.220970 0.845471
vn -1.0000 0.0062 0.0000
vn 0.0000 0.0062 -1.0000
vn 1.0000 0.0062 0.0000
vn 0.0000 0.0062 1.0000
vn 0.0000 -1.0000 0.0000
vn 0.0000 1.0000 0.0000
vn -0.2397 -0.0764 -0.9678
vn -0.1149 0.0670 -0.9911
vn -0.4820 0.2199 -0.8481
vn -0.1978 -0.0113 -0.9802
vn -0.2516 0.1823 -0.9505
vn 0.9904 -0.0479 0.1298
vn 0.9863 0.0178 0.1642
vn 0.9855 -0.1255 0.1143
vn 0.9876 0.0124 0.1567
vn 0.9848 0.0430 0.1681
vn -0.0000 -0.0291 0.9996
vn 0.0000 -0.1499 0.9887
vn -0.0000 -0.0610 0.9981
vn -0.0000 -0.0398 0.9992
vn 0.0000 -0.1955 0.9807
vn -0.9904 -0.0479 0.1298
vn -0.9863 0.0178 0.1642
vn -0.9855 -0.1255 0.1143
vn -0.9876 0.0124 0.1567
vn -0.9848 0.0430 0.1681
vn 0.1978 -0.0113 -0.9802
vn 0.2516 0.1823 -0.9505
vn 0.2397 -0.0764 -0.9678
vn 0.1149 0.0670 -0.9911
vn 0.4820 0.2199 -0.8481
usemtl None
s off
f 1/1/1 2/2/1 4/3/1 3/4/1
f 3/4/2 4/3/2 8/5/2 7/6/2
f 7/6/3 8/5/3 6/7/3 5/8/3
f 5/8/4 6/7/4 2/2/4 1/1/4
f 3/4/5 7/6/5 5/8/5 1/1/5
f 8/5/6 4/3/6 2/2/6 6/7/6
f 21/9/7 12/10/7 16/11/7
f 11/12/8 10/13/8 14/14/8 15/15/8
f 9/16/9 22/17/9 13/18/9
f 12/10/10 11/12/10 15/15/10 16/11/10
f 10/13/11 9/16/11 13/18/11 14/14/11
f 16/19/12 15/20/12 19/21/12 20/22/12
f 14/23/13 13/24/13 17/25/13 18/26/13
f 21/27/14 16/19/14 20/22/14
f 15/20/15 14/23/15 18/26/15 19/21/15
f 13/24/16 22/28/16 17/25/16
f 20/29/17 19/30/17 25/31/17 26/32/17
f 18/33/18 17/34/18 23/35/18 24/36/18
f 21/9/19 20/29/19 26/32/19
f 19/30/20 18/33/20 24/36/20 25/31/20
f 17/34/21 22/17/21 23/35/21
f 26/37/22 25/38/22 29/39/22 30/40/22
f 24/41/23 23/42/23 27/43/23 28/44/23
f 21/27/24 26/37/24 30/40/24
f 25/38/25 24/41/25 28/44/25 29/39/25
f 23/42/26 22/28/26 27/43/26
f 30/45/27 29/46/27 11/12/27 12/10/27
f 28/47/28 27/48/28 9/16/28 10/13/28
f 21/9/29 30/45/29 12/10/29
f 29/46/30 28/47/30 10/13/30 11/12/30
f 27/48/31 22/17/31 9/16/31
