# Blender v2.79 (sub 0) OBJ File: 'tree-pine1.blend'
# www.blender.org
mtllib tree-pine1.mtl
o stalk_Cube.001
v -0.133224 -0.073389 0.133224
v -0.133224 -0.089383 -0.133224
v 0.133224 -0.078276 0.133224
v 0.133224 -0.093138 -0.133224
v -0.177632 -0.081034 0.000000
v 0.177632 -0.086792 0.000000
v -0.000000 -0.093393 -0.177632
v -0.000000 -0.072774 0.177632
v -0.000000 -0.149471 0.000000
v -0.000000 3.810292 0.000000
v 0.431750 2.408838 -0.273918
v 0.393930 2.408838 0.325973
v -0.188288 2.408838 0.475381
v -0.000000 3.939429 -0.000000
v -0.510298 2.408838 -0.032172
v -0.127094 2.408838 -0.495264
v 0.355657 1.810734 0.501568
v -0.367115 1.810734 0.493243
v -0.582547 1.810734 -0.196726
v 0.000000 3.932381 0.000000
v 0.007081 1.810734 -0.614827
v 0.586923 1.810734 -0.183257
v 0.612322 1.147482 -0.360430
v 0.532007 1.147482 0.470974
v -0.283523 1.147482 0.651508
v -0.000000 3.885508 -0.000000
v -0.707234 1.147482 -0.068320
v -0.153571 1.147482 -0.693732
v -0.000000 0.485989 -0.770158
v 0.732464 0.485989 -0.237992
v 0.452688 0.485989 0.623071
v -0.000000 3.871603 -0.000000
v -0.452688 0.485989 0.623071
v -0.732464 0.485989 -0.237992
vt 0.031512 0.659315
vt 0.031512 0.659315
vt 0.031512 0.659315
vt 0.031512 0.659315
vt 0.031512 0.659315
vt 0.031512 0.659315
vt 0.031512 0.659315
vt 0.031512 0.659315
vt 0.031512 0.659315
vt 0.031512 0.659315
vt 0.720435 0.840588
vt 0.720435 0.840588
vt 0.720435 0.840588
vt 0.720435 0.840588
vt 0.720435 0.840588
vt 0.720435 0.840588
vt 0.653777 0.843688
vt 0.653777 0.843688
vt 0.653777 0.843688
vt 0.653777 0.843688
vt 0.653777 0.843688
vt 0.653777 0.843688
vt 0.594870 0.843688
vt 0.594870 0.843688
vt 0.594870 0.843688
vt 0.594870 0.843688
vt 0.594870 0.843688
vt 0.594870 0.843688
vt 0.539062 0.835938
vt 0.539062 0.835938
vt 0.539062 0.835938
vt 0.539062 0.835938
vt 0.539062 0.835938
vt 0.539062 0.835938
vn 0.3159 0.0431 -0.9478
vn 0.9486 0.0432 0.3134
vn -0.3161 0.0434 0.9477
vn -0.9485 0.0433 0.3137
vn 0.2128 -0.9342 0.2865
vn 0.9472 0.0432 -0.3178
vn 0.2203 -0.9578 -0.1847
vn -0.3148 0.0431 -0.9482
vn -0.2477 -0.9517 -0.1815
vn -0.2431 -0.9268 0.2862
vn 0.3175 0.0433 0.9473
vn -0.9470 0.0432 -0.3184
vn 0.9635 0.2609 0.0607
vn 0.2400 0.2609 0.9351
vn -0.8152 0.2609 0.5172
vn -0.7437 0.2609 -0.6154
vn 0.3555 0.2609 -0.8975
vn 0.0000 -1.0000 0.0000
vn -0.0112 0.2283 0.9735
vn -0.9294 0.2283 0.2902
vn -0.5632 0.2283 -0.7942
vn 0.5813 0.2283 -0.7810
vn 0.9224 0.2283 0.3115
vn 0.9741 0.2055 0.0941
vn 0.2115 0.2055 0.9555
vn -0.8434 0.2055 0.4964
vn -0.7328 0.2055 -0.6487
vn 0.3905 0.2055 -0.8974
vn 0.5781 0.1810 -0.7957
vn 0.9353 0.1810 0.3039
vn 0.0000 0.1810 0.9835
vn -0.9353 0.1810 0.3039
vn -0.5781 0.1810 -0.7957
usemtl None
s off
f 7/1/1 10/2/1 4/3/1
f 6/4/2 10/2/2 3/5/2
f 8/6/3 10/2/3 1/7/3
f 1/7/4 10/2/4 5/8/4
f 9/9/5 6/4/5 3/5/5 8/6/5
f 4/3/6 10/2/6 6/4/6
f 7/1/7 4/3/7 6/4/7 9/9/7
f 2/10/8 10/2/8 7/1/8
f 2/10/9 7/1/9 9/9/9 5/8/9
f 5/8/10 9/9/10 8/6/10 1/7/10
f 3/5/11 10/2/11 8/6/11
f 5/8/12 10/2/12 2/10/12
f 11/11/13 14/12/13 12/13/13
f 12/13/14 14/12/14 13/14/14
f 13/14/15 14/12/15 15/15/15
f 15/15/16 14/12/16 16/16/16
f 16/16/17 14/12/17 11/11/17
f 11/11/18 12/13/18 13/14/18 15/15/18 16/16/18
f 17/17/19 20/18/19 18/19/19
f 18/19/20 20/18/20 19/20/20
f 19/20/21 20/18/21 21/21/21
f 21/21/22 20/18/22 22/22/22
f 22/22/23 20/18/23 17/17/23
f 17/17/18 18/19/18 19/20/18 21/21/18 22/22/18
f 23/23/24 26/24/24 24/25/24
f 24/25/25 26/24/25 25/26/25
f 25/26/26 26/24/26 27/27/26
f 27/27/27 26/24/27 28/28/27
f 28/28/28 26/24/28 23/23/28
f 23/23/18 24/25/18 25/26/18 27/27/18 28/28/18
f 29/29/29 32/30/29 30/31/29
f 30/31/30 32/30/30 31/32/30
f 31/32/31 32/30/31 33/33/31
f 33/33/32 32/30/32 34/34/32
f 34/34/33 32/30/33 29/29/33
f 29/29/18 30/31/18 31/32/18 33/33/18 34/34/18
