# Blender v2.79 (sub 0) OBJ File: 'tree-oak0.blend'
# www.blender.org
mtllib tree-oak0.mtl
o stalk_Cube.001
v -0.160262 -0.110515 0.160266
v -0.160262 -0.128636 -0.160262
v 0.160267 -0.115706 0.160266
v 0.160267 -0.132657 -0.160262
v -0.213683 -0.119303 0.000002
v 0.213688 -0.125435 0.000002
v 0.000002 -0.133160 -0.213684
v 0.000002 -0.109754 0.213688
v 0.000002 -0.198772 0.000002
v -0.000658 3.122897 0.022126
v -0.022735 0.962840 -0.001865
v 2.573829 2.280628 1.837412
v -0.562498 1.804689 2.531692
v -2.947366 2.244645 -0.371584
v -0.854259 2.203782 -2.608221
v 2.612507 2.391443 -1.743123
v 0.887734 3.463247 1.828706
v -1.084578 3.370329 0.805502
v -1.557357 3.362808 -1.082590
v 0.453630 3.536206 -1.743727
v 1.842671 3.625144 0.052397
v 0.173857 4.988791 -0.014706
v -0.497541 1.046609 1.726467
v 1.451070 1.037758 1.092085
v 1.040651 1.705928 2.784415
v 2.812749 1.860999 0.051312
v 1.480538 0.963455 -1.016609
v -1.843202 1.057037 -0.105932
v -2.233532 1.777935 1.632511
v -0.608705 0.955582 -1.813732
v -2.486356 1.831608 -2.007599
v 0.958997 1.823441 -2.826729
v 2.780100 2.878176 0.933924
v 2.448716 3.122986 -0.832228
v 0.326911 2.647352 2.150347
v 1.553908 2.808061 1.848336
v -2.044419 2.860420 0.436259
v -1.021268 2.712134 1.796242
v -1.371624 2.838019 -1.876062
v -2.721372 2.649773 -1.025954
v 1.212492 2.931731 -1.699453
v 0.044185 2.835842 -2.369591
v 1.642968 3.804151 1.248968
v -0.042859 3.722659 1.721497
v -1.548669 3.676777 -0.195325
v -0.498341 3.686519 -1.668003
v 1.010094 3.999961 -0.912074
v 0.746568 4.552383 1.236479
v 1.066180 4.664127 0.321737
v -0.501275 4.463361 0.558442
v -0.765191 4.397736 -0.795688
v 0.206774 4.498790 -1.175814
vt 0.031512 0.659315
vt 0.031512 0.659315
vt 0.031512 0.659315
vt 0.031512 0.659315
vt 0.031512 0.659315
vt 0.031512 0.659315
vt 0.031512 0.659315
vt 0.031512 0.659315
vt 0.031512 0.659315
vt 0.031512 0.659315
vt 0.031123 0.845709
vt 0.031123 0.845709
vt 0.031123 0.845709
vt 0.031123 0.845709
vt 0.031123 0.845709
vt 0.031123 0.845709
vt 0.031123 0.845709
vt 0.031123 0.845709
vt 0.031123 0.845709
vt 0.031123 0.845709
vt 0.031123 0.845709
vt 0.031123 0.845709
vt 0.031123 0.845709
vt 0.031123 0.845709
vt 0.031123 0.845709
vt 0.031123 0.845709
vt 0.031123 0.845709
vt 0.031123 0.845709
vt 0.031123 0.845709
vt 0.031123 0.845709
vt 0.031123 0.845709
vt 0.031123 0.845709
vt 0.031123 0.845709
vt 0.031123 0.845709
vt 0.031123 0.845709
vt 0.031123 0.845709
vt 0.031123 0.845709
vt 0.031123 0.845709
vt 0.031123 0.845709
vt 0.031123 0.845709
vt 0.031123 0.845709
vt 0.031123 0.845709
vt 0.031123 0.845709
vt 0.031123 0.845709
vt 0.031123 0.845709
vt 0.031123 0.845709
vt 0.031123 0.845709
vt 0.031123 0.845709
vt 0.031123 0.845709
vt 0.031123 0.845709
vt 0.031123 0.845709
vt 0.031123 0.845709
vn 0.3153 0.0686 -0.9465
vn 0.9480 0.0604 0.3123
vn -0.3160 0.0561 0.9471
vn -0.9480 0.0602 0.3127
vn 0.2086 -0.9378 0.2774
vn 0.9458 0.0646 -0.3182
vn 0.2153 -0.9597 -0.1806
vn -0.3137 0.0685 -0.9470
vn -0.2398 -0.9544 -0.1779
vn -0.2357 -0.9314 0.2773
vn 0.3176 0.0562 0.9466
vn -0.9456 0.0643 -0.3189
vn 0.0123 -0.9986 0.0518
vn 0.6359 -0.7280 0.2561
vn -0.0536 -0.9980 0.0337
vn -0.0529 -0.9984 0.0211
vn 0.0026 -1.0000 0.0032
vn 0.9823 -0.1036 0.1557
vn -0.1048 0.4997 0.8598
vn -0.7310 0.5594 0.3907
vn -0.3965 0.5365 -0.7449
vn 0.2350 0.6662 -0.7078
vn 0.3826 0.7280 0.5689
vn -0.1851 0.5606 0.8071
vn -0.6714 0.7112 0.2084
vn -0.2533 0.6354 -0.7294
vn 0.2803 0.7724 -0.5699
vn 0.3885 0.4785 0.7875
vn -0.6645 0.4834 0.5698
vn -0.7456 0.6305 -0.2158
vn 0.0122 0.5104 -0.8598
vn 0.6986 0.6163 -0.3635
vn 0.4321 0.8352 -0.3402
vn 0.5745 0.7095 -0.4080
vn 0.5418 0.5258 -0.6557
vn -0.2425 0.8913 -0.3830
vn -0.3271 0.6809 -0.6552
vn -0.5234 0.5750 -0.6289
vn -0.5736 0.8159 0.0723
vn -0.6376 0.7654 0.0872
vn -0.7209 0.4945 0.4857
vn -0.2958 0.8518 0.4325
vn -0.3757 0.7074 0.5986
vn 0.0331 0.4807 0.8762
vn 0.2645 0.9418 0.2075
vn 0.6084 0.7339 0.3022
vn 0.8059 0.5903 0.0462
vn 0.5215 0.8444 -0.1220
vn 0.3996 0.5918 -0.7001
vn 0.4955 0.5743 -0.6517
vn 0.0427 0.6517 -0.7572
vn -0.2853 0.4949 -0.8207
vn -0.5081 0.6589 -0.5547
vn -0.5111 0.8119 -0.2823
vn -0.7315 0.6354 0.2471
vn -0.5482 0.6940 0.4667
vn -0.6202 0.6346 0.4612
vn -0.2299 0.2913 0.9286
vn -0.0041 0.3692 0.9293
vn 0.4118 0.4425 0.7966
vn 0.5329 0.4008 0.7453
vn 0.6295 0.7769 -0.0112
vn 0.4128 0.4607 -0.7857
vn 0.3476 0.6284 -0.6959
vn -0.0293 0.3892 -0.9207
vn -0.4513 0.6920 -0.5634
vn -0.4802 0.6138 -0.6266
vn -0.9554 0.0697 -0.2868
vn -0.5484 0.6799 0.4867
vn -0.5700 0.6520 0.4999
vn -0.4343 0.4244 0.7945
vn 0.2032 0.2351 0.9505
vn 0.1124 0.6123 0.7826
vn 0.2872 0.5389 0.7919
vn 0.6290 0.7773 -0.0103
vn 0.9727 0.1692 -0.1590
vn 0.9661 0.2562 -0.0321
vn 0.5502 -0.6816 -0.4824
vn 0.1803 -0.8673 -0.4640
vn -0.2132 -0.5541 -0.8047
vn -0.1738 -0.5529 -0.8149
vn -0.3918 -0.8908 -0.2303
vn -0.7284 -0.6844 -0.0324
vn -0.7400 -0.6637 0.1090
vn -0.3857 -0.8797 0.2782
vn -0.3294 -0.7006 0.6330
vn 0.6796 -0.6795 -0.2767
vn 0.5377 -0.8423 0.0372
vn 0.0244 -0.9991 0.0355
vn -0.1505 -0.7258 0.6712
vn 0.1229 -0.9125 0.3901
vn 0.5342 -0.7340 0.4194
usemtl None
s off
f 7/1/1 10/2/1 4/3/1
f 6/4/2 10/2/2 3/5/2
f 8/6/3 10/2/3 1/7/3
f 1/7/4 10/2/4 5/8/4
f 9/9/5 6/4/5 3/5/5 8/6/5
f 4/3/6 10/2/6 6/4/6
f 7/1/7 4/3/7 6/4/7 9/9/7
f 2/10/8 10/2/8 7/1/8
f 2/10/9 7/1/9 9/9/9 5/8/9
f 5/8/10 9/9/10 8/6/10 1/7/10
f 3/5/11 10/2/11 8/6/11
f 5/8/12 10/2/12 2/10/12
f 11/11/13 24/12/13 23/13/13
f 12/14/14 24/12/14 26/15/14
f 11/11/15 23/13/15 28/16/15
f 11/11/16 28/16/16 30/17/16
f 11/11/17 30/17/17 27/18/17
f 12/14/18 26/15/18 33/19/18
f 13/20/19 25/21/19 35/22/19
f 14/23/20 29/24/20 37/25/20
f 15/26/21 31/27/21 39/28/21
f 16/29/22 32/30/22 41/31/22
f 12/14/23 33/19/23 36/32/23
f 13/20/24 35/22/24 38/33/24
f 14/23/25 37/25/25 40/34/25
f 15/26/26 39/28/26 42/35/26
f 16/29/27 41/31/27 34/36/27
f 17/37/28 43/38/28 48/39/28
f 18/40/29 44/41/29 50/42/29
f 19/43/30 45/44/30 51/45/30
f 20/46/31 46/47/31 52/48/31
f 21/49/32 47/50/32 49/51/32
f 49/51/33 52/48/33 22/52/33
f 49/51/34 47/50/34 52/48/34
f 47/50/35 20/46/35 52/48/35
f 52/48/36 51/45/36 22/52/36
f 52/48/37 46/47/37 51/45/37
f 46/47/38 19/43/38 51/45/38
f 51/45/39 50/42/39 22/52/39
f 51/45/40 45/44/40 50/42/40
f 45/44/41 18/40/41 50/42/41
f 50/42/42 48/39/42 22/52/42
f 50/42/43 44/41/43 48/39/43
f 44/41/44 17/37/44 48/39/44
f 48/39/45 49/51/45 22/52/45
f 48/39/46 43/38/46 49/51/46
f 43/38/47 21/49/47 49/51/47
f 34/36/48 47/50/48 21/49/48
f 34/36/49 41/31/49 47/50/49
f 41/31/50 20/46/50 47/50/50
f 42/35/51 46/47/51 20/46/51
f 42/35/52 39/28/52 46/47/52
f 39/28/53 19/43/53 46/47/53
f 40/34/54 45/44/54 19/43/54
f 40/34/55 37/25/55 45/44/55
f 37/25/56 18/40/56 45/44/56
f 38/33/57 44/41/57 18/40/57
f 38/33/58 35/22/58 44/41/58
f 35/22/59 17/37/59 44/41/59
f 36/32/60 43/38/60 17/37/60
f 36/32/61 33/19/61 43/38/61
f 33/19/62 21/49/62 43/38/62
f 41/31/63 42/35/63 20/46/63
f 41/31/64 32/30/64 42/35/64
f 32/30/65 15/26/65 42/35/65
f 39/28/66 40/34/66 19/43/66
f 39/28/67 31/27/67 40/34/67
f 31/27/68 14/23/68 40/34/68
f 37/25/69 38/33/69 18/40/69
f 37/25/70 29/24/70 38/33/70
f 29/24/71 13/20/71 38/33/71
f 35/22/72 36/32/72 17/37/72
f 35/22/73 25/21/73 36/32/73
f 25/21/74 12/14/74 36/32/74
f 33/19/75 34/36/75 21/49/75
f 33/19/76 26/15/76 34/36/76
f 26/15/77 16/29/77 34/36/77
f 27/18/78 32/30/78 16/29/78
f 27/18/79 30/17/79 32/30/79
f 30/17/80 15/26/80 32/30/80
f 30/17/81 31/27/81 15/26/81
f 30/17/82 28/16/82 31/27/82
f 28/16/83 14/23/83 31/27/83
f 28/16/84 29/24/84 14/23/84
f 28/16/85 23/13/85 29/24/85
f 23/13/86 13/20/86 29/24/86
f 26/15/87 27/18/87 16/29/87
f 26/15/88 24/12/88 27/18/88
f 24/12/89 11/11/89 27/18/89
f 23/13/90 25/21/90 13/20/90
f 23/13/91 24/12/91 25/21/91
f 24/12/92 12/14/92 25/21/92
