# Blender v2.79 (sub 0) OBJ File: 'tree-ash3.blend'
# www.blender.org
mtllib tree-ash3.mtl
o stalk_Cube.001
v -0.138947 -0.055006 0.138948
v -0.138947 -0.055006 -0.138946
v 0.138948 -0.055006 0.138948
v 0.138948 -0.055006 -0.138946
v -0.185262 -0.055006 0.000001
v 0.185264 -0.055006 0.000001
v 0.000001 -0.055006 -0.185262
v 0.000001 -0.055006 0.185264
v 0.000001 -0.118690 0.000001
v -0.035522 4.082394 -0.000288
v -0.001391 2.011922 -0.039570
v 1.677611 3.029379 1.162906
v -0.696796 2.858383 1.686197
v -1.734015 3.126523 -0.331613
v -0.514310 3.053450 -2.093020
v 1.729473 3.066336 -1.152223
v 0.747308 4.902853 1.865366
v -1.609479 4.872928 0.865020
v -1.168712 4.776161 -1.446992
v 0.642870 4.795398 -1.807598
v 1.815498 5.004680 0.120789
v 0.074704 5.936086 0.058902
v -0.337069 2.108659 0.884564
v 0.960446 2.093027 0.678882
v 0.655784 2.531975 1.692261
v 1.963752 2.732437 0.000394
v 0.981119 2.156427 -0.690010
v -1.138410 2.137201 -0.132454
v -1.669448 2.661723 0.892642
v -0.354794 2.161612 -1.209574
v -1.293308 2.772857 -1.398475
v 0.642538 2.731434 -1.864670
v 2.103066 3.983586 0.633085
v 2.184050 3.951126 -0.562150
v 0.199604 3.698993 2.052606
v 1.359461 3.931253 1.743711
v -2.043231 4.014396 0.304490
v -1.546520 3.786214 1.542139
v -0.976653 3.851043 -2.061657
v -1.595676 3.973294 -1.061090
v 1.378535 3.941331 -1.727022
v 0.110937 3.817936 -2.312589
v 1.289529 5.420436 0.967282
v -0.201937 5.050806 1.778450
v -1.628267 5.244011 -0.357276
v -0.366748 4.994221 -1.842064
v 1.394859 5.312973 -0.794706
v 0.465699 5.683752 1.208800
v 1.007795 5.707763 0.111313
v -0.786486 5.554158 0.581477
v -0.788761 5.504212 -0.845378
v 0.329272 5.518076 -1.028101
vt 0.217058 0.657362
vt 0.217058 0.657362
vt 0.217058 0.657362
vt 0.217058 0.657362
vt 0.217058 0.657362
vt 0.217058 0.657362
vt 0.217058 0.657362
vt 0.217058 0.657362
vt 0.217058 0.657362
vt 0.217058 0.657362
vt 0.216670 0.843756
vt 0.216670 0.843756
vt 0.216670 0.843756
vt 0.216670 0.843756
vt 0.216670 0.843756
vt 0.216670 0.843756
vt 0.216670 0.843756
vt 0.216670 0.843756
vt 0.216670 0.843756
vt 0.216670 0.843756
vt 0.216670 0.843756
vt 0.216670 0.843756
vt 0.216670 0.843756
vt 0.216670 0.843756
vt 0.216670 0.843756
vt 0.216670 0.843756
vt 0.216670 0.843756
vt 0.216670 0.843756
vt 0.216670 0.843756
vt 0.216670 0.843756
vt 0.216670 0.843756
vt 0.216670 0.843756
vt 0.216670 0.843756
vt 0.216670 0.843756
vt 0.216670 0.843756
vt 0.216670 0.843756
vt 0.216670 0.843756
vt 0.216670 0.843756
vt 0.216670 0.843756
vt 0.216670 0.843756
vt 0.216670 0.843756
vt 0.216670 0.843756
vt 0.216670 0.843756
vt 0.216670 0.843756
vt 0.216670 0.843756
vt 0.216670 0.843756
vt 0.216670 0.843756
vt 0.216670 0.843756
vt 0.216670 0.843756
vt 0.216670 0.843756
vt 0.216670 0.843756
vt 0.216670 0.843756
vn 0.3159 0.0451 -0.9477
vn 0.9475 0.0506 0.3158
vn -0.3160 0.0398 0.9479
vn -0.9481 0.0343 0.3160
vn 0.2180 -0.9513 0.2180
vn 0.9475 0.0505 -0.3158
vn 0.2180 -0.9513 -0.2180
vn -0.3160 0.0397 -0.9479
vn -0.2180 -0.9513 -0.2180
vn -0.2180 -0.9513 0.2180
vn 0.3159 0.0452 0.9477
vn -0.9481 0.0343 -0.3160
vn 0.0048 -0.9944 0.1058
vn 0.6568 -0.6759 0.3343
vn -0.1143 -0.9915 0.0623
vn -0.1013 -0.9902 -0.0961
vn 0.0514 -0.9885 -0.1420
vn 0.9234 -0.2501 0.2912
vn -0.0822 -0.3232 0.9427
vn -0.9552 -0.2899 -0.0597
vn -0.5718 -0.3014 -0.7630
vn 0.5846 -0.2685 -0.7656
vn 0.8307 -0.0632 0.5532
vn -0.2840 -0.1122 0.9522
vn -0.9455 -0.1096 -0.3066
vn -0.2265 -0.0932 -0.9695
vn 0.8219 -0.0435 -0.5680
vn 0.3979 0.6702 0.6265
vn -0.4309 0.7372 0.5204
vn -0.5116 0.6900 -0.5120
vn 0.1704 0.7558 -0.6322
vn 0.6561 0.7531 -0.0479
vn 0.2426 0.9232 -0.2982
vn 0.2430 0.9230 -0.2984
vn 0.2754 0.7577 -0.5917
vn -0.0724 0.9251 -0.3727
vn -0.0898 0.8707 -0.4836
vn -0.4607 0.6958 -0.5511
vn -0.4209 0.9066 -0.0311
vn -0.3132 0.9491 -0.0327
vn -0.5658 0.7865 0.2475
vn -0.2388 0.9283 0.2849
vn -0.3328 0.8001 0.4990
vn 0.0318 0.6499 0.7594
vn 0.2284 0.9643 0.1339
vn 0.3496 0.9169 0.1927
vn 0.6559 0.7540 0.0372
vn 0.8571 0.4556 -0.2404
vn 0.7679 0.3538 -0.5340
vn 0.5931 0.4478 -0.6691
vn 0.1112 0.4077 -0.9063
vn -0.2068 0.2898 -0.9345
vn -0.4903 0.4094 -0.7694
vn -0.8560 0.2335 -0.4612
vn -0.9384 0.1487 -0.3120
vn -0.9165 0.3787 0.1291
vn -0.5297 0.4262 0.7333
vn -0.2736 0.1124 0.9552
vn -0.0617 0.1807 0.9816
vn 0.6933 0.3585 0.6252
vn 0.7811 0.3171 0.5379
vn 0.8522 0.4057 0.3303
vn 0.3861 0.2488 -0.8883
vn 0.4267 -0.1583 -0.8904
vn 0.0895 -0.3419 -0.9355
vn -0.8259 0.1829 -0.5333
vn -0.8521 -0.0688 -0.5188
vn -0.9307 -0.1394 -0.3383
vn -0.8973 0.1948 0.3960
vn -0.9295 -0.1029 0.3541
vn -0.5388 -0.3764 0.7537
vn 0.2503 0.0366 0.9675
vn 0.2865 -0.1787 0.9413
vn 0.5510 -0.3057 0.7765
vn 0.9533 0.2968 0.0565
vn 0.9868 -0.1457 0.0708
vn 0.9176 -0.2909 -0.2708
vn 0.5339 -0.6885 -0.4909
vn 0.1810 -0.8617 -0.4740
vn -0.0580 -0.7078 -0.7040
vn -0.3230 -0.6946 -0.6429
vn -0.4597 -0.8149 -0.3529
vn -0.8297 -0.5329 -0.1661
vn -0.8315 -0.5325 -0.1583
vn -0.3683 -0.8911 0.2652
vn -0.3119 -0.7597 0.5706
vn 0.6394 -0.6940 -0.3310
vn 0.5219 -0.8524 -0.0316
vn 0.1167 -0.9922 -0.0442
vn -0.1857 -0.7578 0.6254
vn 0.0541 -0.9102 0.4105
vn 0.5704 -0.6772 0.4648
usemtl None
s off
f 7/1/1 10/2/1 4/3/1
f 6/4/2 10/2/2 3/5/2
f 8/6/3 10/2/3 1/7/3
f 1/7/4 10/2/4 5/8/4
f 9/9/5 6/4/5 3/5/5 8/6/5
f 4/3/6 10/2/6 6/4/6
f 7/1/7 4/3/7 6/4/7 9/9/7
f 2/10/8 10/2/8 7/1/8
f 2/10/9 7/1/9 9/9/9 5/8/9
f 5/8/10 9/9/10 8/6/10 1/7/10
f 3/5/11 10/2/11 8/6/11
f 5/8/12 10/2/12 2/10/12
f 11/11/13 24/12/13 23/13/13
f 12/14/14 24/12/14 26/15/14
f 11/11/15 23/13/15 28/16/15
f 11/11/16 28/16/16 30/17/16
f 11/11/17 30/17/17 27/18/17
f 12/14/18 26/15/18 33/19/18
f 13/20/19 25/21/19 35/22/19
f 14/23/20 29/24/20 37/25/20
f 15/26/21 31/27/21 39/28/21
f 16/29/22 32/30/22 41/31/22
f 12/14/23 33/19/23 36/32/23
f 13/20/24 35/22/24 38/33/24
f 14/23/25 37/25/25 40/34/25
f 15/26/26 39/28/26 42/35/26
f 16/29/27 41/31/27 34/36/27
f 17/37/28 43/38/28 48/39/28
f 18/40/29 44/41/29 50/42/29
f 19/43/30 45/44/30 51/45/30
f 20/46/31 46/47/31 52/48/31
f 21/49/32 47/50/32 49/51/32
f 49/51/33 52/48/33 22/52/33
f 49/51/34 47/50/34 52/48/34
f 47/50/35 20/46/35 52/48/35
f 52/48/36 51/45/36 22/52/36
f 52/48/37 46/47/37 51/45/37
f 46/47/38 19/43/38 51/45/38
f 51/45/39 50/42/39 22/52/39
f 51/45/40 45/44/40 50/42/40
f 45/44/41 18/40/41 50/42/41
f 50/42/42 48/39/42 22/52/42
f 50/42/43 44/41/43 48/39/43
f 44/41/44 17/37/44 48/39/44
f 48/39/45 49/51/45 22/52/45
f 48/39/46 43/38/46 49/51/46
f 43/38/47 21/49/47 49/51/47
f 34/36/48 47/50/48 21/49/48
f 34/36/49 41/31/49 47/50/49
f 41/31/50 20/46/50 47/50/50
f 42/35/51 46/47/51 20/46/51
f 42/35/52 39/28/52 46/47/52
f 39/28/53 19/43/53 46/47/53
f 40/34/54 45/44/54 19/43/54
f 40/34/55 37/25/55 45/44/55
f 37/25/56 18/40/56 45/44/56
f 38/33/57 44/41/57 18/40/57
f 38/33/58 35/22/58 44/41/58
f 35/22/59 17/37/59 44/41/59
f 36/32/60 43/38/60 17/37/60
f 36/32/61 33/19/61 43/38/61
f 33/19/62 21/49/62 43/38/62
f 41/31/63 42/35/63 20/46/63
f 41/31/64 32/30/64 42/35/64
f 32/30/65 15/26/65 42/35/65
f 39/28/66 40/34/66 19/43/66
f 39/28/67 31/27/67 40/34/67
f 31/27/68 14/23/68 40/34/68
f 37/25/69 38/33/69 18/40/69
f 37/25/70 29/24/70 38/33/70
f 29/24/71 13/20/71 38/33/71
f 35/22/72 36/32/72 17/37/72
f 35/22/73 25/21/73 36/32/73
f 25/21/74 12/14/74 36/32/74
f 33/19/75 34/36/75 21/49/75
f 33/19/76 26/15/76 34/36/76
f 26/15/77 16/29/77 34/36/77
f 27/18/78 32/30/78 16/29/78
f 27/18/79 30/17/79 32/30/79
f 30/17/80 15/26/80 32/30/80
f 30/17/81 31/27/81 15/26/81
f 30/17/82 28/16/82 31/27/82
f 28/16/83 14/23/83 31/27/83
f 28/16/84 29/24/84 14/23/84
f 28/16/85 23/13/85 29/24/85
f 23/13/86 13/20/86 29/24/86
f 26/15/87 27/18/87 16/29/87
f 26/15/88 24/12/88 27/18/88
f 24/12/89 11/11/89 27/18/89
f 23/13/90 25/21/90 13/20/90
f 23/13/91 24/12/91 25/21/91
f 24/12/92 12/14/92 25/21/92
