# Blender v2.79 (sub 0) OBJ File: 'tree-aspen2.blend'
# www.blender.org
mtllib tree-aspen2.mtl
o Cube_Cube.001
v -0.093750 -0.551468 0.093750
v -0.002291 18.734486 0.051718
v -0.093750 -0.551468 -0.093750
v -1.129063 15.219363 0.639823
v 0.093750 -0.551468 0.093750
v 0.393667 15.245658 1.261383
v 0.093750 -0.551468 -0.093750
v 1.813556 7.681130 -0.551795
v -0.125000 -0.551468 0.000000
v -0.698814 7.777785 -1.789337
v 0.125000 -0.551468 0.000000
v -1.974722 7.519290 -0.080148
v 0.000000 -0.551468 -0.125000
v -0.954595 8.366101 1.543095
v 0.000000 -0.551468 0.125000
v 1.022146 7.284994 0.864772
v -0.042334 3.458477 -0.034715
v 0.000000 -0.551468 0.000000
v -0.867006 15.452739 -0.788110
v 0.406300 15.134569 -1.386821
v 1.358684 15.110417 0.063943
v 0.032644 19.894865 0.012772
v 0.027720 11.427183 -1.526547
v 1.137811 11.452710 -1.097459
v -1.679765 11.250130 -0.310991
v -0.852546 11.250333 -1.076476
v -0.927842 11.065582 1.457255
v -1.281536 11.560927 0.863212
v 0.677258 11.623682 1.418821
v -0.305887 11.532883 1.595595
v 1.529689 11.560951 -0.627039
v 1.119228 10.792326 0.530545
v 0.436104 7.535430 -1.623567
v -1.041478 6.951985 -0.884838
v -0.131558 4.678204 -0.638432
v -1.303369 7.372089 0.983024
v -0.667687 4.664308 -0.156390
v 0.464758 5.094045 -0.785057
v 1.525288 7.504540 0.033132
v 0.866669 7.151163 1.676562
v 0.575666 4.703671 0.268167
v -0.445719 4.691272 0.825305
v 0.948542 15.165419 0.701730
v -0.521583 15.677889 1.104500
v -1.383256 15.371434 -0.126886
v -0.328960 15.598962 -1.160208
v 1.088579 15.453556 -0.661217
v -0.287972 18.473196 1.207087
v 1.593633 17.838062 0.610483
v -1.353781 17.992350 0.459834
v -0.469524 18.687897 -0.956800
v 0.526262 17.992207 -1.515152
vt 0.461797 0.959844
vt 0.471797 0.959844
vt 0.471797 0.969844
vt 0.461797 0.959844
vt 0.471797 0.969844
vt 0.461797 0.959844
vt 0.471797 0.969844
vt 0.461797 0.959844
vt 0.471797 0.969844
vt 0.461797 0.959844
vt 0.471797 0.959844
vt 0.461797 0.969844
vt 0.276250 0.844609
vt 0.286250 0.844609
vt 0.286250 0.854609
vt 0.286250 0.844609
vt 0.286250 0.854609
vt 0.471797 0.959844
vt 0.471797 0.969844
vt 0.461797 0.969844
vt 0.461797 0.959844
vt 0.461797 0.959844
vt 0.471797 0.969844
vt 0.461797 0.959844
vt 0.471797 0.959844
vt 0.471797 0.969844
vt 0.461797 0.969844
vt 0.286250 0.844609
vt 0.286250 0.854609
vt 0.276250 0.844609
vt 0.286250 0.844609
vt 0.286250 0.854609
vt 0.471797 0.959844
vt 0.471797 0.969844
vt 0.461797 0.969844
vt 0.461797 0.959844
vt 0.471797 0.969844
vt 0.286250 0.854609
vt 0.286250 0.844609
vt 0.286250 0.854609
vt 0.276250 0.844609
vt 0.286250 0.844609
vt 0.286250 0.854609
vt 0.276250 0.844609
vt 0.286250 0.844609
vt 0.286250 0.854609
vt 0.276250 0.844609
vt 0.286250 0.844609
vt 0.286250 0.854609
vt 0.276250 0.844609
vt 0.286250 0.844609
vt 0.286250 0.854609
vt 0.286250 0.844609
vt 0.286250 0.854609
vt 0.286250 0.844609
vt 0.286250 0.854609
vt 0.286250 0.844609
vt 0.286250 0.854609
vt 0.286250 0.844609
vt 0.286250 0.854609
vt 0.286250 0.844609
vt 0.286250 0.854609
vt 0.276250 0.844609
vt 0.286250 0.844609
vt 0.286250 0.854609
vt 0.276250 0.844609
vt 0.286250 0.844609
vt 0.286250 0.854609
vt 0.276250 0.844609
vt 0.286250 0.844609
vt 0.286250 0.854609
vt 0.276250 0.844609
vt 0.286250 0.844609
vt 0.286250 0.854609
vt 0.276250 0.844609
vt 0.286250 0.844609
vt 0.286250 0.854609
vt 0.276250 0.844609
vt 0.286250 0.844609
vt 0.286250 0.854609
vt 0.276250 0.844609
vt 0.286250 0.844609
vt 0.276250 0.844609
vt 0.286250 0.844609
vt 0.276250 0.844609
vt 0.286250 0.844609
vt 0.276250 0.844609
vt 0.286250 0.844609
vt 0.276250 0.844609
vt 0.286250 0.844609
vt 0.276250 0.844609
vt 0.286250 0.844609
vt 0.276250 0.844609
vt 0.286250 0.844609
vt 0.276250 0.844609
vt 0.286250 0.844609
vt 0.276250 0.844609
vt 0.286250 0.844609
vt 0.276250 0.844609
vt 0.286250 0.854609
vt 0.286250 0.854609
vt 0.276250 0.844609
vt 0.276250 0.844609
vt 0.286250 0.854609
vt 0.286250 0.854609
vt 0.276250 0.844609
vt 0.276250 0.844609
vt 0.286250 0.854609
vt 0.286250 0.854609
vt 0.276250 0.844609
vt 0.276250 0.844609
vt 0.286250 0.854609
vt 0.286250 0.854609
vt 0.276250 0.844609
vt 0.276250 0.844609
vt 0.286250 0.854609
vt 0.286250 0.854609
vt 0.276250 0.844609
vt 0.286250 0.844609
vt 0.276250 0.844609
vt 0.286250 0.844609
vt 0.286250 0.844609
vt 0.276250 0.844609
vt 0.286250 0.844609
vt 0.286250 0.844609
vt 0.276250 0.844609
vt 0.286250 0.844609
vt 0.286250 0.844609
vt 0.276250 0.844609
vt 0.286250 0.844609
vt 0.286250 0.844609
vt 0.276250 0.844609
vt 0.286250 0.844609
vt 0.276250 0.844609
vt 0.286250 0.854609
vt 0.286250 0.854609
vt 0.276250 0.844609
vt 0.286250 0.844609
vt 0.286250 0.854609
vt 0.286250 0.844609
vt 0.276250 0.844609
vt 0.286250 0.854609
vt 0.286250 0.854609
vt 0.276250 0.844609
vt 0.286250 0.854609
vt 0.286250 0.854609
vt 0.276250 0.844609
vt 0.286250 0.854609
vn -0.9487 0.0069 -0.3162
vn 0.3162 0.0087 -0.9486
vn 0.9487 0.0054 0.3162
vn -0.3162 0.0036 0.9487
vn 0.0000 -1.0000 0.0000
vn 0.0846 -0.4370 -0.8955
vn -0.6111 -0.3866 -0.6908
vn 0.9487 0.0071 -0.3162
vn -0.9487 0.0052 0.3162
vn -0.8764 -0.4333 0.2101
vn 0.8560 -0.2523 0.4512
vn 0.3162 0.0036 0.9487
vn -0.3162 0.0087 -0.9486
vn 0.4401 -0.4124 0.7976
vn 0.8522 0.0262 0.5225
vn -0.0740 -0.0014 0.9973
vn -0.8441 0.0197 0.5358
vn -0.9426 0.0266 -0.3328
vn 0.6144 -0.0041 -0.7890
vn 0.9012 0.0163 0.4331
vn -0.2407 0.0332 0.9700
vn -0.9501 0.0935 0.2975
vn -0.4744 0.1568 -0.8662
vn 0.7627 0.0433 -0.6453
vn 0.7123 0.1619 0.6830
vn -0.6086 0.0022 0.7935
vn -0.7904 0.0654 -0.6091
vn -0.3114 -0.0296 -0.9498
vn 0.9355 -0.0098 -0.3531
vn 0.7904 0.4949 -0.3610
vn 0.8940 0.0482 -0.4454
vn 0.7404 -0.0611 -0.6693
vn 0.0003 0.6262 -0.7797
vn -0.4691 0.0368 -0.8824
vn -0.5737 0.0278 -0.8186
vn -0.8101 0.5331 -0.2440
vn -0.8674 0.1180 -0.4835
vn -0.9510 -0.0573 0.3039
vn -0.6268 0.5792 0.5212
vn -0.5796 0.0185 0.8147
vn -0.1786 -0.0212 0.9837
vn 0.4135 0.5292 0.7409
vn 0.2905 -0.0375 0.9561
vn 0.8203 -0.1795 0.5430
vn 0.9471 0.1047 -0.3033
vn 0.7567 0.0801 -0.6488
vn 0.7069 0.0853 -0.7022
vn -0.2576 0.0626 -0.9642
vn -0.4610 0.0384 -0.8866
vn -0.5778 0.0539 -0.8144
vn -0.7904 0.0840 -0.6068
vn -0.9499 0.0546 0.3077
vn -0.9440 0.0592 0.3247
vn -0.6568 0.1149 0.7453
vn -0.2857 0.0981 0.9533
vn -0.1168 0.1109 0.9869
vn 0.7136 0.0861 0.6952
vn 0.9019 0.0183 0.4316
vn 0.8415 0.0117 0.5401
vn 0.3606 -0.0017 -0.9327
vn 0.3587 0.0609 -0.9315
vn 0.1529 0.0407 -0.9874
vn -0.6784 0.0480 -0.7331
vn -0.6792 -0.0029 -0.7340
vn -0.6514 0.0046 -0.7587
vn -0.8311 0.0683 0.5518
vn -0.8519 0.0194 0.5234
vn -0.8675 0.0244 0.4969
vn 0.1717 0.0562 0.9836
vn 0.1709 0.0639 0.9832
vn 0.9791 0.0528 0.1962
vn 0.9460 -0.0175 0.3238
vn 0.9279 0.0589 0.3681
vn 0.8855 0.0737 0.4587
vn -0.2137 -0.2157 0.9528
vn 0.4222 -0.4893 0.7631
vn 0.9674 -0.2024 0.1519
vn 0.8421 -0.4639 0.2750
vn 0.9183 -0.3297 -0.2189
vn 0.8920 -0.3851 -0.2367
vn -0.8048 -0.3806 0.4555
vn -0.9258 -0.3090 0.2178
vn -0.5846 -0.2328 0.7772
vn -0.7213 -0.3532 -0.5958
vn -0.6270 -0.3275 -0.7068
vn -0.7223 -0.3142 -0.6161
vn 0.6109 -0.2508 -0.7510
vn -0.0060 -0.3249 -0.9457
vn 0.0653 -0.3368 -0.9393
usemtl None
s off
f 9/1/1 2/2/1 3/3/1
f 13/4/2 2/2/2 7/5/2
f 11/6/3 2/2/3 5/7/3
f 15/8/4 2/2/4 1/9/4
f 18/10/5 11/11/5 5/7/5 15/12/5
f 17/13/6 35/14/6 38/15/6
f 17/13/7 37/16/7 35/17/7
f 13/4/5 7/18/5 11/19/5 18/20/5
f 7/21/8 2/2/8 11/19/8
f 1/22/9 2/2/9 9/23/9
f 3/24/5 13/25/5 18/26/5 9/27/5
f 17/13/10 42/28/10 37/29/10
f 16/30/11 41/31/11 39/32/11
f 9/1/5 18/33/5 15/34/5 1/35/5
f 5/36/12 2/2/12 15/34/12
f 3/24/13 2/2/13 13/37/13
f 17/13/14 41/31/14 42/38/14
f 16/30/15 39/39/15 32/40/15
f 14/41/16 40/42/16 30/43/16
f 12/44/17 36/45/17 28/46/17
f 10/47/18 34/48/18 26/49/18
f 8/50/19 33/51/19 24/52/19
f 16/30/20 32/53/20 29/54/20
f 14/41/21 30/55/21 27/56/21
f 12/44/22 28/57/22 25/58/22
f 10/47/23 26/59/23 23/60/23
f 8/50/24 24/61/24 31/62/24
f 6/63/25 43/64/25 48/65/25
f 4/66/26 44/67/26 50/68/26
f 19/69/27 45/70/27 51/71/27
f 20/72/28 46/73/28 52/74/28
f 21/75/29 47/76/29 49/77/29
f 49/78/30 52/79/30 22/80/30
f 49/78/31 47/76/31 52/74/31
f 47/81/32 20/82/32 52/74/32
f 52/83/33 51/84/33 22/80/33
f 52/83/34 46/73/34 51/71/34
f 46/85/35 19/86/35 51/71/35
f 51/87/36 50/88/36 22/80/36
f 51/87/37 45/70/37 50/68/37
f 45/89/38 4/90/38 50/68/38
f 50/91/39 48/92/39 22/80/39
f 50/91/40 44/67/40 48/65/40
f 44/93/41 6/94/41 48/65/41
f 48/95/42 49/96/42 22/80/42
f 48/95/43 43/64/43 49/77/43
f 43/97/44 21/98/44 49/77/44
f 31/99/45 47/76/45 21/100/45
f 31/99/46 24/61/46 47/101/46
f 24/102/47 20/82/47 47/101/47
f 23/103/48 46/73/48 20/104/48
f 23/103/49 26/59/49 46/105/49
f 26/106/50 19/86/50 46/105/50
f 25/107/51 45/70/51 19/108/51
f 25/107/52 28/57/52 45/109/52
f 28/110/53 4/90/53 45/109/53
f 27/111/54 44/67/54 4/112/54
f 27/111/55 30/55/55 44/113/55
f 30/114/56 6/94/56 44/113/56
f 29/115/57 43/64/57 6/116/57
f 29/115/58 32/53/58 43/117/58
f 32/118/59 21/98/59 43/117/59
f 24/102/60 23/119/60 20/104/60
f 24/102/61 33/51/61 23/60/61
f 33/120/62 10/121/62 23/60/62
f 26/106/63 25/122/63 19/108/63
f 26/106/64 34/48/64 25/58/64
f 34/123/65 12/124/65 25/58/65
f 28/110/66 27/125/66 4/112/66
f 28/110/67 36/45/67 27/56/67
f 36/126/68 14/127/68 27/56/68
f 30/114/69 29/128/69 6/116/69
f 30/114/70 40/42/70 29/54/70
f 40/129/71 16/130/71 29/54/71
f 32/118/72 31/131/72 21/100/72
f 32/118/73 39/39/73 31/62/73
f 39/132/74 8/133/74 31/62/74
f 42/134/75 40/42/75 14/135/75
f 42/134/76 41/31/76 40/136/76
f 41/137/77 16/130/77 40/136/77
f 39/132/78 38/138/78 8/139/78
f 39/132/79 41/31/79 38/15/79
f 41/137/80 17/140/80 38/15/80
f 37/141/81 36/45/81 12/142/81
f 37/141/82 42/28/82 36/143/82
f 42/134/83 14/127/83 36/143/83
f 35/144/84 34/48/84 10/145/84
f 35/144/85 37/16/85 34/146/85
f 37/141/86 12/124/86 34/146/86
f 38/147/87 33/51/87 8/139/87
f 38/147/88 35/14/88 33/148/88
f 35/144/89 10/121/89 33/148/89
