# Blender v2.79 (sub 0) OBJ File: 'tree-oak2.blend'
# www.blender.org
mtllib tree-oak2.mtl
o stalk_Cube.001
v -0.160262 -0.392020 0.160266
v -0.160262 -0.446383 -0.160262
v 0.160267 -0.407591 0.160266
v 0.160267 -0.458446 -0.160262
v -0.213683 -0.418382 0.000002
v 0.213688 -0.436778 0.000002
v 0.000002 -0.459952 -0.213684
v 0.000002 -0.389736 0.213688
v 0.000002 -0.656789 0.000002
v -0.028910 9.328887 0.038876
v -0.029123 2.411539 0.005359
v 3.011170 5.788269 2.178177
v -0.810681 5.059222 3.506036
v -4.090215 5.781217 -0.486383
v -1.211894 5.714158 -3.562078
v 3.148590 6.022122 -2.372445
v 1.425419 10.434859 2.800064
v -2.420688 10.701228 1.742615
v -2.484040 10.450332 -1.715341
v 0.748571 10.608241 -2.985044
v 2.986950 10.819595 0.077868
v 0.173857 14.905901 -0.014706
v -0.693814 3.130617 2.424890
v 2.034088 3.093444 1.536804
v 1.393878 4.897149 3.325990
v 3.830767 5.151631 0.095159
v 2.075342 2.781392 -1.415202
v -2.577634 3.174414 -0.140326
v -3.108591 5.015317 2.269534
v -0.849435 2.748324 -2.531113
v -2.965213 5.155398 -2.363012
v 1.281592 5.089994 -3.862558
v 3.140047 8.592913 1.315020
v 2.762180 9.430361 -1.131435
v 0.342750 7.803306 2.999995
v 1.741857 8.353064 2.581652
v -3.560919 8.532172 1.039799
v -1.194536 8.024915 2.509492
v -1.594037 8.455543 -2.577341
v -3.133113 7.811591 -1.399782
v 1.352552 8.776114 -2.863691
v 0.020366 8.448095 -3.260973
v 2.385341 11.205910 1.408626
v -0.190045 11.051332 2.924167
v -2.668187 10.942298 -0.344569
v -1.051137 10.965447 -2.855912
v 2.329721 11.382972 -1.566834
v 1.051114 13.653559 1.853509
v 1.534055 14.160101 0.471315
v -0.834403 13.250014 0.828982
v -1.233185 12.952531 -1.217137
v 0.235475 13.410616 -1.791515
vt 0.031512 0.659315
vt 0.031512 0.659315
vt 0.031512 0.659315
vt 0.031512 0.659315
vt 0.031512 0.659315
vt 0.031512 0.659315
vt 0.031512 0.659315
vt 0.031512 0.659315
vt 0.031512 0.659315
vt 0.031512 0.659315
vt 0.031123 0.845709
vt 0.031123 0.845709
vt 0.031123 0.845709
vt 0.031123 0.845709
vt 0.031123 0.845709
vt 0.031123 0.845709
vt 0.031123 0.845709
vt 0.031123 0.845709
vt 0.031123 0.845709
vt 0.031123 0.845709
vt 0.031123 0.845709
vt 0.031123 0.845709
vt 0.031123 0.845709
vt 0.031123 0.845709
vt 0.031123 0.845709
vt 0.031123 0.845709
vt 0.031123 0.845709
vt 0.031123 0.845709
vt 0.031123 0.845709
vt 0.031123 0.845709
vt 0.031123 0.845709
vt 0.031123 0.845709
vt 0.031123 0.845709
vt 0.031123 0.845709
vt 0.031123 0.845709
vt 0.031123 0.845709
vt 0.031123 0.845709
vt 0.031123 0.845709
vt 0.031123 0.845709
vt 0.031123 0.845709
vt 0.031123 0.845709
vt 0.031123 0.845709
vt 0.031123 0.845709
vt 0.031123 0.845709
vt 0.031123 0.845709
vt 0.031123 0.845709
vt 0.031123 0.845709
vt 0.031123 0.845709
vt 0.031123 0.845709
vt 0.031123 0.845709
vt 0.031123 0.845709
vt 0.031123 0.845709
vn 0.3159 0.0254 -0.9484
vn 0.9497 0.0223 0.3125
vn -0.3164 0.0161 0.9485
vn -0.9494 0.0167 0.3137
vn 0.4466 -0.6692 0.5939
vn 0.9474 0.0248 -0.3191
vn 0.5056 -0.7513 -0.4242
vn -0.3143 0.0236 -0.9490
vn -0.5496 -0.7292 -0.4077
vn -0.4926 -0.6491 0.5797
vn 0.3180 0.0180 0.9479
vn -0.9475 0.0192 -0.3192
vn 0.0866 -0.9482 0.3056
vn 0.8064 -0.3968 0.4385
vn -0.2915 -0.9359 0.1981
vn -0.2848 -0.9580 -0.0351
vn 0.0697 -0.9857 -0.1534
vn 0.9352 0.0642 0.3483
vn 0.0910 0.1435 0.9855
vn -0.9424 -0.0042 0.3345
vn -0.5954 0.1968 -0.7789
vn 0.5438 0.2097 -0.8126
vn 0.6389 0.1993 0.7430
vn -0.2554 0.2781 0.9260
vn -0.9140 0.3167 -0.2538
vn -0.3748 0.2667 -0.8879
vn 0.6724 0.3194 -0.6678
vn 0.7147 0.2725 0.6441
vn -0.4588 0.5388 0.7065
vn -0.8345 0.4733 -0.2820
vn 0.0122 0.3937 -0.9192
vn 0.8864 0.4107 -0.2135
vn 0.5455 0.6505 -0.5285
vn 0.6137 0.5738 -0.5423
vn 0.4855 0.4163 -0.7687
vn -0.4412 0.6790 -0.5867
vn -0.4473 0.5443 -0.7097
vn -0.6499 0.4472 -0.6145
vn -0.8320 0.5486 0.0824
vn -0.7977 0.5991 0.0684
vn -0.8110 0.5625 0.1611
vn -0.4748 0.6116 0.6329
vn -0.4909 0.5213 0.6980
vn 0.1853 0.2970 0.9367
vn 0.3154 0.8501 0.4217
vn 0.8251 0.3725 0.4248
vn 0.8874 0.3507 0.2994
vn 0.9352 0.1340 -0.3278
vn 0.7700 0.0284 -0.6374
vn 0.6175 0.1524 -0.7717
vn -0.0430 0.1408 -0.9891
vn -0.3899 -0.0178 -0.9207
vn -0.6332 0.0512 -0.7723
vn -0.9560 0.2108 -0.2041
vn -0.9481 0.2186 -0.2308
vn -0.8943 0.4200 0.1546
vn -0.4722 0.0360 0.8808
vn -0.3075 -0.0282 0.9511
vn 0.0910 0.0382 0.9951
vn 0.8056 0.0606 0.5894
vn 0.6475 0.1603 0.7451
vn 0.9075 0.2500 0.3377
vn 0.2792 0.0285 -0.9598
vn 0.2193 0.2512 -0.9428
vn -0.0823 0.1457 -0.9859
vn -0.6222 0.0597 -0.7806
vn -0.6494 0.2226 -0.7271
vn -0.8266 0.1450 -0.5439
vn -0.5273 0.0019 0.8497
vn -0.4759 0.2351 0.8475
vn -0.4648 0.2274 0.8557
vn 0.3053 -0.0534 0.9508
vn 0.2141 0.1850 0.9591
vn 0.5261 0.1281 0.8407
vn 0.9870 -0.0208 -0.1596
vn 0.9723 0.2215 -0.0744
vn 0.9623 0.1825 -0.2016
vn 0.6853 -0.4056 -0.6049
vn 0.2765 -0.6527 -0.7054
vn -0.1966 -0.3433 -0.9184
vn -0.4540 -0.3416 -0.8230
vn -0.7014 -0.5885 -0.4022
vn -0.8031 -0.5075 -0.3122
vn -0.8616 -0.4768 0.1744
vn -0.5770 -0.7054 0.4117
vn -0.4128 -0.4643 0.7836
vn 0.8436 -0.3888 -0.3704
vn 0.7772 -0.6246 0.0769
vn 0.2407 -0.9649 0.1054
vn 0.0355 -0.4870 0.8727
vn 0.2291 -0.6433 0.7305
vn 0.6663 -0.3925 0.6341
usemtl None
s off
f 7/1/1 10/2/1 4/3/1
f 6/4/2 10/2/2 3/5/2
f 8/6/3 10/2/3 1/7/3
f 1/7/4 10/2/4 5/8/4
f 9/9/5 6/4/5 3/5/5 8/6/5
f 4/3/6 10/2/6 6/4/6
f 7/1/7 4/3/7 6/4/7 9/9/7
f 2/10/8 10/2/8 7/1/8
f 2/10/9 7/1/9 9/9/9 5/8/9
f 5/8/10 9/9/10 8/6/10 1/7/10
f 3/5/11 10/2/11 8/6/11
f 5/8/12 10/2/12 2/10/12
f 11/11/13 24/12/13 23/13/13
f 12/14/14 24/12/14 26/15/14
f 11/11/15 23/13/15 28/16/15
f 11/11/16 28/16/16 30/17/16
f 11/11/17 30/17/17 27/18/17
f 12/14/18 26/15/18 33/19/18
f 13/20/19 25/21/19 35/22/19
f 14/23/20 29/24/20 37/25/20
f 15/26/21 31/27/21 39/28/21
f 16/29/22 32/30/22 41/31/22
f 12/14/23 33/19/23 36/32/23
f 13/20/24 35/22/24 38/33/24
f 14/23/25 37/25/25 40/34/25
f 15/26/26 39/28/26 42/35/26
f 16/29/27 41/31/27 34/36/27
f 17/37/28 43/38/28 48/39/28
f 18/40/29 44/41/29 50/42/29
f 19/43/30 45/44/30 51/45/30
f 20/46/31 46/47/31 52/48/31
f 21/49/32 47/50/32 49/51/32
f 49/51/33 52/48/33 22/52/33
f 49/51/34 47/50/34 52/48/34
f 47/50/35 20/46/35 52/48/35
f 52/48/36 51/45/36 22/52/36
f 52/48/37 46/47/37 51/45/37
f 46/47/38 19/43/38 51/45/38
f 51/45/39 50/42/39 22/52/39
f 51/45/40 45/44/40 50/42/40
f 45/44/41 18/40/41 50/42/41
f 50/42/42 48/39/42 22/52/42
f 50/42/43 44/41/43 48/39/43
f 44/41/44 17/37/44 48/39/44
f 48/39/45 49/51/45 22/52/45
f 48/39/46 43/38/46 49/51/46
f 43/38/47 21/49/47 49/51/47
f 34/36/48 47/50/48 21/49/48
f 34/36/49 41/31/49 47/50/49
f 41/31/50 20/46/50 47/50/50
f 42/35/51 46/47/51 20/46/51
f 42/35/52 39/28/52 46/47/52
f 39/28/53 19/43/53 46/47/53
f 40/34/54 45/44/54 19/43/54
f 40/34/55 37/25/55 45/44/55
f 37/25/56 18/40/56 45/44/56
f 38/33/57 44/41/57 18/40/57
f 38/33/58 35/22/58 44/41/58
f 35/22/59 17/37/59 44/41/59
f 36/32/60 43/38/60 17/37/60
f 36/32/61 33/19/61 43/38/61
f 33/19/62 21/49/62 43/38/62
f 41/31/63 42/35/63 20/46/63
f 41/31/64 32/30/64 42/35/64
f 32/30/65 15/26/65 42/35/65
f 39/28/66 40/34/66 19/43/66
f 39/28/67 31/27/67 40/34/67
f 31/27/68 14/23/68 40/34/68
f 37/25/69 38/33/69 18/40/69
f 37/25/70 29/24/70 38/33/70
f 29/24/71 13/20/71 38/33/71
f 35/22/72 36/32/72 17/37/72
f 35/22/73 25/21/73 36/32/73
f 25/21/74 12/14/74 36/32/74
f 33/19/75 34/36/75 21/49/75
f 33/19/76 26/15/76 34/36/76
f 26/15/77 16/29/77 34/36/77
f 27/18/78 32/30/78 16/29/78
f 27/18/79 30/17/79 32/30/79
f 30/17/80 15/26/80 32/30/80
f 30/17/81 31/27/81 15/26/81
f 30/17/82 28/16/82 31/27/82
f 28/16/83 14/23/83 31/27/83
f 28/16/84 29/24/84 14/23/84
f 28/16/85 23/13/85 29/24/85
f 23/13/86 13/20/86 29/24/86
f 26/15/87 27/18/87 16/29/87
f 26/15/88 24/12/88 27/18/88
f 24/12/89 11/11/89 27/18/89
f 23/13/90 25/21/90 13/20/90
f 23/13/91 24/12/91 25/21/91
f 24/12/92 12/14/92 25/21/92
