# Blender v2.79 (sub 0) OBJ File: 'tree-oak3.blend'
# www.blender.org
mtllib tree-oak3.mtl
o stalk_Cube.001
v -0.160262 -0.392020 0.160266
v -0.160262 -0.446383 -0.160262
v 0.160267 -0.407591 0.160266
v 0.160267 -0.458446 -0.160262
v -0.213683 -0.418382 0.000002
v 0.213688 -0.436778 0.000002
v 0.000002 -0.459952 -0.213684
v 0.000002 -0.389736 0.213688
v 0.000002 -0.656789 0.000002
v -0.032359 10.102342 0.063267
v -0.029123 2.411539 0.005359
v 3.697812 6.709689 2.712372
v -1.009641 5.811707 4.347923
v -4.744162 6.701004 -0.569623
v -1.503823 6.618405 -4.358020
v 3.867075 6.997731 -2.892725
v 1.256309 11.404326 2.434533
v -2.096770 11.636550 1.512637
v -2.152002 11.417815 -1.502047
v 0.666225 11.555482 -2.608988
v 2.617669 11.739743 0.061292
v 0.173857 14.905901 -0.014706
v -0.927596 3.759431 3.253119
v 2.722525 3.709690 2.064798
v 1.705760 5.612079 4.126156
v 4.554742 5.925529 0.146675
v 2.777725 3.292144 -1.885190
v -3.448278 3.818034 -0.179317
v -3.840025 5.757628 2.824897
v -1.135829 3.247896 -3.378356
v -3.663423 5.930170 -2.881106
v 1.567455 5.849610 -4.728128
v 3.859582 9.575036 1.630558
v 3.395507 10.175046 -1.374044
v 0.424095 9.009303 3.699952
v 2.142402 9.403191 3.186166
v -3.943216 9.531517 1.292547
v -1.463917 9.168080 3.097543
v -1.954561 9.476614 -3.149828
v -3.844771 9.015239 -1.703614
v 1.664278 9.706294 -3.501507
v 0.028160 9.471278 -3.989427
v 2.093179 12.076536 1.221463
v -0.152071 11.941774 2.542728
v -2.312543 11.846717 -0.306993
v -0.902780 11.866899 -2.496410
v 2.044690 12.230901 -1.372577
v 0.870544 14.291164 1.487662
v 1.256645 14.696135 0.382628
v -0.636886 13.968539 0.668574
v -0.955704 13.730708 -0.967253
v 0.218458 14.096937 -1.426456
vt 0.031512 0.659315
vt 0.031512 0.659315
vt 0.031512 0.659315
vt 0.031512 0.659315
vt 0.031512 0.659315
vt 0.031512 0.659315
vt 0.031512 0.659315
vt 0.031512 0.659315
vt 0.031512 0.659315
vt 0.031512 0.659315
vt 0.031123 0.845709
vt 0.031123 0.845709
vt 0.031123 0.845709
vt 0.031123 0.845709
vt 0.031123 0.845709
vt 0.031123 0.845709
vt 0.031123 0.845709
vt 0.031123 0.845709
vt 0.031123 0.845709
vt 0.031123 0.845709
vt 0.031123 0.845709
vt 0.031123 0.845709
vt 0.031123 0.845709
vt 0.031123 0.845709
vt 0.031123 0.845709
vt 0.031123 0.845709
vt 0.031123 0.845709
vt 0.031123 0.845709
vt 0.031123 0.845709
vt 0.031123 0.845709
vt 0.031123 0.845709
vt 0.031123 0.845709
vt 0.031123 0.845709
vt 0.031123 0.845709
vt 0.031123 0.845709
vt 0.031123 0.845709
vt 0.031123 0.845709
vt 0.031123 0.845709
vt 0.031123 0.845709
vt 0.031123 0.845709
vt 0.031123 0.845709
vt 0.031123 0.845709
vt 0.031123 0.845709
vt 0.031123 0.845709
vt 0.031123 0.845709
vt 0.031123 0.845709
vt 0.031123 0.845709
vt 0.031123 0.845709
vt 0.031123 0.845709
vt 0.031123 0.845709
vt 0.031123 0.845709
vt 0.031123 0.845709
vn 0.3159 0.0258 -0.9484
vn 0.9496 0.0203 0.3128
vn -0.3164 0.0126 0.9486
vn -0.9493 0.0145 0.3141
vn 0.4466 -0.6692 0.5939
vn 0.9474 0.0240 -0.3191
vn 0.5056 -0.7513 -0.4242
vn -0.3143 0.0239 -0.9490
vn -0.5496 -0.7292 -0.4077
vn -0.4926 -0.6491 0.5797
vn 0.3177 0.0146 0.9481
vn -0.9476 0.0182 -0.3190
vn 0.1208 -0.9046 0.4088
vn 0.8463 -0.3599 0.3927
vn -0.3791 -0.8871 0.2633
vn -0.3734 -0.9216 -0.1057
vn 0.1152 -0.9549 -0.2737
vn 0.9521 0.0594 0.2998
vn 0.0919 0.1580 0.9831
vn -0.9564 0.0871 0.2789
vn -0.5983 0.2301 -0.7676
vn 0.5268 0.2456 -0.8137
vn 0.6384 0.2400 0.7313
vn -0.2662 0.3047 0.9145
vn -0.9422 0.3237 -0.0867
vn -0.3698 0.3117 -0.8753
vn 0.6658 0.3999 -0.6299
vn 0.6959 0.3061 0.6497
vn -0.4582 0.5419 0.7045
vn -0.8222 0.4916 -0.2869
vn 0.0193 0.4246 -0.9052
vn 0.8803 0.4276 -0.2053
vn 0.3290 0.8238 -0.4617
vn 0.6086 0.5800 -0.5414
vn 0.4711 0.4390 -0.7651
vn -0.4234 0.7802 -0.4604
vn -0.4474 0.5596 -0.6976
vn -0.6465 0.4728 -0.5987
vn -0.7386 0.6725 0.0462
vn -0.7980 0.5987 0.0685
vn -0.8092 0.5649 0.1612
vn -0.4345 0.7449 0.5063
vn -0.4903 0.5256 0.6952
vn 0.1966 0.3292 0.9236
vn 0.0490 0.9322 0.3587
vn 0.8117 0.3965 0.4289
vn 0.8810 0.3741 0.2897
vn 0.8269 0.5435 -0.1443
vn 0.6521 0.4289 -0.6251
vn 0.3833 0.5610 -0.7338
vn 0.0472 0.5415 -0.8394
vn -0.3582 0.3896 -0.8485
vn -0.6492 0.4527 -0.6112
vn -0.7660 0.5654 -0.3058
vn -0.8482 0.5166 -0.1169
vn -0.7501 0.6409 0.1630
vn -0.4785 0.3843 0.7895
vn -0.2655 0.3083 0.9135
vn 0.2193 0.3951 0.8921
vn 0.5607 0.4970 0.6622
vn 0.5535 0.4998 0.6662
vn 0.7881 0.5869 0.1859
vn 0.1794 0.5045 -0.8446
vn 0.2352 0.2892 -0.9279
vn -0.0764 0.1680 -0.9828
vn -0.6041 0.4791 -0.6368
vn -0.6261 0.2456 -0.7400
vn -0.8831 0.1211 -0.4533
vn -0.5116 0.3675 0.7767
vn -0.5305 0.3064 0.7904
vn -0.4621 0.2540 0.8497
vn 0.1729 0.4125 0.8944
vn 0.2361 0.2082 0.9492
vn 0.5161 0.1497 0.8434
vn 0.8792 0.4747 -0.0410
vn 0.9683 0.2268 -0.1043
vn 0.9666 0.2122 -0.1438
vn 0.6854 -0.3717 -0.6262
vn 0.2764 -0.6530 -0.7051
vn -0.1863 -0.2929 -0.9378
vn -0.4743 -0.2931 -0.8301
vn -0.7022 -0.5870 -0.4030
vn -0.8661 -0.4249 -0.2632
vn -0.9105 -0.3912 0.1338
vn -0.5582 -0.7283 0.3975
vn -0.4189 -0.4404 0.7941
vn 0.8812 -0.3465 -0.3216
vn 0.7991 -0.5965 0.0742
vn 0.3603 -0.9271 0.1030
vn 0.0376 -0.4692 0.8823
vn 0.2249 -0.6582 0.7184
vn 0.6635 -0.3576 0.6572
usemtl None
s off
f 7/1/1 10/2/1 4/3/1
f 6/4/2 10/2/2 3/5/2
f 8/6/3 10/2/3 1/7/3
f 1/7/4 10/2/4 5/8/4
f 9/9/5 6/4/5 3/5/5 8/6/5
f 4/3/6 10/2/6 6/4/6
f 7/1/7 4/3/7 6/4/7 9/9/7
f 2/10/8 10/2/8 7/1/8
f 2/10/9 7/1/9 9/9/9 5/8/9
f 5/8/10 9/9/10 8/6/10 1/7/10
f 3/5/11 10/2/11 8/6/11
f 5/8/12 10/2/12 2/10/12
f 11/11/13 24/12/13 23/13/13
f 12/14/14 24/12/14 26/15/14
f 11/11/15 23/13/15 28/16/15
f 11/11/16 28/16/16 30/17/16
f 11/11/17 30/17/17 27/18/17
f 12/14/18 26/15/18 33/19/18
f 13/20/19 25/21/19 35/22/19
f 14/23/20 29/24/20 37/25/20
f 15/26/21 31/27/21 39/28/21
f 16/29/22 32/30/22 41/31/22
f 12/14/23 33/19/23 36/32/23
f 13/20/24 35/22/24 38/33/24
f 14/23/25 37/25/25 40/34/25
f 15/26/26 39/28/26 42/35/26
f 16/29/27 41/31/27 34/36/27
f 17/37/28 43/38/28 48/39/28
f 18/40/29 44/41/29 50/42/29
f 19/43/30 45/44/30 51/45/30
f 20/46/31 46/47/31 52/48/31
f 21/49/32 47/50/32 49/51/32
f 49/51/33 52/48/33 22/52/33
f 49/51/34 47/50/34 52/48/34
f 47/50/35 20/46/35 52/48/35
f 52/48/36 51/45/36 22/52/36
f 52/48/37 46/47/37 51/45/37
f 46/47/38 19/43/38 51/45/38
f 51/45/39 50/42/39 22/52/39
f 51/45/40 45/44/40 50/42/40
f 45/44/41 18/40/41 50/42/41
f 50/42/42 48/39/42 22/52/42
f 50/42/43 44/41/43 48/39/43
f 44/41/44 17/37/44 48/39/44
f 48/39/45 49/51/45 22/52/45
f 48/39/46 43/38/46 49/51/46
f 43/38/47 21/49/47 49/51/47
f 34/36/48 47/50/48 21/49/48
f 34/36/49 41/31/49 47/50/49
f 41/31/50 20/46/50 47/50/50
f 42/35/51 46/47/51 20/46/51
f 42/35/52 39/28/52 46/47/52
f 39/28/53 19/43/53 46/47/53
f 40/34/54 45/44/54 19/43/54
f 40/34/55 37/25/55 45/44/55
f 37/25/56 18/40/56 45/44/56
f 38/33/57 44/41/57 18/40/57
f 38/33/58 35/22/58 44/41/58
f 35/22/59 17/37/59 44/41/59
f 36/32/60 43/38/60 17/37/60
f 36/32/61 33/19/61 43/38/61
f 33/19/62 21/49/62 43/38/62
f 41/31/63 42/35/63 20/46/63
f 41/31/64 32/30/64 42/35/64
f 32/30/65 15/26/65 42/35/65
f 39/28/66 40/34/66 19/43/66
f 39/28/67 31/27/67 40/34/67
f 31/27/68 14/23/68 40/34/68
f 37/25/69 38/33/69 18/40/69
f 37/25/70 29/24/70 38/33/70
f 29/24/71 13/20/71 38/33/71
f 35/22/72 36/32/72 17/37/72
f 35/22/73 25/21/73 36/32/73
f 25/21/74 12/14/74 36/32/74
f 33/19/75 34/36/75 21/49/75
f 33/19/76 26/15/76 34/36/76
f 26/15/77 16/29/77 34/36/77
f 27/18/78 32/30/78 16/29/78
f 27/18/79 30/17/79 32/30/79
f 30/17/80 15/26/80 32/30/80
f 30/17/81 31/27/81 15/26/81
f 30/17/82 28/16/82 31/27/82
f 28/16/83 14/23/83 31/27/83
f 28/16/84 29/24/84 14/23/84
f 28/16/85 23/13/85 29/24/85
f 23/13/86 13/20/86 29/24/86
f 26/15/87 27/18/87 16/29/87
f 26/15/88 24/12/88 27/18/88
f 24/12/89 11/11/89 27/18/89
f 23/13/90 25/21/90 13/20/90
f 23/13/91 24/12/91 25/21/91
f 24/12/92 12/14/92 25/21/92
