# Blender v2.79 (sub 0) OBJ File: 'tree-oak2.blend'
# www.blender.org
mtllib tree-oak2.mtl
o stalk_Cube.001
v -0.186383 -0.068630 0.186378
v -0.186383 -0.068630 -0.186386
v 0.186381 -0.068630 0.186378
v 0.186381 -0.068630 -0.186386
v -0.248511 -0.068630 -0.000004
v 0.248508 -0.068630 -0.000004
v -0.000001 -0.068630 -0.248513
v -0.000001 -0.068630 0.248505
v -0.000001 -0.154055 -0.000004
v -0.034562 3.740733 -0.001270
v -0.037266 1.261437 0.016472
v 2.218836 2.443398 1.726772
v -1.141548 2.444566 2.749135
v -2.637307 2.732769 -0.451416
v -0.787514 2.190736 -2.643345
v 2.343859 2.480865 -1.655447
v 0.901131 3.860737 1.871778
v -1.490078 4.082574 0.806748
v -1.270948 3.936548 -1.368366
v 0.697391 3.808031 -1.714703
v 1.821232 3.674619 0.086004
v 0.091993 4.972549 0.065883
v -0.959253 1.333468 2.454062
v 1.163380 1.250490 1.639874
v 0.995990 1.808556 2.739375
v 2.606700 2.057002 0.070084
v 1.507504 1.218094 -1.006195
v -1.824965 1.187865 -0.129567
v -2.480038 2.188950 1.261024
v -0.592910 1.226245 -1.823090
v -2.081540 2.176991 -2.128838
v 0.962486 1.954216 -2.781811
v 2.068344 3.146549 0.764225
v 2.269689 3.035868 -0.700098
v -0.064573 3.109773 2.143818
v 1.146236 3.024427 1.748886
v -2.165141 3.276422 0.297353
v -1.912918 3.211055 1.751893
v -1.266498 2.886650 -1.944574
v -1.866389 3.201544 -1.103013
v 1.522471 3.084453 -2.272915
v -0.130485 3.118504 -2.218068
v 1.515810 4.046819 1.108811
v -0.159579 4.184354 1.671379
v -1.581331 4.362498 -0.396408
v -0.456918 4.083248 -1.512173
v 1.414214 4.047549 -0.814080
v 0.678095 4.563240 1.280539
v 1.255120 4.507988 0.162148
v -0.725065 4.635072 0.536548
v -0.835366 4.594770 -0.798524
v 0.407454 4.484674 -1.005331
vt 0.029558 0.657362
vt 0.029558 0.657362
vt 0.029558 0.657362
vt 0.029558 0.657362
vt 0.029558 0.657362
vt 0.029558 0.657362
vt 0.029558 0.657362
vt 0.029558 0.657362
vt 0.029558 0.657362
vt 0.029558 0.657362
vt 0.029170 0.843756
vt 0.029170 0.843756
vt 0.029170 0.843756
vt 0.029170 0.843756
vt 0.029170 0.843756
vt 0.029170 0.843756
vt 0.029170 0.843756
vt 0.029170 0.843756
vt 0.029170 0.843756
vt 0.029170 0.843756
vt 0.029170 0.843756
vt 0.029170 0.843756
vt 0.029170 0.843756
vt 0.029170 0.843756
vt 0.029170 0.843756
vt 0.029170 0.843756
vt 0.029170 0.843756
vt 0.029170 0.843756
vt 0.029170 0.843756
vt 0.029170 0.843756
vt 0.029170 0.843756
vt 0.029170 0.843756
vt 0.029170 0.843756
vt 0.029170 0.843756
vt 0.029170 0.843756
vt 0.029170 0.843756
vt 0.029170 0.843756
vt 0.029170 0.843756
vt 0.029170 0.843756
vt 0.029170 0.843756
vt 0.029170 0.843756
vt 0.029170 0.843756
vt 0.029170 0.843756
vt 0.029170 0.843756
vt 0.029170 0.843756
vt 0.029170 0.843756
vt 0.029170 0.843756
vt 0.029170 0.843756
vt 0.029170 0.843756
vt 0.029170 0.843756
vt 0.029170 0.843756
vt 0.029170 0.843756
vn 0.3156 0.0643 -0.9467
vn 0.9463 0.0704 0.3154
vn -0.3157 0.0592 0.9470
vn -0.9473 0.0533 0.3158
vn 0.2180 -0.9513 0.2180
vn 0.9463 0.0702 -0.3154
vn 0.2180 -0.9513 -0.2180
vn -0.3157 0.0586 -0.9471
vn -0.2180 -0.9513 -0.2180
vn -0.2180 -0.9513 0.2180
vn 0.3156 0.0649 0.9467
vn -0.9473 0.0531 -0.3158
vn -0.0324 -0.9993 0.0173
vn 0.6997 -0.6419 0.3135
vn 0.0375 -0.9983 0.0437
vn 0.0406 -0.9992 0.0069
vn -0.0128 -0.9997 0.0230
vn 0.9192 0.3724 0.1283
vn 0.1567 0.5138 0.8435
vn -0.8665 0.4473 0.2216
vn -0.3118 0.5578 -0.7692
vn 0.6210 0.0446 -0.7825
vn 0.4229 0.7620 0.4905
vn -0.0972 0.7514 0.6527
vn -0.6139 0.7703 -0.1722
vn -0.3003 0.5650 -0.7685
vn 0.7043 0.6362 -0.3149
vn 0.5127 0.6423 0.5697
vn -0.3842 0.7763 0.4998
vn -0.4851 0.7334 -0.4763
vn 0.0562 0.7338 -0.6770
vn 0.8140 0.5652 -0.1339
vn 0.3756 0.8802 -0.2903
vn 0.4280 0.8424 -0.3276
vn 0.4204 0.7362 -0.5304
vn 0.0123 0.9113 -0.4115
vn -0.0271 0.8056 -0.5918
vn -0.2445 0.7221 -0.6472
vn -0.3800 0.9250 0.0035
vn -0.2993 0.9542 -0.0041
vn -0.5147 0.8257 0.2311
vn -0.1560 0.9108 0.3822
vn -0.1898 0.8764 0.4427
vn 0.0567 0.6534 0.7549
vn 0.3574 0.9236 0.1388
vn 0.5446 0.8032 0.2413
vn 0.8283 0.5586 0.0440
vn 0.7656 0.6381 -0.0818
vn 0.7383 0.5868 -0.3326
vn 0.3584 0.7911 -0.4957
vn -0.0009 0.5903 -0.8072
vn -0.2976 0.4961 -0.8157
vn -0.2348 0.4669 -0.8526
vn -0.7672 0.4603 -0.4467
vn -0.9108 0.3534 -0.2132
vn -0.8086 0.5565 0.1908
vn -0.3961 0.7565 0.5204
vn -0.1714 0.3838 0.9074
vn -0.0516 0.3981 0.9159
vn 0.7569 0.1277 0.6409
vn 0.7082 0.1726 0.6846
vn 0.8625 0.5005 0.0754
vn -0.0142 0.6006 -0.7994
vn -0.0215 0.4193 -0.9076
vn -0.0142 0.4249 -0.9051
vn -0.7004 0.3411 -0.6269
vn -0.4572 0.6754 -0.5786
vn -0.7041 0.5708 -0.4224
vn -0.8050 0.5697 0.1652
vn -0.8941 0.4128 0.1736
vn -0.7483 0.1002 0.6558
vn 0.3065 -0.0498 0.9506
vn 0.2888 0.5830 0.7594
vn 0.3257 0.5726 0.7523
vn 0.8594 0.5049 0.0800
vn 0.9154 0.3909 0.0963
vn 0.9603 0.2672 -0.0806
vn 0.6163 -0.6424 -0.4555
vn 0.1597 -0.8936 -0.4195
vn -0.1474 -0.6579 -0.7386
vn -0.2733 -0.6546 -0.7049
vn -0.4528 -0.8209 -0.3480
vn -0.8667 -0.4823 -0.1274
vn -0.8768 -0.4757 -0.0706
vn -0.6156 -0.7479 0.2484
vn -0.6863 -0.2898 0.6671
vn 0.7355 -0.6235 -0.2652
vn 0.5527 -0.8294 0.0820
vn -0.0218 -0.9997 0.0094
vn -0.0752 -0.2675 0.9606
vn 0.1443 -0.8733 0.4652
vn 0.6659 -0.6194 0.4158
usemtl None
s off
f 7/1/1 10/2/1 4/3/1
f 6/4/2 10/2/2 3/5/2
f 8/6/3 10/2/3 1/7/3
f 1/7/4 10/2/4 5/8/4
f 9/9/5 6/4/5 3/5/5 8/6/5
f 4/3/6 10/2/6 6/4/6
f 7/1/7 4/3/7 6/4/7 9/9/7
f 2/10/8 10/2/8 7/1/8
f 2/10/9 7/1/9 9/9/9 5/8/9
f 5/8/10 9/9/10 8/6/10 1/7/10
f 3/5/11 10/2/11 8/6/11
f 5/8/12 10/2/12 2/10/12
f 11/11/13 24/12/13 23/13/13
f 12/14/14 24/12/14 26/15/14
f 11/11/15 23/13/15 28/16/15
f 11/11/16 28/16/16 30/17/16
f 11/11/17 30/17/17 27/18/17
f 12/14/18 26/15/18 33/19/18
f 13/20/19 25/21/19 35/22/19
f 14/23/20 29/24/20 37/25/20
f 15/26/21 31/27/21 39/28/21
f 16/29/22 32/30/22 41/31/22
f 12/14/23 33/19/23 36/32/23
f 13/20/24 35/22/24 38/33/24
f 14/23/25 37/25/25 40/34/25
f 15/26/26 39/28/26 42/35/26
f 16/29/27 41/31/27 34/36/27
f 17/37/28 43/38/28 48/39/28
f 18/40/29 44/41/29 50/42/29
f 19/43/30 45/44/30 51/45/30
f 20/46/31 46/47/31 52/48/31
f 21/49/32 47/50/32 49/51/32
f 49/51/33 52/48/33 22/52/33
f 49/51/34 47/50/34 52/48/34
f 47/50/35 20/46/35 52/48/35
f 52/48/36 51/45/36 22/52/36
f 52/48/37 46/47/37 51/45/37
f 46/47/38 19/43/38 51/45/38
f 51/45/39 50/42/39 22/52/39
f 51/45/40 45/44/40 50/42/40
f 45/44/41 18/40/41 50/42/41
f 50/42/42 48/39/42 22/52/42
f 50/42/43 44/41/43 48/39/43
f 44/41/44 17/37/44 48/39/44
f 48/39/45 49/51/45 22/52/45
f 48/39/46 43/38/46 49/51/46
f 43/38/47 21/49/47 49/51/47
f 34/36/48 47/50/48 21/49/48
f 34/36/49 41/31/49 47/50/49
f 41/31/50 20/46/50 47/50/50
f 42/35/51 46/47/51 20/46/51
f 42/35/52 39/28/52 46/47/52
f 39/28/53 19/43/53 46/47/53
f 40/34/54 45/44/54 19/43/54
f 40/34/55 37/25/55 45/44/55
f 37/25/56 18/40/56 45/44/56
f 38/33/57 44/41/57 18/40/57
f 38/33/58 35/22/58 44/41/58
f 35/22/59 17/37/59 44/41/59
f 36/32/60 43/38/60 17/37/60
f 36/32/61 33/19/61 43/38/61
f 33/19/62 21/49/62 43/38/62
f 41/31/63 42/35/63 20/46/63
f 41/31/64 32/30/64 42/35/64
f 32/30/65 15/26/65 42/35/65
f 39/28/66 40/34/66 19/43/66
f 39/28/67 31/27/67 40/34/67
f 31/27/68 14/23/68 40/34/68
f 37/25/69 38/33/69 18/40/69
f 37/25/70 29/24/70 38/33/70
f 29/24/71 13/20/71 38/33/71
f 35/22/72 36/32/72 17/37/72
f 35/22/73 25/21/73 36/32/73
f 25/21/74 12/14/74 36/32/74
f 33/19/75 34/36/75 21/49/75
f 33/19/76 26/15/76 34/36/76
f 26/15/77 16/29/77 34/36/77
f 27/18/78 32/30/78 16/29/78
f 27/18/79 30/17/79 32/30/79
f 30/17/80 15/26/80 32/30/80
f 30/17/81 31/27/81 15/26/81
f 30/17/82 28/16/82 31/27/82
f 28/16/83 14/23/83 31/27/83
f 28/16/84 29/24/84 14/23/84
f 28/16/85 23/13/85 29/24/85
f 23/13/86 13/20/86 29/24/86
f 26/15/87 27/18/87 16/29/87
f 26/15/88 24/12/88 27/18/88
f 24/12/89 11/11/89 27/18/89
f 23/13/90 25/21/90 13/20/90
f 23/13/91 24/12/91 25/21/91
f 24/12/92 12/14/92 25/21/92
