# Blender v2.79 (sub 0) OBJ File: 'tree-pine2.blend'
# www.blender.org
mtllib tree-pine2.mtl
o stalk_Cube.001
v -0.141020 -0.164316 0.141020
v -0.141020 -0.181247 -0.141020
v 0.141020 -0.169489 0.141020
v 0.141020 -0.185222 -0.141020
v -0.188027 -0.172409 0.000000
v 0.188027 -0.178504 0.000000
v -0.000000 -0.185491 -0.188027
v -0.000000 -0.163665 0.188027
v -0.000000 -0.244851 0.000000
v -0.000000 3.946641 0.000000
v 0.365822 2.463172 -0.398883
v 0.492406 2.463172 0.224656
v -0.061499 2.463172 0.537728
v -0.000000 4.083337 -0.000000
v -0.530414 2.463172 0.107678
v -0.266315 2.463172 -0.471179
v 0.296614 1.830067 -0.579332
v 0.642636 1.830067 0.103073
v 0.100557 1.830067 0.643035
v -0.000000 4.075875 -0.000000
v -0.580489 1.830067 0.294344
v -0.459319 1.830067 -0.461120
v 0.179129 1.128001 -0.730464
v 0.750066 1.128001 -0.055364
v 0.284438 1.128001 0.696247
v -0.000000 4.026259 -0.000000
v -0.574274 1.128001 0.485669
v -0.639359 1.128001 -0.396087
v -0.000000 0.427797 -0.815229
v 0.775328 0.427797 -0.251919
v 0.479179 0.427797 0.659534
v -0.000000 4.011540 0.000000
v -0.479179 0.427797 0.659534
v -0.775328 0.427797 -0.251920
vt 0.031512 0.659315
vt 0.031512 0.659315
vt 0.031512 0.659315
vt 0.031512 0.659315
vt 0.031512 0.659315
vt 0.031512 0.659315
vt 0.031512 0.659315
vt 0.031512 0.659315
vt 0.031512 0.659315
vt 0.031512 0.659315
vt 0.720435 0.840588
vt 0.720435 0.840588
vt 0.720435 0.840588
vt 0.720435 0.840588
vt 0.720435 0.840588
vt 0.720435 0.840588
vt 0.653777 0.843688
vt 0.653777 0.843688
vt 0.653777 0.843688
vt 0.653777 0.843688
vt 0.653777 0.843688
vt 0.653777 0.843688
vt 0.594870 0.843688
vt 0.594870 0.843688
vt 0.594870 0.843688
vt 0.594870 0.843688
vt 0.594870 0.843688
vt 0.594870 0.843688
vt 0.539062 0.835938
vt 0.539062 0.835938
vt 0.539062 0.835938
vt 0.539062 0.835938
vt 0.539062 0.835938
vt 0.539062 0.835938
vn 0.3159 0.0431 -0.9478
vn 0.9486 0.0432 0.3134
vn -0.3161 0.0434 0.9477
vn -0.9485 0.0433 0.3137
vn 0.2128 -0.9342 0.2865
vn 0.9472 0.0432 -0.3178
vn 0.2203 -0.9578 -0.1847
vn -0.3148 0.0431 -0.9482
vn -0.2477 -0.9517 -0.1815
vn -0.2431 -0.9268 0.2862
vn 0.3175 0.0433 0.9473
vn -0.9470 0.0432 -0.3184
vn 0.9461 0.2609 -0.1921
vn 0.4750 0.2609 0.8404
vn -0.6525 0.2609 0.7115
vn -0.8783 0.2609 -0.4007
vn 0.1097 0.2609 -0.9591
vn 0.0000 -1.0000 -0.0000
vn 0.8683 0.2283 -0.4403
vn 0.6871 0.2283 0.6898
vn -0.4437 0.2283 0.8666
vn -0.9613 0.2283 -0.1542
vn -0.1504 0.2283 -0.9619
vn 0.7473 0.2055 -0.6320
vn 0.8320 0.2055 0.5154
vn -0.2331 0.2055 0.9505
vn -0.9760 0.2055 0.0720
vn -0.3701 0.2055 -0.9060
vn 0.5781 0.1810 -0.7957
vn 0.9353 0.1810 0.3039
vn 0.0000 0.1810 0.9835
vn -0.9353 0.1810 0.3039
vn -0.5781 0.1810 -0.7957
usemtl None
s off
f 7/1/1 10/2/1 4/3/1
f 6/4/2 10/2/2 3/5/2
f 8/6/3 10/2/3 1/7/3
f 1/7/4 10/2/4 5/8/4
f 9/9/5 6/4/5 3/5/5 8/6/5
f 4/3/6 10/2/6 6/4/6
f 7/1/7 4/3/7 6/4/7 9/9/7
f 2/10/8 10/2/8 7/1/8
f 2/10/9 7/1/9 9/9/9 5/8/9
f 5/8/10 9/9/10 8/6/10 1/7/10
f 3/5/11 10/2/11 8/6/11
f 5/8/12 10/2/12 2/10/12
f 11/11/13 14/12/13 12/13/13
f 12/13/14 14/12/14 13/14/14
f 13/14/15 14/12/15 15/15/15
f 15/15/16 14/12/16 16/16/16
f 16/16/17 14/12/17 11/11/17
f 11/11/18 12/13/18 13/14/18 15/15/18 16/16/18
f 17/17/19 20/18/19 18/19/19
f 18/19/20 20/18/20 19/20/20
f 19/20/21 20/18/21 21/21/21
f 21/21/22 20/18/22 22/22/22
f 22/22/23 20/18/23 17/17/23
f 17/17/18 18/19/18 19/20/18 21/21/18 22/22/18
f 23/23/24 26/24/24 24/25/24
f 24/25/25 26/24/25 25/26/25
f 25/26/26 26/24/26 27/27/26
f 27/27/27 26/24/27 28/28/27
f 28/28/28 26/24/28 23/23/28
f 23/23/18 24/25/18 25/26/18 27/27/18 28/28/18
f 29/29/29 32/30/29 30/31/29
f 30/31/30 32/30/30 31/32/30
f 31/32/31 32/30/31 33/33/31
f 33/33/32 32/30/32 34/34/32
f 34/34/33 32/30/33 29/29/33
f 29/29/18 30/31/18 31/32/18 33/33/18 34/34/18
