# Blender v2.79 (sub 0) OBJ File: 'tree-oak3.blend'
# www.blender.org
mtllib tree-oak3.mtl
o stalk_Cube.001
v -0.193798 -0.091730 0.193798
v -0.193798 -0.091730 -0.193797
v 0.193798 -0.091730 0.193798
v 0.193798 -0.091730 -0.193797
v -0.258397 -0.091730 0.000001
v 0.258397 -0.091730 0.000001
v 0.000000 -0.091730 -0.258397
v 0.000000 -0.091730 0.258398
v 0.000000 -0.180554 0.000001
v -0.043231 3.947949 0.007884
v -0.008835 1.648211 -0.033198
v 2.091998 1.950609 1.562137
v -0.871177 2.700583 2.048997
v -2.307578 2.565108 -0.391523
v -0.672598 2.536775 -2.683679
v 2.268922 2.871454 -1.409687
v 0.581788 4.175500 1.518656
v -1.236266 4.123770 0.662016
v -1.049319 4.159977 -1.261926
v 0.471644 4.087283 -1.418947
v 1.316155 4.271339 0.064082
v 0.052527 4.937078 0.013004
v -0.708325 1.541230 1.608727
v 1.114524 1.546219 0.877506
v 0.689289 2.332640 2.465733
v 2.334934 2.698882 -0.085784
v 1.358354 1.568277 -0.921748
v -1.987450 1.758288 -0.080038
v -2.161579 2.353691 1.270184
v -0.898241 1.575638 -1.949863
v -1.606139 2.715519 -1.714026
v 0.877651 2.384649 -2.589483
v 1.691895 3.882795 0.453557
v 1.536243 3.919601 -0.494952
v -0.037069 3.841614 1.863061
v 1.622097 3.181966 2.101169
v -1.769081 3.786528 0.289237
v -1.398219 3.702591 1.412923
v -0.899748 3.746818 -1.903720
v -1.568237 3.792892 -1.033829
v 1.093587 3.841896 -1.480011
v 0.109824 3.728051 -2.104964
v 1.267904 4.259274 0.941278
v -0.189718 4.287786 1.331005
v -1.412096 4.306274 -0.399611
v -0.308991 4.222812 -1.461916
v 1.013665 4.451409 -0.618321
v 0.530715 4.705104 1.004263
v 0.921576 4.756895 0.136780
v -0.621256 4.638577 0.410737
v -0.894989 4.690379 -0.817686
v 0.215580 4.632632 -0.839690
vt 0.031512 0.659315
vt 0.031512 0.659315
vt 0.031512 0.659315
vt 0.031512 0.659315
vt 0.031512 0.659315
vt 0.031512 0.659315
vt 0.031512 0.659315
vt 0.031512 0.659315
vt 0.031512 0.659315
vt 0.031512 0.659315
vt 0.031123 0.845709
vt 0.031123 0.845709
vt 0.031123 0.845709
vt 0.031123 0.845709
vt 0.031123 0.845709
vt 0.031123 0.845709
vt 0.031123 0.845709
vt 0.031123 0.845709
vt 0.031123 0.845709
vt 0.031123 0.845709
vt 0.031123 0.845709
vt 0.031123 0.845709
vt 0.031123 0.845709
vt 0.031123 0.845709
vt 0.031123 0.845709
vt 0.031123 0.845709
vt 0.031123 0.845709
vt 0.031123 0.845709
vt 0.031123 0.845709
vt 0.031123 0.845709
vt 0.031123 0.845709
vt 0.031123 0.845709
vt 0.031123 0.845709
vt 0.031123 0.845709
vt 0.031123 0.845709
vt 0.031123 0.845709
vt 0.031123 0.845709
vt 0.031123 0.845709
vt 0.031123 0.845709
vt 0.031123 0.845709
vt 0.031123 0.845709
vt 0.031123 0.845709
vt 0.031123 0.845709
vt 0.031123 0.845709
vt 0.031123 0.845709
vt 0.031123 0.845709
vt 0.031123 0.845709
vt 0.031123 0.845709
vt 0.031123 0.845709
vt 0.031123 0.845709
vt 0.031123 0.845709
vt 0.031123 0.845709
vn 0.3155 0.0658 -0.9466
vn 0.9464 0.0700 0.3155
vn -0.3157 0.0554 0.9472
vn -0.9475 0.0499 0.3158
vn 0.2180 -0.9513 0.2180
vn 0.9463 0.0713 -0.3154
vn 0.2180 -0.9513 -0.2180
vn -0.3157 0.0590 -0.9470
vn -0.2180 -0.9513 -0.2180
vn -0.2180 -0.9513 0.2180
vn 0.3156 0.0621 0.9469
vn -0.9474 0.0511 -0.3158
vn -0.0281 -0.9966 -0.0769
vn 0.5299 -0.7989 -0.2846
vn -0.0533 -0.9947 -0.0875
vn -0.0569 -0.9963 0.0642
vn -0.0260 -0.9984 0.0499
vn 0.8901 0.3511 0.2906
vn -0.1833 0.2872 0.9401
vn -0.9317 0.3410 0.1252
vn -0.6522 0.3204 -0.6870
vn 0.4540 0.4962 -0.7401
vn 0.9435 0.2888 0.1628
vn -0.3252 0.3789 0.8664
vn -0.8781 0.4602 -0.1311
vn -0.1585 0.5137 -0.8432
vn 0.6124 0.7176 -0.3318
vn 0.4438 0.6460 0.6211
vn -0.4324 0.7562 0.4910
vn -0.7327 0.5495 -0.4015
vn 0.1658 0.7535 -0.6361
vn 0.7530 0.6368 -0.1658
vn 0.2335 0.9290 -0.2870
vn 0.2946 0.8978 -0.3273
vn 0.3287 0.7558 -0.5663
vn 0.0425 0.9435 -0.3287
vn 0.0315 0.8223 -0.5682
vn -0.2471 0.6634 -0.7063
vn -0.3443 0.9317 0.1160
vn -0.5091 0.8477 0.1492
vn -0.5677 0.7905 0.2299
vn -0.2187 0.9214 0.3211
vn -0.2830 0.8445 0.4546
vn -0.0743 0.6911 0.7189
vn 0.1819 0.9733 0.1400
vn 0.5142 0.8107 0.2801
vn 0.7788 0.6252 0.0514
vn 0.7223 0.6769 -0.1416
vn 0.7050 0.6082 -0.3648
vn 0.2622 0.7991 -0.5410
vn 0.1734 0.8319 -0.5271
vn -0.1160 0.7492 -0.6520
vn -0.2199 0.7961 -0.5638
vn -0.6397 0.6668 -0.3823
vn -0.8904 0.4352 -0.1331
vn -0.6308 0.7405 0.2318
vn -0.3801 0.8393 0.3888
vn -0.2896 0.6909 0.6624
vn -0.0476 0.7586 0.6498
vn 0.3841 0.7321 0.5626
vn 0.7930 0.5478 0.2666
vn 0.6935 0.7188 0.0480
vn 0.2587 0.7929 -0.5517
vn 0.4184 0.5101 -0.7515
vn 0.0935 0.3847 -0.9183
vn -0.6340 0.5746 -0.5176
vn -0.7207 0.3880 -0.5744
vn -0.8574 0.2960 -0.4211
vn -0.6414 0.7199 0.2654
vn -0.8410 0.4430 0.3106
vn -0.5470 0.2242 0.8065
vn 0.1220 0.5940 0.7952
vn 0.0175 0.3781 0.9256
vn 0.4971 -0.1817 0.8485
vn 0.7637 0.6377 -0.1006
vn 0.8487 0.5153 -0.1193
vn 0.8316 0.5545 0.0308
vn 0.6237 -0.6160 -0.4813
vn 0.2153 -0.8512 -0.4787
vn -0.0110 -0.6052 -0.7960
vn -0.7125 -0.3125 -0.6283
vn -0.8046 -0.4110 -0.4286
vn -0.7542 -0.4745 -0.4540
vn -0.9337 -0.3563 0.0367
vn -0.5176 -0.8056 0.2885
vn -0.4035 -0.3738 0.8351
vn 0.7929 -0.5980 -0.1175
vn 0.7202 -0.6880 0.0892
vn -0.0726 -0.9971 -0.0221
vn -0.3207 -0.3753 0.8696
vn 0.1935 -0.8576 0.4765
vn 0.0501 -0.8896 0.4539
usemtl None
s off
f 7/1/1 10/2/1 4/3/1
f 6/4/2 10/2/2 3/5/2
f 8/6/3 10/2/3 1/7/3
f 1/7/4 10/2/4 5/8/4
f 9/9/5 6/4/5 3/5/5 8/6/5
f 4/3/6 10/2/6 6/4/6
f 7/1/7 4/3/7 6/4/7 9/9/7
f 2/10/8 10/2/8 7/1/8
f 2/10/9 7/1/9 9/9/9 5/8/9
f 5/8/10 9/9/10 8/6/10 1/7/10
f 3/5/11 10/2/11 8/6/11
f 5/8/12 10/2/12 2/10/12
f 11/11/13 24/12/13 23/13/13
f 12/14/14 24/12/14 26/15/14
f 11/11/15 23/13/15 28/16/15
f 11/11/16 28/16/16 30/17/16
f 11/11/17 30/17/17 27/18/17
f 12/14/18 26/15/18 33/19/18
f 13/20/19 25/21/19 35/22/19
f 14/23/20 29/24/20 37/25/20
f 15/26/21 31/27/21 39/28/21
f 16/29/22 32/30/22 41/31/22
f 12/14/23 33/19/23 36/32/23
f 13/20/24 35/22/24 38/33/24
f 14/23/25 37/25/25 40/34/25
f 15/26/26 39/28/26 42/35/26
f 16/29/27 41/31/27 34/36/27
f 17/37/28 43/38/28 48/39/28
f 18/40/29 44/41/29 50/42/29
f 19/43/30 45/44/30 51/45/30
f 20/46/31 46/47/31 52/48/31
f 21/49/32 47/50/32 49/51/32
f 49/51/33 52/48/33 22/52/33
f 49/51/34 47/50/34 52/48/34
f 47/50/35 20/46/35 52/48/35
f 52/48/36 51/45/36 22/52/36
f 52/48/37 46/47/37 51/45/37
f 46/47/38 19/43/38 51/45/38
f 51/45/39 50/42/39 22/52/39
f 51/45/40 45/44/40 50/42/40
f 45/44/41 18/40/41 50/42/41
f 50/42/42 48/39/42 22/52/42
f 50/42/43 44/41/43 48/39/43
f 44/41/44 17/37/44 48/39/44
f 48/39/45 49/51/45 22/52/45
f 48/39/46 43/38/46 49/51/46
f 43/38/47 21/49/47 49/51/47
f 34/36/48 47/50/48 21/49/48
f 34/36/49 41/31/49 47/50/49
f 41/31/50 20/46/50 47/50/50
f 42/35/51 46/47/51 20/46/51
f 42/35/52 39/28/52 46/47/52
f 39/28/53 19/43/53 46/47/53
f 40/34/54 45/44/54 19/43/54
f 40/34/55 37/25/55 45/44/55
f 37/25/56 18/40/56 45/44/56
f 38/33/57 44/41/57 18/40/57
f 38/33/58 35/22/58 44/41/58
f 35/22/59 17/37/59 44/41/59
f 36/32/60 43/38/60 17/37/60
f 36/32/61 33/19/61 43/38/61
f 33/19/62 21/49/62 43/38/62
f 41/31/63 42/35/63 20/46/63
f 41/31/64 32/30/64 42/35/64
f 32/30/65 15/26/65 42/35/65
f 39/28/66 40/34/66 19/43/66
f 39/28/67 31/27/67 40/34/67
f 31/27/68 14/23/68 40/34/68
f 37/25/69 38/33/69 18/40/69
f 37/25/70 29/24/70 38/33/70
f 29/24/71 13/20/71 38/33/71
f 35/22/72 36/32/72 17/37/72
f 35/22/73 25/21/73 36/32/73
f 25/21/74 12/14/74 36/32/74
f 33/19/75 34/36/75 21/49/75
f 33/19/76 26/15/76 34/36/76
f 26/15/77 16/29/77 34/36/77
f 27/18/78 32/30/78 16/29/78
f 27/18/79 30/17/79 32/30/79
f 30/17/80 15/26/80 32/30/80
f 30/17/81 31/27/81 15/26/81
f 30/17/82 28/16/82 31/27/82
f 28/16/83 14/23/83 31/27/83
f 28/16/84 29/24/84 14/23/84
f 28/16/85 23/13/85 29/24/85
f 23/13/86 13/20/86 29/24/86
f 26/15/87 27/18/87 16/29/87
f 26/15/88 24/12/88 27/18/88
f 24/12/89 11/11/89 27/18/89
f 23/13/90 25/21/90 13/20/90
f 23/13/91 24/12/91 25/21/91
f 24/12/92 12/14/92 25/21/92
