# Blender v2.79 (sub 0) OBJ File: 'tree-pine3.blend'
# www.blender.org
mtllib tree-pine3.mtl
o stalk_Cube.001
v -0.129431 -0.143781 0.129431
v -0.129431 -0.159321 -0.129431
v 0.129431 -0.148529 0.129431
v 0.129431 -0.162969 -0.129431
v -0.172574 -0.151209 0.000000
v 0.172574 -0.156803 0.000000
v 0.000000 -0.163216 -0.172574
v 0.000000 -0.143184 0.172574
v 0.000000 -0.217698 0.000000
v 0.000000 3.629326 0.000000
v -0.000000 2.488467 -0.496754
v 0.472441 2.488467 -0.153505
v 0.291985 2.488467 0.401882
v -0.000000 3.975482 0.000000
v -0.291984 2.488467 0.401882
v -0.472441 2.488467 -0.153505
v -0.000000 1.907392 -0.597362
v 0.568125 1.907392 -0.184595
v 0.351120 1.907392 0.483276
v -0.000000 3.968635 0.000000
v -0.351120 1.907392 0.483276
v -0.568125 1.907392 -0.184595
v -0.000000 1.263024 -0.690297
v 0.656511 1.263024 -0.213313
v 0.405746 1.263024 0.558462
v -0.000000 3.923096 0.000000
v -0.405746 1.263024 0.558462
v -0.656511 1.263024 -0.213314
v -0.000000 0.620364 -0.748231
v 0.711610 0.620364 -0.231216
v 0.439799 0.620364 0.605332
v -0.000000 3.909586 0.000000
v -0.439799 0.620364 0.605332
v -0.711610 0.620364 -0.231216
vt 0.031512 0.659315
vt 0.031512 0.659315
vt 0.031512 0.659315
vt 0.031512 0.659315
vt 0.031512 0.659315
vt 0.031512 0.659315
vt 0.031512 0.659315
vt 0.031512 0.659315
vt 0.031512 0.659315
vt 0.031512 0.659315
vt 0.720435 0.840588
vt 0.720435 0.840588
vt 0.720435 0.840588
vt 0.720435 0.840588
vt 0.720435 0.840588
vt 0.720435 0.840588
vt 0.653777 0.843688
vt 0.653777 0.843688
vt 0.653777 0.843688
vt 0.653777 0.843688
vt 0.653777 0.843688
vt 0.653777 0.843688
vt 0.594870 0.843688
vt 0.594870 0.843688
vt 0.594870 0.843688
vt 0.594870 0.843688
vt 0.594870 0.843688
vt 0.594870 0.843688
vt 0.539062 0.835938
vt 0.539062 0.835938
vt 0.539062 0.835938
vt 0.539062 0.835938
vt 0.539062 0.835938
vt 0.539062 0.835938
vn 0.3159 0.0431 -0.9478
vn 0.9486 0.0432 0.3134
vn -0.3161 0.0434 0.9477
vn -0.9485 0.0433 0.3137
vn 0.2128 -0.9342 0.2865
vn 0.9472 0.0432 -0.3178
vn 0.2203 -0.9578 -0.1847
vn -0.3148 0.0431 -0.9482
vn -0.2477 -0.9517 -0.1815
vn -0.2431 -0.9268 0.2862
vn 0.3175 0.0433 0.9473
vn -0.9470 0.0432 -0.3184
vn 0.5674 0.2609 -0.7810
vn 0.9181 0.2609 0.2983
vn 0.0000 0.2609 0.9654
vn -0.9181 0.2609 0.2983
vn -0.5674 0.2609 -0.7810
vn 0.0000 -1.0000 -0.0000
vn 0.5723 0.2283 -0.7877
vn 0.9259 0.2283 0.3009
vn 0.0000 0.2283 0.9736
vn -0.9259 0.2283 0.3009
vn -0.5723 0.2283 -0.7877
vn 0.5752 0.2055 -0.7918
vn 0.9308 0.2055 0.3024
vn 0.0000 0.2055 0.9787
vn -0.9308 0.2055 0.3024
vn -0.5752 0.2055 -0.7918
vn 0.5781 0.1810 -0.7957
vn 0.9353 0.1810 0.3039
vn 0.0000 0.1810 0.9835
vn -0.9353 0.1810 0.3039
vn -0.5781 0.1810 -0.7957
usemtl None
s off
f 7/1/1 10/2/1 4/3/1
f 6/4/2 10/2/2 3/5/2
f 8/6/3 10/2/3 1/7/3
f 1/7/4 10/2/4 5/8/4
f 9/9/5 6/4/5 3/5/5 8/6/5
f 4/3/6 10/2/6 6/4/6
f 7/1/7 4/3/7 6/4/7 9/9/7
f 2/10/8 10/2/8 7/1/8
f 2/10/9 7/1/9 9/9/9 5/8/9
f 5/8/10 9/9/10 8/6/10 1/7/10
f 3/5/11 10/2/11 8/6/11
f 5/8/12 10/2/12 2/10/12
f 11/11/13 14/12/13 12/13/13
f 12/13/14 14/12/14 13/14/14
f 13/14/15 14/12/15 15/15/15
f 15/15/16 14/12/16 16/16/16
f 16/16/17 14/12/17 11/11/17
f 11/11/18 12/13/18 13/14/18 15/15/18 16/16/18
f 17/17/19 20/18/19 18/19/19
f 18/19/20 20/18/20 19/20/20
f 19/20/21 20/18/21 21/21/21
f 21/21/22 20/18/22 22/22/22
f 22/22/23 20/18/23 17/17/23
f 17/17/18 18/19/18 19/20/18 21/21/18 22/22/18
f 23/23/24 26/24/24 24/25/24
f 24/25/25 26/24/25 25/26/25
f 25/26/26 26/24/26 27/27/26
f 27/27/27 26/24/27 28/28/27
f 28/28/28 26/24/28 23/23/28
f 23/23/18 24/25/18 25/26/18 27/27/18 28/28/18
f 29/29/29 32/30/29 30/31/29
f 30/31/30 32/30/30 31/32/30
f 31/32/31 32/30/31 33/33/31
f 33/33/32 32/30/32 34/34/32
f 34/34/33 32/30/33 29/29/33
f 29/29/18 30/31/18 31/32/18 33/33/18 34/34/18
