# Blender v2.79 (sub 0) OBJ File: 'tree-aspen2.blend'
# www.blender.org
mtllib tree-aspen2.mtl
o Cube_Cube.001
v -0.093750 0.000000 0.093750
v 0.000000 10.000000 0.000000
v -0.093750 0.000000 -0.093750
v -0.559277 7.848645 0.380597
v 0.093750 0.000000 0.093750
v 0.301775 7.883084 0.795189
v 0.093750 0.000000 -0.093750
v 0.979781 4.083947 -0.192850
v -0.125000 0.000000 0.000000
v -0.478922 4.154841 -0.878965
v 0.125000 0.000000 0.000000
v -1.174456 3.965238 -0.114296
v 0.000000 0.000000 -0.125000
v -0.208451 4.586349 0.796382
v 0.000000 0.000000 0.125000
v 0.457812 3.793396 0.449997
v -0.059268 2.006961 -0.048602
v 0.000000 0.000000 0.000000
v -0.527845 8.154305 -0.499911
v 0.269748 7.737590 -0.669448
v 0.937332 7.705963 0.199807
v 0.045701 10.201838 0.017881
v -0.009547 5.987620 -1.008722
v 0.665127 6.006355 -0.557467
v -1.035916 5.857670 -0.364578
v -0.509555 5.777504 -0.648219
v -0.575128 5.722220 0.797395
v -0.702139 6.085783 0.426228
v 0.287676 6.131842 0.681583
v -0.282959 6.065198 0.910460
v 0.930146 6.085800 -0.547914
v 0.504588 5.521661 0.153587
v 0.202162 4.102711 -0.884122
v -0.526647 3.674773 -0.453159
v 0.020397 2.702104 -0.203308
v -0.723249 3.982904 0.549061
v -0.507611 2.638072 0.003899
v 0.486335 2.932992 -0.332165
v 0.784708 4.080051 0.035969
v 0.251876 3.820866 0.946098
v 0.422474 2.608186 0.325708
v -0.418963 2.536065 0.609967
v 0.696557 7.652368 0.412904
v -0.047695 8.323557 0.298320
v -0.906809 7.922190 -0.126282
v -0.185426 8.220183 -0.836671
v 0.727562 8.029746 -0.430699
v -0.191048 9.749422 0.381955
v 0.493958 9.228951 0.246572
v -0.426257 9.402783 0.128600
v -0.036052 10.061060 -0.432994
v 0.168258 9.402618 -0.491431
vt 0.461797 0.959844
vt 0.471797 0.959844
vt 0.471797 0.969844
vt 0.461797 0.959844
vt 0.471797 0.969844
vt 0.461797 0.959844
vt 0.471797 0.969844
vt 0.461797 0.959844
vt 0.471797 0.969844
vt 0.461797 0.959844
vt 0.471797 0.959844
vt 0.461797 0.969844
vt 0.276250 0.844609
vt 0.286250 0.844609
vt 0.286250 0.854609
vt 0.286250 0.844609
vt 0.286250 0.854609
vt 0.471797 0.959844
vt 0.471797 0.969844
vt 0.461797 0.969844
vt 0.461797 0.959844
vt 0.461797 0.959844
vt 0.471797 0.969844
vt 0.461797 0.959844
vt 0.471797 0.959844
vt 0.471797 0.969844
vt 0.461797 0.969844
vt 0.286250 0.844609
vt 0.286250 0.854609
vt 0.276250 0.844609
vt 0.286250 0.844609
vt 0.286250 0.854609
vt 0.471797 0.959844
vt 0.471797 0.969844
vt 0.461797 0.969844
vt 0.461797 0.959844
vt 0.471797 0.969844
vt 0.286250 0.854609
vt 0.286250 0.844609
vt 0.286250 0.854609
vt 0.276250 0.844609
vt 0.286250 0.844609
vt 0.286250 0.854609
vt 0.276250 0.844609
vt 0.286250 0.844609
vt 0.286250 0.854609
vt 0.276250 0.844609
vt 0.286250 0.844609
vt 0.286250 0.854609
vt 0.276250 0.844609
vt 0.286250 0.844609
vt 0.286250 0.854609
vt 0.286250 0.844609
vt 0.286250 0.854609
vt 0.286250 0.844609
vt 0.286250 0.854609
vt 0.286250 0.844609
vt 0.286250 0.854609
vt 0.286250 0.844609
vt 0.286250 0.854609
vt 0.286250 0.844609
vt 0.286250 0.854609
vt 0.276250 0.844609
vt 0.286250 0.844609
vt 0.286250 0.854609
vt 0.276250 0.844609
vt 0.286250 0.844609
vt 0.286250 0.854609
vt 0.276250 0.844609
vt 0.286250 0.844609
vt 0.286250 0.854609
vt 0.276250 0.844609
vt 0.286250 0.844609
vt 0.286250 0.854609
vt 0.276250 0.844609
vt 0.286250 0.844609
vt 0.286250 0.854609
vt 0.276250 0.844609
vt 0.286250 0.844609
vt 0.286250 0.854609
vt 0.276250 0.844609
vt 0.286250 0.844609
vt 0.276250 0.844609
vt 0.286250 0.844609
vt 0.276250 0.844609
vt 0.286250 0.844609
vt 0.276250 0.844609
vt 0.286250 0.844609
vt 0.276250 0.844609
vt 0.286250 0.844609
vt 0.276250 0.844609
vt 0.286250 0.844609
vt 0.276250 0.844609
vt 0.286250 0.844609
vt 0.276250 0.844609
vt 0.286250 0.844609
vt 0.276250 0.844609
vt 0.286250 0.844609
vt 0.276250 0.844609
vt 0.286250 0.854609
vt 0.286250 0.854609
vt 0.276250 0.844609
vt 0.276250 0.844609
vt 0.286250 0.854609
vt 0.286250 0.854609
vt 0.276250 0.844609
vt 0.276250 0.844609
vt 0.286250 0.854609
vt 0.286250 0.854609
vt 0.276250 0.844609
vt 0.276250 0.844609
vt 0.286250 0.854609
vt 0.286250 0.854609
vt 0.276250 0.844609
vt 0.276250 0.844609
vt 0.286250 0.854609
vt 0.286250 0.854609
vt 0.276250 0.844609
vt 0.286250 0.844609
vt 0.276250 0.844609
vt 0.286250 0.844609
vt 0.286250 0.844609
vt 0.276250 0.844609
vt 0.286250 0.844609
vt 0.286250 0.844609
vt 0.276250 0.844609
vt 0.286250 0.844609
vt 0.286250 0.844609
vt 0.276250 0.844609
vt 0.286250 0.844609
vt 0.286250 0.844609
vt 0.276250 0.844609
vt 0.286250 0.844609
vt 0.276250 0.844609
vt 0.286250 0.854609
vt 0.286250 0.854609
vt 0.276250 0.844609
vt 0.286250 0.844609
vt 0.286250 0.854609
vt 0.286250 0.844609
vt 0.276250 0.844609
vt 0.286250 0.854609
vt 0.286250 0.854609
vt 0.276250 0.844609
vt 0.286250 0.854609
vt 0.286250 0.854609
vt 0.276250 0.844609
vt 0.286250 0.854609
vn -0.9486 0.0119 -0.3162
vn 0.3162 0.0119 -0.9486
vn 0.9486 0.0119 0.3162
vn -0.3162 0.0119 0.9486
vn 0.0000 -1.0000 0.0000
vn -0.1703 -0.1954 -0.9658
vn -0.3426 -0.1665 -0.9246
vn 0.9486 0.0119 -0.3162
vn -0.9486 0.0119 0.3162
vn -0.8142 -0.5802 0.0214
vn 0.8098 -0.0850 0.5805
vn 0.3162 0.0119 0.9486
vn -0.3162 0.0119 -0.9486
vn 0.2901 -0.6624 0.6907
vn 0.7495 0.0921 0.6556
vn -0.4418 -0.0911 0.8925
vn -0.8267 0.0411 0.5612
vn -0.9935 -0.0025 -0.1142
vn 0.6636 -0.0331 -0.7474
vn 0.9376 0.0340 0.3460
vn -0.2685 -0.0875 0.9593
vn -0.9266 0.1152 0.3579
vn -0.6093 0.1003 -0.7866
vn 0.0869 -0.1719 -0.9813
vn 0.7490 0.3256 0.5770
vn 0.0111 0.1591 0.9872
vn -0.7493 0.2152 -0.6263
vn 0.4537 0.1220 -0.8828
vn 0.9447 0.2802 -0.1704
vn 0.8884 0.3357 -0.3131
vn 0.8854 0.3471 -0.3091
vn 0.3969 0.1215 -0.9098
vn 0.9149 0.3071 -0.2618
vn 0.3112 0.1794 -0.9333
vn -0.7060 0.2059 -0.6776
vn -0.8612 0.5083 -0.0026
vn -0.9110 0.3367 -0.2383
vn -0.8028 0.1618 0.5739
vn -0.8525 0.5155 0.0862
vn -0.6494 -0.1094 0.7526
vn -0.8578 -0.1156 0.5008
vn 0.4595 0.3983 0.7938
vn 0.2914 0.1373 0.9467
vn 0.6337 0.1613 0.7566
vn 0.9588 0.1156 -0.2596
vn 0.0174 0.0620 -0.9979
vn 0.4405 0.0426 -0.8968
vn 0.4377 0.1033 -0.8932
vn -0.5891 0.0158 -0.8079
vn -0.7044 0.0388 -0.7087
vn -0.7339 0.1230 -0.6680
vn -0.9226 0.0132 0.3856
vn -0.8165 0.0810 0.5716
vn -0.0209 0.1925 0.9811
vn -0.6037 0.2665 0.7514
vn -0.6670 0.2589 0.6986
vn 0.6785 -0.0530 0.7327
vn 0.8495 -0.1385 0.5091
vn 0.6737 -0.1488 0.7238
vn 0.5531 0.0726 -0.8299
vn 0.5558 0.0075 -0.8313
vn -0.0127 -0.0674 -0.9976
vn -0.4677 0.0515 -0.8824
vn -0.4820 -0.0770 -0.8728
vn -0.4896 -0.0790 -0.8683
vn -0.9145 0.0844 0.3956
vn -0.9364 0.0298 0.3496
vn -0.3266 -0.1063 0.9392
vn 0.3779 -0.0630 0.9237
vn 0.3602 0.1006 0.9274
vn 0.9238 0.0294 0.3818
vn 0.8993 -0.1865 0.3955
vn 0.8082 0.1098 0.5786
vn 0.7531 0.1330 0.6443
vn -0.3765 -0.0455 0.9253
vn 0.3243 -0.3943 0.8599
vn 0.9201 -0.0679 0.3857
vn 0.7083 -0.3760 0.5974
vn 0.9695 -0.2438 -0.0262
vn 0.8202 -0.5406 -0.1873
vn -0.7731 -0.3408 0.5349
vn -0.9737 -0.2002 0.1087
vn -0.3908 -0.0435 0.9195
vn -0.5981 -0.4977 -0.6282
vn -0.2950 -0.3900 -0.8723
vn -0.5518 -0.3449 -0.7593
vn 0.6498 -0.1895 -0.7361
vn -0.0343 -0.4333 -0.9006
vn -0.0399 -0.4326 -0.9007
usemtl None
s off
f 9/1/1 2/2/1 3/3/1
f 13/4/2 2/2/2 7/5/2
f 11/6/3 2/2/3 5/7/3
f 15/8/4 2/2/4 1/9/4
f 18/10/5 11/11/5 5/7/5 15/12/5
f 17/13/6 35/14/6 38/15/6
f 17/13/7 37/16/7 35/17/7
f 13/4/5 7/18/5 11/19/5 18/20/5
f 7/21/8 2/2/8 11/19/8
f 1/22/9 2/2/9 9/23/9
f 3/24/5 13/25/5 18/26/5 9/27/5
f 17/13/10 42/28/10 37/29/10
f 16/30/11 41/31/11 39/32/11
f 9/1/5 18/33/5 15/34/5 1/35/5
f 5/36/12 2/2/12 15/34/12
f 3/24/13 2/2/13 13/37/13
f 17/13/14 41/31/14 42/38/14
f 16/30/15 39/39/15 32/40/15
f 14/41/16 40/42/16 30/43/16
f 12/44/17 36/45/17 28/46/17
f 10/47/18 34/48/18 26/49/18
f 8/50/19 33/51/19 24/52/19
f 16/30/20 32/53/20 29/54/20
f 14/41/21 30/55/21 27/56/21
f 12/44/22 28/57/22 25/58/22
f 10/47/23 26/59/23 23/60/23
f 8/50/24 24/61/24 31/62/24
f 6/63/25 43/64/25 48/65/25
f 4/66/26 44/67/26 50/68/26
f 19/69/27 45/70/27 51/71/27
f 20/72/28 46/73/28 52/74/28
f 21/75/29 47/76/29 49/77/29
f 49/78/30 52/79/30 22/80/30
f 49/78/31 47/76/31 52/74/31
f 47/81/32 20/82/32 52/74/32
f 52/83/33 51/84/33 22/80/33
f 52/83/34 46/73/34 51/71/34
f 46/85/35 19/86/35 51/71/35
f 51/87/36 50/88/36 22/80/36
f 51/87/37 45/70/37 50/68/37
f 45/89/38 4/90/38 50/68/38
f 50/91/39 48/92/39 22/80/39
f 50/91/40 44/67/40 48/65/40
f 44/93/41 6/94/41 48/65/41
f 48/95/42 49/96/42 22/80/42
f 48/95/43 43/64/43 49/77/43
f 43/97/44 21/98/44 49/77/44
f 31/99/45 47/76/45 21/100/45
f 31/99/46 24/61/46 47/101/46
f 24/102/47 20/82/47 47/101/47
f 23/103/48 46/73/48 20/104/48
f 23/103/49 26/59/49 46/105/49
f 26/106/50 19/86/50 46/105/50
f 25/107/51 45/70/51 19/108/51
f 25/107/52 28/57/52 45/109/52
f 28/110/53 4/90/53 45/109/53
f 27/111/54 44/67/54 4/112/54
f 27/111/55 30/55/55 44/113/55
f 30/114/56 6/94/56 44/113/56
f 29/115/57 43/64/57 6/116/57
f 29/115/58 32/53/58 43/117/58
f 32/118/59 21/98/59 43/117/59
f 24/102/60 23/119/60 20/104/60
f 24/102/61 33/51/61 23/60/61
f 33/120/62 10/121/62 23/60/62
f 26/106/63 25/122/63 19/108/63
f 26/106/64 34/48/64 25/58/64
f 34/123/65 12/124/65 25/58/65
f 28/110/66 27/125/66 4/112/66
f 28/110/67 36/45/67 27/56/67
f 36/126/68 14/127/68 27/56/68
f 30/114/69 29/128/69 6/116/69
f 30/114/70 40/42/70 29/54/70
f 40/129/71 16/130/71 29/54/71
f 32/118/72 31/131/72 21/100/72
f 32/118/73 39/39/73 31/62/73
f 39/132/74 8/133/74 31/62/74
f 42/134/75 40/42/75 14/135/75
f 42/134/76 41/31/76 40/136/76
f 41/137/77 16/130/77 40/136/77
f 39/132/78 38/138/78 8/139/78
f 39/132/79 41/31/79 38/15/79
f 41/137/80 17/140/80 38/15/80
f 37/141/81 36/45/81 12/142/81
f 37/141/82 42/28/82 36/143/82
f 42/134/83 14/127/83 36/143/83
f 35/144/84 34/48/84 10/145/84
f 35/144/85 37/16/85 34/146/85
f 37/141/86 12/124/86 34/146/86
f 38/147/87 33/51/87 8/139/87
f 38/147/88 35/14/88 33/148/88
f 35/144/89 10/121/89 33/148/89
