# Blender v2.79 (sub 0) OBJ File: 'tree-ash3.blend'
# www.blender.org
mtllib tree-ash3.mtl
o stalk_Cube.001
v -0.150072 -0.439343 0.150071
v -0.150072 -0.493396 -0.150072
v 0.150071 -0.455859 0.150071
v 0.150071 -0.506085 -0.150072
v -0.200096 -0.465180 -0.000000
v 0.200095 -0.484639 -0.000000
v -0.000000 -0.506946 -0.200096
v -0.000000 -0.437266 0.200095
v -0.000000 -0.696456 -0.000000
v -0.026956 12.685106 0.002025
v 0.003099 2.915735 -0.031948
v 3.097429 8.645866 1.917463
v -0.952725 7.530790 3.591991
v -3.868494 7.426188 -0.309461
v -1.269966 8.813272 -3.835247
v 3.026670 8.779903 -2.370402
v 1.068297 13.843316 2.366943
v -1.412141 13.760426 1.446263
v -2.036661 13.714754 -1.161265
v 0.746329 14.183455 -2.232800
v 2.089018 14.454766 0.405961
v 0.179453 17.728348 -0.058626
v -0.452614 4.813796 2.229037
v 2.081938 4.779258 1.403898
v 1.247552 6.561214 2.956116
v 3.869540 7.810983 -0.019402
v 2.898954 5.547678 -1.338874
v -2.899102 4.854487 -0.154359
v -2.723752 6.823228 1.994377
v -0.119959 4.458600 -2.669227
v -3.030406 7.018533 -2.420765
v 1.308516 6.430120 -3.480829
v 2.321891 12.195315 0.834123
v 2.482109 11.579593 -0.762206
v 0.375676 10.334072 2.641197
v 1.777457 10.784947 2.645797
v -2.689646 10.900300 0.940905
v -1.902477 10.340765 2.456557
v -1.872156 12.249238 -2.751050
v -2.632774 11.006385 -1.018432
v 1.849415 11.543966 -2.310411
v 0.031186 10.982630 -3.160644
v 1.926222 15.033319 1.525938
v -0.124300 14.842972 2.243161
v -1.971904 14.905660 0.092516
v -0.660270 14.704786 -2.555722
v 1.274338 16.026133 -0.917618
v 0.847371 16.258331 1.406243
v 1.426384 16.818708 0.196232
v -0.810659 16.243118 1.125234
v -1.218902 16.805937 -1.201667
v 0.245242 16.639603 -1.228970
vt 0.217058 0.655409
vt 0.217058 0.655409
vt 0.217058 0.655409
vt 0.217058 0.655409
vt 0.217058 0.655409
vt 0.217058 0.655409
vt 0.217058 0.655409
vt 0.217058 0.655409
vt 0.217058 0.655409
vt 0.217058 0.655409
vt 0.220576 0.843756
vt 0.220576 0.843756
vt 0.220576 0.843756
vt 0.220576 0.843756
vt 0.220576 0.843756
vt 0.220576 0.843756
vt 0.220576 0.843756
vt 0.220576 0.843756
vt 0.220576 0.843756
vt 0.220576 0.843756
vt 0.220576 0.843756
vt 0.220576 0.843756
vt 0.220576 0.843756
vt 0.220576 0.843756
vt 0.220576 0.843756
vt 0.220576 0.843756
vt 0.220576 0.843756
vt 0.220576 0.843756
vt 0.220576 0.843756
vt 0.220576 0.843756
vt 0.220576 0.843756
vt 0.220576 0.843756
vt 0.220576 0.843756
vt 0.220576 0.843756
vt 0.220576 0.843756
vt 0.220576 0.843756
vt 0.220576 0.843756
vt 0.220576 0.843756
vt 0.220576 0.843756
vt 0.220576 0.843756
vt 0.220576 0.843756
vt 0.220576 0.843756
vt 0.220576 0.843756
vt 0.220576 0.843756
vt 0.220576 0.843756
vt 0.220576 0.843756
vt 0.220576 0.843756
vt 0.220576 0.843756
vt 0.220576 0.843756
vt 0.220576 0.843756
vt 0.220576 0.843756
vt 0.220576 0.843756
vn 0.3161 0.0152 -0.9486
vn 0.9495 0.0163 0.3134
vn -0.3164 0.0137 0.9485
vn -0.9493 0.0124 0.3143
vn 0.4492 -0.6575 0.6049
vn 0.9479 0.0164 -0.3183
vn 0.5128 -0.7431 -0.4299
vn -0.3151 0.0139 -0.9490
vn -0.5611 -0.7185 -0.4111
vn -0.4999 -0.6353 0.5886
vn 0.3179 0.0150 0.9480
vn -0.9479 0.0125 -0.3183
vn 0.2027 -0.7295 0.6533
vn 0.8431 -0.2822 0.4577
vn -0.4963 -0.7116 0.4973
vn -0.4910 -0.7617 -0.4227
vn 0.4738 -0.7503 -0.4610
vn 0.9274 0.2788 0.2495
vn 0.3368 0.1554 0.9287
vn -0.8744 0.1282 0.4680
vn -0.6866 0.1066 -0.7192
vn 0.3576 0.1722 -0.9178
vn 0.8041 0.3272 0.4964
vn -0.0746 0.3518 0.9331
vn -0.9458 0.3245 -0.0099
vn -0.0056 0.3000 -0.9539
vn 0.8561 0.3724 -0.3584
vn 0.3295 0.3749 0.8665
vn -0.6529 0.2506 0.7148
vn -0.9502 0.2489 -0.1874
vn 0.3468 0.4146 -0.8413
vn 0.9271 0.2339 -0.2930
vn 0.5639 0.6202 -0.5453
vn 0.5463 0.6454 -0.5338
vn 0.4807 0.4140 -0.7730
vn 0.0706 0.7323 -0.6773
vn 0.0469 0.5499 -0.8339
vn -0.7635 0.1939 -0.6160
vn -0.6785 0.6779 0.2830
vn -0.8201 0.5064 0.2664
vn -0.7924 0.2631 0.5503
vn -0.1301 0.6696 0.7313
vn -0.1419 0.5742 0.8063
vn 0.2235 0.3779 0.8985
vn 0.4216 0.7290 0.5393
vn 0.5970 0.5799 0.5543
vn 0.9629 0.2699 0.0005
vn 0.9279 0.2421 -0.2837
vn 0.8988 0.2311 -0.3726
vn 0.6651 0.2981 -0.6847
vn 0.2908 0.2059 -0.9344
vn -0.1201 0.1375 -0.9832
vn -0.7770 0.4207 -0.4682
vn -0.9679 0.2054 -0.1451
vn -0.9848 0.1724 -0.0193
vn -0.7957 0.2586 0.5478
vn -0.6704 0.2970 0.6800
vn -0.0803 0.0788 0.9936
vn -0.0327 0.0843 0.9959
vn 0.5319 0.1984 0.8233
vn 0.9444 0.0525 0.3247
vn 0.9896 0.1177 0.0830
vn 0.3700 0.1814 -0.9111
vn 0.3742 0.1691 -0.9118
vn 0.2611 0.1404 -0.9551
vn -0.9419 0.1928 -0.2752
vn -0.9419 0.1911 -0.2764
vn -0.8890 0.2282 -0.3970
vn -0.8101 0.2699 0.5204
vn -0.8580 0.1352 0.4955
vn -0.6824 0.0636 0.7282
vn -0.0302 0.0838 0.9960
vn -0.0280 0.0767 0.9967
vn 0.4869 0.0031 0.8734
vn 0.9920 0.1129 0.0560
vn 0.9401 0.3389 -0.0364
vn 0.9303 0.3012 -0.2094
vn 0.7323 -0.2331 -0.6398
vn 0.4932 -0.6119 -0.6183
vn -0.1378 -0.2900 -0.9471
vn -0.3641 -0.3294 -0.8712
vn -0.5795 -0.6059 -0.5450
vn -0.8910 -0.3531 -0.2855
vn -0.8811 -0.3106 0.3565
vn -0.5732 -0.5803 0.5785
vn -0.4853 -0.4618 0.7425
vn 0.9062 -0.1606 -0.3911
vn 0.8799 -0.4557 0.1344
vn 0.6706 -0.7418 -0.0081
vn 0.0663 -0.4376 0.8967
vn 0.2478 -0.5678 0.7850
vn 0.6843 -0.2697 0.6775
usemtl None
s off
f 7/1/1 10/2/1 4/3/1
f 6/4/2 10/2/2 3/5/2
f 8/6/3 10/2/3 1/7/3
f 1/7/4 10/2/4 5/8/4
f 9/9/5 6/4/5 3/5/5 8/6/5
f 4/3/6 10/2/6 6/4/6
f 7/1/7 4/3/7 6/4/7 9/9/7
f 2/10/8 10/2/8 7/1/8
f 2/10/9 7/1/9 9/9/9 5/8/9
f 5/8/10 9/9/10 8/6/10 1/7/10
f 3/5/11 10/2/11 8/6/11
f 5/8/12 10/2/12 2/10/12
f 11/11/13 24/12/13 23/13/13
f 12/14/14 24/12/14 26/15/14
f 11/11/15 23/13/15 28/16/15
f 11/11/16 28/16/16 30/17/16
f 11/11/17 30/17/17 27/18/17
f 12/14/18 26/15/18 33/19/18
f 13/20/19 25/21/19 35/22/19
f 14/23/20 29/24/20 37/25/20
f 15/26/21 31/27/21 39/28/21
f 16/29/22 32/30/22 41/31/22
f 12/14/23 33/19/23 36/32/23
f 13/20/24 35/22/24 38/33/24
f 14/23/25 37/25/25 40/34/25
f 15/26/26 39/28/26 42/35/26
f 16/29/27 41/31/27 34/36/27
f 17/37/28 43/38/28 48/39/28
f 18/40/29 44/41/29 50/42/29
f 19/43/30 45/44/30 51/45/30
f 20/46/31 46/47/31 52/48/31
f 21/49/32 47/50/32 49/51/32
f 49/51/33 52/48/33 22/52/33
f 49/51/34 47/50/34 52/48/34
f 47/50/35 20/46/35 52/48/35
f 52/48/36 51/45/36 22/52/36
f 52/48/37 46/47/37 51/45/37
f 46/47/38 19/43/38 51/45/38
f 51/45/39 50/42/39 22/52/39
f 51/45/40 45/44/40 50/42/40
f 45/44/41 18/40/41 50/42/41
f 50/42/42 48/39/42 22/52/42
f 50/42/43 44/41/43 48/39/43
f 44/41/44 17/37/44 48/39/44
f 48/39/45 49/51/45 22/52/45
f 48/39/46 43/38/46 49/51/46
f 43/38/47 21/49/47 49/51/47
f 34/36/48 47/50/48 21/49/48
f 34/36/49 41/31/49 47/50/49
f 41/31/50 20/46/50 47/50/50
f 42/35/51 46/47/51 20/46/51
f 42/35/52 39/28/52 46/47/52
f 39/28/53 19/43/53 46/47/53
f 40/34/54 45/44/54 19/43/54
f 40/34/55 37/25/55 45/44/55
f 37/25/56 18/40/56 45/44/56
f 38/33/57 44/41/57 18/40/57
f 38/33/58 35/22/58 44/41/58
f 35/22/59 17/37/59 44/41/59
f 36/32/60 43/38/60 17/37/60
f 36/32/61 33/19/61 43/38/61
f 33/19/62 21/49/62 43/38/62
f 41/31/63 42/35/63 20/46/63
f 41/31/64 32/30/64 42/35/64
f 32/30/65 15/26/65 42/35/65
f 39/28/66 40/34/66 19/43/66
f 39/28/67 31/27/67 40/34/67
f 31/27/68 14/23/68 40/34/68
f 37/25/69 38/33/69 18/40/69
f 37/25/70 29/24/70 38/33/70
f 29/24/71 13/20/71 38/33/71
f 35/22/72 36/32/72 17/37/72
f 35/22/73 25/21/73 36/32/73
f 25/21/74 12/14/74 36/32/74
f 33/19/75 34/36/75 21/49/75
f 33/19/76 26/15/76 34/36/76
f 26/15/77 16/29/77 34/36/77
f 27/18/78 32/30/78 16/29/78
f 27/18/79 30/17/79 32/30/79
f 30/17/80 15/26/80 32/30/80
f 30/17/81 31/27/81 15/26/81
f 30/17/82 28/16/82 31/27/82
f 28/16/83 14/23/83 31/27/83
f 28/16/84 29/24/84 14/23/84
f 28/16/85 23/13/85 29/24/85
f 23/13/86 13/20/86 29/24/86
f 26/15/87 27/18/87 16/29/87
f 26/15/88 24/12/88 27/18/88
f 24/12/89 11/11/89 27/18/89
f 23/13/90 25/21/90 13/20/90
f 23/13/91 24/12/91 25/21/91
f 24/12/92 12/14/92 25/21/92
