# Blender v2.79 (sub 0) OBJ File: 'tree-pine2.blend'
# www.blender.org
mtllib tree-pine2.mtl
o stalk_Cube.001
v -0.103121 -0.400959 0.103121
v -0.103121 -0.438100 -0.103121
v 0.103121 -0.412307 0.103121
v 0.103121 -0.446820 -0.103121
v -0.137494 -0.418712 0.000000
v 0.137494 -0.432082 0.000000
v 0.000000 -0.447411 -0.137494
v 0.000000 -0.399531 0.137494
v 0.000000 -0.577632 0.000000
v 0.000000 11.423063 0.000000
v 0.002433 7.162519 -0.520036
v 0.496818 7.163502 -0.143413
v 0.314060 7.157177 0.428866
v -0.000000 11.815813 0.000000
v -0.313666 7.159203 0.407577
v -0.503105 7.153785 -0.168104
v -0.009993 5.352516 -0.618179
v 0.585231 5.329859 -0.194784
v 0.364693 5.341994 0.502899
v -0.000000 11.794374 0.000000
v -0.363349 5.352235 0.507616
v -0.593015 5.340329 -0.195531
v 0.004498 3.322274 -0.702541
v 0.686361 3.322510 -0.222077
v 0.423115 3.324289 0.582493
v -0.000000 11.651823 0.000000
v -0.421177 3.324824 0.584902
v -0.688008 3.320576 -0.229582
v 0.001257 1.300744 -0.771309
v 0.743413 1.304902 -0.229642
v 0.466033 1.315289 0.634999
v -0.000000 11.609531 0.000000
v -0.467495 1.316605 0.628009
v -0.750634 1.314701 -0.232371
vt 0.031512 0.659315
vt 0.031512 0.659315
vt 0.031512 0.659315
vt 0.031512 0.659315
vt 0.031512 0.659315
vt 0.031512 0.659315
vt 0.031512 0.659315
vt 0.031512 0.659315
vt 0.031512 0.659315
vt 0.031512 0.659315
vt 0.720435 0.840588
vt 0.720435 0.840588
vt 0.720435 0.840588
vt 0.720435 0.840588
vt 0.720435 0.840588
vt 0.720435 0.840588
vt 0.653777 0.843688
vt 0.653777 0.843688
vt 0.653777 0.843688
vt 0.653777 0.843688
vt 0.653777 0.843688
vt 0.653777 0.843688
vt 0.594870 0.843688
vt 0.594870 0.843688
vt 0.594870 0.843688
vt 0.594870 0.843688
vt 0.594870 0.843688
vt 0.594870 0.843688
vt 0.539062 0.835938
vt 0.539062 0.835938
vt 0.539062 0.835938
vt 0.539062 0.835938
vt 0.539062 0.835938
vt 0.539062 0.835938
vn 0.3162 0.0110 -0.9486
vn 0.9493 0.0110 0.3143
vn -0.3163 0.0110 0.9486
vn -0.9492 0.0110 0.3145
vn 0.4492 -0.6575 0.6049
vn 0.9482 0.0110 -0.3176
vn 0.5128 -0.7431 -0.4299
vn -0.3153 0.0110 -0.9489
vn -0.5611 -0.7185 -0.4111
vn -0.4999 -0.6353 0.5886
vn 0.3174 0.0110 0.9482
vn -0.9480 0.0110 -0.3181
vn 0.6035 0.0889 -0.7924
vn 0.9483 0.0919 0.3038
vn -0.0335 0.0894 0.9954
vn -0.9462 0.0909 0.3105
vn -0.5700 0.0910 -0.8166
vn 0.0062 -1.0000 -0.0035
vn 0.5799 0.0769 -0.8111
vn 0.9510 0.0771 0.2993
vn 0.0076 0.0781 0.9969
vn -0.9481 0.0778 0.3084
vn -0.5862 0.0783 -0.8064
vn -0.0103 -0.9999 0.0014
vn 0.5746 0.0691 -0.8155
vn 0.9481 0.0699 0.3101
vn 0.0029 0.0699 0.9975
vn -0.9481 0.0697 0.3102
vn -0.5627 0.0692 -0.8237
vn 0.0008 -1.0000 0.0023
vn 0.5882 0.0604 -0.8064
vn 0.9506 0.0618 0.3042
vn -0.0074 0.0612 0.9981
vn -0.9481 0.0621 0.3119
vn -0.5808 0.0607 -0.8118
vn -0.0052 -0.9999 0.0098
usemtl None
s off
f 7/1/1 10/2/1 4/3/1
f 6/4/2 10/2/2 3/5/2
f 8/6/3 10/2/3 1/7/3
f 1/7/4 10/2/4 5/8/4
f 9/9/5 6/4/5 3/5/5 8/6/5
f 4/3/6 10/2/6 6/4/6
f 7/1/7 4/3/7 6/4/7 9/9/7
f 2/10/8 10/2/8 7/1/8
f 2/10/9 7/1/9 9/9/9 5/8/9
f 5/8/10 9/9/10 8/6/10 1/7/10
f 3/5/11 10/2/11 8/6/11
f 5/8/12 10/2/12 2/10/12
f 11/11/13 14/12/13 12/13/13
f 12/13/14 14/12/14 13/14/14
f 13/14/15 14/12/15 15/15/15
f 15/15/16 14/12/16 16/16/16
f 16/16/17 14/12/17 11/11/17
f 11/11/18 12/13/18 13/14/18 15/15/18 16/16/18
f 17/17/19 20/18/19 18/19/19
f 18/19/20 20/18/20 19/20/20
f 19/20/21 20/18/21 21/21/21
f 21/21/22 20/18/22 22/22/22
f 22/22/23 20/18/23 17/17/23
f 17/17/24 18/19/24 19/20/24 21/21/24 22/22/24
f 23/23/25 26/24/25 24/25/25
f 24/25/26 26/24/26 25/26/26
f 25/26/27 26/24/27 27/27/27
f 27/27/28 26/24/28 28/28/28
f 28/28/29 26/24/29 23/23/29
f 23/23/30 24/25/30 25/26/30 27/27/30 28/28/30
f 29/29/31 32/30/31 30/31/31
f 30/31/32 32/30/32 31/32/32
f 31/32/33 32/30/33 33/33/33
f 33/33/34 32/30/34 34/34/34
f 34/34/35 32/30/35 29/29/35
f 29/29/36 30/31/36 31/32/36 33/33/36 34/34/36
