# Blender v2.79 (sub 0) OBJ File: 'tree-aspen0.blend'
# www.blender.org
mtllib tree-aspen0.mtl
o Cube_Cube.001
v -0.093750 -0.551468 0.093750
v -0.000506 18.868086 0.011427
v -0.093750 -0.551468 -0.093750
v -0.583608 15.111670 0.397441
v 0.093750 -0.551468 0.093750
v 0.263412 15.160869 0.861653
v 0.093750 -0.551468 -0.093750
v 0.958123 7.689097 -0.287957
v -0.125000 -0.551468 0.000000
v -0.389058 7.790374 -0.951551
v 0.125000 -0.551468 0.000000
v -1.073225 7.519522 -0.035051
v 0.000000 -0.551468 -0.125000
v -0.526213 8.406815 0.835363
v 0.000000 -0.551468 0.125000
v 0.533754 7.274025 0.471633
v -0.042334 3.458477 -0.034715
v 0.000000 -0.551468 0.000000
v -0.558218 15.548325 -0.533199
v 0.271645 14.953020 -0.923403
v 0.892350 14.907829 0.022117
v 0.032644 19.894865 0.012772
v -0.006819 11.430846 -1.006230
v 0.643030 11.457611 -0.755041
v -1.006383 11.245204 -0.294642
v -0.522128 11.245417 -0.742758
v -0.566206 11.051703 0.876016
v -0.773259 11.571079 0.392738
v 0.373421 11.636878 0.717992
v -0.202113 11.541673 0.821476
v 0.872436 11.571103 -0.479657
v 0.632151 10.765191 0.197994
v 0.219507 7.536433 -0.862662
v -0.572802 6.925097 -0.466541
v -0.109155 4.792898 -0.348566
v -0.713232 7.365284 0.535042
v -0.512788 4.701430 0.002785
v 0.339790 5.122740 -0.386040
v 0.803548 7.504066 0.025692
v 0.450384 7.133797 0.906931
v 0.423288 4.658732 0.320938
v -0.345675 4.555700 0.727643
v 0.625045 15.010740 0.437788
v -0.150038 15.969585 0.395970
v -0.894678 15.396200 -0.155756
v -0.207552 15.821909 -0.775710
v 0.716313 15.549852 -0.450498
v -0.133779 18.528900 0.550416
v 0.744005 17.704411 0.272095
v -0.630987 17.904696 0.201816
v -0.218474 18.807604 -0.459054
v 0.246068 17.904507 -0.719530
vt 0.461797 0.959844
vt 0.471797 0.959844
vt 0.471797 0.969844
vt 0.461797 0.959844
vt 0.471797 0.969844
vt 0.461797 0.959844
vt 0.471797 0.969844
vt 0.461797 0.959844
vt 0.471797 0.969844
vt 0.461797 0.959844
vt 0.471797 0.959844
vt 0.461797 0.969844
vt 0.276250 0.844609
vt 0.286250 0.844609
vt 0.286250 0.854609
vt 0.286250 0.844609
vt 0.286250 0.854609
vt 0.471797 0.959844
vt 0.471797 0.969844
vt 0.461797 0.969844
vt 0.461797 0.959844
vt 0.461797 0.959844
vt 0.471797 0.969844
vt 0.461797 0.959844
vt 0.471797 0.959844
vt 0.471797 0.969844
vt 0.461797 0.969844
vt 0.286250 0.844609
vt 0.286250 0.854609
vt 0.276250 0.844609
vt 0.286250 0.844609
vt 0.286250 0.854609
vt 0.471797 0.959844
vt 0.471797 0.969844
vt 0.461797 0.969844
vt 0.461797 0.959844
vt 0.471797 0.969844
vt 0.286250 0.854609
vt 0.286250 0.844609
vt 0.286250 0.854609
vt 0.276250 0.844609
vt 0.286250 0.844609
vt 0.286250 0.854609
vt 0.276250 0.844609
vt 0.286250 0.844609
vt 0.286250 0.854609
vt 0.276250 0.844609
vt 0.286250 0.844609
vt 0.286250 0.854609
vt 0.276250 0.844609
vt 0.286250 0.844609
vt 0.286250 0.854609
vt 0.286250 0.844609
vt 0.286250 0.854609
vt 0.286250 0.844609
vt 0.286250 0.854609
vt 0.286250 0.844609
vt 0.286250 0.854609
vt 0.286250 0.844609
vt 0.286250 0.854609
vt 0.286250 0.844609
vt 0.286250 0.854609
vt 0.276250 0.844609
vt 0.286250 0.844609
vt 0.286250 0.854609
vt 0.276250 0.844609
vt 0.286250 0.844609
vt 0.286250 0.854609
vt 0.276250 0.844609
vt 0.286250 0.844609
vt 0.286250 0.854609
vt 0.276250 0.844609
vt 0.286250 0.844609
vt 0.286250 0.854609
vt 0.276250 0.844609
vt 0.286250 0.844609
vt 0.286250 0.854609
vt 0.276250 0.844609
vt 0.286250 0.844609
vt 0.286250 0.854609
vt 0.276250 0.844609
vt 0.286250 0.844609
vt 0.276250 0.844609
vt 0.286250 0.844609
vt 0.276250 0.844609
vt 0.286250 0.844609
vt 0.276250 0.844609
vt 0.286250 0.844609
vt 0.276250 0.844609
vt 0.286250 0.844609
vt 0.276250 0.844609
vt 0.286250 0.844609
vt 0.276250 0.844609
vt 0.286250 0.844609
vt 0.276250 0.844609
vt 0.286250 0.844609
vt 0.276250 0.844609
vt 0.286250 0.844609
vt 0.276250 0.844609
vt 0.286250 0.854609
vt 0.286250 0.854609
vt 0.276250 0.844609
vt 0.276250 0.844609
vt 0.286250 0.854609
vt 0.286250 0.854609
vt 0.276250 0.844609
vt 0.276250 0.844609
vt 0.286250 0.854609
vt 0.286250 0.854609
vt 0.276250 0.844609
vt 0.276250 0.844609
vt 0.286250 0.854609
vt 0.286250 0.854609
vt 0.276250 0.844609
vt 0.276250 0.844609
vt 0.286250 0.854609
vt 0.286250 0.854609
vt 0.276250 0.844609
vt 0.286250 0.844609
vt 0.276250 0.844609
vt 0.286250 0.844609
vt 0.286250 0.844609
vt 0.276250 0.844609
vt 0.286250 0.844609
vt 0.286250 0.844609
vt 0.276250 0.844609
vt 0.286250 0.844609
vt 0.286250 0.844609
vt 0.276250 0.844609
vt 0.286250 0.844609
vt 0.286250 0.844609
vt 0.276250 0.844609
vt 0.286250 0.844609
vt 0.276250 0.844609
vt 0.286250 0.854609
vt 0.286250 0.854609
vt 0.276250 0.844609
vt 0.286250 0.844609
vt 0.286250 0.854609
vt 0.286250 0.844609
vt 0.276250 0.844609
vt 0.286250 0.854609
vt 0.286250 0.854609
vt 0.276250 0.844609
vt 0.286250 0.854609
vt 0.286250 0.854609
vt 0.276250 0.844609
vt 0.286250 0.854609
vn -0.9487 0.0063 -0.3162
vn 0.3162 0.0067 -0.9487
vn 0.9487 0.0059 0.3162
vn -0.3162 0.0055 0.9487
vn 0.0000 -1.0000 0.0000
vn 0.0837 -0.2242 -0.9710
vn -0.6145 -0.2096 -0.7605
vn 0.9487 0.0063 -0.3162
vn -0.9487 0.0059 0.3162
vn -0.9244 -0.3541 0.1419
vn 0.8683 -0.0650 0.4918
vn 0.3162 0.0056 0.9487
vn -0.3162 0.0067 -0.9487
vn 0.4684 -0.4131 0.7810
vn 0.8516 0.0171 0.5240
vn -0.0594 0.0106 0.9982
vn -0.8448 0.0060 0.5351
vn -0.9271 -0.0131 -0.3746
vn 0.6193 -0.0454 -0.7839
vn 0.9009 0.0086 0.4338
vn 0.1648 -0.0127 0.9862
vn -0.9517 0.0383 0.3046
vn -0.4651 0.0355 -0.8846
vn 0.7712 -0.0144 -0.6365
vn 0.7776 0.1482 0.6110
vn -0.1294 0.0671 0.9893
vn -0.7617 0.0940 -0.6411
vn -0.1824 0.0662 -0.9810
vn 0.9633 0.0742 -0.2581
vn 0.8860 0.2408 -0.3963
vn 0.8963 0.1306 -0.4237
vn 0.6913 0.0558 -0.7204
vn 0.1790 0.3566 -0.9170
vn -0.3347 0.0982 -0.9372
vn -0.6091 0.0814 -0.7889
vn -0.9379 0.2955 -0.1817
vn -0.9174 0.1490 -0.3690
vn -0.8670 0.0202 0.4979
vn -0.7755 0.3108 0.5496
vn -0.5327 -0.0476 0.8450
vn -0.7753 -0.0331 0.6308
vn 0.5063 0.2617 0.8217
vn 0.3383 0.0429 0.9400
vn 0.8407 -0.0038 0.5415
vn 0.9528 0.0396 -0.3011
vn 0.7608 0.0346 -0.6480
vn 0.7020 0.0403 -0.7110
vn -0.2261 0.0408 -0.9733
vn -0.4623 0.0254 -0.8863
vn -0.5865 0.0345 -0.8092
vn -0.7542 0.0422 -0.6553
vn -0.9491 0.0150 0.3148
vn -0.8606 0.0454 0.5073
vn -0.2208 0.1132 0.9687
vn 0.0207 0.0954 0.9952
vn -0.6739 0.0785 0.7347
vn 0.7603 -0.0027 0.6496
vn 0.8772 -0.0256 0.4794
vn 0.8374 -0.0294 0.5458
vn 0.3608 -0.0066 -0.9326
vn 0.3610 -0.0134 -0.9325
vn 0.1327 -0.0288 -0.9907
vn -0.6789 0.0300 -0.7336
vn -0.6787 -0.0389 -0.7334
vn -0.6786 -0.0389 -0.7334
vn -0.8986 0.0476 0.4361
vn -0.9191 0.0002 0.3940
vn -0.8140 -0.0212 0.5805
vn 0.1824 -0.0344 0.9826
vn 0.1697 0.0442 0.9845
vn 0.9803 0.0250 0.1958
vn 0.9581 -0.0482 0.2824
vn 0.9305 0.0296 0.3651
vn 0.8860 0.0424 0.4617
vn -0.1160 -0.0332 0.9927
vn 0.4789 -0.2072 0.8530
vn 0.9838 -0.0515 0.1718
vn 0.9197 -0.2337 0.3154
vn 0.9653 -0.1511 -0.2132
vn 0.9188 -0.2715 -0.2867
vn -0.8535 -0.1631 0.4948
vn -0.9729 -0.1135 0.2015
vn -0.7535 -0.0537 0.6553
vn -0.7466 -0.1975 -0.6352
vn -0.6229 -0.1776 -0.7619
vn -0.7452 -0.1569 -0.6481
vn 0.6250 -0.1211 -0.7711
vn 0.0582 -0.1906 -0.9799
vn 0.0633 -0.1911 -0.9795
usemtl None
s off
f 9/1/1 2/2/1 3/3/1
f 13/4/2 2/2/2 7/5/2
f 11/6/3 2/2/3 5/7/3
f 15/8/4 2/2/4 1/9/4
f 18/10/5 11/11/5 5/7/5 15/12/5
f 17/13/6 35/14/6 38/15/6
f 17/13/7 37/16/7 35/17/7
f 13/4/5 7/18/5 11/19/5 18/20/5
f 7/21/8 2/2/8 11/19/8
f 1/22/9 2/2/9 9/23/9
f 3/24/5 13/25/5 18/26/5 9/27/5
f 17/13/10 42/28/10 37/29/10
f 16/30/11 41/31/11 39/32/11
f 9/1/5 18/33/5 15/34/5 1/35/5
f 5/36/12 2/2/12 15/34/12
f 3/24/13 2/2/13 13/37/13
f 17/13/14 41/31/14 42/38/14
f 16/30/15 39/39/15 32/40/15
f 14/41/16 40/42/16 30/43/16
f 12/44/17 36/45/17 28/46/17
f 10/47/18 34/48/18 26/49/18
f 8/50/19 33/51/19 24/52/19
f 16/30/20 32/53/20 29/54/20
f 14/41/21 30/55/21 27/56/21
f 12/44/22 28/57/22 25/58/22
f 10/47/23 26/59/23 23/60/23
f 8/50/24 24/61/24 31/62/24
f 6/63/25 43/64/25 48/65/25
f 4/66/26 44/67/26 50/68/26
f 19/69/27 45/70/27 51/71/27
f 20/72/28 46/73/28 52/74/28
f 21/75/29 47/76/29 49/77/29
f 49/78/30 52/79/30 22/80/30
f 49/78/31 47/76/31 52/74/31
f 47/81/32 20/82/32 52/74/32
f 52/83/33 51/84/33 22/80/33
f 52/83/34 46/73/34 51/71/34
f 46/85/35 19/86/35 51/71/35
f 51/87/36 50/88/36 22/80/36
f 51/87/37 45/70/37 50/68/37
f 45/89/38 4/90/38 50/68/38
f 50/91/39 48/92/39 22/80/39
f 50/91/40 44/67/40 48/65/40
f 44/93/41 6/94/41 48/65/41
f 48/95/42 49/96/42 22/80/42
f 48/95/43 43/64/43 49/77/43
f 43/97/44 21/98/44 49/77/44
f 31/99/45 47/76/45 21/100/45
f 31/99/46 24/61/46 47/101/46
f 24/102/47 20/82/47 47/101/47
f 23/103/48 46/73/48 20/104/48
f 23/103/49 26/59/49 46/105/49
f 26/106/50 19/86/50 46/105/50
f 25/107/51 45/70/51 19/108/51
f 25/107/52 28/57/52 45/109/52
f 28/110/53 4/90/53 45/109/53
f 27/111/54 44/67/54 4/112/54
f 27/111/55 30/55/55 44/113/55
f 30/114/56 6/94/56 44/113/56
f 29/115/57 43/64/57 6/116/57
f 29/115/58 32/53/58 43/117/58
f 32/118/59 21/98/59 43/117/59
f 24/102/60 23/119/60 20/104/60
f 24/102/61 33/51/61 23/60/61
f 33/120/62 10/121/62 23/60/62
f 26/106/63 25/122/63 19/108/63
f 26/106/64 34/48/64 25/58/64
f 34/123/65 12/124/65 25/58/65
f 28/110/66 27/125/66 4/112/66
f 28/110/67 36/45/67 27/56/67
f 36/126/68 14/127/68 27/56/68
f 30/114/69 29/128/69 6/116/69
f 30/114/70 40/42/70 29/54/70
f 40/129/71 16/130/71 29/54/71
f 32/118/72 31/131/72 21/100/72
f 32/118/73 39/39/73 31/62/73
f 39/132/74 8/133/74 31/62/74
f 42/134/75 40/42/75 14/135/75
f 42/134/76 41/31/76 40/136/76
f 41/137/77 16/130/77 40/136/77
f 39/132/78 38/138/78 8/139/78
f 39/132/79 41/31/79 38/15/79
f 41/137/80 17/140/80 38/15/80
f 37/141/81 36/45/81 12/142/81
f 37/141/82 42/28/82 36/143/82
f 42/134/83 14/127/83 36/143/83
f 35/144/84 34/48/84 10/145/84
f 35/144/85 37/16/85 34/146/85
f 37/141/86 12/124/86 34/146/86
f 38/147/87 33/51/87 8/139/87
f 38/147/88 35/14/88 33/148/88
f 35/144/89 10/121/89 33/148/89
