# Blender v2.79 (sub 0) OBJ File: 'tree-ash1.blend'
# www.blender.org
mtllib tree-ash1.mtl
o stalk_Cube.001
v -0.150072 -0.439343 0.150071
v -0.150072 -0.493396 -0.150072
v 0.150071 -0.455859 0.150071
v 0.150071 -0.506085 -0.150072
v -0.200096 -0.465180 -0.000000
v 0.200095 -0.484639 -0.000000
v -0.000000 -0.506946 -0.200096
v -0.000000 -0.437266 0.200095
v -0.000000 -0.696456 -0.000000
v -0.026956 12.685106 0.002025
v 0.003099 2.915735 -0.031948
v 3.097429 8.645866 2.240115
v -0.792723 7.933719 3.545641
v -3.917514 8.208648 -0.309461
v -1.269966 8.813272 -3.835247
v 3.150913 9.052426 -2.098243
v 1.068297 13.690825 2.460835
v -1.412141 13.671266 1.038315
v -1.850999 13.840611 -1.332639
v 0.560667 14.309496 -2.231164
v 2.089018 14.435310 0.048077
v 0.179453 17.733046 -0.190931
v -0.467870 4.043450 1.668586
v 1.442628 4.017416 1.046611
v 1.247552 6.561214 3.391539
v 3.688693 7.604043 -0.019402
v 1.471520 3.798869 -1.020839
v -1.787212 4.074122 -0.127974
v -2.723752 6.823228 1.994377
v -0.576860 3.775710 -1.802372
v -3.030406 7.018533 -2.420765
v 1.148513 6.988812 -3.414299
v 3.119617 11.049625 0.834123
v 2.482109 11.579593 -0.762206
v 0.375676 10.334072 2.641197
v 1.777457 10.784947 2.148001
v -2.689646 10.900300 0.940905
v -2.536642 10.340765 2.650111
v -1.700015 11.003581 -2.298156
v -2.632774 11.006385 -1.018432
v 1.849415 11.543966 -2.310411
v 0.031186 10.982630 -3.160644
v 1.926222 14.935699 1.205092
v -0.124300 14.696616 1.907573
v -1.971904 14.906637 -0.233710
v -0.660270 14.887840 -2.134046
v 1.274338 16.093742 -1.164630
v 0.847371 16.166035 1.169684
v 1.426384 16.808071 0.000949
v -0.810659 16.170128 0.888293
v -0.929811 16.164978 -0.960900
v 0.245242 16.727119 -1.433180
vt 0.217058 0.655409
vt 0.217058 0.655409
vt 0.217058 0.655409
vt 0.217058 0.655409
vt 0.217058 0.655409
vt 0.217058 0.655409
vt 0.217058 0.655409
vt 0.217058 0.655409
vt 0.217058 0.655409
vt 0.217058 0.655409
vt 0.220576 0.843756
vt 0.220576 0.843756
vt 0.220576 0.843756
vt 0.220576 0.843756
vt 0.220576 0.843756
vt 0.220576 0.843756
vt 0.220576 0.843756
vt 0.220576 0.843756
vt 0.220576 0.843756
vt 0.220576 0.843756
vt 0.220576 0.843756
vt 0.220576 0.843756
vt 0.220576 0.843756
vt 0.220576 0.843756
vt 0.220576 0.843756
vt 0.220576 0.843756
vt 0.220576 0.843756
vt 0.220576 0.843756
vt 0.220576 0.843756
vt 0.220576 0.843756
vt 0.220576 0.843756
vt 0.220576 0.843756
vt 0.220576 0.843756
vt 0.220576 0.843756
vt 0.220576 0.843756
vt 0.220576 0.843756
vt 0.220576 0.843756
vt 0.220576 0.843756
vt 0.220576 0.843756
vt 0.220576 0.843756
vt 0.220576 0.843756
vt 0.220576 0.843756
vt 0.220576 0.843756
vt 0.220576 0.843756
vt 0.220576 0.843756
vt 0.220576 0.843756
vt 0.220576 0.843756
vt 0.220576 0.843756
vt 0.220576 0.843756
vt 0.220576 0.843756
vt 0.220576 0.843756
vt 0.220576 0.843756
vn 0.3161 0.0152 -0.9486
vn 0.9495 0.0163 0.3134
vn -0.3164 0.0137 0.9485
vn -0.9493 0.0124 0.3143
vn 0.4492 -0.6575 0.6049
vn 0.9479 0.0164 -0.3183
vn 0.5128 -0.7431 -0.4299
vn -0.3151 0.0139 -0.9490
vn -0.5611 -0.7185 -0.4111
vn -0.4999 -0.6353 0.5886
vn 0.3179 0.0150 0.9480
vn -0.9479 0.0125 -0.3183
vn 0.1772 -0.7969 0.5775
vn 0.8256 -0.3982 0.3997
vn -0.5190 -0.7716 0.3679
vn -0.5201 -0.8228 -0.2293
vn 0.1925 -0.8564 -0.4791
vn 0.9728 0.1102 0.2037
vn 0.2335 0.2413 0.9420
vn -0.8415 0.1417 0.5213
vn -0.7554 0.2705 -0.5968
vn 0.4310 0.1493 -0.8899
vn 0.5997 0.3999 0.6932
vn 0.0037 0.3510 0.9364
vn -0.9091 0.4165 -0.0038
vn -0.3872 0.4775 -0.7887
vn 0.8412 0.4094 -0.3532
vn 0.4764 0.4397 0.7614
vn -0.6529 0.2010 0.7303
vn -0.7949 0.3894 -0.4652
vn 0.0773 0.3216 -0.9437
vn 0.9271 0.2534 -0.2762
vn 0.5639 0.6562 -0.5015
vn 0.5463 0.6805 -0.4883
vn 0.4248 0.3333 -0.8417
vn -0.5299 0.6451 -0.5505
vn -0.5203 0.5156 -0.6808
vn -0.7225 0.3788 -0.5784
vn -0.8271 0.5597 0.0517
vn -0.7559 0.6531 0.0469
vn -0.7924 0.2248 0.5670
vn -0.1301 0.6179 0.7754
vn -0.1419 0.5176 0.8438
vn -0.0230 0.4608 0.8872
vn 0.4216 0.6903 0.5880
vn 0.5970 0.5406 0.5927
vn 0.9629 0.2693 0.0190
vn 0.9216 0.2180 -0.3211
vn 0.9037 0.2084 -0.3741
vn 0.5289 0.2695 -0.8048
vn 0.0473 0.2618 -0.9640
vn -0.4390 0.1549 -0.8850
vn -0.6656 0.2085 -0.7166
vn -0.9234 0.2198 -0.3148
vn -0.9851 0.1708 -0.0193
vn -0.7212 0.3107 0.6191
vn -0.7205 0.4837 0.4969
vn 0.0034 0.1662 0.9861
vn -0.3335 0.1191 0.9352
vn 0.7619 0.1174 0.6369
vn 0.6785 0.1395 0.7212
vn 0.9561 0.2929 0.0079
vn 0.3650 0.1962 -0.9101
vn 0.3761 0.1632 -0.9121
vn 0.2683 0.1356 -0.9537
vn -0.7981 0.1556 -0.5821
vn -0.7763 0.2766 -0.5664
vn -0.8309 0.2565 -0.4937
vn -0.8904 0.4030 0.2116
vn -0.9944 0.0342 0.1002
vn -0.5791 -0.1195 0.8064
vn 0.3373 -0.0190 0.9412
vn 0.2510 0.2443 0.9367
vn 0.3119 0.2321 0.9213
vn 0.9297 0.2132 -0.3005
vn 0.9281 0.2265 -0.2955
vn 0.9583 0.2811 -0.0520
vn 0.7403 -0.3539 -0.5715
vn 0.3026 -0.5522 -0.7768
vn -0.1328 -0.3866 -0.9127
vn -0.2991 -0.3922 -0.8699
vn -0.6948 -0.6010 -0.3951
vn -0.8814 -0.4590 -0.1116
vn -0.8765 -0.4434 0.1875
vn -0.6566 -0.5882 0.4721
vn -0.4061 -0.4244 0.8093
vn 0.8153 -0.3545 -0.4579
vn 0.8544 -0.5153 0.0664
vn 0.5592 -0.8236 0.0949
vn -0.2293 -0.4384 0.8690
vn 0.2271 -0.6506 0.7247
vn 0.7659 -0.4030 0.5009
usemtl None
s off
f 7/1/1 10/2/1 4/3/1
f 6/4/2 10/2/2 3/5/2
f 8/6/3 10/2/3 1/7/3
f 1/7/4 10/2/4 5/8/4
f 9/9/5 6/4/5 3/5/5 8/6/5
f 4/3/6 10/2/6 6/4/6
f 7/1/7 4/3/7 6/4/7 9/9/7
f 2/10/8 10/2/8 7/1/8
f 2/10/9 7/1/9 9/9/9 5/8/9
f 5/8/10 9/9/10 8/6/10 1/7/10
f 3/5/11 10/2/11 8/6/11
f 5/8/12 10/2/12 2/10/12
f 11/11/13 24/12/13 23/13/13
f 12/14/14 24/12/14 26/15/14
f 11/11/15 23/13/15 28/16/15
f 11/11/16 28/16/16 30/17/16
f 11/11/17 30/17/17 27/18/17
f 12/14/18 26/15/18 33/19/18
f 13/20/19 25/21/19 35/22/19
f 14/23/20 29/24/20 37/25/20
f 15/26/21 31/27/21 39/28/21
f 16/29/22 32/30/22 41/31/22
f 12/14/23 33/19/23 36/32/23
f 13/20/24 35/22/24 38/33/24
f 14/23/25 37/25/25 40/34/25
f 15/26/26 39/28/26 42/35/26
f 16/29/27 41/31/27 34/36/27
f 17/37/28 43/38/28 48/39/28
f 18/40/29 44/41/29 50/42/29
f 19/43/30 45/44/30 51/45/30
f 20/46/31 46/47/31 52/48/31
f 21/49/32 47/50/32 49/51/32
f 49/51/33 52/48/33 22/52/33
f 49/51/34 47/50/34 52/48/34
f 47/50/35 20/46/35 52/48/35
f 52/48/36 51/45/36 22/52/36
f 52/48/37 46/47/37 51/45/37
f 46/47/38 19/43/38 51/45/38
f 51/45/39 50/42/39 22/52/39
f 51/45/40 45/44/40 50/42/40
f 45/44/41 18/40/41 50/42/41
f 50/42/42 48/39/42 22/52/42
f 50/42/43 44/41/43 48/39/43
f 44/41/44 17/37/44 48/39/44
f 48/39/45 49/51/45 22/52/45
f 48/39/46 43/38/46 49/51/46
f 43/38/47 21/49/47 49/51/47
f 34/36/48 47/50/48 21/49/48
f 34/36/49 41/31/49 47/50/49
f 41/31/50 20/46/50 47/50/50
f 42/35/51 46/47/51 20/46/51
f 42/35/52 39/28/52 46/47/52
f 39/28/53 19/43/53 46/47/53
f 40/34/54 45/44/54 19/43/54
f 40/34/55 37/25/55 45/44/55
f 37/25/56 18/40/56 45/44/56
f 38/33/57 44/41/57 18/40/57
f 38/33/58 35/22/58 44/41/58
f 35/22/59 17/37/59 44/41/59
f 36/32/60 43/38/60 17/37/60
f 36/32/61 33/19/61 43/38/61
f 33/19/62 21/49/62 43/38/62
f 41/31/63 42/35/63 20/46/63
f 41/31/64 32/30/64 42/35/64
f 32/30/65 15/26/65 42/35/65
f 39/28/66 40/34/66 19/43/66
f 39/28/67 31/27/67 40/34/67
f 31/27/68 14/23/68 40/34/68
f 37/25/69 38/33/69 18/40/69
f 37/25/70 29/24/70 38/33/70
f 29/24/71 13/20/71 38/33/71
f 35/22/72 36/32/72 17/37/72
f 35/22/73 25/21/73 36/32/73
f 25/21/74 12/14/74 36/32/74
f 33/19/75 34/36/75 21/49/75
f 33/19/76 26/15/76 34/36/76
f 26/15/77 16/29/77 34/36/77
f 27/18/78 32/30/78 16/29/78
f 27/18/79 30/17/79 32/30/79
f 30/17/80 15/26/80 32/30/80
f 30/17/81 31/27/81 15/26/81
f 30/17/82 28/16/82 31/27/82
f 28/16/83 14/23/83 31/27/83
f 28/16/84 29/24/84 14/23/84
f 28/16/85 23/13/85 29/24/85
f 23/13/86 13/20/86 29/24/86
f 26/15/87 27/18/87 16/29/87
f 26/15/88 24/12/88 27/18/88
f 24/12/89 11/11/89 27/18/89
f 23/13/90 25/21/90 13/20/90
f 23/13/91 24/12/91 25/21/91
f 24/12/92 12/14/92 25/21/92
