# Blender v2.79 (sub 0) OBJ File: 'tree-ash0.blend'
# www.blender.org
mtllib tree-ash0.mtl
o stalk_Cube.001
v -0.150072 -0.068046 0.150071
v -0.150072 -0.086063 -0.150072
v 0.150071 -0.073551 0.150071
v 0.150071 -0.090293 -0.150072
v -0.200096 -0.076658 -0.000000
v 0.200095 -0.083144 -0.000000
v -0.000000 -0.090580 -0.200096
v -0.000000 -0.067354 0.200095
v -0.000000 -0.153750 -0.000000
v -0.026956 4.306770 0.002025
v 0.003099 1.905539 -0.031948
v 1.822533 2.836897 1.259311
v -0.431964 2.699325 2.015915
v -2.167318 2.871141 -0.268861
v -0.708545 2.869237 -2.261601
v 1.853529 2.915437 -1.254939
v 1.068297 4.642010 2.039245
v -1.412141 4.635490 1.038315
v -1.850999 4.691939 -1.332639
v 0.560667 4.848234 -2.231164
v 2.089018 4.890172 0.048077
v 0.179453 5.989417 -0.190931
v -0.330788 1.970728 1.182941
v 1.038952 1.964506 0.737014
v 0.750456 2.434185 1.926607
v 2.120971 2.516933 0.000424
v 1.059667 1.912277 -0.745254
v -1.276696 1.978058 -0.105111
v -1.551072 2.484801 1.116896
v -0.408929 1.906742 -1.305578
v -1.728790 2.522529 -1.441853
v 0.693059 2.516788 -2.017646
v 2.426494 3.758579 0.747356
v 2.258102 3.918679 -0.699369
v 0.349080 3.542415 2.385074
v 1.619489 3.678621 1.938100
v -2.171042 3.713468 0.457839
v -1.075098 3.544436 1.871641
v -1.532081 3.744669 -2.091373
v -2.377424 3.745516 -0.931581
v 1.384489 3.907916 -1.967375
v 0.036875 3.738340 -2.627408
v 1.926222 5.056968 1.205092
v -0.124300 4.977274 1.907573
v -1.971904 5.047281 -0.233710
v -0.660270 5.041015 -2.134046
v 1.274338 5.442983 -1.164630
v 0.847371 5.467080 1.169684
v 1.227075 5.681092 0.000949
v -0.640365 5.468445 0.486238
v -0.929811 5.466728 -0.960900
v 0.245242 5.654108 -1.433180
vt 0.217058 0.655409
vt 0.217058 0.655409
vt 0.217058 0.655409
vt 0.217058 0.655409
vt 0.217058 0.655409
vt 0.217058 0.655409
vt 0.217058 0.655409
vt 0.217058 0.655409
vt 0.217058 0.655409
vt 0.217058 0.655409
vt 0.220576 0.843756
vt 0.220576 0.843756
vt 0.220576 0.843756
vt 0.220576 0.843756
vt 0.220576 0.843756
vt 0.220576 0.843756
vt 0.220576 0.843756
vt 0.220576 0.843756
vt 0.220576 0.843756
vt 0.220576 0.843756
vt 0.220576 0.843756
vt 0.220576 0.843756
vt 0.220576 0.843756
vt 0.220576 0.843756
vt 0.220576 0.843756
vt 0.220576 0.843756
vt 0.220576 0.843756
vt 0.220576 0.843756
vt 0.220576 0.843756
vt 0.220576 0.843756
vt 0.220576 0.843756
vt 0.220576 0.843756
vt 0.220576 0.843756
vt 0.220576 0.843756
vt 0.220576 0.843756
vt 0.220576 0.843756
vt 0.220576 0.843756
vt 0.220576 0.843756
vt 0.220576 0.843756
vt 0.220576 0.843756
vt 0.220576 0.843756
vt 0.220576 0.843756
vt 0.220576 0.843756
vt 0.220576 0.843756
vt 0.220576 0.843756
vt 0.220576 0.843756
vt 0.220576 0.843756
vt 0.220576 0.843756
vt 0.220576 0.843756
vt 0.220576 0.843756
vt 0.220576 0.843756
vt 0.220576 0.843756
vn 0.3158 0.0455 -0.9477
vn 0.9485 0.0489 0.3130
vn -0.3161 0.0410 0.9478
vn -0.9487 0.0373 0.3141
vn 0.2128 -0.9342 0.2865
vn 0.9468 0.0491 -0.3180
vn 0.2203 -0.9578 -0.1847
vn -0.3148 0.0417 -0.9482
vn -0.2477 -0.9517 -0.1815
vn -0.2431 -0.9268 0.2862
vn 0.3176 0.0448 0.9472
vn -0.9473 0.0376 -0.3181
vn 0.0142 -0.9982 0.0575
vn 0.5969 -0.7323 0.3276
vn -0.0587 -0.9976 0.0374
vn -0.0576 -0.9982 0.0177
vn 0.0047 -1.0000 -0.0025
vn 0.8653 -0.3970 0.3060
vn -0.0173 -0.3876 0.9217
vn -0.9033 -0.2826 0.3229
vn -0.5185 -0.3347 -0.7869
vn 0.5916 -0.2666 -0.7609
vn 0.8118 -0.2351 0.5344
vn -0.3377 -0.0971 0.9362
vn -0.9815 -0.1276 0.1428
vn -0.3214 -0.1197 -0.9393
vn 0.8234 -0.0180 -0.5672
vn 0.2579 0.7328 0.6297
vn -0.4952 0.7497 0.4389
vn -0.5343 0.7853 -0.3127
vn 0.0572 0.7137 -0.6981
vn 0.6747 0.7280 -0.1214
vn 0.3135 0.9208 -0.2319
vn 0.2435 0.9522 -0.1846
vn 0.3091 0.7275 -0.6125
vn -0.2547 0.9301 -0.2646
vn -0.2942 0.8747 -0.3850
vn -0.4929 0.7754 -0.3946
vn -0.4772 0.8737 0.0944
vn -0.3329 0.9407 0.0655
vn -0.4826 0.7485 0.4547
vn -0.1989 0.8783 0.4348
vn -0.1724 0.9100 0.3771
vn 0.1335 0.7356 0.6641
vn 0.2316 0.9408 0.2475
vn 0.3339 0.9020 0.2737
vn 0.6764 0.7365 -0.0110
vn 0.8293 0.4242 -0.3637
vn 0.7743 0.3360 -0.5363
vn 0.6514 0.3878 -0.6521
vn -0.0202 0.3446 -0.9385
vn -0.3172 0.1827 -0.9306
vn -0.5908 0.3738 -0.7150
vn -0.8888 0.3984 -0.2266
vn -0.9640 0.2208 0.1483
vn -0.8032 0.3643 0.4714
vn -0.5852 0.3702 0.7214
vn -0.3322 0.1973 0.9223
vn -0.0177 0.3105 0.9504
vn 0.6028 0.2659 0.7523
vn 0.8184 0.1170 0.5625
vn 0.9394 0.3322 0.0843
vn 0.4244 0.1201 -0.8975
vn 0.4511 -0.1927 -0.8714
vn 0.0507 -0.4241 -0.9042
vn -0.7924 0.1959 -0.5777
vn -0.7950 -0.1799 -0.5793
vn -0.8967 -0.3832 -0.2213
vn -0.7544 0.2351 0.6129
vn -0.7924 -0.0752 0.6053
vn -0.5629 -0.2967 0.7715
vn 0.3225 0.0855 0.9427
vn 0.3451 -0.2493 0.9048
vn 0.5880 -0.4170 0.6930
vn 0.9681 0.2352 -0.0867
vn 0.9781 -0.1614 -0.1317
vn 0.9354 -0.2270 -0.2713
vn 0.5509 -0.6811 -0.4823
vn 0.1803 -0.8673 -0.4640
vn -0.0574 -0.7125 -0.6993
vn -0.2696 -0.7196 -0.6399
vn -0.3918 -0.8908 -0.2303
vn -0.7024 -0.7099 -0.0516
vn -0.7139 -0.6889 0.1254
vn -0.3857 -0.8797 0.2782
vn -0.3390 -0.7281 0.5957
vn 0.6380 -0.6843 -0.3531
vn 0.4746 -0.8794 0.0376
vn 0.0304 -0.9989 0.0356
vn -0.1204 -0.7544 0.6453
vn 0.1229 -0.9125 0.3901
vn 0.5362 -0.7326 0.4193
usemtl None
s off
f 7/1/1 10/2/1 4/3/1
f 6/4/2 10/2/2 3/5/2
f 8/6/3 10/2/3 1/7/3
f 1/7/4 10/2/4 5/8/4
f 9/9/5 6/4/5 3/5/5 8/6/5
f 4/3/6 10/2/6 6/4/6
f 7/1/7 4/3/7 6/4/7 9/9/7
f 2/10/8 10/2/8 7/1/8
f 2/10/9 7/1/9 9/9/9 5/8/9
f 5/8/10 9/9/10 8/6/10 1/7/10
f 3/5/11 10/2/11 8/6/11
f 5/8/12 10/2/12 2/10/12
f 11/11/13 24/12/13 23/13/13
f 12/14/14 24/12/14 26/15/14
f 11/11/15 23/13/15 28/16/15
f 11/11/16 28/16/16 30/17/16
f 11/11/17 30/17/17 27/18/17
f 12/14/18 26/15/18 33/19/18
f 13/20/19 25/21/19 35/22/19
f 14/23/20 29/24/20 37/25/20
f 15/26/21 31/27/21 39/28/21
f 16/29/22 32/30/22 41/31/22
f 12/14/23 33/19/23 36/32/23
f 13/20/24 35/22/24 38/33/24
f 14/23/25 37/25/25 40/34/25
f 15/26/26 39/28/26 42/35/26
f 16/29/27 41/31/27 34/36/27
f 17/37/28 43/38/28 48/39/28
f 18/40/29 44/41/29 50/42/29
f 19/43/30 45/44/30 51/45/30
f 20/46/31 46/47/31 52/48/31
f 21/49/32 47/50/32 49/51/32
f 49/51/33 52/48/33 22/52/33
f 49/51/34 47/50/34 52/48/34
f 47/50/35 20/46/35 52/48/35
f 52/48/36 51/45/36 22/52/36
f 52/48/37 46/47/37 51/45/37
f 46/47/38 19/43/38 51/45/38
f 51/45/39 50/42/39 22/52/39
f 51/45/40 45/44/40 50/42/40
f 45/44/41 18/40/41 50/42/41
f 50/42/42 48/39/42 22/52/42
f 50/42/43 44/41/43 48/39/43
f 44/41/44 17/37/44 48/39/44
f 48/39/45 49/51/45 22/52/45
f 48/39/46 43/38/46 49/51/46
f 43/38/47 21/49/47 49/51/47
f 34/36/48 47/50/48 21/49/48
f 34/36/49 41/31/49 47/50/49
f 41/31/50 20/46/50 47/50/50
f 42/35/51 46/47/51 20/46/51
f 42/35/52 39/28/52 46/47/52
f 39/28/53 19/43/53 46/47/53
f 40/34/54 45/44/54 19/43/54
f 40/34/55 37/25/55 45/44/55
f 37/25/56 18/40/56 45/44/56
f 38/33/57 44/41/57 18/40/57
f 38/33/58 35/22/58 44/41/58
f 35/22/59 17/37/59 44/41/59
f 36/32/60 43/38/60 17/37/60
f 36/32/61 33/19/61 43/38/61
f 33/19/62 21/49/62 43/38/62
f 41/31/63 42/35/63 20/46/63
f 41/31/64 32/30/64 42/35/64
f 32/30/65 15/26/65 42/35/65
f 39/28/66 40/34/66 19/43/66
f 39/28/67 31/27/67 40/34/67
f 31/27/68 14/23/68 40/34/68
f 37/25/69 38/33/69 18/40/69
f 37/25/70 29/24/70 38/33/70
f 29/24/71 13/20/71 38/33/71
f 35/22/72 36/32/72 17/37/72
f 35/22/73 25/21/73 36/32/73
f 25/21/74 12/14/74 36/32/74
f 33/19/75 34/36/75 21/49/75
f 33/19/76 26/15/76 34/36/76
f 26/15/77 16/29/77 34/36/77
f 27/18/78 32/30/78 16/29/78
f 27/18/79 30/17/79 32/30/79
f 30/17/80 15/26/80 32/30/80
f 30/17/81 31/27/81 15/26/81
f 30/17/82 28/16/82 31/27/82
f 28/16/83 14/23/83 31/27/83
f 28/16/84 29/24/84 14/23/84
f 28/16/85 23/13/85 29/24/85
f 23/13/86 13/20/86 29/24/86
f 26/15/87 27/18/87 16/29/87
f 26/15/88 24/12/88 27/18/88
f 24/12/89 11/11/89 27/18/89
f 23/13/90 25/21/90 13/20/90
f 23/13/91 24/12/91 25/21/91
f 24/12/92 12/14/92 25/21/92
