# Blender v2.79 (sub 0) OBJ File: 'tree-aspen3.blend'
# www.blender.org
mtllib tree-aspen3.mtl
o Cube_Cube.001
v -0.093750 -0.551468 0.093750
v -0.001524 18.631775 0.034408
v -0.093750 -0.551468 -0.093750
v -1.321784 15.198195 0.755390
v 0.093750 -0.551468 0.093750
v 0.461650 15.228992 1.483365
v 0.093750 -0.551468 -0.093750
v 2.069595 7.704267 -0.630764
v -0.125000 -0.551468 0.000000
v -0.791527 7.814339 -2.040093
v 0.125000 -0.551468 0.000000
v -2.244548 7.519962 -0.093646
v 0.000000 -0.551468 -0.125000
v -1.082813 8.484322 1.754925
v 0.000000 -0.551468 0.125000
v 1.168326 7.253142 0.982442
v -0.042334 3.458477 -0.034715
v 0.000000 -0.551468 0.000000
v -1.014861 15.471527 -0.917016
v 0.476445 15.098885 -1.618231
v 1.591884 15.070598 0.080915
v 0.032644 19.894865 0.012772
v 0.120474 10.475889 -2.223572
v 1.699727 11.638285 -1.613137
v -2.308653 10.322803 -0.494280
v -1.131823 11.455307 -1.583285
v -1.238941 10.682741 2.021287
v -1.742118 12.341007 1.176181
v 1.044529 12.748511 1.966610
v -0.354127 12.158895 2.218095
v 2.257227 12.341162 -0.943901
v 1.673290 10.112006 0.702918
v 0.500934 7.538342 -1.851313
v -1.181757 6.873908 -1.010038
v -0.203745 4.608049 -1.069367
v -1.480002 7.352328 1.117108
v -1.166811 4.583088 -0.203461
v 0.867435 5.355039 -1.332753
v 1.741311 7.503164 0.035359
v 0.991267 7.100734 1.906919
v 1.066662 4.653798 0.559185
v -0.768082 4.631524 1.559989
v 1.111523 15.135015 0.827896
v -0.610298 15.735224 1.299623
v -1.619496 15.376302 -0.142586
v -0.384696 15.642784 -1.352820
v 1.275536 15.472484 -0.768399
v -0.221727 18.430374 0.924963
v 1.228610 17.940815 0.465102
v -1.043249 18.059740 0.348983
v -0.361667 18.595865 -0.742955
v 0.405883 18.059629 -1.173331
vt 0.461797 0.959844
vt 0.471797 0.959844
vt 0.471797 0.969844
vt 0.461797 0.959844
vt 0.471797 0.969844
vt 0.461797 0.959844
vt 0.471797 0.969844
vt 0.461797 0.959844
vt 0.471797 0.969844
vt 0.461797 0.959844
vt 0.471797 0.959844
vt 0.461797 0.969844
vt 0.276250 0.844609
vt 0.286250 0.844609
vt 0.286250 0.854609
vt 0.286250 0.844609
vt 0.286250 0.854609
vt 0.471797 0.959844
vt 0.471797 0.969844
vt 0.461797 0.969844
vt 0.461797 0.959844
vt 0.461797 0.959844
vt 0.471797 0.969844
vt 0.461797 0.959844
vt 0.471797 0.959844
vt 0.471797 0.969844
vt 0.461797 0.969844
vt 0.286250 0.844609
vt 0.286250 0.854609
vt 0.276250 0.844609
vt 0.286250 0.844609
vt 0.286250 0.854609
vt 0.471797 0.959844
vt 0.471797 0.969844
vt 0.461797 0.969844
vt 0.461797 0.959844
vt 0.471797 0.969844
vt 0.286250 0.854609
vt 0.286250 0.844609
vt 0.286250 0.854609
vt 0.276250 0.844609
vt 0.286250 0.844609
vt 0.286250 0.854609
vt 0.276250 0.844609
vt 0.286250 0.844609
vt 0.286250 0.854609
vt 0.276250 0.844609
vt 0.286250 0.844609
vt 0.286250 0.854609
vt 0.276250 0.844609
vt 0.286250 0.844609
vt 0.286250 0.854609
vt 0.286250 0.844609
vt 0.286250 0.854609
vt 0.286250 0.844609
vt 0.286250 0.854609
vt 0.286250 0.844609
vt 0.286250 0.854609
vt 0.286250 0.844609
vt 0.286250 0.854609
vt 0.286250 0.844609
vt 0.286250 0.854609
vt 0.276250 0.844609
vt 0.286250 0.844609
vt 0.286250 0.854609
vt 0.276250 0.844609
vt 0.286250 0.844609
vt 0.286250 0.854609
vt 0.276250 0.844609
vt 0.286250 0.844609
vt 0.286250 0.854609
vt 0.276250 0.844609
vt 0.286250 0.844609
vt 0.286250 0.854609
vt 0.276250 0.844609
vt 0.286250 0.844609
vt 0.286250 0.854609
vt 0.276250 0.844609
vt 0.286250 0.844609
vt 0.286250 0.854609
vt 0.276250 0.844609
vt 0.286250 0.844609
vt 0.276250 0.844609
vt 0.286250 0.844609
vt 0.276250 0.844609
vt 0.286250 0.844609
vt 0.276250 0.844609
vt 0.286250 0.844609
vt 0.276250 0.844609
vt 0.286250 0.844609
vt 0.276250 0.844609
vt 0.286250 0.844609
vt 0.276250 0.844609
vt 0.286250 0.844609
vt 0.276250 0.844609
vt 0.286250 0.844609
vt 0.276250 0.844609
vt 0.286250 0.844609
vt 0.276250 0.844609
vt 0.286250 0.854609
vt 0.286250 0.854609
vt 0.276250 0.844609
vt 0.276250 0.844609
vt 0.286250 0.854609
vt 0.286250 0.854609
vt 0.276250 0.844609
vt 0.276250 0.844609
vt 0.286250 0.854609
vt 0.286250 0.854609
vt 0.276250 0.844609
vt 0.276250 0.844609
vt 0.286250 0.854609
vt 0.286250 0.854609
vt 0.276250 0.844609
vt 0.276250 0.844609
vt 0.286250 0.854609
vt 0.286250 0.854609
vt 0.276250 0.844609
vt 0.286250 0.844609
vt 0.276250 0.844609
vt 0.286250 0.844609
vt 0.286250 0.844609
vt 0.276250 0.844609
vt 0.286250 0.844609
vt 0.286250 0.844609
vt 0.276250 0.844609
vt 0.286250 0.844609
vt 0.286250 0.844609
vt 0.276250 0.844609
vt 0.286250 0.844609
vt 0.286250 0.844609
vt 0.276250 0.844609
vt 0.286250 0.844609
vt 0.276250 0.844609
vt 0.286250 0.854609
vt 0.286250 0.854609
vt 0.276250 0.844609
vt 0.286250 0.844609
vt 0.286250 0.854609
vt 0.286250 0.844609
vt 0.276250 0.844609
vt 0.286250 0.854609
vt 0.286250 0.854609
vt 0.276250 0.844609
vt 0.286250 0.854609
vt 0.286250 0.854609
vt 0.276250 0.844609
vt 0.286250 0.854609
vn -0.9487 0.0067 -0.3162
vn 0.3162 0.0079 -0.9487
vn 0.9487 0.0057 0.3162
vn -0.3162 0.0045 0.9487
vn 0.0000 -1.0000 0.0000
vn 0.2560 -0.6266 -0.7361
vn -0.5208 -0.6103 -0.5969
vn 0.9487 0.0068 -0.3162
vn -0.9487 0.0055 0.3162
vn -0.7090 -0.6821 0.1790
vn 0.8631 -0.1139 0.4921
vn 0.3162 0.0045 0.9487
vn -0.3162 0.0079 -0.9487
vn 0.3646 -0.6631 0.6537
vn 0.8629 -0.1041 0.4946
vn -0.1370 -0.0971 0.9858
vn -0.8476 -0.0508 0.5282
vn -0.9225 -0.0380 -0.3842
vn 0.6173 -0.1355 -0.7750
vn 0.8088 -0.0860 0.5818
vn -0.0180 -0.1215 0.9924
vn -0.9542 0.0208 0.2984
vn -0.4059 0.0763 -0.9107
vn 0.8024 -0.0725 -0.5923
vn 0.7034 0.2652 0.6594
vn -0.6757 0.1677 0.7178
vn -0.7844 0.1968 -0.5882
vn -0.2096 0.1404 -0.9677
vn 0.9475 0.1572 -0.2785
vn 0.8245 0.4158 -0.3839
vn 0.8766 0.2284 -0.4236
vn 0.6954 0.1230 -0.7080
vn -0.1075 0.5241 -0.8448
vn -0.3757 0.1902 -0.9070
vn -0.5912 0.1675 -0.7890
vn -0.8435 0.4374 -0.3117
vn -0.8712 0.2630 -0.4146
vn -0.9315 0.1384 0.3363
vn -0.6382 0.4839 0.5989
vn -0.6205 0.1950 0.7595
vn -0.0974 0.1508 0.9838
vn 0.4019 0.4328 0.8069
vn 0.3332 0.1072 0.9367
vn 0.8419 0.0345 0.5385
vn 0.9310 0.3033 -0.2033
vn 0.6118 0.2341 -0.7556
vn 0.6561 0.2309 -0.7185
vn -0.2081 0.1427 -0.9676
vn -0.3774 0.1179 -0.9185
vn -0.5895 0.1489 -0.7939
vn -0.7882 0.1490 -0.5971
vn -0.9752 0.1201 0.1857
vn -0.9210 0.1859 0.3422
vn -0.6816 0.1859 0.7077
vn -0.4942 0.1829 0.8499
vn -0.0502 0.2451 0.9682
vn 0.6999 0.2915 0.6521
vn 0.9584 0.1005 0.2671
vn 0.8415 0.0808 0.5342
vn 0.2925 0.1020 -0.9508
vn 0.4004 -0.0640 -0.9141
vn 0.1208 -0.1094 -0.9866
vn -0.7384 0.1312 -0.6615
vn -0.6285 -0.0898 -0.7726
vn -0.6886 -0.1180 -0.7154
vn -0.6137 0.2027 0.7631
vn -0.8999 -0.0524 0.4330
vn -0.7171 -0.1338 0.6840
vn 0.0865 0.2101 0.9738
vn 0.1819 -0.0121 0.9832
vn 0.9824 -0.0112 0.1863
vn 0.9086 0.0666 0.4124
vn 0.9595 -0.0461 0.2779
vn 0.8978 -0.0066 0.4404
vn -0.1123 -0.0594 0.9919
vn 0.4378 -0.4234 0.7932
vn 0.9819 -0.0672 0.1770
vn 0.8271 -0.5000 0.2567
vn 0.9456 -0.2599 -0.1959
vn 0.7691 -0.5686 -0.2917
vn -0.8207 -0.3189 0.4741
vn -0.9517 -0.2130 0.2210
vn -0.7610 -0.0946 0.6418
vn -0.7582 -0.3123 -0.5724
vn -0.6422 -0.2583 -0.7217
vn -0.7130 -0.2370 -0.6599
vn 0.6174 -0.0822 -0.7823
vn -0.0695 -0.2416 -0.9679
vn 0.0812 -0.2752 -0.9580
usemtl None
s off
f 9/1/1 2/2/1 3/3/1
f 13/4/2 2/2/2 7/5/2
f 11/6/3 2/2/3 5/7/3
f 15/8/4 2/2/4 1/9/4
f 18/10/5 11/11/5 5/7/5 15/12/5
f 17/13/6 35/14/6 38/15/6
f 17/13/7 37/16/7 35/17/7
f 13/4/5 7/18/5 11/19/5 18/20/5
f 7/21/8 2/2/8 11/19/8
f 1/22/9 2/2/9 9/23/9
f 3/24/5 13/25/5 18/26/5 9/27/5
f 17/13/10 42/28/10 37/29/10
f 16/30/11 41/31/11 39/32/11
f 9/1/5 18/33/5 15/34/5 1/35/5
f 5/36/12 2/2/12 15/34/12
f 3/24/13 2/2/13 13/37/13
f 17/13/14 41/31/14 42/38/14
f 16/30/15 39/39/15 32/40/15
f 14/41/16 40/42/16 30/43/16
f 12/44/17 36/45/17 28/46/17
f 10/47/18 34/48/18 26/49/18
f 8/50/19 33/51/19 24/52/19
f 16/30/20 32/53/20 29/54/20
f 14/41/21 30/55/21 27/56/21
f 12/44/22 28/57/22 25/58/22
f 10/47/23 26/59/23 23/60/23
f 8/50/24 24/61/24 31/62/24
f 6/63/25 43/64/25 48/65/25
f 4/66/26 44/67/26 50/68/26
f 19/69/27 45/70/27 51/71/27
f 20/72/28 46/73/28 52/74/28
f 21/75/29 47/76/29 49/77/29
f 49/78/30 52/79/30 22/80/30
f 49/78/31 47/76/31 52/74/31
f 47/81/32 20/82/32 52/74/32
f 52/83/33 51/84/33 22/80/33
f 52/83/34 46/73/34 51/71/34
f 46/85/35 19/86/35 51/71/35
f 51/87/36 50/88/36 22/80/36
f 51/87/37 45/70/37 50/68/37
f 45/89/38 4/90/38 50/68/38
f 50/91/39 48/92/39 22/80/39
f 50/91/40 44/67/40 48/65/40
f 44/93/41 6/94/41 48/65/41
f 48/95/42 49/96/42 22/80/42
f 48/95/43 43/64/43 49/77/43
f 43/97/44 21/98/44 49/77/44
f 31/99/45 47/76/45 21/100/45
f 31/99/46 24/61/46 47/101/46
f 24/102/47 20/82/47 47/101/47
f 23/103/48 46/73/48 20/104/48
f 23/103/49 26/59/49 46/105/49
f 26/106/50 19/86/50 46/105/50
f 25/107/51 45/70/51 19/108/51
f 25/107/52 28/57/52 45/109/52
f 28/110/53 4/90/53 45/109/53
f 27/111/54 44/67/54 4/112/54
f 27/111/55 30/55/55 44/113/55
f 30/114/56 6/94/56 44/113/56
f 29/115/57 43/64/57 6/116/57
f 29/115/58 32/53/58 43/117/58
f 32/118/59 21/98/59 43/117/59
f 24/102/60 23/119/60 20/104/60
f 24/102/61 33/51/61 23/60/61
f 33/120/62 10/121/62 23/60/62
f 26/106/63 25/122/63 19/108/63
f 26/106/64 34/48/64 25/58/64
f 34/123/65 12/124/65 25/58/65
f 28/110/66 27/125/66 4/112/66
f 28/110/67 36/45/67 27/56/67
f 36/126/68 14/127/68 27/56/68
f 30/114/69 29/128/69 6/116/69
f 30/114/70 40/42/70 29/54/70
f 40/129/71 16/130/71 29/54/71
f 32/118/72 31/131/72 21/100/72
f 32/118/73 39/39/73 31/62/73
f 39/132/74 8/133/74 31/62/74
f 42/134/75 40/42/75 14/135/75
f 42/134/76 41/31/76 40/136/76
f 41/137/77 16/130/77 40/136/77
f 39/132/78 38/138/78 8/139/78
f 39/132/79 41/31/79 38/15/79
f 41/137/80 17/140/80 38/15/80
f 37/141/81 36/45/81 12/142/81
f 37/141/82 42/28/82 36/143/82
f 42/134/83 14/127/83 36/143/83
f 35/144/84 34/48/84 10/145/84
f 35/144/85 37/16/85 34/146/85
f 37/141/86 12/124/86 34/146/86
f 38/147/87 33/51/87 8/139/87
f 38/147/88 35/14/88 33/148/88
f 35/144/89 10/121/89 33/148/89
