# Blender v2.79 (sub 0) OBJ File: 'tree-oak1.blend'
# www.blender.org
mtllib tree-oak1.mtl
o stalk_Cube.001
v -0.160262 -0.392020 0.160266
v -0.160262 -0.446383 -0.160262
v 0.160267 -0.407591 0.160266
v 0.160267 -0.458446 -0.160262
v -0.213683 -0.418382 0.000002
v 0.213688 -0.436778 0.000002
v 0.000002 -0.459952 -0.213684
v 0.000002 -0.389736 0.213688
v 0.000002 -0.656789 0.000002
v -0.032825 9.542231 0.066566
v -0.029123 2.411539 0.005359
v 3.744242 6.639341 2.737682
v -0.870840 4.538317 3.759309
v -4.380156 6.480494 -0.512840
v -1.300164 6.300102 -3.804034
v 3.365838 7.128531 -2.531049
v 1.153777 10.163385 2.452790
v -2.044975 10.614755 1.600344
v -2.128286 9.758924 -1.455062
v 0.571075 10.457187 -2.342512
v 2.435595 10.815331 0.068438
v 0.173857 14.905901 -0.014706
v -0.693814 3.130617 2.424890
v 2.034088 3.093444 1.536804
v 1.488182 4.102338 3.763334
v 4.095811 4.786898 0.109448
v 2.075342 2.781392 -1.415202
v -2.577634 3.174414 -0.140326
v -3.329754 4.420212 2.436171
v -0.849435 2.748324 -2.531113
v -3.701783 4.657152 -2.920224
v 1.368028 4.621095 -4.125567
v 3.558273 8.594125 1.496989
v 3.130321 9.542576 -1.273738
v 0.390201 7.699858 3.405303
v 1.974756 8.322485 2.931510
v -4.030891 8.525333 1.185288
v -1.350850 7.950841 2.849785
v -1.803303 8.438546 -2.911296
v -3.546380 7.709241 -1.577654
v 1.533849 8.801609 -3.235601
v 0.025086 8.430113 -3.685541
v 2.167532 11.536177 1.674605
v -0.095365 11.208017 2.308882
v -2.116625 11.023254 -0.264081
v -0.706761 11.062483 -2.240867
v 2.128685 11.769990 -1.226178
v 1.051114 13.653559 1.853509
v 1.534055 14.160101 0.471315
v -0.834403 13.250014 0.828982
v -1.233185 12.952531 -1.217137
v 0.235475 13.410616 -1.791515
vt 0.031512 0.659315
vt 0.031512 0.659315
vt 0.031512 0.659315
vt 0.031512 0.659315
vt 0.031512 0.659315
vt 0.031512 0.659315
vt 0.031512 0.659315
vt 0.031512 0.659315
vt 0.031512 0.659315
vt 0.031512 0.659315
vt 0.031123 0.845709
vt 0.031123 0.845709
vt 0.031123 0.845709
vt 0.031123 0.845709
vt 0.031123 0.845709
vt 0.031123 0.845709
vt 0.031123 0.845709
vt 0.031123 0.845709
vt 0.031123 0.845709
vt 0.031123 0.845709
vt 0.031123 0.845709
vt 0.031123 0.845709
vt 0.031123 0.845709
vt 0.031123 0.845709
vt 0.031123 0.845709
vt 0.031123 0.845709
vt 0.031123 0.845709
vt 0.031123 0.845709
vt 0.031123 0.845709
vt 0.031123 0.845709
vt 0.031123 0.845709
vt 0.031123 0.845709
vt 0.031123 0.845709
vt 0.031123 0.845709
vt 0.031123 0.845709
vt 0.031123 0.845709
vt 0.031123 0.845709
vt 0.031123 0.845709
vt 0.031123 0.845709
vt 0.031123 0.845709
vt 0.031123 0.845709
vt 0.031123 0.845709
vt 0.031123 0.845709
vt 0.031123 0.845709
vt 0.031123 0.845709
vt 0.031123 0.845709
vt 0.031123 0.845709
vt 0.031123 0.845709
vt 0.031123 0.845709
vt 0.031123 0.845709
vt 0.031123 0.845709
vt 0.031123 0.845709
vn 0.3159 0.0276 -0.9484
vn 0.9496 0.0214 0.3127
vn -0.3164 0.0130 0.9485
vn -0.9493 0.0151 0.3139
vn 0.4466 -0.6692 0.5939
vn 0.9473 0.0255 -0.3192
vn 0.5056 -0.7513 -0.4242
vn -0.3142 0.0256 -0.9490
vn -0.5496 -0.7292 -0.4077
vn -0.4926 -0.6491 0.5797
vn 0.3177 0.0151 0.9481
vn -0.9475 0.0193 -0.3192
vn 0.0866 -0.9482 0.3056
vn 0.7318 -0.5071 0.4553
vn -0.2915 -0.9359 0.1981
vn -0.2848 -0.9580 -0.0351
vn 0.0697 -0.9857 -0.1534
vn 0.9913 0.1233 0.0457
vn 0.0176 0.1043 0.9944
vn -0.9548 -0.0755 0.2873
vn -0.4761 0.2410 -0.8457
vn 0.4812 0.1642 -0.8611
vn 0.5389 0.4874 0.6871
vn -0.2691 0.2125 0.9394
vn -0.8890 0.3727 -0.2660
vn -0.3731 0.2813 -0.8841
vn 0.6271 0.4071 -0.6641
vn 0.4514 0.1639 0.8771
vn -0.4209 0.4275 0.8001
vn -0.9168 0.2783 -0.2865
vn 0.0092 0.1844 -0.9828
vn 0.9640 0.2639 -0.0339
vn 0.5455 0.6505 -0.5285
vn 0.6359 0.5458 -0.5457
vn 0.4443 0.2128 -0.8702
vn -0.4412 0.6790 -0.5867
vn -0.4318 0.3336 -0.8380
vn -0.6241 0.2305 -0.7466
vn -0.8320 0.5486 0.0824
vn -0.8833 0.4567 0.1058
vn -0.8856 0.4454 0.1316
vn -0.4748 0.6116 0.6329
vn -0.5031 0.3803 0.7760
vn 0.0287 0.1700 0.9850
vn 0.3154 0.8501 0.4217
vn 0.8138 0.3929 0.4283
vn 0.9659 0.2547 0.0469
vn 0.9094 0.4072 0.0846
vn 0.6734 0.3171 -0.6678
vn 0.1464 0.5343 -0.8326
vn 0.1749 0.5106 -0.8418
vn -0.3609 0.3696 -0.8563
vn -0.7078 0.4375 -0.5546
vn -0.6830 0.5042 -0.5285
vn -0.8335 0.4729 -0.2858
vn -0.7308 0.6603 0.1728
vn -0.4051 0.2996 0.8638
vn -0.2604 0.2550 0.9312
vn 0.1548 0.3142 0.9367
vn 0.2357 0.3417 0.9098
vn 0.6258 0.2513 0.7384
vn 0.9023 0.4291 -0.0420
vn 0.1218 0.5252 -0.8422
vn 0.2364 0.1933 -0.9522
vn -0.0611 0.0933 -0.9938
vn -0.6503 0.4849 -0.5848
vn -0.6569 0.3314 -0.6773
vn -0.8772 0.2300 -0.4214
vn -0.4643 0.2740 0.8422
vn -0.4919 0.1758 0.8527
vn -0.4735 0.1640 0.8654
vn 0.1568 0.3135 0.9365
vn 0.2230 0.1637 0.9610
vn 0.2553 0.1586 0.9538
vn 0.8867 0.4618 0.0211
vn 0.9807 0.1722 -0.0925
vn 0.9786 0.1617 -0.1271
vn 0.8144 -0.3588 -0.4561
vn 0.2327 -0.7754 -0.5870
vn -0.3290 -0.3553 -0.8749
vn -0.1053 -0.3473 -0.9318
vn -0.5196 -0.8232 -0.2289
vn -0.8780 -0.4667 0.1061
vn -0.8766 -0.4806 -0.0235
vn -0.4191 -0.8593 0.2931
vn -0.3258 -0.6717 0.6654
vn 0.7636 -0.3636 -0.5336
vn 0.6677 -0.7392 0.0875
vn 0.2407 -0.9649 0.1054
vn -0.1289 -0.6907 0.7116
vn 0.1296 -0.8908 0.4354
vn 0.7568 -0.5054 0.4146
usemtl None
s off
f 7/1/1 10/2/1 4/3/1
f 6/4/2 10/2/2 3/5/2
f 8/6/3 10/2/3 1/7/3
f 1/7/4 10/2/4 5/8/4
f 9/9/5 6/4/5 3/5/5 8/6/5
f 4/3/6 10/2/6 6/4/6
f 7/1/7 4/3/7 6/4/7 9/9/7
f 2/10/8 10/2/8 7/1/8
f 2/10/9 7/1/9 9/9/9 5/8/9
f 5/8/10 9/9/10 8/6/10 1/7/10
f 3/5/11 10/2/11 8/6/11
f 5/8/12 10/2/12 2/10/12
f 11/11/13 24/12/13 23/13/13
f 12/14/14 24/12/14 26/15/14
f 11/11/15 23/13/15 28/16/15
f 11/11/16 28/16/16 30/17/16
f 11/11/17 30/17/17 27/18/17
f 12/14/18 26/15/18 33/19/18
f 13/20/19 25/21/19 35/22/19
f 14/23/20 29/24/20 37/25/20
f 15/26/21 31/27/21 39/28/21
f 16/29/22 32/30/22 41/31/22
f 12/14/23 33/19/23 36/32/23
f 13/20/24 35/22/24 38/33/24
f 14/23/25 37/25/25 40/34/25
f 15/26/26 39/28/26 42/35/26
f 16/29/27 41/31/27 34/36/27
f 17/37/28 43/38/28 48/39/28
f 18/40/29 44/41/29 50/42/29
f 19/43/30 45/44/30 51/45/30
f 20/46/31 46/47/31 52/48/31
f 21/49/32 47/50/32 49/51/32
f 49/51/33 52/48/33 22/52/33
f 49/51/34 47/50/34 52/48/34
f 47/50/35 20/46/35 52/48/35
f 52/48/36 51/45/36 22/52/36
f 52/48/37 46/47/37 51/45/37
f 46/47/38 19/43/38 51/45/38
f 51/45/39 50/42/39 22/52/39
f 51/45/40 45/44/40 50/42/40
f 45/44/41 18/40/41 50/42/41
f 50/42/42 48/39/42 22/52/42
f 50/42/43 44/41/43 48/39/43
f 44/41/44 17/37/44 48/39/44
f 48/39/45 49/51/45 22/52/45
f 48/39/46 43/38/46 49/51/46
f 43/38/47 21/49/47 49/51/47
f 34/36/48 47/50/48 21/49/48
f 34/36/49 41/31/49 47/50/49
f 41/31/50 20/46/50 47/50/50
f 42/35/51 46/47/51 20/46/51
f 42/35/52 39/28/52 46/47/52
f 39/28/53 19/43/53 46/47/53
f 40/34/54 45/44/54 19/43/54
f 40/34/55 37/25/55 45/44/55
f 37/25/56 18/40/56 45/44/56
f 38/33/57 44/41/57 18/40/57
f 38/33/58 35/22/58 44/41/58
f 35/22/59 17/37/59 44/41/59
f 36/32/60 43/38/60 17/37/60
f 36/32/61 33/19/61 43/38/61
f 33/19/62 21/49/62 43/38/62
f 41/31/63 42/35/63 20/46/63
f 41/31/64 32/30/64 42/35/64
f 32/30/65 15/26/65 42/35/65
f 39/28/66 40/34/66 19/43/66
f 39/28/67 31/27/67 40/34/67
f 31/27/68 14/23/68 40/34/68
f 37/25/69 38/33/69 18/40/69
f 37/25/70 29/24/70 38/33/70
f 29/24/71 13/20/71 38/33/71
f 35/22/72 36/32/72 17/37/72
f 35/22/73 25/21/73 36/32/73
f 25/21/74 12/14/74 36/32/74
f 33/19/75 34/36/75 21/49/75
f 33/19/76 26/15/76 34/36/76
f 26/15/77 16/29/77 34/36/77
f 27/18/78 32/30/78 16/29/78
f 27/18/79 30/17/79 32/30/79
f 30/17/80 15/26/80 32/30/80
f 30/17/81 31/27/81 15/26/81
f 30/17/82 28/16/82 31/27/82
f 28/16/83 14/23/83 31/27/83
f 28/16/84 29/24/84 14/23/84
f 28/16/85 23/13/85 29/24/85
f 23/13/86 13/20/86 29/24/86
f 26/15/87 27/18/87 16/29/87
f 26/15/88 24/12/88 27/18/88
f 24/12/89 11/11/89 27/18/89
f 23/13/90 25/21/90 13/20/90
f 23/13/91 24/12/91 25/21/91
f 24/12/92 12/14/92 25/21/92
