# Blender v2.79 (sub 0) OBJ File: 'tree-aspen3.blend'
# www.blender.org
mtllib tree-aspen3.mtl
o Cube_Cube.001
v -0.093750 0.000000 0.093750
v 0.000000 10.000000 0.000000
v -0.093750 0.000000 -0.093750
v -0.571443 7.840107 0.389019
v 0.093750 0.000000 0.093750
v 0.282593 7.869626 0.599097
v 0.093750 0.000000 -0.093750
v 1.005026 4.102115 -0.240404
v -0.125000 0.000000 0.000000
v -0.242726 4.162881 -0.841755
v 0.125000 0.000000 0.000000
v -1.123840 4.000366 -0.074673
v 0.000000 0.000000 -0.125000
v -0.576178 4.532745 0.861134
v 0.000000 0.000000 0.125000
v 0.495783 3.853071 0.460815
v -0.050801 2.005967 -0.041658
v 0.000000 0.000000 0.000000
v -0.543032 8.102100 -0.516555
v 0.270696 7.744917 -0.937954
v 0.914841 7.717806 0.110962
v 0.039173 10.212502 0.015327
v -0.008183 5.989388 -1.007476
v 0.654078 6.005447 -0.744246
v -1.021150 5.878003 -0.329610
v -0.515842 5.837973 -0.695488
v -0.561890 5.761903 0.934151
v -0.737699 6.073528 0.409483
v 0.330549 6.113008 0.699787
v -0.242536 6.055884 0.865968
v 0.901291 6.073543 -0.513785
v 0.568370 5.589995 0.175791
v 0.210834 4.073331 -0.873392
v -0.549724 3.706528 -0.459850
v -0.044379 2.687143 -0.275937
v -0.718241 3.970640 0.542051
v -0.510199 2.632260 0.003342
v 0.283696 2.885048 -0.359103
v 0.794128 4.053909 0.030831
v 0.487887 3.831749 0.760233
v 0.422881 2.606643 0.323323
v -0.382319 2.544825 0.773172
v 0.660801 7.716736 0.425346
v -0.098866 8.292042 0.347145
v -0.900744 7.948012 -0.141019
v -0.196489 8.203436 -0.667604
v 0.721938 8.040203 -0.440599
v -0.140547 9.769570 0.373064
v 0.498497 9.253759 0.211347
v -0.638637 9.970899 0.128619
v -0.091662 10.011782 -0.375439
v 0.167429 9.402618 -0.492654
vt 0.461797 0.959844
vt 0.471797 0.959844
vt 0.471797 0.969844
vt 0.461797 0.959844
vt 0.471797 0.969844
vt 0.461797 0.959844
vt 0.471797 0.969844
vt 0.461797 0.959844
vt 0.471797 0.969844
vt 0.461797 0.959844
vt 0.471797 0.959844
vt 0.461797 0.969844
vt 0.276250 0.844609
vt 0.286250 0.844609
vt 0.286250 0.854609
vt 0.286250 0.844609
vt 0.286250 0.854609
vt 0.471797 0.959844
vt 0.471797 0.969844
vt 0.461797 0.969844
vt 0.461797 0.959844
vt 0.461797 0.959844
vt 0.471797 0.969844
vt 0.461797 0.959844
vt 0.471797 0.959844
vt 0.471797 0.969844
vt 0.461797 0.969844
vt 0.286250 0.844609
vt 0.286250 0.854609
vt 0.276250 0.844609
vt 0.286250 0.844609
vt 0.286250 0.854609
vt 0.471797 0.959844
vt 0.471797 0.969844
vt 0.461797 0.969844
vt 0.461797 0.959844
vt 0.471797 0.969844
vt 0.286250 0.854609
vt 0.286250 0.844609
vt 0.286250 0.854609
vt 0.276250 0.844609
vt 0.286250 0.844609
vt 0.286250 0.854609
vt 0.276250 0.844609
vt 0.286250 0.844609
vt 0.286250 0.854609
vt 0.276250 0.844609
vt 0.286250 0.844609
vt 0.286250 0.854609
vt 0.276250 0.844609
vt 0.286250 0.844609
vt 0.286250 0.854609
vt 0.286250 0.844609
vt 0.286250 0.854609
vt 0.286250 0.844609
vt 0.286250 0.854609
vt 0.286250 0.844609
vt 0.286250 0.854609
vt 0.286250 0.844609
vt 0.286250 0.854609
vt 0.286250 0.844609
vt 0.286250 0.854609
vt 0.276250 0.844609
vt 0.286250 0.844609
vt 0.286250 0.854609
vt 0.276250 0.844609
vt 0.286250 0.844609
vt 0.286250 0.854609
vt 0.276250 0.844609
vt 0.286250 0.844609
vt 0.286250 0.854609
vt 0.276250 0.844609
vt 0.286250 0.844609
vt 0.286250 0.854609
vt 0.276250 0.844609
vt 0.286250 0.844609
vt 0.286250 0.854609
vt 0.276250 0.844609
vt 0.286250 0.844609
vt 0.286250 0.854609
vt 0.276250 0.844609
vt 0.286250 0.844609
vt 0.276250 0.844609
vt 0.286250 0.844609
vt 0.276250 0.844609
vt 0.286250 0.844609
vt 0.276250 0.844609
vt 0.286250 0.844609
vt 0.276250 0.844609
vt 0.286250 0.844609
vt 0.276250 0.844609
vt 0.286250 0.844609
vt 0.276250 0.844609
vt 0.286250 0.844609
vt 0.276250 0.844609
vt 0.286250 0.844609
vt 0.276250 0.844609
vt 0.286250 0.844609
vt 0.276250 0.844609
vt 0.286250 0.854609
vt 0.286250 0.854609
vt 0.276250 0.844609
vt 0.276250 0.844609
vt 0.286250 0.854609
vt 0.286250 0.854609
vt 0.276250 0.844609
vt 0.276250 0.844609
vt 0.286250 0.854609
vt 0.286250 0.854609
vt 0.276250 0.844609
vt 0.276250 0.844609
vt 0.286250 0.854609
vt 0.286250 0.854609
vt 0.276250 0.844609
vt 0.276250 0.844609
vt 0.286250 0.854609
vt 0.286250 0.854609
vt 0.276250 0.844609
vt 0.286250 0.844609
vt 0.276250 0.844609
vt 0.286250 0.844609
vt 0.286250 0.844609
vt 0.276250 0.844609
vt 0.286250 0.844609
vt 0.286250 0.844609
vt 0.276250 0.844609
vt 0.286250 0.844609
vt 0.286250 0.844609
vt 0.276250 0.844609
vt 0.286250 0.844609
vt 0.286250 0.844609
vt 0.276250 0.844609
vt 0.286250 0.844609
vt 0.276250 0.844609
vt 0.286250 0.854609
vt 0.286250 0.854609
vt 0.276250 0.844609
vt 0.286250 0.844609
vt 0.286250 0.854609
vt 0.286250 0.844609
vt 0.276250 0.844609
vt 0.286250 0.854609
vt 0.286250 0.854609
vt 0.276250 0.844609
vt 0.286250 0.854609
vt 0.286250 0.854609
vt 0.276250 0.844609
vt 0.286250 0.854609
vn -0.9486 0.0119 -0.3162
vn 0.3162 0.0119 -0.9486
vn 0.9486 0.0119 0.3162
vn -0.3162 0.0119 0.9486
vn 0.0000 -1.0000 0.0000
vn -0.0437 -0.3246 -0.9449
vn -0.4683 -0.2834 -0.8369
vn 0.9486 0.0119 -0.3162
vn -0.9486 0.0119 0.3162
vn -0.8023 -0.5932 0.0659
vn 0.8397 -0.1078 0.5323
vn 0.3162 0.0119 0.9486
vn -0.3162 0.0119 -0.9486
vn 0.3951 -0.6841 0.6131
vn 0.8060 0.0629 0.5886
vn 0.0808 -0.0209 0.9965
vn -0.8346 0.0270 0.5502
vn -0.7403 -0.0622 -0.6694
vn 0.6227 -0.0909 -0.7772
vn 0.9198 0.0258 0.3917
vn 0.2612 -0.0603 0.9634
vn -0.9376 0.0966 0.3340
vn -0.5213 -0.0105 -0.8533
vn 0.6898 -0.0637 -0.7212
vn 0.4765 0.2077 0.8543
vn -0.0272 0.1204 0.9924
vn -0.7499 0.2233 -0.6227
vn -0.3097 0.2286 -0.9229
vn 0.9474 0.2682 -0.1746
vn 0.8741 0.3498 -0.3371
vn 0.8758 0.3435 -0.3392
vn 0.6462 0.2353 -0.7260
vn 0.7733 0.4203 -0.4748
vn -0.0629 0.1627 -0.9847
vn -0.4348 0.1681 -0.8847
vn -0.3653 0.8721 -0.3256
vn -0.6736 0.1827 -0.7161
vn -0.8453 0.0385 0.5330
vn -0.1062 0.6505 0.7521
vn -0.4496 -0.0283 0.8928
vn -0.5742 -0.0306 0.8181
vn 0.5158 0.4018 0.7566
vn 0.3658 0.1661 0.9157
vn 0.7666 0.1673 0.6200
vn 0.9558 0.0975 -0.2773
vn 0.6661 0.0883 -0.7406
vn 0.7142 0.0800 -0.6954
vn -0.4209 0.1026 -0.9013
vn -0.5396 0.0827 -0.8379
vn -0.4150 0.0667 -0.9074
vn -0.7411 0.1035 -0.6634
vn -0.9354 0.0223 0.3529
vn -0.8385 0.0851 0.5383
vn -0.1544 0.2500 0.9559
vn -0.0001 0.2260 0.9741
vn -0.3429 0.2332 0.9100
vn 0.4377 0.0634 0.8969
vn 0.8674 -0.0950 0.4885
vn 0.7735 -0.1069 0.6247
vn 0.3697 -0.0219 -0.9289
vn 0.3697 -0.0227 -0.9289
vn -0.0849 -0.0792 -0.9932
vn -0.5825 0.0571 -0.8108
vn -0.5887 -0.0796 -0.8044
vn -0.5827 -0.0780 -0.8090
vn -0.9266 0.0914 0.3648
vn -0.9460 0.0117 0.3239
vn -0.9034 -0.0150 0.4286
vn 0.2722 0.0625 0.9602
vn 0.2741 0.0444 0.9607
vn 0.9971 0.0696 0.0312
vn 0.9266 -0.1402 0.3490
vn 0.8734 0.0831 0.4799
vn 0.7720 0.1270 0.6228
vn 0.0700 -0.0373 0.9969
vn 0.4810 -0.3170 0.8174
vn 0.9979 -0.0608 0.0220
vn 0.7316 -0.4807 0.4834
vn 0.9059 -0.2940 -0.3047
vn 0.8273 -0.4406 -0.3485
vn -0.7964 -0.3282 0.5079
vn -0.9688 -0.2060 0.1375
vn -0.8265 -0.1051 0.5531
vn -0.4548 -0.3715 -0.8094
vn -0.4458 -0.3682 -0.8159
vn -0.6360 -0.3252 -0.6999
vn 0.6037 -0.2852 -0.7445
vn 0.0067 -0.3968 -0.9179
vn -0.1373 -0.3706 -0.9186
usemtl None
s off
f 9/1/1 2/2/1 3/3/1
f 13/4/2 2/2/2 7/5/2
f 11/6/3 2/2/3 5/7/3
f 15/8/4 2/2/4 1/9/4
f 18/10/5 11/11/5 5/7/5 15/12/5
f 17/13/6 35/14/6 38/15/6
f 17/13/7 37/16/7 35/17/7
f 13/4/5 7/18/5 11/19/5 18/20/5
f 7/21/8 2/2/8 11/19/8
f 1/22/9 2/2/9 9/23/9
f 3/24/5 13/25/5 18/26/5 9/27/5
f 17/13/10 42/28/10 37/29/10
f 16/30/11 41/31/11 39/32/11
f 9/1/5 18/33/5 15/34/5 1/35/5
f 5/36/12 2/2/12 15/34/12
f 3/24/13 2/2/13 13/37/13
f 17/13/14 41/31/14 42/38/14
f 16/30/15 39/39/15 32/40/15
f 14/41/16 40/42/16 30/43/16
f 12/44/17 36/45/17 28/46/17
f 10/47/18 34/48/18 26/49/18
f 8/50/19 33/51/19 24/52/19
f 16/30/20 32/53/20 29/54/20
f 14/41/21 30/55/21 27/56/21
f 12/44/22 28/57/22 25/58/22
f 10/47/23 26/59/23 23/60/23
f 8/50/24 24/61/24 31/62/24
f 6/63/25 43/64/25 48/65/25
f 4/66/26 44/67/26 50/68/26
f 19/69/27 45/70/27 51/71/27
f 20/72/28 46/73/28 52/74/28
f 21/75/29 47/76/29 49/77/29
f 49/78/30 52/79/30 22/80/30
f 49/78/31 47/76/31 52/74/31
f 47/81/32 20/82/32 52/74/32
f 52/83/33 51/84/33 22/80/33
f 52/83/34 46/73/34 51/71/34
f 46/85/35 19/86/35 51/71/35
f 51/87/36 50/88/36 22/80/36
f 51/87/37 45/70/37 50/68/37
f 45/89/38 4/90/38 50/68/38
f 50/91/39 48/92/39 22/80/39
f 50/91/40 44/67/40 48/65/40
f 44/93/41 6/94/41 48/65/41
f 48/95/42 49/96/42 22/80/42
f 48/95/43 43/64/43 49/77/43
f 43/97/44 21/98/44 49/77/44
f 31/99/45 47/76/45 21/100/45
f 31/99/46 24/61/46 47/101/46
f 24/102/47 20/82/47 47/101/47
f 23/103/48 46/73/48 20/104/48
f 23/103/49 26/59/49 46/105/49
f 26/106/50 19/86/50 46/105/50
f 25/107/51 45/70/51 19/108/51
f 25/107/52 28/57/52 45/109/52
f 28/110/53 4/90/53 45/109/53
f 27/111/54 44/67/54 4/112/54
f 27/111/55 30/55/55 44/113/55
f 30/114/56 6/94/56 44/113/56
f 29/115/57 43/64/57 6/116/57
f 29/115/58 32/53/58 43/117/58
f 32/118/59 21/98/59 43/117/59
f 24/102/60 23/119/60 20/104/60
f 24/102/61 33/51/61 23/60/61
f 33/120/62 10/121/62 23/60/62
f 26/106/63 25/122/63 19/108/63
f 26/106/64 34/48/64 25/58/64
f 34/123/65 12/124/65 25/58/65
f 28/110/66 27/125/66 4/112/66
f 28/110/67 36/45/67 27/56/67
f 36/126/68 14/127/68 27/56/68
f 30/114/69 29/128/69 6/116/69
f 30/114/70 40/42/70 29/54/70
f 40/129/71 16/130/71 29/54/71
f 32/118/72 31/131/72 21/100/72
f 32/118/73 39/39/73 31/62/73
f 39/132/74 8/133/74 31/62/74
f 42/134/75 40/42/75 14/135/75
f 42/134/76 41/31/76 40/136/76
f 41/137/77 16/130/77 40/136/77
f 39/132/78 38/138/78 8/139/78
f 39/132/79 41/31/79 38/15/79
f 41/137/80 17/140/80 38/15/80
f 37/141/81 36/45/81 12/142/81
f 37/141/82 42/28/82 36/143/82
f 42/134/83 14/127/83 36/143/83
f 35/144/84 34/48/84 10/145/84
f 35/144/85 37/16/85 34/146/85
f 37/141/86 12/124/86 34/146/86
f 38/147/87 33/51/87 8/139/87
f 38/147/88 35/14/88 33/148/88
f 35/144/89 10/121/89 33/148/89
