# Blender v2.79 (sub 0) OBJ File: 'watercress.blend'
# www.blender.org
mtllib watercress.mtl
o Cylinder
v 0.001624 0.000000 -0.000938
v -0.000541 0.000000 0.002812
v -0.000541 0.096638 0.003443
v -0.002706 0.000000 -0.000938
v -0.001401 0.173649 0.001417
v 0.003383 0.200000 -0.024106
v -0.015640 0.184997 0.000710
v -0.015640 0.196557 -0.010026
v 0.014558 0.184997 -0.003375
v 0.000319 0.173649 -0.000076
v -0.004466 0.200000 -0.020459
v 0.014558 0.196557 -0.014111
v -0.015737 0.184785 0.000171
v -0.015737 0.196345 -0.010566
v 0.014460 0.196345 -0.014651
v 0.014460 0.184785 -0.003914
vt 0.217866 0.837943
vt 0.217866 0.837943
vt 0.217866 0.837943
vt 0.217866 0.837943
vt 0.217866 0.837943
vt 0.217866 0.837943
vt 0.217866 0.837943
vt 0.217866 0.837943
vt 0.217866 0.837943
vt 0.217866 0.837943
vt 0.217866 0.837943
vt 0.217866 0.837943
vt 0.217866 0.837943
vt 0.217866 0.837943
vt 0.217866 0.837943
vt 0.217866 0.837943
vn 0.9148 0.0022 0.4039
vn -0.8899 -0.0007 0.4562
vn 0.6553 0.0272 0.7549
vn -0.2396 0.0090 -0.9708
vn 0.0000 -1.0000 0.0000
vn 0.0648 0.9456 0.3188
vn 0.1696 0.1713 0.9705
vn 0.0986 0.6772 0.7291
vn -0.0718 -0.9328 -0.3532
vn -0.1679 -0.2208 -0.9607
vn -0.0986 -0.6772 -0.7291
vn -0.9841 0.1208 0.1300
vn 0.6382 -0.7486 0.1795
vn 0.5701 0.7242 -0.3880
vn -0.5866 -0.7119 0.3861
vn -0.4856 0.8397 -0.2430
vn 0.9841 -0.1208 -0.1300
usemtl None
s off
f 1/1/1 10/2/1 3/3/1 2/4/1
f 2/4/2 3/3/2 5/5/2 4/6/2
f 3/3/3 10/2/3 5/5/3
f 4/6/4 5/5/4 10/2/4 1/1/4
f 1/1/5 2/4/5 4/6/5
f 12/7/6 6/8/6 11/9/6 8/10/6
f 10/2/7 9/11/7 7/12/7 5/5/7
f 9/11/8 12/7/8 8/10/8 7/12/8
f 15/13/9 14/14/9 11/9/9 6/8/9
f 10/2/10 5/5/10 13/15/10 16/16/10
f 16/16/11 13/15/11 14/14/11 15/13/11
f 8/10/12 14/14/12 13/15/12 7/12/12
f 10/2/13 16/16/13 9/11/13
f 12/7/14 15/13/14 6/8/14
f 7/12/15 13/15/15 5/5/15
f 11/9/16 14/14/16 8/10/16
f 9/11/17 16/16/17 15/13/17 12/7/17
