# Blender v2.79 (sub 0) OBJ File: 'anvil.blend'
# www.blender.org
mtllib anvil.mtl
o Cube_Cube.001
v -0.031250 0.000000 -0.050000
v -0.031250 0.100001 -0.100000
v 0.031250 0.000000 -0.050000
v 0.031250 0.100001 -0.100000
v -0.018519 0.045001 0.050000
v -0.031250 0.037501 -0.050000
v 0.031250 0.037501 -0.050000
v 0.018519 0.045001 0.050000
v -0.031250 0.068751 0.050000
v -0.031250 0.068751 -0.062500
v 0.031250 0.068751 -0.062500
v 0.031250 0.068751 0.050000
v -0.018519 0.084376 0.050000
v -0.031250 0.090001 -0.100000
v 0.031250 0.090001 -0.100000
v 0.018519 0.084376 0.050000
v 0.000000 0.037501 0.050000
v 0.000000 0.090001 0.125000
v 0.000000 0.090001 0.050000
v -0.031250 0.000000 0.050000
v -0.031250 0.100001 0.050000
v 0.031250 0.000000 0.050000
v 0.031250 0.100001 0.050000
v 0.000000 -0.200000 0.000000
v 0.017188 0.000000 -0.027500
v -0.017188 0.000000 -0.027500
v -0.017188 0.000000 0.027500
v 0.017188 0.000000 0.027500
vt 0.032348 0.968783
vt 0.032348 0.968783
vt 0.032348 0.968783
vt 0.032348 0.968783
vt 0.032348 0.968783
vt 0.032348 0.968783
vt 0.032348 0.968783
vt 0.032348 0.968783
vt 0.157165 0.967956
vt 0.157165 0.967956
vt 0.157165 0.967956
vt 0.032348 0.968783
vt 0.032348 0.968783
vt 0.095060 0.971592
vt 0.095060 0.971592
vt 0.095060 0.971592
vt 0.032348 0.968783
vt 0.032348 0.968783
vt 0.032348 0.968783
vt 0.157165 0.967956
vt 0.157165 0.967956
vt 0.220642 0.966979
vt 0.220642 0.966979
vt 0.220642 0.966979
vt 0.220642 0.966979
vt 0.095060 0.971592
vt 0.095060 0.971592
vt 0.095060 0.971592
vt 0.095060 0.971592
vt 0.095060 0.971592
vt 0.095060 0.971592
vt 0.032348 0.968783
vt 0.032348 0.968783
vt 0.032348 0.968783
vt 0.157165 0.967956
vt 0.157165 0.967956
vt 0.157165 0.967956
vt 0.157165 0.967956
vt 0.095060 0.971592
vt 0.095060 0.971592
vt 0.032348 0.968783
vt 0.032348 0.968783
vt 0.032348 0.968783
vt 0.032348 0.968783
vn 1.0000 0.0000 0.0000
vn -0.7673 0.6252 0.1426
vn 0.0000 -0.8700 -0.4930
vn 0.0000 -0.1362 -0.9907
vn 0.0000 0.0000 -1.0000
vn 0.7673 0.6252 0.1426
vn 0.0000 -0.3714 -0.9285
vn -0.2906 0.9568 0.0000
vn 0.2906 0.9568 0.0000
vn -0.3149 -0.7776 0.5443
vn 0.3149 -0.7776 0.5443
vn 0.7880 -0.4224 0.4480
vn -0.7880 -0.4224 0.4480
vn -1.0000 -0.0000 0.0000
vn 0.0000 0.0000 1.0000
vn 0.0000 1.0000 0.0000
vn -0.9963 -0.0856 0.0000
vn 0.0000 -0.1362 0.9907
vn 0.9963 -0.0856 0.0000
vn 0.0000 -1.0000 0.0000
usemtl None
s off
f 11/1/1 15/2/1 4/3/1 23/4/1 12/5/1
f 7/6/1 11/1/1 12/5/1 22/7/1 3/8/1
f 18/9/2 13/10/2 9/11/2
f 10/12/3 14/13/3 15/2/3 11/1/3
f 26/14/4 25/15/4 24/16/4
f 14/13/5 2/17/5 4/3/5 15/2/5
f 1/18/5 6/19/5 7/6/5 3/8/5
f 12/20/6 16/21/6 18/9/6
f 6/19/7 10/12/7 11/1/7 7/6/7
f 19/22/8 13/23/8 18/24/8
f 16/25/9 19/22/9 18/24/9
f 17/26/10 18/27/10 5/28/10
f 17/26/11 8/29/11 18/27/11
f 8/29/12 12/30/12 18/27/12
f 9/31/13 5/28/13 18/27/13
f 9/32/14 21/33/14 2/17/14 14/13/14 10/12/14
f 20/34/14 9/32/14 10/12/14 6/19/14 1/18/14
f 12/5/15 23/4/15 21/33/15 9/32/15
f 22/7/15 12/5/15 9/32/15 20/34/15
f 23/35/16 4/36/16 2/37/16 21/38/16
f 27/39/17 26/14/17 24/16/17
f 28/40/18 27/39/18 24/16/18
f 25/15/19 28/40/19 24/16/19
f 3/8/20 22/7/20 28/41/20 25/42/20
f 22/7/20 20/34/20 27/43/20 28/41/20
f 20/34/20 1/18/20 26/44/20 27/43/20
f 1/18/20 3/8/20 25/42/20 26/44/20
