# Blender v2.79 (sub 0) OBJ File: 'axe-iron.blend'
# www.blender.org
mtllib axe-iron.mtl
o Cube_Cube.001
v 0.015688 0.934632 0.046725
v 0.015364 0.899804 0.046613
v 0.000000 0.030042 -0.046562
v 0.000000 0.002671 -0.030356
v -0.003726 0.974124 -0.148828
v -0.003671 0.940686 -0.157163
v 0.019173 0.030042 -0.011578
v 0.018115 0.063432 -0.002142
v 0.014213 0.223511 0.001092
v 0.015660 0.701437 0.000646
v 0.000000 0.063432 -0.031898
v 0.000000 0.223511 -0.023817
v 0.000000 0.701437 -0.031146
v 0.014000 0.002671 -0.010950
v 0.000000 0.002671 0.008457
v 0.003726 0.974124 -0.148828
v 0.003671 0.940686 -0.157163
v 0.000000 0.941078 -0.167163
v 0.000000 0.976565 -0.158828
v 0.021999 0.969460 -0.002481
v 0.014410 0.964235 0.044897
v 0.014716 0.856071 0.022865
v 0.013536 0.870200 0.044596
v 0.000000 0.869080 0.047214
v 0.000000 0.856071 0.032350
v 0.000000 0.934632 0.050896
v 0.000000 0.899804 0.050980
v 0.005234 0.859285 -0.111499
v 0.000000 0.851758 -0.107168
v 0.000000 0.823260 -0.147564
v 0.003560 0.827037 -0.144408
v 0.016331 0.856071 -0.000931
v 0.021938 0.864976 -0.001318
v 0.003615 0.876746 -0.155690
v 0.013814 0.871985 -0.044408
v 0.000000 0.856071 -0.039260
v 0.014457 0.969457 -0.048828
v 0.000000 0.965356 0.046982
v 0.000000 0.030042 0.027714
v 0.000000 0.701437 0.031509
v 0.000000 0.223511 0.030208
v 0.000000 0.063432 0.030459
v 0.000000 0.819218 -0.154408
v 0.000000 0.874784 -0.165690
v -0.016331 0.856071 -0.000931
v -0.021938 0.864976 -0.001318
v -0.013814 0.871985 -0.044408
v -0.013536 0.870200 0.044596
v -0.015364 0.899804 0.046613
v -0.019173 0.030042 -0.011578
v -0.018115 0.063432 -0.002142
v -0.014213 0.223511 0.001092
v -0.015660 0.701437 0.000646
v -0.014000 0.002671 -0.010950
v -0.005234 0.859285 -0.111499
v -0.003615 0.876746 -0.155690
v -0.003560 0.827037 -0.144408
v -0.015688 0.934632 0.046725
v -0.014410 0.964235 0.044897
v -0.021999 0.969460 -0.002481
v -0.014716 0.856071 0.022865
v -0.014457 0.969457 -0.048828
v -0.006907 0.868501 -0.068389
v 0.000000 0.861582 -0.066772
v 0.007229 0.968224 -0.071400
v 0.006907 0.868501 -0.068389
v 0.000000 0.969457 -0.048828
v -0.007229 0.968224 -0.071400
vt 0.156344 0.962918
vt 0.156344 0.962918
vt 0.156344 0.962918
vt 0.156344 0.962918
vt 0.156344 0.962918
vt 0.156344 0.962918
vt 0.156344 0.962918
vt 0.036172 0.654983
vt 0.036172 0.654983
vt 0.036172 0.654983
vt 0.036172 0.654983
vt 0.036172 0.654983
vt 0.036172 0.654983
vt 0.036172 0.654983
vt 0.036172 0.654983
vt 0.036172 0.654983
vt 0.036172 0.654983
vt 0.036172 0.654983
vt 0.036172 0.654983
vt 0.036172 0.654983
vt 0.036172 0.654983
vt 0.036172 0.654983
vt 0.036172 0.654983
vt 0.036172 0.654983
vt 0.036172 0.654983
vt 0.036172 0.654983
vt 0.036172 0.654983
vt 0.036172 0.654983
vt 0.283460 0.969119
vt 0.283460 0.969119
vt 0.283460 0.969119
vt 0.283460 0.969119
vt 0.156344 0.962918
vt 0.156344 0.962918
vt 0.156344 0.962918
vt 0.156344 0.962918
vt 0.156344 0.962918
vt 0.156344 0.962918
vt 0.156344 0.962918
vt 0.156344 0.962918
vt 0.156344 0.962918
vt 0.156344 0.962918
vt 0.156344 0.962918
vt 0.156344 0.962918
vt 0.156344 0.962918
vt 0.156344 0.962918
vt 0.156344 0.962918
vt 0.156344 0.962918
vt 0.156344 0.962918
vt 0.156344 0.962918
vt 0.156344 0.962918
vt 0.156344 0.962918
vt 0.156344 0.962918
vt 0.156344 0.962918
vt 0.156344 0.962918
vt 0.156344 0.962918
vt 0.156344 0.962918
vt 0.156344 0.962918
vt 0.156344 0.962918
vt 0.283460 0.969119
vt 0.283460 0.969119
vt 0.283460 0.969119
vt 0.283460 0.969119
vt 0.156344 0.962918
vt 0.156344 0.962918
vt 0.156344 0.962918
vt 0.156344 0.962918
vt 0.156344 0.962918
vt 0.036172 0.654983
vt 0.036172 0.654983
vt 0.036172 0.654983
vt 0.036172 0.654983
vt 0.156344 0.962918
vt 0.036172 0.654983
vt 0.156344 0.962918
vt 0.156344 0.962918
vt 0.033071 0.654983
vt 0.033071 0.654983
vt 0.033071 0.654983
vt 0.283460 0.969119
vt 0.283460 0.969119
vt 0.283460 0.969119
vt 0.283460 0.969119
vt 0.283460 0.969119
vt 0.156344 0.962918
vt 0.156344 0.962918
vt 0.033071 0.654983
vn 0.9992 -0.0024 -0.0400
vn 0.9992 -0.0045 -0.0385
vn 0.9991 0.0020 -0.0413
vn 0.9991 0.0027 -0.0412
vn -0.8447 -0.2423 0.4773
vn -0.8300 -0.2341 -0.5062
vn 0.8858 0.0065 0.4640
vn -0.8855 -0.0697 0.4593
vn 0.9097 -0.0150 -0.4150
vn -0.8847 -0.0051 -0.4661
vn 0.0000 -1.0000 -0.0000
vn 0.8507 0.1903 -0.4900
vn 0.9385 0.0804 -0.3357
vn 0.2780 -0.7673 0.5779
vn 0.2651 -0.0016 0.9642
vn -0.9769 -0.0108 -0.2135
vn 0.7364 -0.5291 0.4216
vn 0.9321 -0.3259 0.1584
vn -0.9895 -0.0040 0.1444
vn -0.7273 -0.6299 -0.2727
vn 0.2374 -0.0998 0.9663
vn 0.9895 -0.0040 0.1444
vn 0.2060 0.0970 0.9737
vn 0.9491 -0.0665 -0.3080
vn -0.9992 -0.0019 -0.0392
vn -0.9992 -0.0024 -0.0400
vn -0.9991 0.0028 -0.0412
vn -0.9991 0.0020 -0.0413
vn -0.9992 -0.0045 -0.0385
vn 0.8447 -0.2423 0.4773
vn 0.8847 -0.0051 -0.4661
vn 0.8855 -0.0697 0.4593
vn -0.8604 0.0285 -0.5088
vn 0.8944 -0.0311 0.4461
vn 0.8300 -0.2341 -0.5062
vn 0.8604 0.0285 -0.5088
vn -0.9097 -0.0150 -0.4150
vn -0.8507 0.1903 -0.4900
vn -0.8858 0.0065 0.4640
vn 0.8951 -0.0018 0.4458
vn -0.2374 -0.0998 0.9663
vn -0.9321 -0.3259 0.1584
vn -0.8944 -0.0311 0.4461
vn 0.9769 -0.0108 -0.2135
vn -0.2780 -0.7673 0.5779
vn -0.2651 -0.0016 0.9642
vn -0.2060 0.0970 0.9737
vn -0.0948 0.9877 0.1241
vn 0.0948 0.9877 0.1241
vn 0.0000 0.9966 0.0827
vn -0.9491 -0.0665 -0.3080
vn 0.0000 0.9971 0.0760
vn -0.7364 -0.5291 0.4216
vn 0.9398 -0.0081 -0.3417
vn 0.0000 0.9715 0.2371
vn -0.9398 -0.0081 -0.3417
vn -0.9385 0.0804 -0.3357
vn 0.4199 -0.7815 0.4615
vn -0.4199 -0.7815 0.4615
vn -0.7165 -0.6867 -0.1231
vn 0.7165 -0.6867 -0.1231
vn 0.0000 0.9985 -0.0545
vn 0.0000 1.0000 -0.0001
vn -0.7841 -0.6083 0.1230
vn 0.7841 -0.6083 0.1230
vn 0.7273 -0.6299 -0.2727
vn -0.8951 -0.0018 0.4458
usemtl None
s off
f 65/1/1 66/2/1 28/3/2 31/4/1 34/5/3 17/6/4 16/7/1
f 15/8/5 39/9/5 50/10/5 54/11/5
f 4/12/6 54/11/6 50/10/6 3/13/6
f 41/14/7 42/15/7 8/16/7 9/17/7
f 39/9/8 42/15/8 51/18/8 50/10/8
f 13/19/9 36/20/9 32/21/9 10/22/9
f 52/23/10 53/24/10 13/19/10 12/25/10
f 4/12/11 14/26/11 15/8/11 54/11/11
f 8/16/12 7/27/12 3/13/12 11/28/12
f 16/29/13 17/30/13 18/31/13 19/32/13
f 22/33/14 23/34/14 24/35/14 25/36/14
f 2/37/15 1/38/15 26/39/15 27/40/15
f 68/41/16 63/42/16 47/43/16 46/44/16 60/45/16 62/46/16
f 28/3/17 29/47/17 30/48/17 31/4/17
f 32/49/18 33/50/18 23/34/18 22/33/18
f 49/51/19 58/52/19 59/53/19 60/45/19 46/44/19 48/54/19
f 47/43/20 36/55/20 45/56/20 46/44/20
f 23/34/21 2/37/21 27/40/21 24/35/21
f 33/50/22 20/57/22 21/58/22 1/38/22 2/37/22 23/34/22
f 1/38/23 21/58/23 38/59/23 26/39/23
f 34/60/24 31/61/24 43/62/24 44/63/24
f 68/41/25 5/64/26 6/65/27 56/66/28 57/67/26 55/68/29 63/42/26
f 39/9/30 15/8/30 14/26/30 7/27/30
f 13/19/31 10/22/31 9/17/31 12/25/31
f 42/15/32 39/9/32 7/27/32 8/16/32
f 11/28/33 51/18/33 52/23/33 12/25/33
f 22/69/34 25/70/34 40/71/34 10/22/34 32/21/34
f 3/13/35 7/27/35 14/26/35 4/12/35
f 9/17/36 8/16/36 11/28/36 12/25/36
f 53/24/37 45/72/37 36/20/37 13/19/37
f 50/10/38 51/18/38 11/28/38 3/13/38
f 51/18/39 42/15/39 41/14/39 52/23/39
f 10/22/40 40/71/40 41/14/40 9/17/40
f 48/54/41 24/35/41 27/40/41 49/51/41
f 45/56/42 61/73/42 48/54/42 46/44/42
f 53/24/43 40/71/43 25/70/43 61/74/43 45/72/43
f 65/1/44 37/75/44 20/57/44 33/50/44 35/76/44 66/2/44
f 61/73/45 25/36/45 24/35/45 48/54/45
f 49/51/46 27/40/46 26/39/46 58/52/46
f 58/52/47 26/39/47 38/59/47 59/53/47
f 59/53/48 38/59/48 60/45/48
f 21/58/49 20/57/49 38/59/49
f 60/77/50 38/78/50 20/79/50
f 57/80/51 56/81/51 44/63/51 43/62/51
f 68/41/52 65/1/52 16/7/52 5/64/52
f 29/47/53 55/68/53 57/67/53 30/48/53
f 17/30/54 34/60/54 44/63/54 18/31/54
f 5/82/55 16/29/55 19/32/55
f 56/81/56 6/83/56 18/31/56 44/63/56
f 6/83/57 5/82/57 19/32/57 18/31/57
f 43/62/58 31/61/58 30/84/58
f 30/84/59 57/80/59 43/62/59
f 36/55/60 47/43/60 63/42/60 64/85/60
f 35/76/61 36/55/61 64/85/61 66/2/61
f 62/46/62 67/86/62 37/75/62 65/1/62 68/41/62
f 20/57/63 37/75/63 67/86/63
f 62/46/63 60/45/63 67/86/63
f 60/77/63 20/79/63 67/87/63
f 64/85/64 63/42/64 55/68/64 29/47/64
f 66/2/65 64/85/65 29/47/65 28/3/65
f 36/55/66 35/76/66 33/50/66 32/49/66
f 41/14/67 40/71/67 53/24/67 52/23/67
