# Blender v2.79 (sub 0) OBJ File: 'bowl-clay.blend'
# www.blender.org
mtllib bowl-clay.mtl
o Cylinder_Cylinder.001
v -0.000000 0.000001 -0.052500
v 0.000000 0.050001 -0.075000
v 0.037123 0.000001 -0.037123
v 0.053033 0.050001 -0.053033
v 0.052500 0.000001 0.000000
v 0.075000 0.050001 0.000000
v 0.037123 0.000001 0.037123
v 0.053033 0.050001 0.053033
v -0.000000 0.000001 0.052500
v -0.000000 0.050001 0.075000
v -0.037123 0.000001 0.037123
v -0.053033 0.050001 0.053033
v -0.052500 0.000001 -0.000000
v -0.075000 0.050001 -0.000000
v -0.037123 0.000001 -0.037123
v -0.053033 0.050001 -0.053033
v -0.000000 0.025001 -0.067500
v 0.047730 0.025001 -0.047730
v 0.067500 0.025001 0.000000
v 0.047730 0.025001 0.047730
v -0.000000 0.025001 0.067500
v -0.047730 0.025001 0.047730
v -0.067500 0.025001 -0.000000
v -0.047730 0.025001 -0.047730
v 0.047730 0.050001 -0.047730
v -0.000000 0.050001 -0.067500
v 0.067500 0.050001 0.000000
v 0.047730 0.050001 0.047730
v -0.000000 0.050001 0.067500
v -0.047730 0.050001 0.047730
v -0.067500 0.050001 -0.000000
v -0.047730 0.050001 -0.047730
v 0.033411 0.005001 -0.033411
v -0.000000 0.005001 -0.047250
v 0.047250 0.005001 0.000000
v 0.033411 0.005001 0.033411
v -0.000000 0.005001 0.047250
v -0.033411 0.005001 0.033411
v -0.047250 0.005001 -0.000000
v -0.033411 0.005001 -0.033411
vt 0.407721 0.653184
vt 0.407721 0.653184
vt 0.407721 0.653184
vt 0.407721 0.653184
vt 0.407721 0.653184
vt 0.407721 0.653184
vt 0.407721 0.653184
vt 0.407721 0.653184
vt 0.407721 0.653184
vt 0.407721 0.653184
vt 0.407721 0.653184
vt 0.407721 0.653184
vt 0.407721 0.653184
vt 0.407721 0.653184
vt 0.469855 0.655029
vt 0.469855 0.655029
vt 0.469855 0.655029
vt 0.469855 0.655029
vt 0.407721 0.653184
vt 0.407721 0.653184
vt 0.469855 0.655029
vt 0.469855 0.655029
vt 0.469855 0.655029
vt 0.469855 0.655029
vt 0.469855 0.655029
vt 0.469855 0.655029
vt 0.469855 0.655029
vt 0.469855 0.655029
vt 0.407721 0.653184
vt 0.407721 0.653184
vt 0.407721 0.653184
vt 0.407721 0.653184
vt 0.407721 0.653184
vt 0.407721 0.653184
vt 0.407721 0.653184
vt 0.407721 0.653184
vt 0.345586 0.655029
vt 0.345586 0.655029
vt 0.345586 0.655029
vt 0.345586 0.655029
vt 0.469855 0.655029
vt 0.469855 0.655029
vt 0.469855 0.655029
vt 0.469855 0.655029
vt 0.469855 0.655029
vt 0.469855 0.655029
vt 0.469855 0.655029
vt 0.469855 0.655029
vt 0.469855 0.655029
vt 0.469855 0.655029
vt 0.469855 0.655029
vt 0.469855 0.655029
vt 0.282221 0.656260
vt 0.282221 0.656260
vt 0.282221 0.656260
vt 0.282221 0.656260
vt 0.282221 0.656260
vt 0.282221 0.656260
vt 0.282221 0.656260
vt 0.282221 0.656260
vt 0.345586 0.655029
vt 0.345586 0.655029
vt 0.345586 0.655029
vt 0.345586 0.655029
vt 0.345586 0.655029
vt 0.345586 0.655029
vt 0.345586 0.655029
vt 0.345586 0.655029
vt 0.345586 0.655029
vt 0.345586 0.655029
vt 0.345586 0.655029
vt 0.345586 0.655029
vn 0.3688 -0.2671 -0.8903
vn 0.8903 -0.2671 -0.3688
vn 0.8903 -0.2671 0.3688
vn 0.3688 -0.2671 0.8903
vn -0.3688 -0.2671 0.8903
vn -0.8903 -0.2671 0.3688
vn 0.0000 1.0000 0.0000
vn -0.8903 -0.2671 -0.3688
vn -0.3688 -0.2671 -0.8903
vn 0.0000 -1.0000 0.0000
vn -0.3347 -0.4848 -0.8080
vn -0.8080 -0.4848 -0.3347
vn -0.8080 -0.4848 0.3347
vn -0.3347 -0.4848 0.8080
vn 0.3347 -0.4848 0.8080
vn 0.8080 -0.4848 0.3347
vn 0.8080 -0.4848 -0.3347
vn 0.3347 -0.4848 -0.8080
vn -0.3534 0.3839 -0.8531
vn -0.8531 0.3839 0.3534
vn 0.8531 0.3839 0.3534
vn 0.3534 0.3839 -0.8531
vn -0.8531 0.3839 -0.3534
vn -0.3534 0.3839 0.8531
vn 0.3534 0.3839 0.8531
vn 0.8531 0.3839 -0.3534
usemtl None
s off
f 17/1/1 2/2/1 4/3/1 18/4/1
f 18/4/2 4/3/2 6/5/2 19/6/2
f 19/6/3 6/5/3 8/7/3 20/8/3
f 20/8/4 8/7/4 10/9/4 21/10/4
f 21/10/5 10/9/5 12/11/5 22/12/5
f 22/12/6 12/11/6 14/13/6 23/14/6
f 8/15/7 6/16/7 27/17/7 28/18/7
f 23/14/8 14/13/8 16/19/8 24/20/8
f 24/20/9 16/19/9 2/2/9 17/1/9
f 1/21/10 3/22/10 5/23/10 7/24/10 9/25/10 11/26/10 13/27/10 15/28/10
f 15/29/11 24/20/11 17/1/11 1/30/11
f 13/31/12 23/14/12 24/20/12 15/29/12
f 11/32/13 22/12/13 23/14/13 13/31/13
f 9/33/14 21/10/14 22/12/14 11/32/14
f 7/34/15 20/8/15 21/10/15 9/33/15
f 5/35/16 19/6/16 20/8/16 7/34/16
f 3/36/17 18/4/17 19/6/17 5/35/17
f 1/30/18 17/1/18 18/4/18 3/36/18
f 29/37/19 28/38/19 36/39/19 37/40/19
f 14/41/7 12/42/7 30/43/7 31/44/7
f 10/45/7 8/15/7 28/18/7 29/46/7
f 16/47/7 14/41/7 31/44/7 32/48/7
f 6/16/7 4/49/7 25/50/7 27/17/7
f 12/42/7 10/45/7 29/46/7 30/43/7
f 2/51/7 16/47/7 32/48/7 26/52/7
f 4/49/7 2/51/7 26/52/7 25/50/7
f 33/53/7 34/54/7 40/55/7 39/56/7 38/57/7 37/58/7 36/59/7 35/60/7
f 27/61/20 25/62/20 33/63/20 35/64/20
f 32/65/21 31/66/21 39/67/21 40/68/21
f 30/69/22 29/37/22 37/40/22 38/70/22
f 28/38/23 27/61/23 35/64/23 36/39/23
f 25/62/24 26/71/24 34/72/24 33/63/24
f 26/71/25 32/65/25 40/68/25 34/72/25
f 31/66/26 30/69/26 38/70/26 39/67/26
