# Blender v2.79 (sub 0) OBJ File: 'handaxe.blend'
# www.blender.org
mtllib handaxe.mtl
o Icosphere
v 0.039429 -0.007205 -0.072361
v 0.063799 -0.018127 0.027639
v -0.063799 -0.018127 0.027639
v -0.039429 -0.007205 -0.072361
v 0.039429 0.018127 0.072361
v -0.039429 0.018127 0.072361
v 0.037500 -0.034478 0.016246
v 0.023176 -0.019937 -0.042532
v -0.023176 -0.019937 -0.042532
v 0.000000 -0.034478 0.052573
v 0.037500 -0.021309 0.068819
v -0.037500 -0.034478 0.016246
v -0.037500 -0.021309 0.068819
v 0.023176 -0.000000 -0.095106
v -0.023176 -0.000000 -0.095106
v 0.075000 -0.000000 -0.020191
v 0.060676 -0.000000 -0.058779
v 0.023176 -0.000000 0.095106
v -0.023176 -0.000000 0.095106
v -0.060676 -0.000000 -0.058779
v -0.075000 -0.000000 -0.020191
v 0.037500 0.007584 -0.068819
v 0.060676 0.021309 0.026287
v -0.060676 0.021309 0.026287
v -0.037500 0.007584 -0.068819
v 0.037500 0.026069 -0.016246
v -0.000000 0.018851 -0.052573
v 0.023176 0.034478 0.042532
v -0.023176 0.034478 0.042532
v -0.037500 0.026069 -0.016246
vt 0.093971 0.965088
vt 0.093971 0.965088
vt 0.093971 0.965088
vt 0.093971 0.965088
vt 0.093971 0.965088
vt 0.093971 0.965088
vt 0.093971 0.965088
vt 0.093971 0.965088
vt 0.093971 0.965088
vt 0.093971 0.965088
vt 0.093971 0.965088
vt 0.093971 0.965088
vt 0.093971 0.965088
vt 0.093971 0.965088
vt 0.093971 0.965088
vt 0.093971 0.965088
vt 0.093971 0.965088
vt 0.093971 0.965088
vt 0.093971 0.965088
vt 0.093971 0.965088
vt 0.093971 0.965088
vt 0.093971 0.965088
vt 0.093971 0.965088
vt 0.093971 0.965088
vt 0.093971 0.965088
vt 0.093971 0.965088
vt 0.093971 0.965088
vt 0.093971 0.965088
vt 0.093971 0.965088
vt 0.093971 0.965088
vn 0.0000 -0.9350 -0.3546
vn -0.0000 -0.9844 -0.1762
vn 0.4680 -0.8539 -0.2276
vn -0.9030 0.0091 0.4296
vn -0.4680 -0.8539 -0.2276
vn 0.5706 -0.5723 -0.5890
vn -0.5706 -0.5723 -0.5890
vn 0.4161 0.8737 0.2522
vn -0.0000 0.8362 0.5484
vn -0.1384 0.9343 -0.3285
vn -0.5106 0.8283 -0.2306
vn -0.3071 0.9497 -0.0610
vn -0.4161 0.8737 0.2522
vn -0.0000 0.9877 -0.1565
vn 0.3071 0.9497 -0.0610
vn 0.5106 0.8283 -0.2306
vn 0.1384 0.9343 -0.3285
vn -0.4508 0.7617 -0.4654
vn 0.9030 0.0091 0.4296
vn 0.4508 0.7617 -0.4654
vn 0.0000 0.9283 -0.3717
vn -0.4457 -0.8684 0.2175
vn -0.2291 -0.9442 0.2365
vn 0.0000 -0.7768 0.6297
vn 0.2291 -0.9442 0.2365
vn 0.4457 -0.8684 0.2175
usemtl None
s off
f 14/1/1 1/2/1 8/3/1 9/4/1 4/5/1 15/6/1
f 7/7/2 10/8/2 12/9/2 9/4/2 8/3/2
f 8/3/3 1/2/3 17/10/3 16/11/3 2/12/3 7/7/3
f 21/13/4 3/14/4 13/15/4 19/16/4 6/17/4 24/18/4
f 12/9/5 3/14/5 21/13/5 20/19/5 4/5/5 9/4/5
f 1/2/6 14/1/6 17/10/6
f 4/5/7 20/19/7 15/6/7
f 5/20/8 23/21/8 28/22/8
f 18/23/9 5/20/9 28/22/9 29/24/9 6/17/9 19/16/9
f 27/25/10 25/26/10 30/27/10
f 20/19/11 21/13/11 24/18/11 30/27/11 25/26/11
f 30/27/12 24/18/12 29/24/12
f 24/18/13 6/17/13 29/24/13
f 26/28/14 27/25/14 30/27/14 29/24/14 28/22/14
f 28/22/15 23/21/15 26/28/15
f 16/11/16 17/10/16 22/29/16 26/28/16 23/21/16
f 26/28/17 22/29/17 27/25/17
f 15/6/18 20/19/18 25/26/18
f 11/30/19 2/12/19 16/11/19 23/21/19 5/20/19 18/23/19
f 17/10/20 14/1/20 22/29/20
f 14/1/21 15/6/21 25/26/21 27/25/21 22/29/21
f 12/9/22 13/15/22 3/14/22
f 12/9/23 10/8/23 13/15/23
f 10/8/24 11/30/24 18/23/24 19/16/24 13/15/24
f 10/8/25 7/7/25 11/30/25
f 7/7/26 2/12/26 11/30/26
