# Blender v2.79 (sub 0) OBJ File: 'knife-stone.blend'
# www.blender.org
mtllib knife-stone.mtl
o Cube_Cube.001
v -0.009524 0.401238 -0.022302
v -0.018372 0.434942 -0.002616
v -0.025312 0.283017 -0.001495
v -0.020356 0.259205 -0.030519
v -0.012956 0.028035 -0.015709
v -0.013221 0.011792 0.000095
v -0.018833 0.247596 0.027427
v -0.006749 0.020918 0.017529
v -0.011432 0.460948 0.027427
v 0.000000 0.530118 0.007414
v 0.000000 0.416280 -0.047529
v 0.009524 0.401238 -0.022302
v 0.018372 0.434942 -0.002616
v 0.025312 0.283017 -0.001495
v 0.020356 0.259205 -0.030519
v 0.012956 0.028035 -0.015709
v 0.013221 0.011792 0.000095
v 0.000000 0.001441 0.000928
v 0.000000 0.016337 -0.029479
v 0.000000 0.247596 0.037492
v 0.018833 0.247596 0.027427
v 0.006749 0.020918 0.017529
v 0.000000 0.007910 0.024036
v 0.000000 0.222424 -0.059953
v 0.000000 0.501997 0.037492
v 0.011432 0.460948 0.027427
vt 0.093738 0.965072
vt 0.093738 0.965072
vt 0.093738 0.965072
vt 0.093738 0.965072
vt 0.093738 0.965072
vt 0.093738 0.965072
vt 0.093738 0.965072
vt 0.093738 0.965072
vt 0.093738 0.965072
vt 0.093738 0.965072
vt 0.093738 0.965072
vt 0.093738 0.965072
vt 0.093738 0.965072
vt 0.093738 0.965072
vt 0.093738 0.965072
vt 0.093738 0.965072
vt 0.093738 0.965072
vt 0.093738 0.965072
vt 0.093738 0.965072
vt 0.093738 0.965072
vt 0.093738 0.965072
vt 0.093738 0.965072
vt 0.093738 0.965072
vt 0.093738 0.965072
vt 0.093738 0.965072
vt 0.093738 0.965072
vn 0.0000 0.9744 -0.2247
vn 0.0000 0.2574 -0.9663
vn -0.9043 0.0892 -0.4175
vn -0.9857 0.1187 -0.1198
vn -0.9993 0.0279 -0.0234
vn -0.9352 0.0071 -0.3541
vn -0.9093 -0.2096 -0.3595
vn -0.9006 -0.4339 -0.0238
vn 0.0000 -0.0281 0.9996
vn -0.8221 -0.0291 0.5687
vn -0.8140 -0.2033 0.5440
vn 0.0000 -0.6219 0.7831
vn 0.0000 0.6013 0.7990
vn -0.8617 0.0976 0.4980
vn 0.0000 -0.0738 -0.9973
vn 0.0000 -0.5858 -0.8104
vn 0.0000 -0.9999 -0.0124
vn 0.9857 0.1187 -0.1198
vn 0.9043 0.0892 -0.4175
vn 0.9993 0.0279 -0.0234
vn 0.9006 -0.4339 -0.0238
vn 0.9093 -0.2096 -0.3595
vn 0.9352 0.0071 -0.3541
vn 0.8140 -0.2033 0.5440
vn 0.8221 -0.0291 0.5687
vn 0.8617 0.0976 0.4980
usemtl None
s 1
f 10/1/1 11/2/2 1/3/3 2/4/4
f 3/5/5 4/6/6 5/7/7 6/8/8
f 20/9/9 7/10/10 8/11/11 23/12/12
f 25/13/13 9/14/14 7/10/10 20/9/9
f 2/4/4 1/3/3 4/6/6 3/5/5
f 1/3/3 11/2/2 24/15/15 4/6/6
f 4/6/6 24/15/15 19/16/16 5/7/7
f 6/8/8 5/7/7 19/16/16 18/17/17
f 8/11/11 6/8/8 18/17/17 23/12/12
f 9/14/14 2/4/4 3/5/5 7/10/10
f 7/10/10 3/5/5 6/8/8 8/11/11
f 25/13/13 10/1/1 2/4/4 9/14/14
f 10/1/1 13/18/18 12/19/19 11/2/2
f 14/20/20 17/21/21 16/22/22 15/23/23
f 20/9/9 23/12/12 22/24/24 21/25/25
f 25/13/13 20/9/9 21/25/25 26/26/26
f 13/18/18 14/20/20 15/23/23 12/19/19
f 12/19/19 15/23/23 24/15/15 11/2/2
f 15/23/23 16/22/22 19/16/16 24/15/15
f 17/21/21 18/17/17 19/16/16 16/22/22
f 22/24/24 23/12/12 18/17/17 17/21/21
f 26/26/26 21/25/25 14/20/20 13/18/18
f 21/25/25 22/24/24 17/21/21 14/20/20
f 25/13/13 26/26/26 13/18/18 10/1/1
