# Blender v2.79 (sub 0) OBJ File: 'plate-clay.blend'
# www.blender.org
mtllib plate-clay.mtl
o Cylinder_Cylinder.001
v 0.000000 0.000001 -0.105000
v 0.000000 0.017049 -0.146488
v 0.074246 0.000001 -0.074246
v 0.103583 0.017049 -0.103583
v 0.105000 0.000001 0.000000
v 0.146488 0.017049 0.000000
v 0.074246 0.000001 0.074246
v 0.103583 0.017049 0.103583
v -0.000000 0.000001 0.105000
v -0.000000 0.017049 0.146488
v -0.074246 0.000001 0.074246
v -0.103583 0.017049 0.103583
v -0.105000 0.000001 -0.000000
v -0.146488 0.017049 -0.000000
v -0.074246 0.000001 -0.074246
v -0.103583 0.017049 -0.103583
v 0.102658 0.020001 -0.102658
v 0.000000 0.020001 -0.145180
v 0.145180 0.020001 0.000000
v 0.102658 0.020001 0.102658
v -0.000000 0.020001 0.145180
v -0.102658 0.020001 0.102658
v -0.145180 0.020001 -0.000000
v -0.102658 0.020001 -0.102658
v 0.066822 0.002001 -0.066822
v 0.000000 0.002001 -0.094500
v 0.094500 0.002001 0.000000
v 0.066822 0.002001 0.066822
v -0.000000 0.002001 0.094500
v -0.066822 0.002001 0.066822
v -0.094500 0.002001 -0.000000
v -0.066822 0.002001 -0.066822
vt 0.407106 0.654107
vt 0.407106 0.654107
vt 0.407106 0.654107
vt 0.407106 0.654107
vt 0.407106 0.654107
vt 0.407106 0.654107
vt 0.407106 0.654107
vt 0.407106 0.654107
vt 0.407106 0.654107
vt 0.407106 0.654107
vt 0.407106 0.654107
vt 0.407106 0.654107
vt 0.469913 0.655029
vt 0.469913 0.655029
vt 0.469913 0.655029
vt 0.469913 0.655029
vt 0.407106 0.654107
vt 0.407106 0.654107
vt 0.407106 0.654107
vt 0.407106 0.654107
vt 0.469913 0.655029
vt 0.469913 0.655029
vt 0.469913 0.655029
vt 0.469913 0.655029
vt 0.469913 0.655029
vt 0.469913 0.655029
vt 0.469913 0.655029
vt 0.469913 0.655029
vt 0.407106 0.654107
vt 0.407106 0.654107
vt 0.407106 0.654107
vt 0.407106 0.654107
vt 0.469913 0.655029
vt 0.469913 0.655029
vt 0.469913 0.655029
vt 0.469913 0.655029
vt 0.469913 0.655029
vt 0.469913 0.655029
vt 0.469913 0.655029
vt 0.469913 0.655029
vt 0.469913 0.655029
vt 0.469913 0.655029
vt 0.469913 0.655029
vt 0.469913 0.655029
vt 0.469913 0.655029
vt 0.469913 0.655029
vt 0.469913 0.655029
vt 0.469913 0.655029
vt 0.469913 0.655029
vt 0.469913 0.655029
vt 0.469913 0.655029
vt 0.469913 0.655029
vt 0.407106 0.654107
vt 0.407106 0.654107
vt 0.407106 0.654107
vt 0.407106 0.654107
vt 0.407106 0.654107
vt 0.407106 0.654107
vt 0.407106 0.654107
vt 0.407106 0.654107
vt 0.407106 0.654107
vt 0.407106 0.654107
vt 0.407106 0.654107
vt 0.407106 0.654107
vn 0.1555 -0.9137 -0.3754
vn 0.3754 -0.9137 -0.1555
vn 0.3754 -0.9137 0.1555
vn 0.1555 -0.9137 0.3754
vn -0.1555 -0.9137 0.3754
vn 0.8550 0.3789 0.3541
vn -0.3754 -0.9137 0.1555
vn -0.3754 -0.9137 -0.1555
vn 0.0000 -1.0000 -0.0000
vn -0.1373 0.9334 -0.3315
vn -0.8550 0.3789 0.3541
vn 0.3541 0.3789 0.8550
vn -0.8550 0.3789 -0.3541
vn 0.8550 0.3789 -0.3541
vn -0.3541 0.3789 0.8550
vn -0.3541 0.3789 -0.8550
vn 0.3541 0.3789 -0.8550
vn 0.0000 1.0000 -0.0000
vn -0.3315 0.9334 0.1373
vn 0.3315 0.9334 0.1373
vn 0.1373 0.9334 -0.3315
vn -0.3315 0.9334 -0.1373
vn -0.1373 0.9334 0.3315
vn 0.1373 0.9334 0.3315
vn 0.3315 0.9334 -0.1373
vn -0.1555 -0.9137 -0.3754
usemtl None
s off
f 1/1/1 2/2/1 4/3/1 3/4/1
f 3/4/2 4/3/2 6/5/2 5/6/2
f 5/6/3 6/5/3 8/7/3 7/8/3
f 7/8/4 8/7/4 10/9/4 9/10/4
f 9/10/5 10/9/5 12/11/5 11/12/5
f 8/13/6 6/14/6 19/15/6 20/16/6
f 11/12/7 12/11/7 14/17/7 13/18/7
f 13/18/8 14/17/8 16/19/8 15/20/8
f 1/21/9 3/22/9 5/23/9 7/24/9 9/25/9 11/26/9 13/27/9 15/28/9
f 21/29/10 20/30/10 28/31/10 29/32/10
f 14/33/11 12/34/11 22/35/11 23/36/11
f 10/37/12 8/13/12 20/16/12 21/38/12
f 16/39/13 14/33/13 23/36/13 24/40/13
f 6/14/14 4/41/14 17/42/14 19/15/14
f 12/34/15 10/37/15 21/38/15 22/35/15
f 2/43/16 16/39/16 24/40/16 18/44/16
f 4/41/17 2/43/17 18/44/17 17/42/17
f 25/45/18 26/46/18 32/47/18 31/48/18 30/49/18 29/50/18 28/51/18 27/52/18
f 19/53/19 17/54/19 25/55/19 27/56/19
f 24/57/20 23/58/20 31/59/20 32/60/20
f 22/61/21 21/29/21 29/32/21 30/62/21
f 20/30/22 19/53/22 27/56/22 28/31/22
f 17/54/23 18/63/23 26/64/23 25/55/23
f 18/63/24 24/57/24 32/60/24 26/64/24
f 23/58/25 22/61/25 30/62/25 31/59/25
f 15/20/26 16/19/26 2/2/26 1/1/26
