# Blender v2.79 (sub 0) OBJ File: 'torch.blend'
# www.blender.org
mtllib torch.mtl
o Cylinder
v -0.000000 0.000000 -0.018750
v -0.000000 0.396086 -0.020186
v 0.017832 0.000000 -0.005794
v 0.019198 0.396086 -0.006238
v 0.011021 0.000000 0.015169
v 0.011865 0.396086 0.016331
v -0.011021 0.000000 0.015169
v -0.011865 0.396086 0.016331
v -0.017832 0.000000 -0.005794
v -0.019198 0.396086 -0.006238
v -0.000000 0.320775 -0.021725
v 0.020661 0.320775 -0.006713
v 0.012769 0.320775 0.017576
v -0.012769 0.320775 0.017576
v -0.020661 0.320775 -0.006713
v -0.000000 0.332845 -0.025009
v 0.023785 0.332845 -0.007728
v 0.014700 0.332845 0.020233
v -0.014700 0.332845 0.020233
v -0.023785 0.332845 -0.007728
v -0.000000 0.381875 -0.025760
v 0.024499 0.381875 -0.007960
v 0.015141 0.381875 0.020840
v -0.015141 0.381875 0.020840
v -0.024499 0.381875 -0.007960
vt 0.030880 0.970035
vt 0.030880 0.970035
vt 0.030880 0.970035
vt 0.030880 0.970035
vt 0.030880 0.970035
vt 0.030880 0.970035
vt 0.030880 0.970035
vt 0.030880 0.970035
vt 0.030880 0.970035
vt 0.030880 0.970035
vt 0.029196 0.655029
vt 0.029196 0.655029
vt 0.029196 0.655029
vt 0.029196 0.655029
vt 0.029196 0.655029
vt 0.029196 0.655029
vt 0.029196 0.655029
vt 0.029196 0.655029
vt 0.029196 0.655029
vt 0.029196 0.655029
vt 0.030880 0.970035
vt 0.030880 0.970035
vt 0.030880 0.970035
vt 0.030880 0.970035
vt 0.030880 0.970035
vt 0.030880 0.970035
vt 0.030880 0.970035
vt 0.030880 0.970035
vt 0.030880 0.970035
vt 0.030880 0.970035
vn 0.5603 0.3024 -0.7711
vn 0.9065 0.3024 0.2945
vn -0.0000 0.3024 0.9532
vn 0.0000 1.0000 -0.0000
vn -0.9065 0.3024 0.2945
vn -0.5603 0.3024 -0.7711
vn 0.0000 -1.0000 0.0000
vn -0.5878 -0.0075 -0.8090
vn -0.9510 -0.0075 0.3090
vn -0.0000 -0.0075 1.0000
vn 0.9510 -0.0075 0.3090
vn 0.5878 -0.0075 -0.8090
vn -0.5740 -0.2150 -0.7901
vn -0.9288 -0.2150 0.3018
vn 0.0000 -0.2150 0.9766
vn 0.9288 -0.2150 0.3018
vn 0.5740 -0.2150 -0.7901
vn -0.5877 -0.0124 -0.8090
vn -0.9510 -0.0124 0.3090
vn -0.0000 -0.0124 0.9999
vn 0.9510 -0.0124 0.3090
vn 0.5877 -0.0124 -0.8090
usemtl None
s off
f 21/1/1 2/2/1 4/3/1 22/4/1
f 22/4/2 4/3/2 6/5/2 23/6/2
f 23/6/3 6/5/3 8/7/3 24/8/3
f 4/3/4 2/2/4 10/9/4 8/7/4 6/5/4
f 24/8/5 8/7/5 10/9/5 25/10/5
f 25/10/6 10/9/6 2/2/6 21/1/6
f 1/11/7 3/12/7 5/13/7 7/14/7 9/15/7
f 9/15/8 15/16/8 11/17/8 1/11/8
f 7/14/9 14/18/9 15/16/9 9/15/9
f 5/13/10 13/19/10 14/18/10 7/14/10
f 3/12/11 12/20/11 13/19/11 5/13/11
f 1/11/12 11/17/12 12/20/12 3/12/12
f 15/21/13 20/22/13 16/23/13 11/24/13
f 14/25/14 19/26/14 20/22/14 15/21/14
f 13/27/15 18/28/15 19/26/15 14/25/15
f 12/29/16 17/30/16 18/28/16 13/27/16
f 11/24/17 16/23/17 17/30/17 12/29/17
f 20/22/18 25/10/18 21/1/18 16/23/18
f 19/26/19 24/8/19 25/10/19 20/22/19
f 18/28/20 23/6/20 24/8/20 19/26/20
f 17/30/21 22/4/21 23/6/21 18/28/21
f 16/23/22 21/1/22 22/4/22 17/30/22
