# Blender v2.79 (sub 0) OBJ File: 'carrot.blend'
# www.blender.org
mtllib carrot.mtl
o Cylinder
v -0.000000 0.000000 0.000000
v -0.000000 0.100000 -0.005000
v 0.004755 0.100000 -0.001545
v 0.002939 0.100000 0.004045
v -0.002939 0.100000 0.004045
v -0.004755 0.100000 -0.001545
v 0.000000 0.090000 -0.010000
v 0.009511 0.090000 -0.003090
v 0.005878 0.090000 0.008090
v -0.005878 0.090000 0.008090
v -0.009511 0.090000 -0.003090
v -0.000000 0.100000 -0.000500
v 0.000476 0.100000 -0.000155
v 0.000294 0.100000 0.000405
v -0.000294 0.100000 0.000405
v -0.000476 0.100000 -0.000155
v -0.000000 0.120000 -0.001500
v 0.001427 0.120000 -0.000464
v 0.000882 0.120000 0.001214
v -0.000882 0.120000 0.001214
v -0.001427 0.120000 -0.000464
v -0.002425 0.127328 0.003337
v -0.003923 0.140000 -0.001275
v 0.003923 0.124068 -0.001275
v 0.002425 0.140000 0.003337
v -0.000000 0.134569 -0.004125
vt 0.652588 0.591444
vt 0.652588 0.591444
vt 0.652588 0.591444
vt 0.652588 0.591444
vt 0.652588 0.591444
vt 0.652588 0.591444
vt 0.652588 0.591444
vt 0.652588 0.591444
vt 0.652588 0.591444
vt 0.652588 0.591444
vt 0.652588 0.591444
vt 0.652588 0.591444
vt 0.652588 0.591444
vt 0.033486 0.846941
vt 0.033486 0.846941
vt 0.033486 0.846941
vt 0.033486 0.846941
vt 0.652588 0.591444
vt 0.652588 0.591444
vt 0.652588 0.591444
vt 0.033486 0.846941
vt 0.033486 0.846941
vt 0.033486 0.846941
vt 0.033486 0.846941
vt 0.033486 0.846941
vt 0.033486 0.846941
vt 0.033486 0.846941
vt 0.033486 0.846941
vt 0.033486 0.846941
vt 0.033486 0.846941
vt 0.033486 0.846941
vn 0.5449 0.3750 -0.7500
vn 0.8817 0.3750 0.2865
vn -0.0000 0.3750 0.9270
vn 0.0000 1.0000 0.0000
vn -0.8817 0.3750 0.2865
vn -0.5449 0.3750 -0.7500
vn -0.5854 -0.0895 -0.8058
vn -0.9472 -0.0895 0.3078
vn -0.0000 -0.0895 0.9960
vn 0.9472 -0.0895 0.3078
vn 0.5854 -0.0895 -0.8058
vn 0.9888 0.1473 -0.0244
vn -0.7446 0.1603 -0.6480
vn 0.6611 0.1213 0.7404
vn -0.2823 0.1473 -0.9479
vn -0.2712 0.2095 0.9394
vn 0.4216 -0.0977 -0.9015
vn 0.1983 -0.0851 0.9765
vn -0.6474 -0.0782 -0.7582
vn 0.8353 -0.0881 0.5428
vn -0.9899 -0.0851 0.1132
usemtl None
s off
f 7/1/1 2/2/1 3/3/1 8/4/1
f 8/4/2 3/3/2 4/5/2 9/6/2
f 9/6/3 4/5/3 5/7/3 10/8/3
f 6/9/4 5/7/4 15/10/4 16/11/4
f 10/8/5 5/7/5 6/9/5 11/12/5
f 11/12/6 6/9/6 2/2/6 7/1/6
f 1/13/7 11/12/7 7/1/7
f 1/13/8 10/8/8 11/12/8
f 1/13/9 9/6/9 10/8/9
f 1/13/10 8/4/10 9/6/10
f 1/13/11 7/1/11 8/4/11
f 23/14/12 22/15/12 20/16/12 21/17/12
f 4/5/4 3/3/4 13/18/4 14/19/4
f 3/3/4 2/2/4 12/20/4 13/18/4
f 2/2/4 6/9/4 16/11/4 12/20/4
f 5/7/4 4/5/4 14/19/4 15/10/4
f 18/21/4 17/22/4 21/17/4 20/16/4 19/23/4
f 25/24/13 24/25/13 18/21/13 19/23/13
f 26/26/14 23/14/14 21/17/14 17/22/14
f 22/15/15 25/24/15 19/23/15 20/16/15
f 24/25/16 26/26/16 17/22/16 18/21/16
f 13/27/17 12/28/17 26/26/17 24/25/17
f 15/29/18 14/30/18 25/24/18 22/15/18
f 12/28/19 16/31/19 23/14/19 26/26/19
f 14/30/20 13/27/20 24/25/20 25/24/20
f 16/31/21 15/29/21 22/15/21 23/14/21
