# Blender v2.79 (sub 0) OBJ File: 'greenonion.blend'
# www.blender.org
mtllib greenonion.mtl
o Cylinder
v 0.000000 0.000000 -0.004000
v -0.000000 0.200000 -0.001000
v 0.003464 0.000000 0.002000
v 0.000866 0.200000 0.000500
v -0.003464 0.000000 0.002000
v -0.000866 0.200000 0.000500
v -0.004912 0.066667 -0.003000
v -0.004912 0.133333 -0.002000
v -0.003180 0.133333 0.001000
v -0.002314 0.066667 0.001500
v -0.006644 0.133333 0.001000
v -0.007510 0.066667 0.001500
vt 0.342510 0.844510
vt 0.342510 0.844510
vt 0.342510 0.844510
vt 0.342510 0.844510
vt 0.342510 0.844510
vt 0.342510 0.844510
vt 0.468010 0.839588
vt 0.468010 0.839588
vt 0.468010 0.839588
vt 0.468010 0.839588
vt 0.468010 0.839588
vt 0.408951 0.839588
vt 0.408951 0.839588
vt 0.408951 0.839588
vt 0.408951 0.839588
vt 0.468010 0.839588
vt 0.408951 0.839588
vt 0.408951 0.839588
vn 0.8647 -0.0562 -0.4992
vn -0.0000 0.0075 1.0000
vn 0.0000 1.0000 0.0000
vn -0.8638 0.0711 -0.4987
vn 0.0000 -1.0000 0.0000
vn -0.8647 -0.0562 -0.4992
vn -0.8660 0.0075 -0.5000
vn 0.8638 0.0711 -0.4987
vn 0.8660 0.0075 -0.5000
usemtl None
s off
f 8/1/1 2/2/1 4/3/1 9/4/1
f 9/4/2 4/3/2 6/5/2 11/6/2
f 4/3/3 2/2/3 6/5/3
f 11/6/4 6/5/4 2/2/4 8/1/4
f 1/7/5 3/8/5 5/9/5
f 5/9/6 12/10/6 7/11/6 1/7/6
f 12/12/7 11/13/7 8/14/7 7/15/7
f 3/8/2 10/16/2 12/10/2 5/9/2
f 10/17/2 9/18/2 11/13/2 12/12/2
f 1/7/8 7/11/8 10/16/8 3/8/8
f 7/15/9 8/14/9 9/18/9 10/17/9
