# Blender v2.79 (sub 0) OBJ File: 'raspberry.blend'
# www.blender.org
mtllib raspberry.mtl
o Sphere
v -0.000000 0.031941 -0.014142
v -0.000000 0.020662 -0.020000
v -0.000000 0.004686 -0.010739
v 0.013450 0.031941 -0.004370
v 0.019021 0.020662 -0.006180
v 0.010214 0.004686 -0.003319
v 0.008313 0.031941 0.011441
v 0.011756 0.020662 0.016180
v 0.006312 0.004686 0.008688
v -0.000000 0.000238 0.000000
v -0.000000 0.035270 0.000000
v -0.008313 0.031941 0.011441
v -0.011756 0.020662 0.016180
v -0.006312 0.004686 0.008688
v -0.013450 0.031941 -0.004370
v -0.019021 0.020662 -0.006180
v -0.010214 0.004686 -0.003319
vt 0.091510 0.903568
vt 0.091510 0.903568
vt 0.091510 0.903568
vt 0.091510 0.903568
vt 0.091510 0.903568
vt 0.091510 0.903568
vt 0.091510 0.903568
vt 0.091510 0.903568
vt 0.091510 0.903568
vt 0.091510 0.903568
vt 0.091510 0.903568
vt 0.091510 0.903568
vt 0.091510 0.903568
vt 0.091510 0.903568
vt 0.091510 0.903568
vt 0.091510 0.903568
vt 0.091510 0.903568
vn 0.5419 0.3874 -0.7458
vn 0.5322 -0.4246 -0.7325
vn 0.1642 0.9602 -0.2260
vn 0.2679 -0.8901 -0.3687
vn 0.8611 -0.4246 0.2798
vn 0.2657 0.9602 0.0863
vn 0.4334 -0.8901 0.1408
vn 0.8768 0.3874 0.2849
vn -0.0000 -0.4246 0.9054
vn -0.0000 0.9602 0.2794
vn -0.0000 -0.8901 0.4557
vn -0.0000 0.3874 0.9219
vn -0.8768 0.3874 0.2849
vn -0.8611 -0.4246 0.2798
vn -0.2657 0.9602 0.0863
vn -0.4334 -0.8901 0.1408
vn -0.2679 -0.8901 -0.3687
vn -0.5419 0.3874 -0.7458
vn -0.5322 -0.4246 -0.7325
vn -0.1642 0.9602 -0.2260
usemtl None
s off
f 2/1/1 1/2/1 4/3/1 5/4/1
f 3/5/2 2/1/2 5/4/2 6/6/2
f 1/2/3 11/7/3 4/3/3
f 10/8/4 3/5/4 6/6/4
f 6/6/5 5/4/5 8/9/5 9/10/5
f 4/3/6 11/7/6 7/11/6
f 10/8/7 6/6/7 9/10/7
f 5/4/8 4/3/8 7/11/8 8/9/8
f 9/10/9 8/9/9 13/12/9 14/13/9
f 7/11/10 11/7/10 12/14/10
f 10/8/11 9/10/11 14/13/11
f 8/9/12 7/11/12 12/14/12 13/12/12
f 13/12/13 12/14/13 15/15/13 16/16/13
f 14/13/14 13/12/14 16/16/14 17/17/14
f 12/14/15 11/7/15 15/15/15
f 10/8/16 14/13/16 17/17/16
f 10/8/17 17/17/17 3/5/17
f 16/16/18 15/15/18 1/2/18 2/1/18
f 17/17/19 16/16/19 2/1/19 3/5/19
f 15/15/20 11/7/20 1/2/20
