# Blender v2.79 (sub 0) OBJ File: 'arrow-iron.blend'
# www.blender.org
mtllib arrow-iron.mtl
o Cylinder
v -0.000000 0.571913 -0.006509
v -0.000000 0.610000 -0.000000
v 0.012877 0.563049 0.000000
v -0.000000 0.571913 0.006509
v -0.012877 0.563049 -0.000000
v -0.000016 -0.000002 -0.004500
v -0.000016 0.574998 -0.005063
v 0.004264 -0.000002 -0.001391
v 0.004799 0.574998 -0.001564
v 0.002629 -0.000002 0.003641
v 0.002960 0.574998 0.004096
v -0.002661 -0.000002 0.003641
v -0.002991 0.574998 0.004096
v -0.004296 -0.000002 -0.001391
v -0.004831 0.574998 -0.001564
v -0.003254 0.057676 0.000000
v -0.000000 0.086958 -0.000000
v 0.000000 0.040008 -0.012877
v 0.003254 0.057676 0.000000
v 0.000000 0.040008 0.012877
v -0.003254 0.009165 0.000000
v -0.000000 0.000301 -0.012877
v 0.003254 0.009165 0.000000
v 0.000000 0.000301 0.012877
v -0.000016 0.532179 -0.005021
v 0.004759 0.532179 -0.001551
v 0.002935 0.532179 0.004062
v -0.002967 0.532179 0.004062
v -0.004791 0.532179 -0.001551
vt 0.279440 0.968053
vt 0.279440 0.968053
vt 0.279440 0.968053
vt 0.279440 0.968053
vt 0.279440 0.968053
vt 0.218101 0.967268
vt 0.218101 0.967268
vt 0.218101 0.967268
vt 0.218101 0.967268
vt 0.218101 0.967268
vt 0.218101 0.967268
vt 0.218101 0.967268
vt 0.031841 0.658120
vt 0.031841 0.658120
vt 0.031841 0.658120
vt 0.031841 0.658120
vt 0.031841 0.658120
vt 0.218101 0.967268
vt 0.218101 0.967268
vt 0.218101 0.967268
vt 0.468010 0.965088
vt 0.468010 0.965088
vt 0.468010 0.965088
vt 0.468010 0.965088
vt 0.468010 0.965088
vt 0.468010 0.965088
vt 0.468010 0.965088
vt 0.468010 0.965088
vt 0.468010 0.965088
vt 0.031841 0.658120
vt 0.031841 0.658120
vt 0.031841 0.658120
vt 0.031841 0.658120
vt 0.031841 0.658120
vn 0.5234 0.1435 -0.8399
vn 0.5234 0.1435 0.8399
vn -0.5234 0.1435 0.8399
vn -0.5234 0.1435 -0.8399
vn 0.0000 -1.0000 0.0000
vn -0.5878 -0.0008 -0.8090
vn 0.0000 1.0000 -0.0000
vn -0.9511 -0.0008 0.3090
vn -0.0000 -0.0008 1.0000
vn 0.9511 -0.0008 0.3090
vn 0.5878 -0.0008 -0.8090
vn -0.9219 0.1025 -0.3736
vn 0.9219 0.1025 -0.3736
vn 0.9219 0.1025 0.3736
vn -0.9219 0.1025 0.3736
vn 0.9695 0.0000 0.2450
vn -0.9695 0.0000 0.2450
vn 0.9695 -0.0000 -0.2450
vn -0.9695 0.0000 -0.2450
usemtl None
s off
f 1/1/1 2/2/1 3/3/1
f 3/3/2 2/2/2 4/4/2
f 4/4/3 2/2/3 5/5/3
f 5/5/4 2/2/4 1/1/4
f 1/1/5 3/3/5 4/4/5 5/5/5
f 29/6/6 15/7/6 7/8/6 25/9/6
f 9/10/7 7/8/7 15/7/7 13/11/7 11/12/7
f 6/13/5 8/14/5 10/15/5 12/16/5 14/17/5
f 28/18/8 13/11/8 15/7/8 29/6/8
f 27/19/9 11/12/9 13/11/9 28/18/9
f 26/20/10 9/10/10 11/12/10 27/19/10
f 25/9/11 7/8/11 9/10/11 26/20/11
f 16/21/12 17/22/12 18/23/12
f 18/23/13 17/22/13 19/24/13
f 19/24/14 17/22/14 20/25/14
f 20/25/15 17/22/15 16/21/15
f 19/24/16 20/25/16 24/26/16 23/27/16
f 21/28/5 22/29/5 23/27/5 24/26/5
f 20/25/17 16/21/17 21/28/17 24/26/17
f 18/23/18 19/24/18 23/27/18 22/29/18
f 16/21/19 18/23/19 22/29/19 21/28/19
f 6/13/11 25/30/11 26/31/11 8/14/11
f 8/14/10 26/31/10 27/32/10 10/15/10
f 10/15/9 27/32/9 28/33/9 12/16/9
f 12/16/8 28/33/8 29/34/8 14/17/8
f 14/17/6 29/34/6 25/30/6 6/13/6
