# Blender v2.79 (sub 0) OBJ File: 'pulse-cannon.blend'
# www.blender.org
mtllib pulse-cannon.mtl
o Cylinder
v 0.050000 -0.060000 0.300002
v -0.050000 -0.060000 0.300002
v 0.050000 -0.060000 -0.149998
v -0.050000 -0.060000 -0.149998
v 0.050000 0.060000 0.300002
v -0.050000 0.060000 0.300002
v 0.050000 0.060000 -0.149998
v -0.050000 0.060000 -0.149998
v -0.000526 0.022810 0.429630
v -0.000526 0.022810 -0.544861
v -0.020011 0.011560 0.429630
v -0.020012 0.011560 -0.544861
v -0.020011 -0.010940 0.429630
v -0.020012 -0.010940 -0.544861
v -0.000526 -0.022190 0.429630
v -0.000526 -0.022190 -0.544861
v 0.018960 -0.010940 0.429630
v 0.018959 -0.010940 -0.544861
v 0.018960 0.011560 0.429630
v 0.018959 0.011560 -0.544861
v -0.000526 0.022810 -0.195370
v -0.020012 0.011560 -0.195370
v -0.020012 -0.010940 -0.195370
v -0.000526 -0.022190 -0.195370
v 0.018960 -0.010940 -0.195370
v 0.018960 0.011560 -0.195370
v -0.039497 0.022810 -0.165187
v -0.039497 -0.022190 -0.165187
v -0.000526 -0.044690 -0.165187
v 0.038445 -0.022190 -0.165187
v 0.038445 0.022810 -0.165187
v -0.000526 0.045310 -0.165187
v -0.039497 0.022810 0.369630
v -0.039497 -0.022190 0.369630
v -0.000526 -0.044690 0.369630
v 0.038445 -0.022190 0.369630
v 0.038445 0.022810 0.369630
v -0.000526 0.045310 0.369630
v 0.012500 0.120354 0.295440
v -0.012500 0.120354 0.295440
v -0.050000 0.060000 0.200002
v -0.050000 0.060000 -0.008337
v 0.050000 0.060000 0.200002
v 0.050000 0.060000 -0.008337
v -0.012500 0.124412 0.273719
v 0.012500 0.124412 0.273719
v 0.012500 0.080000 -0.118512
v 0.012500 0.104412 0.302880
v -0.012500 0.104412 0.302880
v -0.012500 0.080000 -0.118512
v -0.000000 0.080000 -0.008337
v 0.000000 0.104412 0.273719
v 0.012644 0.070146 0.302880
v -0.012644 0.070146 0.302880
v 0.000000 0.070146 0.276595
v -0.012572 0.087279 0.305044
v 0.000000 0.087279 0.279485
v 0.012572 0.087279 0.305044
v 0.006250 0.126684 0.291003
v -0.006250 0.126684 0.291003
v -0.006250 0.128713 0.280142
v 0.006250 0.128713 0.280142
v -0.050000 -0.060000 -0.008338
v -0.100000 0.030000 -0.008337
v -0.100000 -0.030000 -0.008338
v -0.062500 0.030000 -0.008337
v -0.062500 -0.030000 -0.008338
v -0.087500 0.030000 -0.008337
v -0.087500 -0.030000 -0.008338
v -0.062500 0.030000 -0.033337
v -0.062500 -0.030000 -0.033338
v -0.087500 0.030000 -0.033337
v -0.087500 -0.030000 -0.033338
vt 0.034005 0.969232
vt 0.034005 0.969232
vt 0.034005 0.969232
vt 0.034005 0.969232
vt 0.034005 0.969232
vt 0.034005 0.969232
vt 0.034005 0.969232
vt 0.034005 0.969232
vt 0.091308 0.966942
vt 0.091308 0.966942
vt 0.091308 0.966942
vt 0.091308 0.966942
vt 0.091308 0.966942
vt 0.091308 0.966942
vt 0.091308 0.966942
vt 0.091308 0.966942
vt 0.091308 0.966942
vt 0.091308 0.966942
vt 0.091308 0.966942
vt 0.091308 0.966942
vt 0.091308 0.966942
vt 0.091308 0.966942
vt 0.091308 0.966942
vt 0.091308 0.966942
vt 0.091308 0.966942
vt 0.091308 0.966942
vt 0.091308 0.966942
vt 0.091308 0.966942
vt 0.091308 0.966942
vt 0.091308 0.966942
vt 0.091308 0.966942
vt 0.091308 0.966942
vt 0.091308 0.966942
vt 0.091308 0.966942
vt 0.091308 0.966942
vt 0.091308 0.966942
vt 0.091308 0.966942
vt 0.091308 0.966942
vt 0.034005 0.969232
vt 0.034005 0.969232
vt 0.034005 0.969232
vt 0.034005 0.969232
vt 0.034005 0.969232
vt 0.034005 0.969232
vt 0.034005 0.969232
vt 0.034005 0.969232
vt 0.034005 0.969232
vt 0.034005 0.969232
vt 0.034005 0.969232
vt 0.034005 0.969232
vt 0.034005 0.969232
vt 0.034005 0.969232
vt 0.034005 0.969232
vt 0.034005 0.969232
vt 0.034005 0.969232
vt 0.034005 0.969232
vt 0.034005 0.969232
vt 0.034005 0.969232
vt 0.034005 0.969232
vt 0.034005 0.969232
vt 0.034005 0.969232
vt 0.220701 0.909541
vt 0.220701 0.909541
vt 0.220701 0.909541
vt 0.220701 0.909541
vt 0.034005 0.969232
vt 0.034005 0.969232
vt 0.034005 0.969232
vt 0.034005 0.969232
vt 0.034005 0.969232
vt 0.034005 0.969232
vt 0.091308 0.966942
vt 0.091308 0.966942
vt 0.091308 0.966942
vt 0.091308 0.966942
vt 0.034005 0.969232
vt 0.034005 0.969232
vt 0.091308 0.966942
vt 0.091308 0.966942
vt 0.091308 0.966942
vt 0.091308 0.966942
vn 0.0000 0.0000 1.0000
vn -0.0000 -0.0000 -1.0000
vn -0.5000 0.8660 0.0000
vn -1.0000 -0.0000 0.0000
vn -0.5000 -0.8660 0.0000
vn 0.5000 -0.8660 -0.0000
vn 1.0000 0.0000 -0.0000
vn 0.5000 0.8660 -0.0000
vn 0.4201 0.7276 -0.5424
vn 0.8401 0.0000 -0.5424
vn 0.4201 -0.7276 -0.5424
vn -0.4201 -0.7276 -0.5424
vn -0.8401 -0.0000 -0.5424
vn -0.4201 0.7276 -0.5424
vn 0.4756 0.8237 0.3089
vn 0.9511 0.0000 0.3089
vn 0.4756 -0.8237 0.3089
vn -0.4756 -0.8237 0.3089
vn -0.9511 -0.0000 0.3089
vn -0.4756 0.8237 0.3089
vn -0.6542 0.7434 0.1389
vn -0.8975 -0.3638 -0.2495
vn -0.0000 0.9937 -0.1125
vn 0.7792 -0.6235 0.0636
vn 0.8975 -0.3638 -0.2495
vn 0.9051 -0.0941 -0.4147
vn 0.0000 0.1253 0.9921
vn -0.4219 0.9064 0.0209
vn -0.9051 -0.0941 -0.4147
vn -0.0000 0.8441 -0.5362
vn -0.0000 0.9913 -0.1313
vn -0.2082 0.9779 -0.0208
vn 0.0000 -0.2729 0.9620
vn 0.2082 0.9779 -0.0208
vn 0.0000 1.0000 -0.0000
vn -0.8973 0.0662 -0.4364
vn 0.0000 -0.1253 0.9921
vn 0.8973 0.0662 -0.4364
vn 0.4219 0.9064 0.0209
vn -0.7792 -0.6235 0.0636
vn 0.0000 0.4229 0.9062
vn 0.0000 0.9830 0.1836
vn 0.6542 0.7434 0.1389
vn 0.0000 0.8310 -0.5563
vn 0.0000 0.5741 0.8188
vn 0.0000 -1.0000 0.0000
vn -0.9430 0.0000 -0.3328
vn -0.5145 0.8575 0.0000
vn -0.5145 -0.8575 0.0000
usemtl None
s off
f 2/1/1 1/2/1 5/3/1 6/4/1
f 3/5/2 4/6/2 8/7/2 7/8/2
f 21/9/3 10/10/3 12/11/3 22/12/3
f 22/12/4 12/11/4 14/13/4 23/14/4
f 23/14/5 14/13/5 16/15/5 24/16/5
f 24/16/6 16/15/6 18/17/6 25/18/6
f 12/11/2 10/10/2 20/19/2 18/17/2 16/15/2 14/13/2
f 25/18/7 18/17/7 20/19/7 26/20/7
f 26/20/8 20/19/8 10/10/8 21/9/8
f 9/21/1 11/22/1 13/23/1 15/24/1 17/25/1 19/26/1
f 31/27/9 26/20/9 21/9/9 32/28/9
f 30/29/10 25/18/10 26/20/10 31/27/10
f 29/30/11 24/16/11 25/18/11 30/29/11
f 28/31/12 23/14/12 24/16/12 29/30/12
f 27/32/13 22/12/13 23/14/13 28/31/13
f 32/28/14 21/9/14 22/12/14 27/32/14
f 38/33/3 32/28/3 27/32/3 33/34/3
f 33/34/4 27/32/4 28/31/4 34/35/4
f 34/35/5 28/31/5 29/30/5 35/36/5
f 35/36/6 29/30/6 30/29/6 36/37/6
f 36/37/7 30/29/7 31/27/7 37/38/7
f 37/38/8 31/27/8 32/28/8 38/33/8
f 19/26/15 37/38/15 38/33/15 9/21/15
f 17/25/16 36/37/16 37/38/16 19/26/16
f 15/24/17 35/36/17 36/37/17 17/25/17
f 13/23/18 34/35/18 35/36/18 15/24/18
f 11/22/19 33/34/19 34/35/19 13/23/19
f 9/21/20 38/33/20 33/34/20 11/22/20
f 45/39/21 40/40/21 60/41/21 61/42/21
f 52/43/22 49/44/22 40/40/22 45/39/22
f 47/45/23 50/46/23 45/39/23 46/47/23
f 52/43/24 51/48/24 47/45/24 46/47/24
f 4/6/4 63/49/4 2/1/4 6/4/4 41/50/4 42/51/4 8/7/4
f 48/52/25 52/43/25 46/47/25 39/53/25
f 1/2/7 3/5/7 7/8/7 44/54/7 43/55/7 5/3/7
f 58/56/26 57/57/26 52/43/26 48/52/26
f 51/48/1 42/51/1 44/54/1
f 56/58/27 58/56/27 48/52/27 49/44/27
f 8/7/28 42/51/28 51/48/28 50/46/28
f 57/57/29 56/58/29 49/44/29 52/43/29
f 7/8/30 8/7/30 50/46/30 47/45/30
f 55/59/31 43/55/31 41/50/31
f 41/50/32 6/4/32 54/60/32 55/59/32
f 6/4/33 5/3/33 53/61/33 54/60/33
f 5/3/34 43/55/34 55/59/34 53/61/34
f 42/51/35 41/50/35 43/55/35 44/54/35
f 55/59/36 54/60/36 56/58/36 57/57/36
f 54/60/37 53/61/37 58/56/37 56/58/37
f 53/61/38 55/59/38 57/57/38 58/56/38
f 44/54/39 7/8/39 47/45/39 51/48/39
f 51/48/40 52/43/40 45/39/40 50/46/40
f 40/40/41 49/44/41 48/52/41 39/53/41
f 61/62/42 60/63/42 59/64/42 62/65/42
f 39/53/43 46/47/43 62/66/43 59/67/43
f 46/47/44 45/39/44 61/42/44 62/66/44
f 40/40/45 39/53/45 59/67/45 60/41/45
f 3/5/46 1/2/46 2/1/46 63/49/46 4/6/46
f 64/68/1 68/69/1 66/70/1 42/51/1
f 64/68/47 8/7/47 4/6/47 65/71/47
f 42/51/48 8/7/48 64/68/48
f 65/71/49 4/6/49 63/49/49
f 67/72/35 71/73/35 73/74/35 69/75/35
f 65/71/1 69/76/1 68/69/1 64/68/1
f 63/49/1 67/77/1 69/76/1 65/71/1
f 42/51/1 66/70/1 67/77/1 63/49/1
f 70/78/1 72/79/1 73/74/1 71/73/1
f 66/80/4 70/78/4 71/73/4 67/72/4
f 68/81/46 72/79/46 70/78/46 66/80/46
f 69/75/7 73/74/7 72/79/7 68/81/7
