# Blender v2.79 (sub 0) OBJ File: 'spear.blend'
# www.blender.org
mtllib spear.mtl
o Icosphere
v 0.000000 1.881522 0.000000
v 0.029130 1.936801 0.025894
v -0.011030 1.936801 0.041897
v -0.028848 1.936801 0.000000
v -0.011030 1.936801 -0.041897
v 0.029130 1.936801 -0.025894
v 0.006564 2.026244 0.026345
v -0.018689 2.026244 0.016282
v -0.018689 2.026244 -0.016282
v 0.006564 2.026244 -0.026345
v 0.018060 2.026244 -0.000000
v 0.000000 2.081522 0.000000
v 0.000000 0.000000 -0.030000
v -0.000000 1.916667 -0.016875
v 0.028532 0.000000 -0.009271
v 0.016049 1.916667 -0.005215
v 0.017634 0.000000 0.024271
v 0.009919 1.916667 0.013652
v -0.017634 0.000000 0.024271
v -0.009919 1.916667 0.013652
v -0.028532 0.000000 -0.009271
v -0.016049 1.916667 -0.005215
vt 0.100049 0.961958
vt 0.100049 0.961958
vt 0.100049 0.961958
vt 0.100049 0.961958
vt 0.100049 0.961958
vt 0.100049 0.961958
vt 0.100049 0.961958
vt 0.100049 0.961958
vt 0.100049 0.961958
vt 0.100049 0.961958
vt 0.100049 0.961958
vt 0.100049 0.961958
vt 0.031841 0.658120
vt 0.031841 0.658120
vt 0.031841 0.658120
vt 0.031841 0.658120
vt 0.031841 0.658120
vt 0.031841 0.658120
vt 0.031841 0.658120
vt 0.031841 0.658120
vt 0.031841 0.658120
vt 0.031841 0.658120
vn 0.3132 -0.5332 0.7859
vn 0.8847 -0.4662 0.0000
vn -0.8295 -0.4329 0.3528
vn -0.8295 -0.4329 -0.3528
vn 0.3132 -0.5332 -0.7859
vn 0.9924 0.1228 0.0000
vn 0.3687 0.0884 0.9253
vn -0.9197 0.0333 0.3911
vn -0.9197 0.0333 -0.3911
vn 0.3687 0.0884 -0.9253
vn 0.8934 0.2234 0.3899
vn -0.3604 0.2282 0.9045
vn -0.9936 0.1129 0.0000
vn -0.3604 0.2282 -0.9045
vn 0.8934 0.2234 -0.3899
vn 0.8780 0.2869 0.3832
vn -0.3439 0.3704 0.8629
vn -0.9473 0.3203 0.0000
vn -0.3439 0.3704 -0.8629
vn 0.8780 0.2869 -0.3832
vn -0.5878 0.0055 -0.8090
vn 0.0000 1.0000 -0.0000
vn 0.0000 -1.0000 0.0000
vn -0.9510 0.0055 0.3090
vn 0.0000 0.0055 1.0000
vn 0.9510 0.0055 0.3090
vn 0.5878 0.0055 -0.8090
usemtl None
s off
f 1/1/1 2/2/1 3/3/1
f 2/2/2 1/1/2 6/4/2
f 1/1/3 3/3/3 4/5/3
f 1/1/4 4/5/4 5/6/4
f 1/1/5 5/6/5 6/4/5
f 2/2/6 6/4/6 11/7/6
f 3/3/7 2/2/7 7/8/7
f 4/5/8 3/3/8 8/9/8
f 5/6/9 4/5/9 9/10/9
f 6/4/10 5/6/10 10/11/10
f 2/2/11 11/7/11 7/8/11
f 3/3/12 7/8/12 8/9/12
f 4/5/13 8/9/13 9/10/13
f 5/6/14 9/10/14 10/11/14
f 6/4/15 10/11/15 11/7/15
f 7/8/16 11/7/16 12/12/16
f 8/9/17 7/8/17 12/12/17
f 9/10/18 8/9/18 12/12/18
f 10/11/19 9/10/19 12/12/19
f 11/7/20 10/11/20 12/12/20
f 21/13/21 22/14/21 14/15/21 13/16/21
f 16/17/22 14/15/22 22/14/22 20/18/22 18/19/22
f 13/16/23 15/20/23 17/21/23 19/22/23 21/13/23
f 19/22/24 20/18/24 22/14/24 21/13/24
f 17/21/25 18/19/25 20/18/25 19/22/25
f 15/20/26 16/17/26 18/19/26 17/21/26
f 13/16/27 14/15/27 16/17/27 15/20/27
